<?xml version="1.0" encoding="utf-8" standalone="no"?>
<!DOCTYPE svg PUBLIC "-//W3C//DTD SVG 1.1//EN"
  "http://www.w3.org/Graphics/SVG/1.1/DTD/svg11.dtd">
<svg xmlns:xlink="http://www.w3.org/1999/xlink" width="216pt" height="162pt" viewBox="0 0 216 162" xmlns="http://www.w3.org/2000/svg" version="1.1">
 <metadata>
  <rdf:RDF xmlns:dc="http://purl.org/dc/elements/1.1/" xmlns:cc="http://creativecommons.org/ns#" xmlns:rdf="http://www.w3.org/1999/02/22-rdf-syntax-ns#">
   <cc:Work>
    <dc:type rdf:resource="http://purl.org/dc/dcmitype/StillImage"/>
    <dc:date>2022-10-17T14:58:19.935782</dc:date>
    <dc:format>image/svg+xml</dc:format>
    <dc:creator>
     <cc:Agent>
      <dc:title>Matplotlib v3.5.2, https://matplotlib.org/</dc:title>
     </cc:Agent>
    </dc:creator>
   </cc:Work>
  </rdf:RDF>
 </metadata>
 <defs>
  <style type="text/css">*{stroke-linejoin: round; stroke-linecap: butt}</style>
 </defs>
 <g id="figure_1">
  <g id="patch_1">
   <path d="M 0 162 
L 216 162 
L 216 0 
L 0 0 
z
" style="fill: #ffffff"/>
  </g>
  <g id="axes_1">
   <g id="patch_2">
    <path d="M 42.69125 124.7425 
L 216 124.7425 
L 216 3.740625 
L 42.69125 3.740625 
z
" style="fill: #ffffff"/>
   </g>
   <g id="matplotlib.axis_1">
    <g id="xtick_1">
     <g id="line2d_1">
      <defs>
       <path id="mf3612e01f9" d="M 0 0 
L 0 3.5 
" style="stroke: #000000; stroke-width: 0.8"/>
      </defs>
      <g>
       <use xlink:href="#mf3612e01f9" x="42.69125" y="124.7425" style="stroke: #000000; stroke-width: 0.8"/>
      </g>
     </g>
     <g id="text_1">
      <!-- $\mathdefault{10^{4}}$ -->
      <g transform="translate(34.88125 139.255156)scale(0.11 -0.11)">
       <defs>
        <path id="STIXGeneral-Regular-31" d="M 2522 0 
L 755 0 
L 755 96 
Q 1107 115 1235 227 
Q 1363 339 1363 608 
L 1363 3482 
Q 1363 3795 1171 3795 
Q 1082 3795 883 3718 
L 710 3654 
L 710 3744 
L 1856 4326 
L 1914 4307 
L 1914 486 
Q 1914 275 2042 185 
Q 2170 96 2522 96 
L 2522 0 
z
" transform="scale(0.015625)"/>
        <path id="STIXGeneral-Regular-30" d="M 3046 2112 
Q 3046 1683 2963 1302 
Q 2880 922 2717 602 
Q 2554 282 2266 96 
Q 1978 -90 1600 -90 
Q 1210 -90 915 108 
Q 621 307 461 640 
Q 301 973 227 1350 
Q 154 1728 154 2150 
Q 154 2746 301 3222 
Q 448 3699 790 4012 
Q 1133 4326 1626 4326 
Q 2253 4326 2649 3712 
Q 3046 3098 3046 2112 
z
M 2432 2080 
Q 2432 3091 2217 3625 
Q 2003 4160 1587 4160 
Q 1190 4160 979 3622 
Q 768 3085 768 2106 
Q 768 1120 979 598 
Q 1190 77 1600 77 
Q 2003 77 2217 598 
Q 2432 1120 2432 2080 
z
" transform="scale(0.015625)"/>
        <path id="STIXGeneral-Regular-34" d="M 3027 1069 
L 2368 1069 
L 2368 0 
L 1869 0 
L 1869 1069 
L 77 1069 
L 77 1478 
L 2086 4326 
L 2368 4326 
L 2368 1478 
L 3027 1478 
L 3027 1069 
z
M 1869 1478 
L 1869 3674 
L 333 1478 
L 1869 1478 
z
" transform="scale(0.015625)"/>
       </defs>
       <use xlink:href="#STIXGeneral-Regular-31" transform="translate(0 0.684375)"/>
       <use xlink:href="#STIXGeneral-Regular-30" transform="translate(49.999985 0.684375)"/>
       <use xlink:href="#STIXGeneral-Regular-34" transform="translate(101.574969 36.684375)scale(0.7)"/>
      </g>
     </g>
    </g>
    <g id="xtick_2">
     <g id="line2d_2">
      <g>
       <use xlink:href="#mf3612e01f9" x="81.204306" y="124.7425" style="stroke: #000000; stroke-width: 0.8"/>
      </g>
     </g>
     <g id="text_2">
      <!-- $\mathdefault{10^{6}}$ -->
      <g transform="translate(73.394306 139.255156)scale(0.11 -0.11)">
       <defs>
        <path id="STIXGeneral-Regular-36" d="M 2854 4378 
L 2867 4275 
Q 2112 4154 1606 3664 
Q 1101 3174 973 2451 
Q 1344 2739 1786 2739 
Q 2349 2739 2672 2380 
Q 2995 2022 2995 1402 
Q 2995 774 2669 378 
Q 2291 -90 1651 -90 
Q 870 -90 518 557 
Q 218 1107 218 1786 
Q 218 2835 915 3552 
Q 1312 3962 1731 4131 
Q 2150 4301 2854 4378 
z
M 2419 1203 
Q 2419 2445 1555 2445 
Q 1235 2445 1024 2275 
Q 813 2106 813 1702 
Q 813 954 1046 522 
Q 1280 90 1722 90 
Q 2061 90 2240 394 
Q 2419 698 2419 1203 
z
" transform="scale(0.015625)"/>
       </defs>
       <use xlink:href="#STIXGeneral-Regular-31" transform="translate(0 0.115625)"/>
       <use xlink:href="#STIXGeneral-Regular-30" transform="translate(49.999985 0.115625)"/>
       <use xlink:href="#STIXGeneral-Regular-36" transform="translate(101.574969 36.115625)scale(0.7)"/>
      </g>
     </g>
    </g>
    <g id="xtick_3">
     <g id="line2d_3">
      <g>
       <use xlink:href="#mf3612e01f9" x="119.717361" y="124.7425" style="stroke: #000000; stroke-width: 0.8"/>
      </g>
     </g>
     <g id="text_3">
      <!-- $\mathdefault{10^{8}}$ -->
      <g transform="translate(111.907361 139.255156)scale(0.11 -0.11)">
       <defs>
        <path id="STIXGeneral-Regular-38" d="M 2848 992 
Q 2848 499 2505 204 
Q 2163 -90 1587 -90 
Q 1050 -90 704 204 
Q 358 499 358 954 
Q 358 1293 524 1533 
Q 691 1773 1190 2125 
Q 710 2522 553 2765 
Q 397 3008 397 3328 
Q 397 3782 745 4054 
Q 1094 4326 1638 4326 
Q 2106 4326 2410 4060 
Q 2714 3795 2714 3411 
Q 2714 3059 2531 2848 
Q 2349 2637 1856 2374 
Q 2432 1990 2640 1689 
Q 2848 1389 2848 992 
z
M 2272 3411 
Q 2272 3744 2086 3945 
Q 1901 4147 1574 4147 
Q 1248 4147 1059 3977 
Q 870 3808 870 3513 
Q 870 3219 1059 2979 
Q 1248 2739 1670 2490 
Q 1997 2682 2134 2896 
Q 2272 3110 2272 3411 
z
M 1734 1741 
L 1357 1997 
Q 1075 1766 960 1545 
Q 845 1325 845 1011 
Q 845 576 1065 333 
Q 1286 90 1658 90 
Q 1971 90 2166 285 
Q 2362 480 2362 794 
Q 2362 1082 2214 1299 
Q 2067 1517 1734 1741 
z
" transform="scale(0.015625)"/>
       </defs>
       <use xlink:href="#STIXGeneral-Regular-31" transform="translate(0 0.684375)"/>
       <use xlink:href="#STIXGeneral-Regular-30" transform="translate(49.999985 0.684375)"/>
       <use xlink:href="#STIXGeneral-Regular-38" transform="translate(101.574969 36.684375)scale(0.7)"/>
      </g>
     </g>
    </g>
    <g id="xtick_4">
     <g id="line2d_4">
      <g>
       <use xlink:href="#mf3612e01f9" x="158.230417" y="124.7425" style="stroke: #000000; stroke-width: 0.8"/>
      </g>
     </g>
     <g id="text_4">
      <!-- $\mathdefault{10^{10}}$ -->
      <g transform="translate(148.495417 139.255156)scale(0.11 -0.11)">
       <use xlink:href="#STIXGeneral-Regular-31" transform="translate(0 0.684375)"/>
       <use xlink:href="#STIXGeneral-Regular-30" transform="translate(49.999985 0.684375)"/>
       <use xlink:href="#STIXGeneral-Regular-31" transform="translate(101.574969 36.684375)scale(0.7)"/>
       <use xlink:href="#STIXGeneral-Regular-30" transform="translate(136.574959 36.684375)scale(0.7)"/>
      </g>
     </g>
    </g>
    <g id="xtick_5">
     <g id="line2d_5">
      <g>
       <use xlink:href="#mf3612e01f9" x="196.743472" y="124.7425" style="stroke: #000000; stroke-width: 0.8"/>
      </g>
     </g>
     <g id="text_5">
      <!-- $\mathdefault{10^{12}}$ -->
      <g transform="translate(187.008472 139.255156)scale(0.11 -0.11)">
       <defs>
        <path id="STIXGeneral-Regular-32" d="M 3034 877 
L 2688 0 
L 186 0 
L 186 77 
L 1325 1286 
Q 1773 1754 1965 2144 
Q 2157 2534 2157 2950 
Q 2157 3379 1920 3616 
Q 1683 3853 1267 3853 
Q 922 3853 720 3673 
Q 518 3494 326 3021 
L 192 3053 
Q 301 3648 630 3987 
Q 960 4326 1523 4326 
Q 2054 4326 2380 4006 
Q 2707 3686 2707 3200 
Q 2707 2477 1888 1613 
L 832 486 
L 2330 486 
Q 2541 486 2665 569 
Q 2790 653 2944 915 
L 3034 877 
z
" transform="scale(0.015625)"/>
       </defs>
       <use xlink:href="#STIXGeneral-Regular-31" transform="translate(0 0.684375)"/>
       <use xlink:href="#STIXGeneral-Regular-30" transform="translate(49.999985 0.684375)"/>
       <use xlink:href="#STIXGeneral-Regular-31" transform="translate(101.574969 36.684375)scale(0.7)"/>
       <use xlink:href="#STIXGeneral-Regular-32" transform="translate(136.574959 36.684375)scale(0.7)"/>
      </g>
     </g>
    </g>
    <g id="text_6">
     <!-- $k_1\ \mathrm{(N/m^2)}$ -->
     <g transform="translate(107.675625 154.475156)scale(0.11 -0.11)">
      <defs>
       <path id="STIXGeneral-Italic-6b" d="M 2950 2739 
L 2950 2637 
Q 2720 2624 2464 2448 
Q 2208 2272 1510 1651 
L 1747 1088 
Q 2099 262 2266 262 
Q 2400 262 2554 531 
Q 2586 582 2650 698 
L 2746 627 
Q 2522 224 2374 77 
Q 2227 -70 2035 -70 
Q 1894 -70 1782 42 
Q 1670 154 1517 454 
Q 1325 826 1133 1357 
L 877 1152 
L 570 0 
L 90 0 
L 992 3379 
Q 1082 3699 1107 3942 
Q 1088 4096 781 4096 
L 666 4096 
L 666 4198 
Q 1146 4256 1670 4371 
L 1709 4333 
L 941 1414 
L 1216 1626 
Q 2131 2330 2131 2522 
Q 2131 2637 1894 2637 
L 1805 2637 
L 1805 2739 
L 2950 2739 
z
" transform="scale(0.015625)"/>
       <path id="STIXGeneral-Regular-28" d="M 1946 -1030 
L 1869 -1133 
Q 1126 -710 716 32 
Q 307 774 307 1613 
Q 307 3386 1888 4326 
L 1946 4224 
Q 1293 3667 1075 3126 
Q 858 2586 858 1632 
Q 858 685 1082 96 
Q 1306 -493 1946 -1030 
z
" transform="scale(0.015625)"/>
       <path id="STIXGeneral-Regular-4e" d="M 4525 4237 
L 4525 4115 
Q 4198 4083 4102 4000 
Q 4000 3910 3958 3756 
Q 3917 3603 3917 3245 
L 3917 -70 
L 3802 -70 
L 979 3443 
L 979 960 
Q 979 474 1088 323 
Q 1197 173 1574 122 
L 1574 0 
L 77 0 
L 77 122 
Q 474 166 586 310 
Q 698 454 698 960 
L 698 3776 
Q 531 3981 416 4048 
Q 301 4115 77 4115 
L 77 4237 
L 1165 4237 
L 3635 1146 
L 3635 3322 
Q 3635 3808 3514 3949 
Q 3437 4032 3344 4061 
Q 3251 4090 3008 4115 
L 3008 4237 
L 4525 4237 
z
" transform="scale(0.015625)"/>
       <path id="STIXGeneral-Regular-2f" d="M 1837 4326 
L 378 -90 
L -58 -90 
L 1408 4326 
L 1837 4326 
z
" transform="scale(0.015625)"/>
       <path id="STIXGeneral-Regular-6d" d="M 4960 0 
L 3565 0 
L 3565 96 
Q 3834 122 3907 208 
Q 3981 294 3981 576 
L 3981 1894 
Q 3981 2278 3869 2444 
Q 3757 2611 3488 2611 
Q 3264 2611 3107 2521 
Q 2950 2432 2803 2221 
L 2803 608 
Q 2803 301 2896 201 
Q 2989 102 3264 96 
L 3264 0 
L 1830 0 
L 1830 96 
Q 2112 115 2189 188 
Q 2266 262 2266 550 
L 2266 1901 
Q 2266 2611 1850 2611 
Q 1670 2611 1468 2531 
Q 1267 2451 1171 2336 
Q 1088 2240 1088 2227 
L 1088 448 
Q 1088 243 1177 176 
Q 1267 109 1523 96 
L 1523 0 
L 102 0 
L 102 96 
Q 371 102 460 195 
Q 550 288 550 563 
L 550 2150 
Q 550 2387 499 2480 
Q 448 2573 326 2573 
Q 230 2573 122 2547 
L 122 2656 
Q 557 2778 1011 2944 
L 1062 2925 
L 1062 2451 
L 1075 2451 
Q 1363 2752 1584 2848 
Q 1805 2944 2054 2944 
Q 2560 2944 2733 2406 
Q 3232 2944 3776 2944 
Q 4518 2944 4518 1792 
L 4518 493 
Q 4518 282 4582 202 
Q 4646 122 4794 109 
L 4960 96 
L 4960 0 
z
" transform="scale(0.015625)"/>
       <path id="STIXGeneral-Regular-29" d="M 186 4224 
L 262 4326 
Q 992 3891 1408 3148 
Q 1824 2406 1824 1581 
Q 1824 -166 243 -1133 
L 186 -1030 
Q 845 -486 1059 54 
Q 1274 595 1274 1562 
Q 1274 2534 1059 3120 
Q 845 3706 186 4224 
z
" transform="scale(0.015625)"/>
      </defs>
      <use xlink:href="#STIXGeneral-Italic-6b" transform="translate(0 0.684375)"/>
      <use xlink:href="#STIXGeneral-Regular-31" transform="translate(44.399994 -12.54375)scale(0.7)"/>
      <use xlink:href="#STIXGeneral-Regular-28" transform="translate(107.875778 0.684375)"/>
      <use xlink:href="#STIXGeneral-Regular-4e" transform="translate(141.175766 0.684375)"/>
      <use xlink:href="#STIXGeneral-Regular-2f" transform="translate(213.375748 0.684375)"/>
      <use xlink:href="#STIXGeneral-Regular-6d" transform="translate(241.175735 0.684375)"/>
      <use xlink:href="#STIXGeneral-Regular-32" transform="translate(320.550723 36.684375)scale(0.7)"/>
      <use xlink:href="#STIXGeneral-Regular-29" transform="translate(360.050712 0.684375)"/>
     </g>
    </g>
   </g>
   <g id="matplotlib.axis_2">
    <g id="ytick_1">
     <g id="line2d_6">
      <defs>
       <path id="m8e3710e2cc" d="M 0 0 
L -3.5 0 
" style="stroke: #000000; stroke-width: 0.8"/>
      </defs>
      <g>
       <use xlink:href="#m8e3710e2cc" x="42.69125" y="124.7425" style="stroke: #000000; stroke-width: 0.8"/>
      </g>
     </g>
     <g id="text_7">
      <!-- 0 -->
      <g transform="translate(30.19125 128.498828)scale(0.11 -0.11)">
       <use xlink:href="#STIXGeneral-Regular-30"/>
      </g>
     </g>
    </g>
    <g id="ytick_2">
     <g id="line2d_7">
      <g>
       <use xlink:href="#m8e3710e2cc" x="42.69125" y="84.408542" style="stroke: #000000; stroke-width: 0.8"/>
      </g>
     </g>
     <g id="text_8">
      <!-- 1000 -->
      <g transform="translate(13.69125 88.16487)scale(0.11 -0.11)">
       <use xlink:href="#STIXGeneral-Regular-31"/>
       <use xlink:href="#STIXGeneral-Regular-30" x="49.999985"/>
       <use xlink:href="#STIXGeneral-Regular-30" x="99.999969"/>
       <use xlink:href="#STIXGeneral-Regular-30" x="149.999954"/>
      </g>
     </g>
    </g>
    <g id="ytick_3">
     <g id="line2d_8">
      <g>
       <use xlink:href="#m8e3710e2cc" x="42.69125" y="44.074583" style="stroke: #000000; stroke-width: 0.8"/>
      </g>
     </g>
     <g id="text_9">
      <!-- 2000 -->
      <g transform="translate(13.69125 47.830911)scale(0.11 -0.11)">
       <use xlink:href="#STIXGeneral-Regular-32"/>
       <use xlink:href="#STIXGeneral-Regular-30" x="49.999985"/>
       <use xlink:href="#STIXGeneral-Regular-30" x="99.999969"/>
       <use xlink:href="#STIXGeneral-Regular-30" x="149.999954"/>
      </g>
     </g>
    </g>
    <g id="ytick_4">
     <g id="line2d_9">
      <g>
       <use xlink:href="#m8e3710e2cc" x="42.69125" y="3.740625" style="stroke: #000000; stroke-width: 0.8"/>
      </g>
     </g>
     <g id="text_10">
      <!-- 3000 -->
      <g transform="translate(13.69125 7.496953)scale(0.11 -0.11)">
       <defs>
        <path id="STIXGeneral-Regular-33" d="M 390 3264 
L 288 3290 
Q 435 3770 748 4048 
Q 1062 4326 1542 4326 
Q 1990 4326 2265 4083 
Q 2541 3840 2541 3450 
Q 2541 2925 1946 2566 
Q 2298 2413 2477 2227 
Q 2758 1914 2758 1402 
Q 2758 890 2464 506 
Q 2246 211 1840 60 
Q 1434 -90 979 -90 
Q 262 -90 262 275 
Q 262 378 339 442 
Q 416 506 525 506 
Q 685 506 915 339 
Q 1197 141 1466 141 
Q 1818 141 2058 425 
Q 2298 710 2298 1120 
Q 2298 1856 1632 2048 
Q 1434 2112 979 2112 
L 979 2202 
Q 1338 2323 1517 2432 
Q 2035 2726 2035 3290 
Q 2035 3610 1852 3776 
Q 1670 3942 1344 3942 
Q 768 3942 390 3264 
z
" transform="scale(0.015625)"/>
       </defs>
       <use xlink:href="#STIXGeneral-Regular-33"/>
       <use xlink:href="#STIXGeneral-Regular-30" x="49.999985"/>
       <use xlink:href="#STIXGeneral-Regular-30" x="99.999969"/>
       <use xlink:href="#STIXGeneral-Regular-30" x="149.999954"/>
      </g>
     </g>
    </g>
    <g id="text_11">
     <!-- Frequency (Hz) -->
     <g transform="translate(7.293594 98.90875)rotate(-90)scale(0.11 -0.11)">
      <defs>
       <path id="STIXGeneral-Regular-46" d="M 3494 3322 
L 3334 3322 
Q 3264 3757 3094 3875 
Q 2925 3994 2349 3994 
L 1504 3994 
Q 1370 3994 1328 3946 
Q 1286 3898 1286 3744 
L 1286 2355 
L 2195 2355 
Q 2598 2355 2736 2470 
Q 2874 2586 2918 2963 
L 3066 2963 
L 3066 1472 
L 2918 1472 
Q 2880 1862 2745 1977 
Q 2611 2093 2195 2093 
L 1286 2093 
L 1286 717 
Q 1286 352 1392 246 
Q 1498 141 1869 122 
L 1869 0 
L 70 0 
L 70 122 
Q 435 147 534 259 
Q 634 371 634 787 
L 634 3526 
Q 634 3878 538 3984 
Q 442 4090 77 4115 
L 77 4237 
L 3462 4237 
L 3494 3322 
z
" transform="scale(0.015625)"/>
       <path id="STIXGeneral-Regular-72" d="M 1024 2931 
L 1024 2342 
Q 1267 2688 1430 2816 
Q 1594 2944 1792 2944 
Q 1958 2944 2051 2854 
Q 2144 2765 2144 2605 
Q 2144 2470 2077 2393 
Q 2010 2317 1894 2317 
Q 1773 2317 1638 2445 
Q 1536 2541 1472 2541 
Q 1338 2541 1181 2355 
Q 1024 2170 1024 2016 
L 1024 576 
Q 1024 301 1133 205 
Q 1242 109 1568 96 
L 1568 0 
L 32 0 
L 32 96 
Q 339 154 412 224 
Q 486 294 486 538 
L 486 2138 
Q 486 2349 438 2435 
Q 390 2522 269 2522 
Q 166 2522 45 2496 
L 45 2598 
Q 448 2726 992 2944 
L 1024 2931 
z
" transform="scale(0.015625)"/>
       <path id="STIXGeneral-Regular-65" d="M 2611 1050 
L 2714 1005 
Q 2330 -64 1376 -64 
Q 813 -64 486 329 
Q 160 723 160 1389 
Q 160 2074 525 2509 
Q 890 2944 1485 2944 
Q 2061 2944 2374 2502 
Q 2560 2246 2592 1773 
L 621 1773 
Q 646 1370 700 1158 
Q 755 947 915 730 
Q 1184 378 1626 378 
Q 1939 378 2153 531 
Q 2368 685 2611 1050 
z
M 634 1978 
L 1939 1978 
Q 1882 2381 1750 2547 
Q 1619 2714 1312 2714 
Q 1043 2714 864 2525 
Q 685 2336 634 1978 
z
" transform="scale(0.015625)"/>
       <path id="STIXGeneral-Regular-71" d="M 3123 -1389 
L 1613 -1389 
L 1613 -1280 
Q 1952 -1254 2067 -1158 
Q 2182 -1062 2182 -794 
L 2182 410 
Q 1747 -64 1178 -64 
Q 730 -64 442 320 
Q 154 704 154 1312 
Q 154 2003 560 2473 
Q 966 2944 1562 2944 
Q 1920 2944 2304 2720 
L 2650 2925 
L 2720 2925 
L 2720 -902 
Q 2720 -1107 2797 -1180 
Q 2874 -1254 3123 -1280 
L 3123 -1389 
z
M 2182 813 
L 2182 2131 
Q 2182 2758 1587 2758 
Q 1178 2758 941 2432 
Q 704 2106 704 1542 
Q 704 1210 803 925 
Q 902 640 1062 499 
Q 1254 326 1542 326 
Q 1882 326 2106 531 
Q 2182 602 2182 813 
z
" transform="scale(0.015625)"/>
       <path id="STIXGeneral-Regular-75" d="M 3072 320 
L 3072 230 
Q 2573 96 2195 -58 
L 2163 -38 
L 2163 486 
L 2150 486 
Q 1747 -64 1235 -64 
Q 870 -64 662 160 
Q 454 384 454 755 
L 454 2362 
Q 454 2598 371 2688 
Q 288 2778 58 2790 
L 58 2880 
L 992 2880 
L 992 813 
Q 992 595 1123 451 
Q 1254 307 1446 307 
Q 1760 307 1984 506 
Q 2067 582 2099 649 
Q 2131 717 2131 877 
L 2131 2355 
Q 2131 2605 2041 2678 
Q 1952 2752 1658 2771 
L 1658 2880 
L 2669 2880 
L 2669 685 
Q 2669 461 2742 390 
Q 2816 320 3034 320 
L 3072 320 
z
" transform="scale(0.015625)"/>
       <path id="STIXGeneral-Regular-6e" d="M 3104 0 
L 1773 0 
L 1779 96 
Q 2016 115 2096 233 
Q 2176 352 2176 672 
L 2176 1946 
Q 2176 2592 1709 2592 
Q 1549 2592 1408 2515 
Q 1267 2438 1050 2227 
L 1050 461 
Q 1050 269 1136 192 
Q 1222 115 1466 96 
L 1466 0 
L 115 0 
L 115 96 
Q 358 115 435 214 
Q 512 314 512 602 
L 512 2157 
Q 512 2394 467 2483 
Q 422 2573 288 2573 
Q 160 2573 102 2547 
L 102 2656 
Q 550 2784 979 2944 
L 1030 2925 
L 1030 2426 
L 1037 2426 
Q 1491 2944 1958 2944 
Q 2323 2944 2518 2688 
Q 2714 2432 2714 1958 
L 2714 544 
Q 2714 288 2790 205 
Q 2867 122 3104 96 
L 3104 0 
z
" transform="scale(0.015625)"/>
       <path id="STIXGeneral-Regular-63" d="M 2547 998 
L 2637 941 
Q 2362 403 2112 205 
Q 1786 -64 1376 -64 
Q 845 -64 502 336 
Q 160 736 160 1357 
Q 160 2170 698 2618 
Q 1094 2944 1562 2944 
Q 1965 2944 2256 2749 
Q 2547 2554 2547 2285 
Q 2547 2176 2457 2096 
Q 2368 2016 2246 2016 
Q 2022 2016 1939 2310 
L 1901 2451 
Q 1850 2630 1773 2694 
Q 1696 2758 1523 2758 
Q 1133 2758 893 2451 
Q 653 2144 653 1645 
Q 653 1094 928 745 
Q 1203 397 1645 397 
Q 1920 397 2118 528 
Q 2317 659 2547 998 
z
" transform="scale(0.015625)"/>
       <path id="STIXGeneral-Regular-79" d="M 3040 2880 
L 3040 2784 
Q 2925 2771 2854 2700 
Q 2784 2630 2720 2458 
L 1760 -160 
Q 1510 -838 1257 -1116 
Q 1005 -1395 640 -1395 
Q 435 -1395 313 -1289 
Q 192 -1184 192 -1024 
Q 192 -902 272 -816 
Q 352 -730 467 -730 
Q 653 -730 800 -813 
Q 883 -858 966 -858 
Q 1101 -858 1286 -576 
Q 1376 -448 1459 -211 
Q 1542 26 1542 115 
Q 1542 198 1274 762 
L 429 2566 
Q 346 2752 90 2790 
L 90 2880 
L 1402 2880 
L 1402 2784 
Q 1197 2778 1117 2739 
Q 1037 2701 1037 2611 
Q 1037 2541 1120 2349 
L 1837 749 
L 2458 2515 
Q 2483 2573 2483 2630 
Q 2483 2784 2189 2784 
L 2189 2880 
L 3040 2880 
z
" transform="scale(0.015625)"/>
       <path id="STIXGeneral-Regular-20" transform="scale(0.015625)"/>
       <path id="STIXGeneral-Regular-48" d="M 4499 0 
L 2714 0 
L 2714 122 
Q 3085 147 3181 265 
Q 3277 384 3277 794 
L 3277 2016 
L 1338 2016 
L 1338 723 
Q 1338 371 1440 256 
Q 1542 141 1894 122 
L 1901 0 
L 115 0 
L 115 122 
Q 493 147 589 259 
Q 685 371 685 781 
L 685 3507 
Q 685 3878 585 3980 
Q 486 4083 115 4115 
L 115 4237 
L 1907 4237 
L 1907 4115 
Q 1549 4083 1443 3977 
Q 1338 3872 1338 3507 
L 1338 2298 
L 3277 2298 
L 3277 3507 
Q 3277 3878 3177 3980 
Q 3078 4083 2707 4115 
L 2707 4237 
L 4499 4237 
L 4499 4115 
Q 4141 4083 4035 3977 
Q 3930 3872 3930 3507 
L 3930 710 
Q 3930 371 4035 259 
Q 4141 147 4499 122 
L 4499 0 
z
" transform="scale(0.015625)"/>
       <path id="STIXGeneral-Regular-7a" d="M 2675 870 
L 2579 0 
L 173 0 
L 173 96 
L 1875 2688 
L 1011 2688 
Q 710 2688 604 2582 
Q 499 2477 454 2125 
L 339 2125 
L 365 2880 
L 2579 2880 
L 2579 2784 
L 858 192 
L 1709 192 
Q 2246 192 2387 365 
Q 2477 474 2560 896 
L 2675 870 
z
" transform="scale(0.015625)"/>
      </defs>
      <use xlink:href="#STIXGeneral-Regular-46"/>
      <use xlink:href="#STIXGeneral-Regular-72" x="55.599991"/>
      <use xlink:href="#STIXGeneral-Regular-65" x="88.899979"/>
      <use xlink:href="#STIXGeneral-Regular-71" x="133.299973"/>
      <use xlink:href="#STIXGeneral-Regular-75" x="183.299957"/>
      <use xlink:href="#STIXGeneral-Regular-65" x="233.299942"/>
      <use xlink:href="#STIXGeneral-Regular-6e" x="277.699936"/>
      <use xlink:href="#STIXGeneral-Regular-63" x="327.699921"/>
      <use xlink:href="#STIXGeneral-Regular-79" x="372.099915"/>
      <use xlink:href="#STIXGeneral-Regular-20" x="422.099899"/>
      <use xlink:href="#STIXGeneral-Regular-28" x="447.099884"/>
      <use xlink:href="#STIXGeneral-Regular-48" x="480.399872"/>
      <use xlink:href="#STIXGeneral-Regular-7a" x="552.599854"/>
      <use xlink:href="#STIXGeneral-Regular-29" x="596.999847"/>
     </g>
    </g>
   </g>
   <g id="line2d_10">
    <path d="M 42.69125 94.800523 
L 46.157425 94.800523 
L 49.6236 94.800523 
L 53.089775 94.800523 
L 56.55595 94.800523 
L 60.022125 94.800523 
L 63.4883 94.800523 
L 66.954475 94.800523 
L 70.42065 94.800523 
L 73.886825 94.800523 
L 77.353 94.800523 
L 80.819175 94.800523 
L 84.28535 94.800523 
L 87.751525 94.800523 
L 91.2177 94.800523 
L 94.683875 94.800523 
L 98.15005 94.800523 
L 101.616225 94.800523 
L 105.0824 94.800523 
L 108.548575 94.800523 
L 112.01475 94.800523 
L 115.480925 94.800523 
L 118.9471 94.800523 
L 122.413275 94.800523 
L 125.87945 94.800523 
L 129.345625 94.800523 
L 132.8118 94.800523 
L 136.277975 94.800523 
L 139.74415 94.800523 
L 143.210325 94.800523 
L 146.6765 94.800523 
L 150.142675 94.800523 
L 153.60885 94.800523 
L 157.075025 94.800523 
L 160.5412 94.800523 
L 164.007375 94.800523 
L 167.47355 94.800523 
L 170.939725 94.800523 
L 174.4059 94.800523 
L 177.872075 94.800523 
L 181.33825 94.800523 
L 184.804425 94.800523 
L 188.2706 94.800523 
L 191.736775 94.800523 
L 195.20295 94.800523 
L 198.669125 94.800523 
L 202.1353 94.800523 
L 205.601475 94.800523 
L 209.06765 94.800523 
L 212.533825 94.800523 
L 216 94.800523 
" clip-path="url(#p8ae56d0e01)" style="fill: none; stroke: #000000; stroke-width: 1.5; stroke-linecap: square"/>
    <defs>
     <path id="m50d6c10aca" d="M 0 3 
C 0.795609 3 1.55874 2.683901 2.12132 2.12132 
C 2.683901 1.55874 3 0.795609 3 0 
C 3 -0.795609 2.683901 -1.55874 2.12132 -2.12132 
C 1.55874 -2.683901 0.795609 -3 0 -3 
C -0.795609 -3 -1.55874 -2.683901 -2.12132 -2.12132 
C -2.683901 -1.55874 -3 -0.795609 -3 0 
C -3 0.795609 -2.683901 1.55874 -2.12132 2.12132 
C -1.55874 2.683901 -0.795609 3 0 3 
z
" style="stroke: #000000"/>
    </defs>
    <g clip-path="url(#p8ae56d0e01)">
     <use xlink:href="#m50d6c10aca" x="42.69125" y="94.800523" style="fill-opacity: 0; stroke: #000000"/>
     <use xlink:href="#m50d6c10aca" x="60.022125" y="94.800523" style="fill-opacity: 0; stroke: #000000"/>
     <use xlink:href="#m50d6c10aca" x="77.353" y="94.800523" style="fill-opacity: 0; stroke: #000000"/>
     <use xlink:href="#m50d6c10aca" x="94.683875" y="94.800523" style="fill-opacity: 0; stroke: #000000"/>
     <use xlink:href="#m50d6c10aca" x="112.01475" y="94.800523" style="fill-opacity: 0; stroke: #000000"/>
     <use xlink:href="#m50d6c10aca" x="129.345625" y="94.800523" style="fill-opacity: 0; stroke: #000000"/>
     <use xlink:href="#m50d6c10aca" x="146.6765" y="94.800523" style="fill-opacity: 0; stroke: #000000"/>
     <use xlink:href="#m50d6c10aca" x="164.007375" y="94.800523" style="fill-opacity: 0; stroke: #000000"/>
     <use xlink:href="#m50d6c10aca" x="181.33825" y="94.800523" style="fill-opacity: 0; stroke: #000000"/>
     <use xlink:href="#m50d6c10aca" x="198.669125" y="94.800523" style="fill-opacity: 0; stroke: #000000"/>
     <use xlink:href="#m50d6c10aca" x="216" y="94.800523" style="fill-opacity: 0; stroke: #000000"/>
    </g>
   </g>
   <g id="line2d_11">
    <path d="M 42.69125 90.083851 
L 46.157425 90.083851 
L 49.6236 90.083851 
L 53.089775 90.083851 
L 56.55595 90.083851 
L 60.022125 90.083851 
L 63.4883 90.083851 
L 66.954475 90.083851 
L 70.42065 90.083851 
L 73.886825 90.083851 
L 77.353 90.083851 
L 80.819175 90.083851 
L 84.28535 90.083851 
L 87.751525 90.083851 
L 91.2177 90.083851 
L 94.683875 90.083851 
L 98.15005 90.083851 
L 101.616225 90.083851 
L 105.0824 90.083851 
L 108.548575 90.083851 
L 112.01475 90.083851 
L 115.480925 90.083851 
L 118.9471 90.083851 
L 122.413275 90.083851 
L 125.87945 90.083851 
L 129.345625 90.083851 
L 132.8118 90.083851 
L 136.277975 90.083851 
L 139.74415 90.083851 
L 143.210325 90.083851 
L 146.6765 90.083851 
L 150.142675 90.083851 
L 153.60885 90.083851 
L 157.075025 90.083851 
L 160.5412 90.083851 
L 164.007375 90.083851 
L 167.47355 90.083851 
L 170.939725 90.083851 
L 174.4059 90.083851 
L 177.872075 90.083851 
L 181.33825 90.083851 
L 184.804425 90.083851 
L 188.2706 90.083851 
L 191.736775 90.083851 
L 195.20295 90.083851 
L 198.669125 90.083851 
L 202.1353 90.083851 
L 205.601475 90.083851 
L 209.06765 90.083851 
L 212.533825 90.083851 
L 216 90.083851 
" clip-path="url(#p8ae56d0e01)" style="fill: none; stroke: #ff0000; stroke-width: 1.5; stroke-linecap: square"/>
    <defs>
     <path id="m8db8e7b05b" d="M -3 3 
L 3 3 
L 3 -3 
L -3 -3 
z
" style="stroke: #ff0000; stroke-linejoin: miter"/>
    </defs>
    <g clip-path="url(#p8ae56d0e01)">
     <use xlink:href="#m8db8e7b05b" x="42.69125" y="90.083851" style="fill-opacity: 0; stroke: #ff0000; stroke-linejoin: miter"/>
     <use xlink:href="#m8db8e7b05b" x="60.022125" y="90.083851" style="fill-opacity: 0; stroke: #ff0000; stroke-linejoin: miter"/>
     <use xlink:href="#m8db8e7b05b" x="77.353" y="90.083851" style="fill-opacity: 0; stroke: #ff0000; stroke-linejoin: miter"/>
     <use xlink:href="#m8db8e7b05b" x="94.683875" y="90.083851" style="fill-opacity: 0; stroke: #ff0000; stroke-linejoin: miter"/>
     <use xlink:href="#m8db8e7b05b" x="112.01475" y="90.083851" style="fill-opacity: 0; stroke: #ff0000; stroke-linejoin: miter"/>
     <use xlink:href="#m8db8e7b05b" x="129.345625" y="90.083851" style="fill-opacity: 0; stroke: #ff0000; stroke-linejoin: miter"/>
     <use xlink:href="#m8db8e7b05b" x="146.6765" y="90.083851" style="fill-opacity: 0; stroke: #ff0000; stroke-linejoin: miter"/>
     <use xlink:href="#m8db8e7b05b" x="164.007375" y="90.083851" style="fill-opacity: 0; stroke: #ff0000; stroke-linejoin: miter"/>
     <use xlink:href="#m8db8e7b05b" x="181.33825" y="90.083851" style="fill-opacity: 0; stroke: #ff0000; stroke-linejoin: miter"/>
     <use xlink:href="#m8db8e7b05b" x="198.669125" y="90.083851" style="fill-opacity: 0; stroke: #ff0000; stroke-linejoin: miter"/>
     <use xlink:href="#m8db8e7b05b" x="216" y="90.083851" style="fill-opacity: 0; stroke: #ff0000; stroke-linejoin: miter"/>
    </g>
   </g>
   <g id="line2d_12">
    <path d="M 42.69125 68.460717 
L 46.157425 68.460717 
L 49.6236 68.460717 
L 53.089775 68.460717 
L 56.55595 68.460717 
L 60.022125 68.460717 
L 63.4883 68.460717 
L 66.954475 68.460717 
L 70.42065 68.460717 
L 73.886825 68.460717 
L 77.353 68.460717 
L 80.819175 68.460717 
L 84.28535 68.460717 
L 87.751525 68.460717 
L 91.2177 68.460717 
L 94.683875 68.460717 
L 98.15005 68.460717 
L 101.616225 68.460717 
L 105.0824 68.460717 
L 108.548575 68.460717 
L 112.01475 68.460717 
L 115.480925 68.460717 
L 118.9471 68.460717 
L 122.413275 68.460717 
L 125.87945 68.460717 
L 129.345625 68.460717 
L 132.8118 68.460717 
L 136.277975 68.460717 
L 139.74415 68.460717 
L 143.210325 68.460717 
L 146.6765 68.460717 
L 150.142675 68.460717 
L 153.60885 68.460717 
L 157.075025 68.460717 
L 160.5412 68.460717 
L 164.007375 68.460717 
L 167.47355 68.460717 
L 170.939725 68.460717 
L 174.4059 68.460717 
L 177.872075 68.460717 
L 181.33825 68.460717 
L 184.804425 68.460717 
L 188.2706 68.460717 
L 191.736775 68.460717 
L 195.20295 68.460717 
L 198.669125 68.460717 
L 202.1353 68.460717 
L 205.601475 68.460717 
L 209.06765 68.460717 
L 212.533825 68.460717 
L 216 68.460717 
" clip-path="url(#p8ae56d0e01)" style="fill: none; stroke: #0000ff; stroke-width: 1.5; stroke-linecap: square"/>
    <defs>
     <path id="md84a320346" d="M 0 -3 
L -3 3 
L 3 3 
z
" style="stroke: #0000ff; stroke-linejoin: miter"/>
    </defs>
    <g clip-path="url(#p8ae56d0e01)">
     <use xlink:href="#md84a320346" x="42.69125" y="68.460717" style="fill-opacity: 0; stroke: #0000ff; stroke-linejoin: miter"/>
     <use xlink:href="#md84a320346" x="60.022125" y="68.460717" style="fill-opacity: 0; stroke: #0000ff; stroke-linejoin: miter"/>
     <use xlink:href="#md84a320346" x="77.353" y="68.460717" style="fill-opacity: 0; stroke: #0000ff; stroke-linejoin: miter"/>
     <use xlink:href="#md84a320346" x="94.683875" y="68.460717" style="fill-opacity: 0; stroke: #0000ff; stroke-linejoin: miter"/>
     <use xlink:href="#md84a320346" x="112.01475" y="68.460717" style="fill-opacity: 0; stroke: #0000ff; stroke-linejoin: miter"/>
     <use xlink:href="#md84a320346" x="129.345625" y="68.460717" style="fill-opacity: 0; stroke: #0000ff; stroke-linejoin: miter"/>
     <use xlink:href="#md84a320346" x="146.6765" y="68.460717" style="fill-opacity: 0; stroke: #0000ff; stroke-linejoin: miter"/>
     <use xlink:href="#md84a320346" x="164.007375" y="68.460717" style="fill-opacity: 0; stroke: #0000ff; stroke-linejoin: miter"/>
     <use xlink:href="#md84a320346" x="181.33825" y="68.460717" style="fill-opacity: 0; stroke: #0000ff; stroke-linejoin: miter"/>
     <use xlink:href="#md84a320346" x="198.669125" y="68.460717" style="fill-opacity: 0; stroke: #0000ff; stroke-linejoin: miter"/>
     <use xlink:href="#md84a320346" x="216" y="68.460717" style="fill-opacity: 0; stroke: #0000ff; stroke-linejoin: miter"/>
    </g>
   </g>
   <g id="line2d_13">
    <path d="M 42.69125 48.70679 
L 46.157425 48.70679 
L 49.6236 48.70679 
L 53.089775 48.70679 
L 56.55595 48.70679 
L 60.022125 48.70679 
L 63.4883 48.70679 
L 66.954475 48.70679 
L 70.42065 48.70679 
L 73.886825 48.70679 
L 77.353 48.70679 
L 80.819175 48.70679 
L 84.28535 48.70679 
L 87.751525 48.70679 
L 91.2177 48.70679 
L 94.683875 48.70679 
L 98.15005 48.70679 
L 101.616225 48.70679 
L 105.0824 48.70679 
L 108.548575 48.70679 
L 112.01475 48.70679 
L 115.480925 48.70679 
L 118.9471 48.70679 
L 122.413275 48.70679 
L 125.87945 48.70679 
L 129.345625 48.70679 
L 132.8118 48.70679 
L 136.277975 48.70679 
L 139.74415 48.70679 
L 143.210325 48.70679 
L 146.6765 48.70679 
L 150.142675 48.70679 
L 153.60885 48.70679 
L 157.075025 48.70679 
L 160.5412 48.70679 
L 164.007375 48.70679 
L 167.47355 48.70679 
L 170.939725 48.70679 
L 174.4059 48.70679 
L 177.872075 48.70679 
L 181.33825 48.70679 
L 184.804425 48.70679 
L 188.2706 48.70679 
L 191.736775 48.70679 
L 195.20295 48.70679 
L 198.669125 48.70679 
L 202.1353 48.70679 
L 205.601475 48.70679 
L 209.06765 48.70679 
L 212.533825 48.70679 
L 216 48.70679 
" clip-path="url(#p8ae56d0e01)" style="fill: none; stroke: #008000; stroke-width: 1.5; stroke-linecap: square"/>
    <defs>
     <path id="m6ce33c96da" d="M 0 4.242641 
L 4.242641 0 
L 0 -4.242641 
L -4.242641 0 
z
" style="stroke: #008000; stroke-linejoin: miter"/>
    </defs>
    <g clip-path="url(#p8ae56d0e01)">
     <use xlink:href="#m6ce33c96da" x="42.69125" y="48.70679" style="fill-opacity: 0; stroke: #008000; stroke-linejoin: miter"/>
     <use xlink:href="#m6ce33c96da" x="60.022125" y="48.70679" style="fill-opacity: 0; stroke: #008000; stroke-linejoin: miter"/>
     <use xlink:href="#m6ce33c96da" x="77.353" y="48.70679" style="fill-opacity: 0; stroke: #008000; stroke-linejoin: miter"/>
     <use xlink:href="#m6ce33c96da" x="94.683875" y="48.70679" style="fill-opacity: 0; stroke: #008000; stroke-linejoin: miter"/>
     <use xlink:href="#m6ce33c96da" x="112.01475" y="48.70679" style="fill-opacity: 0; stroke: #008000; stroke-linejoin: miter"/>
     <use xlink:href="#m6ce33c96da" x="129.345625" y="48.70679" style="fill-opacity: 0; stroke: #008000; stroke-linejoin: miter"/>
     <use xlink:href="#m6ce33c96da" x="146.6765" y="48.70679" style="fill-opacity: 0; stroke: #008000; stroke-linejoin: miter"/>
     <use xlink:href="#m6ce33c96da" x="164.007375" y="48.70679" style="fill-opacity: 0; stroke: #008000; stroke-linejoin: miter"/>
     <use xlink:href="#m6ce33c96da" x="181.33825" y="48.70679" style="fill-opacity: 0; stroke: #008000; stroke-linejoin: miter"/>
     <use xlink:href="#m6ce33c96da" x="198.669125" y="48.70679" style="fill-opacity: 0; stroke: #008000; stroke-linejoin: miter"/>
     <use xlink:href="#m6ce33c96da" x="216" y="48.70679" style="fill-opacity: 0; stroke: #008000; stroke-linejoin: miter"/>
    </g>
   </g>
   <g id="patch_3">
    <path d="M 42.69125 124.7425 
L 42.69125 3.740625 
" style="fill: none; stroke: #000000; stroke-width: 0.8; stroke-linejoin: miter; stroke-linecap: square"/>
   </g>
   <g id="patch_4">
    <path d="M 216 124.7425 
L 216 3.740625 
" style="fill: none; stroke: #000000; stroke-width: 0.8; stroke-linejoin: miter; stroke-linecap: square"/>
   </g>
   <g id="patch_5">
    <path d="M 42.69125 124.7425 
L 216 124.7425 
" style="fill: none; stroke: #000000; stroke-width: 0.8; stroke-linejoin: miter; stroke-linecap: square"/>
   </g>
   <g id="patch_6">
    <path d="M 42.69125 3.740625 
L 216 3.740625 
" style="fill: none; stroke: #000000; stroke-width: 0.8; stroke-linejoin: miter; stroke-linecap: square"/>
   </g>
   <g id="legend_1">
    <g id="patch_7">
     <path d="M 65.020963 37.03954 
L 209.5859 37.03954 
Q 211.4185 37.03954 211.4185 35.20694 
L 211.4185 10.154725 
Q 211.4185 8.322125 209.5859 8.322125 
L 65.020963 8.322125 
Q 63.188363 8.322125 63.188363 10.154725 
L 63.188363 35.20694 
Q 63.188363 37.03954 65.020963 37.03954 
z
" style="fill: #ffffff; opacity: 0.8; stroke: #cccccc; stroke-linejoin: miter"/>
    </g>
    <g id="line2d_14">
     <path d="M 66.853563 15.194375 
L 76.016563 15.194375 
L 85.179563 15.194375 
" style="fill: none; stroke: #000000; stroke-width: 1.5; stroke-linecap: square"/>
     <g>
      <use xlink:href="#m50d6c10aca" x="76.016563" y="15.194375" style="fill-opacity: 0; stroke: #000000"/>
     </g>
    </g>
    <g id="text_12">
     <!-- 1st mode -->
     <g transform="translate(92.509963 18.401425)scale(0.09163 -0.09163)">
      <defs>
       <path id="STIXGeneral-Regular-73" d="M 998 1926 
L 1664 1523 
Q 1984 1331 2105 1164 
Q 2227 998 2227 736 
Q 2227 416 1961 176 
Q 1696 -64 1331 -64 
Q 1030 -64 864 -6 
Q 691 51 570 51 
Q 461 51 416 -26 
L 333 -26 
L 333 979 
L 435 979 
Q 538 512 730 294 
Q 922 77 1248 77 
Q 1485 77 1632 211 
Q 1779 346 1779 550 
Q 1779 845 1440 1030 
L 1094 1222 
Q 326 1651 326 2150 
Q 326 2522 566 2730 
Q 806 2938 1210 2938 
Q 1491 2938 1638 2867 
Q 1754 2816 1818 2816 
Q 1862 2816 1920 2880 
L 1990 2880 
L 2022 2010 
L 1926 2010 
Q 1818 2445 1654 2621 
Q 1491 2797 1203 2797 
Q 986 2797 854 2688 
Q 723 2579 723 2362 
Q 723 2253 796 2128 
Q 870 2003 998 1926 
z
" transform="scale(0.015625)"/>
       <path id="STIXGeneral-Regular-74" d="M 1702 493 
L 1786 422 
Q 1478 -64 1011 -64 
Q 448 -64 448 749 
L 448 2675 
L 109 2675 
Q 83 2694 83 2720 
Q 83 2771 192 2842 
Q 435 2982 813 3526 
Q 826 3546 874 3606 
Q 922 3667 941 3706 
Q 986 3706 986 3622 
L 986 2880 
L 1632 2880 
L 1632 2675 
L 986 2675 
L 986 845 
Q 986 538 1062 403 
Q 1139 269 1318 269 
Q 1510 269 1702 493 
z
" transform="scale(0.015625)"/>
       <path id="STIXGeneral-Regular-6f" d="M 3008 1478 
Q 3008 806 2608 371 
Q 2208 -64 1568 -64 
Q 979 -64 582 368 
Q 186 800 186 1459 
Q 186 2125 582 2534 
Q 979 2944 1626 2944 
Q 2221 2944 2614 2537 
Q 3008 2131 3008 1478 
z
M 2432 1306 
Q 2432 2035 2112 2445 
Q 1856 2765 1504 2765 
Q 1171 2765 966 2493 
Q 762 2221 762 1747 
Q 762 928 1101 435 
Q 1318 115 1677 115 
Q 2029 115 2230 432 
Q 2432 749 2432 1306 
z
" transform="scale(0.015625)"/>
       <path id="STIXGeneral-Regular-64" d="M 3142 269 
L 2202 -64 
L 2176 -45 
L 2176 365 
Q 1869 -64 1357 -64 
Q 826 -64 499 317 
Q 173 698 173 1312 
Q 173 1990 563 2467 
Q 954 2944 1504 2944 
Q 1850 2944 2176 2669 
L 2176 3667 
Q 2176 3866 2118 3930 
Q 2061 3994 1882 3994 
Q 1792 3994 1741 3987 
L 1741 4090 
Q 2323 4243 2682 4371 
L 2714 4358 
L 2714 730 
Q 2714 506 2768 435 
Q 2822 365 2995 365 
Q 3034 365 3142 371 
L 3142 269 
z
M 2176 653 
L 2176 2125 
Q 2176 2381 1981 2573 
Q 1786 2765 1523 2765 
Q 1158 2765 940 2438 
Q 723 2112 723 1568 
Q 723 979 963 624 
Q 1203 269 1606 269 
Q 1907 269 2080 474 
Q 2176 582 2176 653 
z
" transform="scale(0.015625)"/>
      </defs>
      <use xlink:href="#STIXGeneral-Regular-31"/>
      <use xlink:href="#STIXGeneral-Regular-73" x="49.999985"/>
      <use xlink:href="#STIXGeneral-Regular-74" x="88.899979"/>
      <use xlink:href="#STIXGeneral-Regular-20" x="116.699966"/>
      <use xlink:href="#STIXGeneral-Regular-6d" x="141.699951"/>
      <use xlink:href="#STIXGeneral-Regular-6f" x="219.499939"/>
      <use xlink:href="#STIXGeneral-Regular-64" x="269.499924"/>
      <use xlink:href="#STIXGeneral-Regular-65" x="319.499908"/>
     </g>
    </g>
    <g id="line2d_15">
     <path d="M 66.853563 28.178632 
L 76.016563 28.178632 
L 85.179563 28.178632 
" style="fill: none; stroke: #ff0000; stroke-width: 1.5; stroke-linecap: square"/>
     <g>
      <use xlink:href="#m8db8e7b05b" x="76.016563" y="28.178632" style="fill-opacity: 0; stroke: #ff0000; stroke-linejoin: miter"/>
     </g>
    </g>
    <g id="text_13">
     <!-- 2nd mode -->
     <g transform="translate(92.509963 31.385682)scale(0.09163 -0.09163)">
      <use xlink:href="#STIXGeneral-Regular-32"/>
      <use xlink:href="#STIXGeneral-Regular-6e" x="49.999985"/>
      <use xlink:href="#STIXGeneral-Regular-64" x="99.999969"/>
      <use xlink:href="#STIXGeneral-Regular-20" x="149.999954"/>
      <use xlink:href="#STIXGeneral-Regular-6d" x="174.999939"/>
      <use xlink:href="#STIXGeneral-Regular-6f" x="252.799927"/>
      <use xlink:href="#STIXGeneral-Regular-64" x="302.799911"/>
      <use xlink:href="#STIXGeneral-Regular-65" x="352.799896"/>
     </g>
    </g>
    <g id="line2d_16">
     <path d="M 147.231685 15.194375 
L 156.394685 15.194375 
L 165.557685 15.194375 
" style="fill: none; stroke: #0000ff; stroke-width: 1.5; stroke-linecap: square"/>
     <g>
      <use xlink:href="#md84a320346" x="156.394685" y="15.194375" style="fill-opacity: 0; stroke: #0000ff; stroke-linejoin: miter"/>
     </g>
    </g>
    <g id="text_14">
     <!-- 3rd mode -->
     <g transform="translate(172.888085 18.401425)scale(0.09163 -0.09163)">
      <use xlink:href="#STIXGeneral-Regular-33"/>
      <use xlink:href="#STIXGeneral-Regular-72" x="49.999985"/>
      <use xlink:href="#STIXGeneral-Regular-64" x="83.299973"/>
      <use xlink:href="#STIXGeneral-Regular-20" x="133.299957"/>
      <use xlink:href="#STIXGeneral-Regular-6d" x="158.299942"/>
      <use xlink:href="#STIXGeneral-Regular-6f" x="236.09993"/>
      <use xlink:href="#STIXGeneral-Regular-64" x="286.099915"/>
      <use xlink:href="#STIXGeneral-Regular-65" x="336.099899"/>
     </g>
    </g>
    <g id="line2d_17">
     <path d="M 147.231685 28.178632 
L 156.394685 28.178632 
L 165.557685 28.178632 
" style="fill: none; stroke: #008000; stroke-width: 1.5; stroke-linecap: square"/>
     <g>
      <use xlink:href="#m6ce33c96da" x="156.394685" y="28.178632" style="fill-opacity: 0; stroke: #008000; stroke-linejoin: miter"/>
     </g>
    </g>
    <g id="text_15">
     <!-- 4th mode -->
     <g transform="translate(172.888085 31.385682)scale(0.09163 -0.09163)">
      <defs>
       <path id="STIXGeneral-Regular-68" d="M 3117 0 
L 1760 0 
L 1760 96 
Q 2042 128 2118 224 
Q 2195 320 2195 653 
L 2195 1920 
Q 2195 2598 1722 2598 
Q 1530 2598 1370 2508 
Q 1210 2419 1005 2195 
L 1005 653 
Q 1005 320 1081 224 
Q 1158 128 1440 96 
L 1440 0 
L 58 0 
L 58 96 
Q 333 134 400 224 
Q 467 314 467 653 
L 467 3667 
Q 467 3872 406 3933 
Q 346 3994 141 3994 
Q 83 3994 64 3987 
L 64 4090 
L 237 4141 
Q 730 4288 973 4371 
L 1005 4352 
L 1005 2406 
Q 1229 2694 1446 2819 
Q 1664 2944 1946 2944 
Q 2733 2944 2733 1926 
L 2733 653 
Q 2733 320 2793 233 
Q 2854 147 3117 96 
L 3117 0 
z
" transform="scale(0.015625)"/>
      </defs>
      <use xlink:href="#STIXGeneral-Regular-34"/>
      <use xlink:href="#STIXGeneral-Regular-74" x="49.999985"/>
      <use xlink:href="#STIXGeneral-Regular-68" x="77.799973"/>
      <use xlink:href="#STIXGeneral-Regular-20" x="127.799957"/>
      <use xlink:href="#STIXGeneral-Regular-6d" x="152.799942"/>
      <use xlink:href="#STIXGeneral-Regular-6f" x="230.59993"/>
      <use xlink:href="#STIXGeneral-Regular-64" x="280.599915"/>
      <use xlink:href="#STIXGeneral-Regular-65" x="330.599899"/>
     </g>
    </g>
   </g>
  </g>
 </g>
 <defs>
  <clipPath id="p8ae56d0e01">
   <rect x="42.69125" y="3.740625" width="173.30875" height="121.001875"/>
  </clipPath>
 </defs>
</svg>
