<?xml version="1.0" encoding="utf-8" standalone="no"?>
<!DOCTYPE svg PUBLIC "-//W3C//DTD SVG 1.1//EN"
  "http://www.w3.org/Graphics/SVG/1.1/DTD/svg11.dtd">
<svg height="162pt" version="1.1" viewBox="0 0 216 162" width="216pt" xmlns="http://www.w3.org/2000/svg" xmlns:xlink="http://www.w3.org/1999/xlink">
 <metadata>
  <rdf:RDF xmlns:cc="http://creativecommons.org/ns#" xmlns:dc="http://purl.org/dc/elements/1.1/" xmlns:rdf="http://www.w3.org/1999/02/22-rdf-syntax-ns#">
   <cc:Work>
    <dc:type rdf:resource="http://purl.org/dc/dcmitype/StillImage"/>
    <dc:date>2021-07-23T10:03:10.590748</dc:date>
    <dc:format>image/svg+xml</dc:format>
    <dc:creator>
     <cc:Agent>
      <dc:title>Matplotlib v3.4.2, https://matplotlib.org/</dc:title>
     </cc:Agent>
    </dc:creator>
   </cc:Work>
  </rdf:RDF>
 </metadata>
 <defs>
  <style type="text/css">*{stroke-linecap:butt;stroke-linejoin:round;}</style>
 </defs>
 <g id="figure_1">
  <g id="patch_1">
   <path d="M 0 162 
L 216 162 
L 216 0 
L 0 0 
z
" style="fill:#ffffff;"/>
  </g>
  <g id="axes_1">
   <g id="patch_2">
    <path d="M 50.470625 131.00875 
L 207.765 131.00875 
L 207.765 0 
L 50.470625 0 
z
" style="fill:#ffffff;"/>
   </g>
   <g id="patch_3">
    <path clip-path="url(#p73950b5139)" d="M 103.950712 76.534871 
L 129.117812 76.534871 
L 129.117812 53.715162 
L 103.950712 53.715162 
z
" style="fill:#ffffff;stroke:#a52a2a;stroke-dasharray:2.96,1.28;stroke-dashoffset:0;stroke-linejoin:miter;stroke-width:0.8;"/>
   </g>
   <g id="matplotlib.axis_1">
    <g id="xtick_1">
     <g id="line2d_1">
      <defs>
       <path d="M 0 0 
L 0 3.5 
" id="m4c69fb2581" style="stroke:#000000;stroke-width:0.8;"/>
      </defs>
      <g>
       <use style="stroke:#000000;stroke-width:0.8;" x="50.470625" xlink:href="#m4c69fb2581" y="131.00875"/>
      </g>
     </g>
     <g id="text_1">
      <!-- 100 -->
      <g transform="translate(42.220625 145.521406)scale(0.11 -0.11)">
       <defs>
        <path d="M 2522 0 
L 755 0 
L 755 96 
Q 1107 115 1235 227 
Q 1363 339 1363 608 
L 1363 3482 
Q 1363 3795 1171 3795 
Q 1082 3795 883 3718 
L 710 3654 
L 710 3744 
L 1856 4326 
L 1914 4307 
L 1914 486 
Q 1914 275 2042 185 
Q 2170 96 2522 96 
L 2522 0 
z
" id="STIXGeneral-Regular-31" transform="scale(0.015625)"/>
        <path d="M 3046 2112 
Q 3046 1683 2963 1302 
Q 2880 922 2717 602 
Q 2554 282 2266 96 
Q 1978 -90 1600 -90 
Q 1210 -90 915 108 
Q 621 307 461 640 
Q 301 973 227 1350 
Q 154 1728 154 2150 
Q 154 2746 301 3222 
Q 448 3699 790 4012 
Q 1133 4326 1626 4326 
Q 2253 4326 2649 3712 
Q 3046 3098 3046 2112 
z
M 2432 2080 
Q 2432 3091 2217 3625 
Q 2003 4160 1587 4160 
Q 1190 4160 979 3622 
Q 768 3085 768 2106 
Q 768 1120 979 598 
Q 1190 77 1600 77 
Q 2003 77 2217 598 
Q 2432 1120 2432 2080 
z
" id="STIXGeneral-Regular-30" transform="scale(0.015625)"/>
       </defs>
       <use xlink:href="#STIXGeneral-Regular-31"/>
       <use x="49.999985" xlink:href="#STIXGeneral-Regular-30"/>
       <use x="99.999969" xlink:href="#STIXGeneral-Regular-30"/>
      </g>
     </g>
    </g>
    <g id="xtick_2">
     <g id="line2d_2">
      <g>
       <use style="stroke:#000000;stroke-width:0.8;" x="81.9295" xlink:href="#m4c69fb2581" y="131.00875"/>
      </g>
     </g>
     <g id="text_2">
      <!-- 200 -->
      <g transform="translate(73.6795 145.521406)scale(0.11 -0.11)">
       <defs>
        <path d="M 3034 877 
L 2688 0 
L 186 0 
L 186 77 
L 1325 1286 
Q 1773 1754 1965 2144 
Q 2157 2534 2157 2950 
Q 2157 3379 1920 3616 
Q 1683 3853 1267 3853 
Q 922 3853 720 3673 
Q 518 3494 326 3021 
L 192 3053 
Q 301 3648 630 3987 
Q 960 4326 1523 4326 
Q 2054 4326 2380 4006 
Q 2707 3686 2707 3200 
Q 2707 2477 1888 1613 
L 832 486 
L 2330 486 
Q 2541 486 2665 569 
Q 2790 653 2944 915 
L 3034 877 
z
" id="STIXGeneral-Regular-32" transform="scale(0.015625)"/>
       </defs>
       <use xlink:href="#STIXGeneral-Regular-32"/>
       <use x="49.999985" xlink:href="#STIXGeneral-Regular-30"/>
       <use x="99.999969" xlink:href="#STIXGeneral-Regular-30"/>
      </g>
     </g>
    </g>
    <g id="xtick_3">
     <g id="line2d_3">
      <g>
       <use style="stroke:#000000;stroke-width:0.8;" x="113.388375" xlink:href="#m4c69fb2581" y="131.00875"/>
      </g>
     </g>
     <g id="text_3">
      <!-- 300 -->
      <g transform="translate(105.138375 145.521406)scale(0.11 -0.11)">
       <defs>
        <path d="M 390 3264 
L 288 3290 
Q 435 3770 748 4048 
Q 1062 4326 1542 4326 
Q 1990 4326 2265 4083 
Q 2541 3840 2541 3450 
Q 2541 2925 1946 2566 
Q 2298 2413 2477 2227 
Q 2758 1914 2758 1402 
Q 2758 890 2464 506 
Q 2246 211 1840 60 
Q 1434 -90 979 -90 
Q 262 -90 262 275 
Q 262 378 339 442 
Q 416 506 525 506 
Q 685 506 915 339 
Q 1197 141 1466 141 
Q 1818 141 2058 425 
Q 2298 710 2298 1120 
Q 2298 1856 1632 2048 
Q 1434 2112 979 2112 
L 979 2202 
Q 1338 2323 1517 2432 
Q 2035 2726 2035 3290 
Q 2035 3610 1852 3776 
Q 1670 3942 1344 3942 
Q 768 3942 390 3264 
z
" id="STIXGeneral-Regular-33" transform="scale(0.015625)"/>
       </defs>
       <use xlink:href="#STIXGeneral-Regular-33"/>
       <use x="49.999985" xlink:href="#STIXGeneral-Regular-30"/>
       <use x="99.999969" xlink:href="#STIXGeneral-Regular-30"/>
      </g>
     </g>
    </g>
    <g id="xtick_4">
     <g id="line2d_4">
      <g>
       <use style="stroke:#000000;stroke-width:0.8;" x="144.84725" xlink:href="#m4c69fb2581" y="131.00875"/>
      </g>
     </g>
     <g id="text_4">
      <!-- 400 -->
      <g transform="translate(136.59725 145.521406)scale(0.11 -0.11)">
       <defs>
        <path d="M 3027 1069 
L 2368 1069 
L 2368 0 
L 1869 0 
L 1869 1069 
L 77 1069 
L 77 1478 
L 2086 4326 
L 2368 4326 
L 2368 1478 
L 3027 1478 
L 3027 1069 
z
M 1869 1478 
L 1869 3674 
L 333 1478 
L 1869 1478 
z
" id="STIXGeneral-Regular-34" transform="scale(0.015625)"/>
       </defs>
       <use xlink:href="#STIXGeneral-Regular-34"/>
       <use x="49.999985" xlink:href="#STIXGeneral-Regular-30"/>
       <use x="99.999969" xlink:href="#STIXGeneral-Regular-30"/>
      </g>
     </g>
    </g>
    <g id="xtick_5">
     <g id="line2d_5">
      <g>
       <use style="stroke:#000000;stroke-width:0.8;" x="176.306125" xlink:href="#m4c69fb2581" y="131.00875"/>
      </g>
     </g>
     <g id="text_5">
      <!-- 500 -->
      <g transform="translate(168.056125 145.521406)scale(0.11 -0.11)">
       <defs>
        <path d="M 2803 4358 
L 2573 3814 
Q 2534 3731 2400 3731 
L 1158 3731 
L 902 3187 
Q 1606 3053 1920 2896 
Q 2234 2739 2502 2368 
Q 2726 2061 2726 1555 
Q 2726 1094 2576 780 
Q 2426 467 2099 224 
Q 1664 -90 1011 -90 
Q 646 -90 422 19 
Q 198 128 198 307 
Q 198 550 486 550 
Q 717 550 960 352 
Q 1210 147 1414 147 
Q 1747 147 2012 480 
Q 2278 813 2278 1229 
Q 2278 1843 1850 2189 
Q 1293 2637 486 2637 
Q 410 2637 410 2688 
L 416 2720 
L 1114 4237 
L 2438 4237 
Q 2547 4237 2608 4269 
Q 2669 4301 2746 4403 
L 2803 4358 
z
" id="STIXGeneral-Regular-35" transform="scale(0.015625)"/>
       </defs>
       <use xlink:href="#STIXGeneral-Regular-35"/>
       <use x="49.999985" xlink:href="#STIXGeneral-Regular-30"/>
       <use x="99.999969" xlink:href="#STIXGeneral-Regular-30"/>
      </g>
     </g>
    </g>
    <g id="xtick_6">
     <g id="line2d_6">
      <g>
       <use style="stroke:#000000;stroke-width:0.8;" x="207.765" xlink:href="#m4c69fb2581" y="131.00875"/>
      </g>
     </g>
     <g id="text_6">
      <!-- 600 -->
      <g transform="translate(199.515 145.521406)scale(0.11 -0.11)">
       <defs>
        <path d="M 2854 4378 
L 2867 4275 
Q 2112 4154 1606 3664 
Q 1101 3174 973 2451 
Q 1344 2739 1786 2739 
Q 2349 2739 2672 2380 
Q 2995 2022 2995 1402 
Q 2995 774 2669 378 
Q 2291 -90 1651 -90 
Q 870 -90 518 557 
Q 218 1107 218 1786 
Q 218 2835 915 3552 
Q 1312 3962 1731 4131 
Q 2150 4301 2854 4378 
z
M 2419 1203 
Q 2419 2445 1555 2445 
Q 1235 2445 1024 2275 
Q 813 2106 813 1702 
Q 813 954 1046 522 
Q 1280 90 1722 90 
Q 2061 90 2240 394 
Q 2419 698 2419 1203 
z
" id="STIXGeneral-Regular-36" transform="scale(0.015625)"/>
       </defs>
       <use xlink:href="#STIXGeneral-Regular-36"/>
       <use x="49.999985" xlink:href="#STIXGeneral-Regular-30"/>
       <use x="99.999969" xlink:href="#STIXGeneral-Regular-30"/>
      </g>
     </g>
    </g>
    <g id="text_7">
     <!-- $\lambda$ -->
     <g transform="translate(126.587813 159.421406)scale(0.11 -0.11)">
      <defs>
       <path d="M 2656 787 
L 2758 787 
Q 2560 -102 2112 -102 
Q 1965 -102 1869 48 
Q 1773 198 1773 499 
Q 1773 672 1789 889 
Q 1805 1107 1833 1446 
Q 1862 1786 1875 2016 
L 538 0 
L -77 0 
L 1907 2739 
Q 1933 2970 1933 3245 
Q 1933 3936 1619 3936 
Q 1530 3936 1408 3821 
Q 1286 3706 1203 3462 
L 1101 3462 
Q 1312 4339 1747 4339 
Q 1926 4339 2041 4115 
Q 2157 3891 2157 3475 
Q 2157 3040 2093 2192 
Q 2029 1344 2029 941 
Q 2029 602 2089 451 
Q 2150 301 2291 301 
Q 2483 301 2656 787 
z
" id="STIXGeneral-Italic-3bb" transform="scale(0.015625)"/>
      </defs>
      <use transform="translate(0 0.203125)" xlink:href="#STIXGeneral-Italic-3bb"/>
     </g>
    </g>
   </g>
   <g id="matplotlib.axis_2">
    <g id="ytick_1">
     <g id="line2d_7">
      <defs>
       <path d="M 0 0 
L -3.5 0 
" id="ma9884ddb22" style="stroke:#000000;stroke-width:0.8;"/>
      </defs>
      <g>
       <use style="stroke:#000000;stroke-width:0.8;" x="50.470625" xlink:href="#ma9884ddb22" y="122.17429"/>
      </g>
     </g>
     <g id="text_8">
      <!-- −4000 -->
      <g transform="translate(13.935625 125.930618)scale(0.11 -0.11)">
       <defs>
        <path d="M 3974 1408 
L 410 1408 
L 410 1830 
L 3974 1830 
L 3974 1408 
z
" id="STIXGeneral-Regular-2212" transform="scale(0.015625)"/>
       </defs>
       <use xlink:href="#STIXGeneral-Regular-2212"/>
       <use x="68.499985" xlink:href="#STIXGeneral-Regular-34"/>
       <use x="118.499969" xlink:href="#STIXGeneral-Regular-30"/>
       <use x="168.499954" xlink:href="#STIXGeneral-Regular-30"/>
       <use x="218.499939" xlink:href="#STIXGeneral-Regular-30"/>
      </g>
     </g>
    </g>
    <g id="ytick_2">
     <g id="line2d_8">
      <g>
       <use style="stroke:#000000;stroke-width:0.8;" x="50.470625" xlink:href="#ma9884ddb22" y="93.649653"/>
      </g>
     </g>
     <g id="text_9">
      <!-- −2000 -->
      <g transform="translate(13.935625 97.405981)scale(0.11 -0.11)">
       <use xlink:href="#STIXGeneral-Regular-2212"/>
       <use x="68.499985" xlink:href="#STIXGeneral-Regular-32"/>
       <use x="118.499969" xlink:href="#STIXGeneral-Regular-30"/>
       <use x="168.499954" xlink:href="#STIXGeneral-Regular-30"/>
       <use x="218.499939" xlink:href="#STIXGeneral-Regular-30"/>
      </g>
     </g>
    </g>
    <g id="ytick_3">
     <g id="line2d_9">
      <g>
       <use style="stroke:#000000;stroke-width:0.8;" x="50.470625" xlink:href="#ma9884ddb22" y="65.125017"/>
      </g>
     </g>
     <g id="text_10">
      <!-- 0 -->
      <g transform="translate(37.970625 68.881345)scale(0.11 -0.11)">
       <use xlink:href="#STIXGeneral-Regular-30"/>
      </g>
     </g>
    </g>
    <g id="ytick_4">
     <g id="line2d_10">
      <g>
       <use style="stroke:#000000;stroke-width:0.8;" x="50.470625" xlink:href="#ma9884ddb22" y="36.60038"/>
      </g>
     </g>
     <g id="text_11">
      <!-- 2000 -->
      <g transform="translate(21.470625 40.356708)scale(0.11 -0.11)">
       <use xlink:href="#STIXGeneral-Regular-32"/>
       <use x="49.999985" xlink:href="#STIXGeneral-Regular-30"/>
       <use x="99.999969" xlink:href="#STIXGeneral-Regular-30"/>
       <use x="149.999954" xlink:href="#STIXGeneral-Regular-30"/>
      </g>
     </g>
    </g>
    <g id="ytick_5">
     <g id="line2d_11">
      <g>
       <use style="stroke:#000000;stroke-width:0.8;" x="50.470625" xlink:href="#ma9884ddb22" y="8.075744"/>
      </g>
     </g>
     <g id="text_12">
      <!-- 4000 -->
      <g transform="translate(21.470625 11.832072)scale(0.11 -0.11)">
       <use xlink:href="#STIXGeneral-Regular-34"/>
       <use x="49.999985" xlink:href="#STIXGeneral-Regular-30"/>
       <use x="99.999969" xlink:href="#STIXGeneral-Regular-30"/>
       <use x="149.999954" xlink:href="#STIXGeneral-Regular-30"/>
      </g>
     </g>
    </g>
    <g id="text_13">
     <!-- Real part -->
     <g transform="translate(7.548281 85.514062)rotate(-90)scale(0.11 -0.11)">
      <defs>
       <path d="M 4224 0 
L 3187 0 
L 1664 1971 
L 1306 1958 
L 1306 717 
Q 1306 352 1405 249 
Q 1504 147 1875 122 
L 1875 0 
L 109 0 
L 109 122 
Q 474 154 563 262 
Q 653 371 653 794 
L 653 3526 
Q 653 3885 563 3987 
Q 474 4090 109 4115 
L 109 4237 
L 1850 4237 
Q 2726 4237 3187 3859 
Q 3501 3603 3501 3091 
Q 3501 2221 2342 2042 
L 3622 422 
Q 3757 256 3878 198 
Q 4000 141 4224 122 
L 4224 0 
z
M 1306 3731 
L 1306 2195 
Q 1766 2202 1990 2246 
Q 2214 2291 2438 2413 
Q 2803 2618 2803 3142 
Q 2803 4000 1632 4000 
Q 1459 4000 1382 3945 
Q 1306 3891 1306 3731 
z
" id="STIXGeneral-Regular-52" transform="scale(0.015625)"/>
       <path d="M 2611 1050 
L 2714 1005 
Q 2330 -64 1376 -64 
Q 813 -64 486 329 
Q 160 723 160 1389 
Q 160 2074 525 2509 
Q 890 2944 1485 2944 
Q 2061 2944 2374 2502 
Q 2560 2246 2592 1773 
L 621 1773 
Q 646 1370 700 1158 
Q 755 947 915 730 
Q 1184 378 1626 378 
Q 1939 378 2153 531 
Q 2368 685 2611 1050 
z
M 634 1978 
L 1939 1978 
Q 1882 2381 1750 2547 
Q 1619 2714 1312 2714 
Q 1043 2714 864 2525 
Q 685 2336 634 1978 
z
" id="STIXGeneral-Regular-65" transform="scale(0.015625)"/>
       <path d="M 2829 422 
L 2829 243 
Q 2586 -64 2253 -64 
Q 1888 -64 1843 403 
L 1837 403 
Q 1427 -64 909 -64 
Q 608 -64 422 112 
Q 237 288 237 602 
Q 237 1050 685 1350 
Q 992 1555 1837 1869 
L 1837 2214 
Q 1837 2502 1699 2646 
Q 1562 2790 1338 2790 
Q 1146 2790 1018 2697 
Q 890 2605 890 2477 
Q 890 2419 909 2348 
Q 928 2278 928 2208 
Q 928 2112 841 2029 
Q 755 1946 634 1946 
Q 525 1946 441 2029 
Q 358 2112 358 2240 
Q 358 2547 685 2752 
Q 986 2944 1421 2944 
Q 1939 2944 2176 2656 
Q 2291 2522 2323 2384 
Q 2355 2246 2355 1946 
L 2355 723 
Q 2355 301 2554 301 
Q 2682 301 2829 422 
z
M 1837 813 
L 1837 1715 
Q 1248 1510 1018 1293 
Q 800 1094 800 800 
Q 800 557 921 432 
Q 1043 307 1242 307 
Q 1453 307 1613 410 
Q 1747 506 1792 589 
Q 1837 672 1837 813 
z
" id="STIXGeneral-Regular-61" transform="scale(0.015625)"/>
       <path d="M 1645 0 
L 134 0 
L 134 96 
Q 435 122 531 221 
Q 627 320 627 589 
L 627 3590 
Q 627 3821 569 3910 
Q 512 4000 358 4000 
Q 224 4000 122 3987 
L 122 4090 
Q 730 4237 1133 4371 
L 1165 4346 
L 1165 557 
Q 1165 288 1254 201 
Q 1344 115 1645 96 
L 1645 0 
z
" id="STIXGeneral-Regular-6c" transform="scale(0.015625)"/>
       <path id="STIXGeneral-Regular-20" transform="scale(0.015625)"/>
       <path d="M 1018 2931 
L 1018 2438 
Q 1421 2944 1939 2944 
Q 2406 2944 2707 2560 
Q 3008 2176 3008 1581 
Q 3008 883 2621 409 
Q 2234 -64 1664 -64 
Q 1466 -64 1328 -6 
Q 1190 51 1018 211 
L 1018 -794 
Q 1018 -1094 1120 -1180 
Q 1222 -1267 1581 -1274 
L 1581 -1389 
L 32 -1389 
L 32 -1280 
Q 314 -1254 397 -1171 
Q 480 -1088 480 -838 
L 480 2157 
Q 480 2381 429 2451 
Q 378 2522 218 2522 
Q 115 2522 58 2515 
L 58 2618 
Q 506 2752 979 2944 
L 1018 2931 
z
M 1018 2138 
L 1018 563 
Q 1018 422 1238 281 
Q 1459 141 1683 141 
Q 2029 141 2243 467 
Q 2458 794 2458 1325 
Q 2458 1888 2243 2224 
Q 2029 2560 1670 2560 
Q 1446 2560 1232 2419 
Q 1018 2278 1018 2138 
z
" id="STIXGeneral-Regular-70" transform="scale(0.015625)"/>
       <path d="M 1024 2931 
L 1024 2342 
Q 1267 2688 1430 2816 
Q 1594 2944 1792 2944 
Q 1958 2944 2051 2854 
Q 2144 2765 2144 2605 
Q 2144 2470 2077 2393 
Q 2010 2317 1894 2317 
Q 1773 2317 1638 2445 
Q 1536 2541 1472 2541 
Q 1338 2541 1181 2355 
Q 1024 2170 1024 2016 
L 1024 576 
Q 1024 301 1133 205 
Q 1242 109 1568 96 
L 1568 0 
L 32 0 
L 32 96 
Q 339 154 412 224 
Q 486 294 486 538 
L 486 2138 
Q 486 2349 438 2435 
Q 390 2522 269 2522 
Q 166 2522 45 2496 
L 45 2598 
Q 448 2726 992 2944 
L 1024 2931 
z
" id="STIXGeneral-Regular-72" transform="scale(0.015625)"/>
       <path d="M 1702 493 
L 1786 422 
Q 1478 -64 1011 -64 
Q 448 -64 448 749 
L 448 2675 
L 109 2675 
Q 83 2694 83 2720 
Q 83 2771 192 2842 
Q 435 2982 813 3526 
Q 826 3546 874 3606 
Q 922 3667 941 3706 
Q 986 3706 986 3622 
L 986 2880 
L 1632 2880 
L 1632 2675 
L 986 2675 
L 986 845 
Q 986 538 1062 403 
Q 1139 269 1318 269 
Q 1510 269 1702 493 
z
" id="STIXGeneral-Regular-74" transform="scale(0.015625)"/>
      </defs>
      <use xlink:href="#STIXGeneral-Regular-52"/>
      <use x="66.699997" xlink:href="#STIXGeneral-Regular-65"/>
      <use x="111.099991" xlink:href="#STIXGeneral-Regular-61"/>
      <use x="155.499985" xlink:href="#STIXGeneral-Regular-6c"/>
      <use x="183.299973" xlink:href="#STIXGeneral-Regular-20"/>
      <use x="208.299957" xlink:href="#STIXGeneral-Regular-70"/>
      <use x="258.299942" xlink:href="#STIXGeneral-Regular-61"/>
      <use x="302.699936" xlink:href="#STIXGeneral-Regular-72"/>
      <use x="335.999924" xlink:href="#STIXGeneral-Regular-74"/>
     </g>
    </g>
   </g>
   <g id="line2d_12">
    <path clip-path="url(#p73950b5139)" d="M 50.470625 65.504581 
L 53.616512 65.504601 
L 56.7624 65.504624 
L 59.908288 65.504649 
L 63.054175 65.504677 
L 66.200063 65.504709 
L 69.34595 65.504744 
L 72.491838 65.504783 
L 75.637725 65.504827 
L 78.783613 65.504877 
L 81.9295 65.504934 
L 85.075388 65.505 
L 88.221275 65.505076 
L 91.367162 65.505165 
L 94.51305 65.505273 
L 97.658937 65.505405 
L 100.804825 65.505573 
L 103.950712 65.5058 
L 107.0966 65.506129 
L 110.242487 65.506684 
L 113.388375 65.508003 
L 113.702964 65.508264 
L 114.017552 65.508582 
L 114.332141 65.508982 
L 114.64673 65.509507 
L 114.961319 65.510241 
L 115.275908 65.511376 
L 115.590496 65.513497 
L 115.621955 65.513827 
L 115.653414 65.514192 
L 115.684873 65.514608 
L 115.716332 65.515068 
L 115.747791 65.515606 
L 115.77925 65.516221 
L 115.810708 65.516947 
L 115.842167 65.517836 
L 115.873626 65.518932 
L 115.905085 65.520312 
L 115.936544 65.522212 
L 115.968003 65.52497 
L 115.999462 65.529488 
L 116.03092 65.539537 
L 116.062379 65.641258 
L 116.093838 66.500837 
L 116.125297 66.944421 
L 116.156756 67.278658 
L 116.188215 67.556093 
L 116.219674 67.802875 
L 116.534262 69.498988 
L 119.68015 76.598945 
L 122.826037 80.694809 
L 125.971925 83.91406 
L 129.117813 86.660821 
L 132.2637 89.100282 
L 135.409588 91.320031 
L 138.555475 93.372855 
L 141.701363 95.295071 
L 144.84725 97.110518 
L 147.993138 98.837681 
L 151.139025 100.490915 
L 154.284913 102.081278 
L 157.4308 103.618075 
L 160.576688 105.108888 
L 163.722575 106.560704 
L 166.868463 107.978383 
L 170.01435 109.36716 
L 173.160238 110.731904 
L 174.733181 111.406302 
L 175.04777 111.54058 
L 175.362359 111.674717 
L 175.676948 111.808602 
L 175.991536 111.942304 
L 176.306125 112.075929 
L 176.620714 112.209508 
L 176.778008 112.276128 
L 176.809467 112.289449 
L 176.840926 112.302797 
L 176.872385 112.316266 
L 176.903844 112.329335 
L 176.935303 112.342905 
L 176.966761 112.356064 
L 176.99822 112.369164 
L 177.029679 112.382696 
L 177.061138 112.395853 
L 177.092597 112.409375 
L 177.124056 112.422677 
L 177.155515 112.435933 
L 177.186974 112.449251 
L 177.218432 112.462574 
L 177.249891 112.475767 
L 177.28135 112.489098 
L 177.312809 112.502338 
L 177.344268 112.515696 
L 177.375727 112.529014 
L 177.407186 112.542226 
L 177.56448 112.608714 
L 177.879069 112.74146 
L 179.452013 113.403305 
L 182.5979 114.717065 
L 185.743788 116.020196 
L 188.889675 117.315519 
L 192.035563 118.605778 
L 195.18145 119.893216 
L 198.327338 121.179935 
L 201.473225 122.467685 
L 204.619113 123.758535 
L 207.765 125.053807 
" style="fill:none;stroke:#000000;stroke-linecap:square;stroke-width:1.5;"/>
    <defs>
     <path d="M 0 3 
C 0.795609 3 1.55874 2.683901 2.12132 2.12132 
C 2.683901 1.55874 3 0.795609 3 0 
C 3 -0.795609 2.683901 -1.55874 2.12132 -2.12132 
C 1.55874 -2.683901 0.795609 -3 0 -3 
C -0.795609 -3 -1.55874 -2.683901 -2.12132 -2.12132 
C -2.683901 -1.55874 -3 -0.795609 -3 0 
C -3 0.795609 -2.683901 1.55874 -2.12132 2.12132 
C -1.55874 2.683901 -0.795609 3 0 3 
z
" id="m4a25dede5a" style="stroke:#000000;"/>
    </defs>
    <g clip-path="url(#p73950b5139)">
     <use style="fill-opacity:0;stroke:#000000;" x="56.7624" xlink:href="#m4a25dede5a" y="65.504624"/>
     <use style="fill-opacity:0;stroke:#000000;" x="69.34595" xlink:href="#m4a25dede5a" y="65.504744"/>
     <use style="fill-opacity:0;stroke:#000000;" x="81.9295" xlink:href="#m4a25dede5a" y="65.504934"/>
     <use style="fill-opacity:0;stroke:#000000;" x="94.51305" xlink:href="#m4a25dede5a" y="65.505273"/>
     <use style="fill-opacity:0;stroke:#000000;" x="107.0966" xlink:href="#m4a25dede5a" y="65.506129"/>
     <use style="fill-opacity:0;stroke:#000000;" x="119.68015" xlink:href="#m4a25dede5a" y="76.598945"/>
     <use style="fill-opacity:0;stroke:#000000;" x="132.2637" xlink:href="#m4a25dede5a" y="89.100282"/>
     <use style="fill-opacity:0;stroke:#000000;" x="144.84725" xlink:href="#m4a25dede5a" y="97.110518"/>
     <use style="fill-opacity:0;stroke:#000000;" x="157.4308" xlink:href="#m4a25dede5a" y="103.618075"/>
     <use style="fill-opacity:0;stroke:#000000;" x="170.01435" xlink:href="#m4a25dede5a" y="109.36716"/>
     <use style="fill-opacity:0;stroke:#000000;" x="182.5979" xlink:href="#m4a25dede5a" y="114.717065"/>
     <use style="fill-opacity:0;stroke:#000000;" x="195.18145" xlink:href="#m4a25dede5a" y="119.893216"/>
     <use style="fill-opacity:0;stroke:#000000;" x="207.765" xlink:href="#m4a25dede5a" y="125.053807"/>
    </g>
   </g>
   <g id="line2d_13">
    <path clip-path="url(#p73950b5139)" d="M 50.470625 65.503447 
L 53.616512 65.503435 
L 56.7624 65.503421 
L 59.908288 65.503405 
L 63.054175 65.503386 
L 66.200063 65.503364 
L 69.34595 65.503339 
L 72.491838 65.50331 
L 75.637725 65.503277 
L 78.783613 65.503239 
L 81.9295 65.503194 
L 85.075388 65.503142 
L 88.221275 65.503079 
L 91.367162 65.503004 
L 94.51305 65.502911 
L 97.658937 65.502794 
L 100.804825 65.502642 
L 103.950712 65.502432 
L 107.0966 65.502119 
L 110.242487 65.501582 
L 113.388375 65.500281 
L 113.702964 65.500022 
L 114.017552 65.499706 
L 114.332141 65.499308 
L 114.64673 65.498784 
L 114.961319 65.498053 
L 115.275908 65.49692 
L 115.590496 65.4948 
L 115.621955 65.494471 
L 115.653414 65.494106 
L 115.684873 65.493689 
L 115.716332 65.49323 
L 115.747791 65.492692 
L 115.77925 65.492077 
L 115.810708 65.491352 
L 115.842167 65.490463 
L 115.873626 65.489367 
L 115.905085 65.487988 
L 115.936544 65.486088 
L 115.968003 65.483329 
L 115.999462 65.478811 
L 116.03092 65.468763 
L 116.062379 65.367042 
L 116.093838 64.507463 
L 116.125297 64.06388 
L 116.156756 63.729643 
L 116.188215 63.452208 
L 116.219674 63.205426 
L 116.534262 61.509315 
L 119.68015 54.409377 
L 122.826037 50.313533 
L 125.971925 47.094302 
L 129.117813 44.347562 
L 132.2637 41.908122 
L 135.409588 39.688395 
L 138.555475 37.635593 
L 141.701363 35.713399 
L 144.84725 33.897975 
L 147.993138 32.170834 
L 151.139025 30.517622 
L 154.284913 28.927282 
L 157.4308 27.390508 
L 160.576688 25.899716 
L 163.722575 24.447922 
L 166.868463 23.030264 
L 170.01435 21.641507 
L 173.160238 20.276782 
L 174.733181 19.602393 
L 175.04777 19.468118 
L 175.362359 19.333982 
L 175.676948 19.200099 
L 175.991536 19.066398 
L 176.306125 18.932776 
L 176.620714 18.799197 
L 176.778008 18.732579 
L 176.809467 18.719258 
L 176.840926 18.70591 
L 176.872385 18.692441 
L 176.903844 18.679372 
L 176.935303 18.665803 
L 176.966761 18.652643 
L 176.99822 18.639544 
L 177.029679 18.626012 
L 177.061138 18.612855 
L 177.092597 18.599334 
L 177.124056 18.586032 
L 177.155515 18.572776 
L 177.186974 18.559458 
L 177.218432 18.546136 
L 177.249891 18.532943 
L 177.28135 18.519611 
L 177.312809 18.506372 
L 177.344268 18.493014 
L 177.375727 18.479696 
L 177.407186 18.466484 
L 177.56448 18.399997 
L 177.879069 18.267253 
L 179.452013 17.605416 
L 182.5979 16.291671 
L 185.743788 14.988552 
L 188.889675 13.693239 
L 192.035563 12.402987 
L 195.18145 11.115553 
L 198.327338 9.828836 
L 201.473225 8.541083 
L 204.619113 7.250226 
L 207.765 5.954943 
" style="fill:none;stroke:#000000;stroke-linecap:square;stroke-width:1.5;"/>
    <defs>
     <path d="M -3 3 
L 3 -3 
M -3 -3 
L 3 3 
" id="m838fbd6a34" style="stroke:#000000;"/>
    </defs>
    <g clip-path="url(#p73950b5139)">
     <use style="fill-opacity:0;stroke:#000000;" x="56.7624" xlink:href="#m838fbd6a34" y="65.503421"/>
     <use style="fill-opacity:0;stroke:#000000;" x="69.34595" xlink:href="#m838fbd6a34" y="65.503339"/>
     <use style="fill-opacity:0;stroke:#000000;" x="81.9295" xlink:href="#m838fbd6a34" y="65.503194"/>
     <use style="fill-opacity:0;stroke:#000000;" x="94.51305" xlink:href="#m838fbd6a34" y="65.502911"/>
     <use style="fill-opacity:0;stroke:#000000;" x="107.0966" xlink:href="#m838fbd6a34" y="65.502119"/>
     <use style="fill-opacity:0;stroke:#000000;" x="119.68015" xlink:href="#m838fbd6a34" y="54.409377"/>
     <use style="fill-opacity:0;stroke:#000000;" x="132.2637" xlink:href="#m838fbd6a34" y="41.908122"/>
     <use style="fill-opacity:0;stroke:#000000;" x="144.84725" xlink:href="#m838fbd6a34" y="33.897975"/>
     <use style="fill-opacity:0;stroke:#000000;" x="157.4308" xlink:href="#m838fbd6a34" y="27.390508"/>
     <use style="fill-opacity:0;stroke:#000000;" x="170.01435" xlink:href="#m838fbd6a34" y="21.641507"/>
     <use style="fill-opacity:0;stroke:#000000;" x="182.5979" xlink:href="#m838fbd6a34" y="16.291671"/>
     <use style="fill-opacity:0;stroke:#000000;" x="195.18145" xlink:href="#m838fbd6a34" y="11.115553"/>
     <use style="fill-opacity:0;stroke:#000000;" x="207.765" xlink:href="#m838fbd6a34" y="5.954943"/>
    </g>
   </g>
   <g id="line2d_14">
    <path clip-path="url(#p73950b5139)" d="M 50.470625 65.503531 
L 53.616512 65.503539 
L 56.7624 65.503547 
L 59.908288 65.503555 
L 63.054175 65.503564 
L 66.200063 65.503574 
L 69.34595 65.503584 
L 72.491838 65.503595 
L 75.637725 65.503607 
L 78.783613 65.50362 
L 81.9295 65.503633 
L 85.075388 65.503648 
L 88.221275 65.503663 
L 91.367162 65.50368 
L 94.51305 65.503698 
L 97.658937 65.503717 
L 100.804825 65.503737 
L 103.950712 65.503759 
L 107.0966 65.503783 
L 110.242487 65.503808 
L 113.388375 65.503835 
L 113.702964 65.503838 
L 114.017552 65.503841 
L 114.332141 65.503844 
L 114.64673 65.503847 
L 114.961319 65.50385 
L 115.275908 65.503853 
L 115.590496 65.503856 
L 115.621955 65.503856 
L 115.653414 65.503856 
L 115.684873 65.503857 
L 115.716332 65.503857 
L 115.747791 65.503857 
L 115.77925 65.503857 
L 115.810708 65.503858 
L 115.842167 65.503858 
L 115.873626 65.503858 
L 115.905085 65.503859 
L 115.936544 65.503859 
L 115.968003 65.503859 
L 115.999462 65.503859 
L 116.03092 65.50386 
L 116.062379 65.50386 
L 116.093838 65.50386 
L 116.125297 65.503861 
L 116.156756 65.503861 
L 116.188215 65.503861 
L 116.219674 65.503862 
L 116.534262 65.503865 
L 119.68015 65.503897 
L 122.826037 65.503931 
L 125.971925 65.503968 
L 129.117813 65.504009 
L 132.2637 65.504053 
L 135.409588 65.504103 
L 138.555475 65.504157 
L 141.701363 65.504219 
L 144.84725 65.504288 
L 147.993138 65.504366 
L 151.139025 65.504458 
L 154.284913 65.504566 
L 157.4308 65.504695 
L 160.576688 65.504857 
L 163.722575 65.505069 
L 166.868463 65.505362 
L 170.01435 65.505818 
L 173.160238 65.506705 
L 174.733181 65.507664 
L 175.04777 65.507968 
L 175.362359 65.508344 
L 175.676948 65.508824 
L 175.991536 65.509471 
L 176.306125 65.510415 
L 176.620714 65.511976 
L 176.778008 65.513278 
L 176.809467 65.513598 
L 176.840926 65.513976 
L 176.872385 65.51441 
L 176.903844 65.514872 
L 176.935303 65.515395 
L 176.966761 65.516032 
L 176.99822 65.516744 
L 177.029679 65.517586 
L 177.061138 65.518655 
L 177.092597 65.519973 
L 177.124056 65.521729 
L 177.155515 65.52413 
L 177.186974 65.527924 
L 177.218432 65.534849 
L 177.249891 65.557478 
L 177.28135 66.00491 
L 177.312809 66.384191 
L 177.344268 66.645096 
L 177.375727 66.860496 
L 177.407186 67.043746 
L 177.56448 67.74832 
L 177.879069 68.722867 
L 179.452013 71.595666 
L 182.5979 75.048883 
L 185.743788 77.577706 
L 188.889675 79.686544 
L 192.035563 81.542817 
L 195.18145 83.225933 
L 198.327338 84.783318 
L 201.473225 86.243443 
L 204.619113 87.625382 
L 207.765 88.944334 
" style="fill:none;stroke:#ff0000;stroke-linecap:square;stroke-width:1.5;"/>
    <defs>
     <path d="M 0 4.242641 
L 4.242641 0 
L 0 -4.242641 
L -4.242641 0 
z
" id="mb80b8752a6" style="stroke:#ff0000;stroke-linejoin:miter;"/>
    </defs>
    <g clip-path="url(#p73950b5139)">
     <use style="fill-opacity:0;stroke:#ff0000;stroke-linejoin:miter;" x="56.7624" xlink:href="#mb80b8752a6" y="65.503547"/>
     <use style="fill-opacity:0;stroke:#ff0000;stroke-linejoin:miter;" x="69.34595" xlink:href="#mb80b8752a6" y="65.503584"/>
     <use style="fill-opacity:0;stroke:#ff0000;stroke-linejoin:miter;" x="81.9295" xlink:href="#mb80b8752a6" y="65.503633"/>
     <use style="fill-opacity:0;stroke:#ff0000;stroke-linejoin:miter;" x="94.51305" xlink:href="#mb80b8752a6" y="65.503698"/>
     <use style="fill-opacity:0;stroke:#ff0000;stroke-linejoin:miter;" x="107.0966" xlink:href="#mb80b8752a6" y="65.503783"/>
     <use style="fill-opacity:0;stroke:#ff0000;stroke-linejoin:miter;" x="119.68015" xlink:href="#mb80b8752a6" y="65.503897"/>
     <use style="fill-opacity:0;stroke:#ff0000;stroke-linejoin:miter;" x="132.2637" xlink:href="#mb80b8752a6" y="65.504053"/>
     <use style="fill-opacity:0;stroke:#ff0000;stroke-linejoin:miter;" x="144.84725" xlink:href="#mb80b8752a6" y="65.504288"/>
     <use style="fill-opacity:0;stroke:#ff0000;stroke-linejoin:miter;" x="157.4308" xlink:href="#mb80b8752a6" y="65.504695"/>
     <use style="fill-opacity:0;stroke:#ff0000;stroke-linejoin:miter;" x="170.01435" xlink:href="#mb80b8752a6" y="65.505818"/>
     <use style="fill-opacity:0;stroke:#ff0000;stroke-linejoin:miter;" x="182.5979" xlink:href="#mb80b8752a6" y="75.048883"/>
     <use style="fill-opacity:0;stroke:#ff0000;stroke-linejoin:miter;" x="195.18145" xlink:href="#mb80b8752a6" y="83.225933"/>
     <use style="fill-opacity:0;stroke:#ff0000;stroke-linejoin:miter;" x="207.765" xlink:href="#mb80b8752a6" y="88.944334"/>
    </g>
   </g>
   <g id="line2d_15">
    <path clip-path="url(#p73950b5139)" d="M 50.470625 65.502811 
L 53.616512 65.502809 
L 56.7624 65.502807 
L 59.908288 65.502804 
L 63.054175 65.502801 
L 66.200063 65.502797 
L 69.34595 65.502793 
L 72.491838 65.502788 
L 75.637725 65.502783 
L 78.783613 65.502777 
L 81.9295 65.502771 
L 85.075388 65.502764 
L 88.221275 65.502756 
L 91.367162 65.502748 
L 94.51305 65.502738 
L 97.658937 65.502728 
L 100.804825 65.502717 
L 103.950712 65.502705 
L 107.0966 65.502691 
L 110.242487 65.502676 
L 113.388375 65.50266 
L 113.702964 65.502658 
L 114.017552 65.502656 
L 114.332141 65.502655 
L 114.64673 65.502653 
L 114.961319 65.502651 
L 115.275908 65.502649 
L 115.590496 65.502647 
L 115.621955 65.502647 
L 115.653414 65.502647 
L 115.684873 65.502647 
L 115.716332 65.502647 
L 115.747791 65.502646 
L 115.77925 65.502646 
L 115.810708 65.502646 
L 115.842167 65.502646 
L 115.873626 65.502646 
L 115.905085 65.502646 
L 115.936544 65.502645 
L 115.968003 65.502645 
L 115.999462 65.502645 
L 116.03092 65.502645 
L 116.062379 65.502645 
L 116.093838 65.502645 
L 116.125297 65.502644 
L 116.156756 65.502644 
L 116.188215 65.502644 
L 116.219674 65.502644 
L 116.534262 65.502642 
L 119.68015 65.502621 
L 122.826037 65.502599 
L 125.971925 65.502575 
L 129.117813 65.502547 
L 132.2637 65.502515 
L 135.409588 65.502479 
L 138.555475 65.502439 
L 141.701363 65.502392 
L 144.84725 65.502338 
L 147.993138 65.502275 
L 151.139025 65.502199 
L 154.284913 65.502107 
L 157.4308 65.501995 
L 160.576688 65.501849 
L 163.722575 65.501656 
L 166.868463 65.501381 
L 170.01435 65.500943 
L 173.160238 65.500075 
L 174.733181 65.499125 
L 175.04777 65.498824 
L 175.362359 65.498449 
L 175.676948 65.497971 
L 175.991536 65.497326 
L 176.306125 65.496384 
L 176.620714 65.494824 
L 176.778008 65.493524 
L 176.809467 65.493204 
L 176.840926 65.492827 
L 176.872385 65.492392 
L 176.903844 65.491931 
L 176.935303 65.491408 
L 176.966761 65.490771 
L 176.99822 65.49006 
L 177.029679 65.489217 
L 177.061138 65.488148 
L 177.092597 65.486831 
L 177.124056 65.485075 
L 177.155515 65.482675 
L 177.186974 65.478881 
L 177.218432 65.471956 
L 177.249891 65.449327 
L 177.28135 65.001895 
L 177.312809 64.622615 
L 177.344268 64.361709 
L 177.375727 64.146309 
L 177.407186 63.96306 
L 177.56448 63.258487 
L 177.879069 62.283943 
L 179.452013 59.411153 
L 182.5979 55.957955 
L 185.743788 53.429153 
L 188.889675 51.320336 
L 192.035563 49.464085 
L 195.18145 47.780991 
L 198.327338 46.223626 
L 201.473225 44.763524 
L 204.619113 43.381607 
L 207.765 42.062679 
" style="fill:none;stroke:#ff0000;stroke-linecap:square;stroke-width:1.5;"/>
    <defs>
     <path d="M -3 0 
L 3 0 
M 0 3 
L 0 -3 
" id="m1f3386be36" style="stroke:#ff0000;"/>
    </defs>
    <g clip-path="url(#p73950b5139)">
     <use style="fill-opacity:0;stroke:#ff0000;" x="56.7624" xlink:href="#m1f3386be36" y="65.502807"/>
     <use style="fill-opacity:0;stroke:#ff0000;" x="69.34595" xlink:href="#m1f3386be36" y="65.502793"/>
     <use style="fill-opacity:0;stroke:#ff0000;" x="81.9295" xlink:href="#m1f3386be36" y="65.502771"/>
     <use style="fill-opacity:0;stroke:#ff0000;" x="94.51305" xlink:href="#m1f3386be36" y="65.502738"/>
     <use style="fill-opacity:0;stroke:#ff0000;" x="107.0966" xlink:href="#m1f3386be36" y="65.502691"/>
     <use style="fill-opacity:0;stroke:#ff0000;" x="119.68015" xlink:href="#m1f3386be36" y="65.502621"/>
     <use style="fill-opacity:0;stroke:#ff0000;" x="132.2637" xlink:href="#m1f3386be36" y="65.502515"/>
     <use style="fill-opacity:0;stroke:#ff0000;" x="144.84725" xlink:href="#m1f3386be36" y="65.502338"/>
     <use style="fill-opacity:0;stroke:#ff0000;" x="157.4308" xlink:href="#m1f3386be36" y="65.501995"/>
     <use style="fill-opacity:0;stroke:#ff0000;" x="170.01435" xlink:href="#m1f3386be36" y="65.500943"/>
     <use style="fill-opacity:0;stroke:#ff0000;" x="182.5979" xlink:href="#m1f3386be36" y="55.957955"/>
     <use style="fill-opacity:0;stroke:#ff0000;" x="195.18145" xlink:href="#m1f3386be36" y="47.780991"/>
     <use style="fill-opacity:0;stroke:#ff0000;" x="207.765" xlink:href="#m1f3386be36" y="42.062679"/>
    </g>
   </g>
   <g id="patch_4">
    <path d="M 50.470625 131.00875 
L 50.470625 0 
" style="fill:none;stroke:#000000;stroke-linecap:square;stroke-linejoin:miter;stroke-width:0.8;"/>
   </g>
   <g id="patch_5">
    <path d="M 207.765 131.00875 
L 207.765 0 
" style="fill:none;stroke:#000000;stroke-linecap:square;stroke-linejoin:miter;stroke-width:0.8;"/>
   </g>
   <g id="patch_6">
    <path d="M 50.470625 131.00875 
L 207.765 131.00875 
" style="fill:none;stroke:#000000;stroke-linecap:square;stroke-linejoin:miter;stroke-width:0.8;"/>
   </g>
   <g id="patch_7">
    <path d="M 50.470625 0 
L 207.765 0 
" style="fill:none;stroke:#000000;stroke-linecap:square;stroke-linejoin:miter;stroke-width:0.8;"/>
   </g>
   <g id="patch_8">
    <path d="M 108.562402 80.475464 
Q 99.23235 86.51819 90.840708 91.953144 
" style="fill:none;stroke:#000000;stroke-linecap:round;"/>
    <path d="M 95.729738 91.407812 
L 90.840708 91.953144 
L 93.33786 87.714721 
" style="fill:none;stroke:#000000;stroke-linecap:round;"/>
   </g>
  </g>
  <g id="axes_2">
   <g id="patch_9">
    <path d="M 64.8 121.5 
L 99.36 121.5 
L 99.36 95.58 
L 64.8 95.58 
z
" style="fill:#ffffff;"/>
   </g>
   <g id="matplotlib.axis_3"/>
   <g id="matplotlib.axis_4">
    <g id="ytick_6">
     <g id="line2d_16">
      <g>
       <use style="stroke:#000000;stroke-width:0.8;" x="64.8" xlink:href="#ma9884ddb22" y="104.22"/>
      </g>
     </g>
     <g id="text_14">
      <!-- 0 -->
      <g transform="translate(53.2185 107.349021)scale(0.09163 -0.09163)">
       <use xlink:href="#STIXGeneral-Regular-30"/>
      </g>
     </g>
    </g>
   </g>
   <g id="line2d_17">
    <path clip-path="url(#pb42b0ed2fe)" d="M -1 110.009422 
L 30.24 110.020257 
L 36 110.024206 
L 41.76 110.029022 
L 47.52 110.035073 
L 53.28 110.043032 
L 59.04 110.054141 
L 64.8 110.071328 
L 70.56 110.103462 
L 71.136 110.108451 
L 71.712 110.113978 
L 72.288 110.120287 
L 72.864 110.127253 
L 73.44 110.135402 
L 74.016 110.14471 
L 74.592 110.155702 
L 75.168 110.169162 
L 75.744 110.18577 
L 76.32 110.206662 
L 76.896 110.235439 
L 77.472 110.277216 
L 78.048 110.345643 
L 78.624 110.497823 
L 79.2 112.038366 
L 79.776 125.056526 
L 80.352 131.774515 
L 80.928 136.836469 
L 81.504 141.038168 
L 82.08 144.775633 
L 86.166547 163 
" style="fill:none;stroke:#000000;stroke-linecap:square;stroke-width:1.5;"/>
   </g>
   <g id="line2d_18">
    <path clip-path="url(#pb42b0ed2fe)" d="M -1 109.913984 
L 30.24 109.903297 
L 36 109.89938 
L 41.76 109.89459 
L 47.52 109.888566 
L 53.28 109.880636 
L 59.04 109.869554 
L 64.8 109.852397 
L 70.56 109.820291 
L 71.136 109.815305 
L 71.712 109.809781 
L 72.288 109.803475 
L 72.864 109.796511 
L 73.44 109.788364 
L 74.016 109.779059 
L 74.592 109.768071 
L 75.168 109.754613 
L 75.744 109.738009 
L 76.32 109.71712 
L 76.896 109.688347 
L 77.472 109.646572 
L 78.048 109.578148 
L 78.624 109.425973 
L 79.2 107.885431 
L 79.776 94.867273 
L 80.352 88.149286 
L 80.928 83.087336 
L 81.504 78.885639 
L 82.08 75.148177 
L 87.84 49.460908 
L 114.870829 -1 
" style="fill:none;stroke:#000000;stroke-linecap:square;stroke-width:1.5;"/>
   </g>
   <g id="line2d_19">
    <path clip-path="url(#pb42b0ed2fe)" d="M -1 109.956909 
L 30.24 109.957133 
L 36 109.957175 
L 41.76 109.957219 
L 47.52 109.957262 
L 53.28 109.957305 
L 59.04 109.957349 
L 64.8 109.957395 
L 70.56 109.957443 
L 71.136 109.957444 
L 71.712 109.957448 
L 72.288 109.957453 
L 72.864 109.957457 
L 73.44 109.957462 
L 74.016 109.957466 
L 74.592 109.957472 
L 75.168 109.957475 
L 75.744 109.957481 
L 76.32 109.957484 
L 76.896 109.957488 
L 77.472 109.957494 
L 78.048 109.957497 
L 78.624 109.957502 
L 79.2 109.957507 
L 79.776 109.957512 
L 80.352 109.957518 
L 80.928 109.957522 
L 81.504 109.957526 
L 82.08 109.957531 
L 87.84 109.957576 
L 145.44 109.958059 
L 203.04 109.958577 
L 217 109.958713 
" style="fill:none;stroke:#ff0000;stroke-linecap:square;stroke-width:1.5;"/>
   </g>
   <g id="line2d_20">
    <path clip-path="url(#pb42b0ed2fe)" d="M -1 109.939465 
L 30.24 109.93933 
L 36 109.939302 
L 41.76 109.939278 
L 47.52 109.939254 
L 53.28 109.939229 
L 59.04 109.939198 
L 64.8 109.93917 
L 70.56 109.939137 
L 71.136 109.939135 
L 71.712 109.939138 
L 72.288 109.939135 
L 72.864 109.93913 
L 73.44 109.939127 
L 74.016 109.939127 
L 74.592 109.939121 
L 75.168 109.939121 
L 75.744 109.939117 
L 76.32 109.939113 
L 76.896 109.939112 
L 77.472 109.939107 
L 78.048 109.939107 
L 78.624 109.939102 
L 79.2 109.939101 
L 79.776 109.939097 
L 80.352 109.939093 
L 80.928 109.939089 
L 81.504 109.939086 
L 82.08 109.939083 
L 87.84 109.939059 
L 145.44 109.938747 
L 203.04 109.938412 
L 217 109.938322 
" style="fill:none;stroke:#ff0000;stroke-linecap:square;stroke-width:1.5;"/>
   </g>
   <g id="patch_10">
    <path d="M 64.8 121.5 
L 64.8 95.58 
" style="fill:none;stroke:#000000;stroke-linecap:square;stroke-linejoin:miter;stroke-width:0.8;"/>
   </g>
   <g id="patch_11">
    <path d="M 99.36 121.5 
L 99.36 95.58 
" style="fill:none;stroke:#000000;stroke-linecap:square;stroke-linejoin:miter;stroke-width:0.8;"/>
   </g>
   <g id="patch_12">
    <path d="M 64.8 121.5 
L 99.36 121.5 
" style="fill:none;stroke:#000000;stroke-linecap:square;stroke-linejoin:miter;stroke-width:0.8;"/>
   </g>
   <g id="patch_13">
    <path d="M 64.8 95.58 
L 99.36 95.58 
" style="fill:none;stroke:#000000;stroke-linecap:square;stroke-linejoin:miter;stroke-width:0.8;"/>
   </g>
  </g>
 </g>
 <defs>
  <clipPath id="p73950b5139">
   <rect height="131.00875" width="157.294375" x="50.470625" y="0"/>
  </clipPath>
  <clipPath id="pb42b0ed2fe">
   <rect height="25.92" width="34.56" x="64.8" y="95.58"/>
  </clipPath>
 </defs>
</svg>
