<?xml version="1.0" encoding="utf-8" standalone="no"?>
<!DOCTYPE svg PUBLIC "-//W3C//DTD SVG 1.1//EN"
  "http://www.w3.org/Graphics/SVG/1.1/DTD/svg11.dtd">
<svg height="162pt" version="1.1" viewBox="0 0 216 162" width="216pt" xmlns="http://www.w3.org/2000/svg" xmlns:xlink="http://www.w3.org/1999/xlink">
 <metadata>
  <rdf:RDF xmlns:cc="http://creativecommons.org/ns#" xmlns:dc="http://purl.org/dc/elements/1.1/" xmlns:rdf="http://www.w3.org/1999/02/22-rdf-syntax-ns#">
   <cc:Work>
    <dc:type rdf:resource="http://purl.org/dc/dcmitype/StillImage"/>
    <dc:date>2021-07-23T10:03:10.695748</dc:date>
    <dc:format>image/svg+xml</dc:format>
    <dc:creator>
     <cc:Agent>
      <dc:title>Matplotlib v3.4.2, https://matplotlib.org/</dc:title>
     </cc:Agent>
    </dc:creator>
   </cc:Work>
  </rdf:RDF>
 </metadata>
 <defs>
  <style type="text/css">*{stroke-linecap:butt;stroke-linejoin:round;}</style>
 </defs>
 <g id="figure_1">
  <g id="patch_1">
   <path d="M 0 162 
L 216 162 
L 216 0 
L 0 0 
z
" style="fill:#ffffff;"/>
  </g>
  <g id="axes_1">
   <g id="patch_2">
    <path d="M 44.48 131.00875 
L 207.765 131.00875 
L 207.765 0 
L 44.48 0 
z
" style="fill:#ffffff;"/>
   </g>
   <g id="matplotlib.axis_1">
    <g id="xtick_1">
     <g id="line2d_1">
      <defs>
       <path d="M 0 0 
L 0 3.5 
" id="m47d98e864a" style="stroke:#000000;stroke-width:0.8;"/>
      </defs>
      <g>
       <use style="stroke:#000000;stroke-width:0.8;" x="44.48" xlink:href="#m47d98e864a" y="131.00875"/>
      </g>
     </g>
     <g id="text_1">
      <!-- 100 -->
      <g transform="translate(36.23 145.521406)scale(0.11 -0.11)">
       <defs>
        <path d="M 2522 0 
L 755 0 
L 755 96 
Q 1107 115 1235 227 
Q 1363 339 1363 608 
L 1363 3482 
Q 1363 3795 1171 3795 
Q 1082 3795 883 3718 
L 710 3654 
L 710 3744 
L 1856 4326 
L 1914 4307 
L 1914 486 
Q 1914 275 2042 185 
Q 2170 96 2522 96 
L 2522 0 
z
" id="STIXGeneral-Regular-31" transform="scale(0.015625)"/>
        <path d="M 3046 2112 
Q 3046 1683 2963 1302 
Q 2880 922 2717 602 
Q 2554 282 2266 96 
Q 1978 -90 1600 -90 
Q 1210 -90 915 108 
Q 621 307 461 640 
Q 301 973 227 1350 
Q 154 1728 154 2150 
Q 154 2746 301 3222 
Q 448 3699 790 4012 
Q 1133 4326 1626 4326 
Q 2253 4326 2649 3712 
Q 3046 3098 3046 2112 
z
M 2432 2080 
Q 2432 3091 2217 3625 
Q 2003 4160 1587 4160 
Q 1190 4160 979 3622 
Q 768 3085 768 2106 
Q 768 1120 979 598 
Q 1190 77 1600 77 
Q 2003 77 2217 598 
Q 2432 1120 2432 2080 
z
" id="STIXGeneral-Regular-30" transform="scale(0.015625)"/>
       </defs>
       <use xlink:href="#STIXGeneral-Regular-31"/>
       <use x="49.999985" xlink:href="#STIXGeneral-Regular-30"/>
       <use x="99.999969" xlink:href="#STIXGeneral-Regular-30"/>
      </g>
     </g>
    </g>
    <g id="xtick_2">
     <g id="line2d_2">
      <g>
       <use style="stroke:#000000;stroke-width:0.8;" x="77.137" xlink:href="#m47d98e864a" y="131.00875"/>
      </g>
     </g>
     <g id="text_2">
      <!-- 200 -->
      <g transform="translate(68.887 145.521406)scale(0.11 -0.11)">
       <defs>
        <path d="M 3034 877 
L 2688 0 
L 186 0 
L 186 77 
L 1325 1286 
Q 1773 1754 1965 2144 
Q 2157 2534 2157 2950 
Q 2157 3379 1920 3616 
Q 1683 3853 1267 3853 
Q 922 3853 720 3673 
Q 518 3494 326 3021 
L 192 3053 
Q 301 3648 630 3987 
Q 960 4326 1523 4326 
Q 2054 4326 2380 4006 
Q 2707 3686 2707 3200 
Q 2707 2477 1888 1613 
L 832 486 
L 2330 486 
Q 2541 486 2665 569 
Q 2790 653 2944 915 
L 3034 877 
z
" id="STIXGeneral-Regular-32" transform="scale(0.015625)"/>
       </defs>
       <use xlink:href="#STIXGeneral-Regular-32"/>
       <use x="49.999985" xlink:href="#STIXGeneral-Regular-30"/>
       <use x="99.999969" xlink:href="#STIXGeneral-Regular-30"/>
      </g>
     </g>
    </g>
    <g id="xtick_3">
     <g id="line2d_3">
      <g>
       <use style="stroke:#000000;stroke-width:0.8;" x="109.794" xlink:href="#m47d98e864a" y="131.00875"/>
      </g>
     </g>
     <g id="text_3">
      <!-- 300 -->
      <g transform="translate(101.544 145.521406)scale(0.11 -0.11)">
       <defs>
        <path d="M 390 3264 
L 288 3290 
Q 435 3770 748 4048 
Q 1062 4326 1542 4326 
Q 1990 4326 2265 4083 
Q 2541 3840 2541 3450 
Q 2541 2925 1946 2566 
Q 2298 2413 2477 2227 
Q 2758 1914 2758 1402 
Q 2758 890 2464 506 
Q 2246 211 1840 60 
Q 1434 -90 979 -90 
Q 262 -90 262 275 
Q 262 378 339 442 
Q 416 506 525 506 
Q 685 506 915 339 
Q 1197 141 1466 141 
Q 1818 141 2058 425 
Q 2298 710 2298 1120 
Q 2298 1856 1632 2048 
Q 1434 2112 979 2112 
L 979 2202 
Q 1338 2323 1517 2432 
Q 2035 2726 2035 3290 
Q 2035 3610 1852 3776 
Q 1670 3942 1344 3942 
Q 768 3942 390 3264 
z
" id="STIXGeneral-Regular-33" transform="scale(0.015625)"/>
       </defs>
       <use xlink:href="#STIXGeneral-Regular-33"/>
       <use x="49.999985" xlink:href="#STIXGeneral-Regular-30"/>
       <use x="99.999969" xlink:href="#STIXGeneral-Regular-30"/>
      </g>
     </g>
    </g>
    <g id="xtick_4">
     <g id="line2d_4">
      <g>
       <use style="stroke:#000000;stroke-width:0.8;" x="142.451" xlink:href="#m47d98e864a" y="131.00875"/>
      </g>
     </g>
     <g id="text_4">
      <!-- 400 -->
      <g transform="translate(134.201 145.521406)scale(0.11 -0.11)">
       <defs>
        <path d="M 3027 1069 
L 2368 1069 
L 2368 0 
L 1869 0 
L 1869 1069 
L 77 1069 
L 77 1478 
L 2086 4326 
L 2368 4326 
L 2368 1478 
L 3027 1478 
L 3027 1069 
z
M 1869 1478 
L 1869 3674 
L 333 1478 
L 1869 1478 
z
" id="STIXGeneral-Regular-34" transform="scale(0.015625)"/>
       </defs>
       <use xlink:href="#STIXGeneral-Regular-34"/>
       <use x="49.999985" xlink:href="#STIXGeneral-Regular-30"/>
       <use x="99.999969" xlink:href="#STIXGeneral-Regular-30"/>
      </g>
     </g>
    </g>
    <g id="xtick_5">
     <g id="line2d_5">
      <g>
       <use style="stroke:#000000;stroke-width:0.8;" x="175.108" xlink:href="#m47d98e864a" y="131.00875"/>
      </g>
     </g>
     <g id="text_5">
      <!-- 500 -->
      <g transform="translate(166.858 145.521406)scale(0.11 -0.11)">
       <defs>
        <path d="M 2803 4358 
L 2573 3814 
Q 2534 3731 2400 3731 
L 1158 3731 
L 902 3187 
Q 1606 3053 1920 2896 
Q 2234 2739 2502 2368 
Q 2726 2061 2726 1555 
Q 2726 1094 2576 780 
Q 2426 467 2099 224 
Q 1664 -90 1011 -90 
Q 646 -90 422 19 
Q 198 128 198 307 
Q 198 550 486 550 
Q 717 550 960 352 
Q 1210 147 1414 147 
Q 1747 147 2012 480 
Q 2278 813 2278 1229 
Q 2278 1843 1850 2189 
Q 1293 2637 486 2637 
Q 410 2637 410 2688 
L 416 2720 
L 1114 4237 
L 2438 4237 
Q 2547 4237 2608 4269 
Q 2669 4301 2746 4403 
L 2803 4358 
z
" id="STIXGeneral-Regular-35" transform="scale(0.015625)"/>
       </defs>
       <use xlink:href="#STIXGeneral-Regular-35"/>
       <use x="49.999985" xlink:href="#STIXGeneral-Regular-30"/>
       <use x="99.999969" xlink:href="#STIXGeneral-Regular-30"/>
      </g>
     </g>
    </g>
    <g id="xtick_6">
     <g id="line2d_6">
      <g>
       <use style="stroke:#000000;stroke-width:0.8;" x="207.765" xlink:href="#m47d98e864a" y="131.00875"/>
      </g>
     </g>
     <g id="text_6">
      <!-- 600 -->
      <g transform="translate(199.515 145.521406)scale(0.11 -0.11)">
       <defs>
        <path d="M 2854 4378 
L 2867 4275 
Q 2112 4154 1606 3664 
Q 1101 3174 973 2451 
Q 1344 2739 1786 2739 
Q 2349 2739 2672 2380 
Q 2995 2022 2995 1402 
Q 2995 774 2669 378 
Q 2291 -90 1651 -90 
Q 870 -90 518 557 
Q 218 1107 218 1786 
Q 218 2835 915 3552 
Q 1312 3962 1731 4131 
Q 2150 4301 2854 4378 
z
M 2419 1203 
Q 2419 2445 1555 2445 
Q 1235 2445 1024 2275 
Q 813 2106 813 1702 
Q 813 954 1046 522 
Q 1280 90 1722 90 
Q 2061 90 2240 394 
Q 2419 698 2419 1203 
z
" id="STIXGeneral-Regular-36" transform="scale(0.015625)"/>
       </defs>
       <use xlink:href="#STIXGeneral-Regular-36"/>
       <use x="49.999985" xlink:href="#STIXGeneral-Regular-30"/>
       <use x="99.999969" xlink:href="#STIXGeneral-Regular-30"/>
      </g>
     </g>
    </g>
    <g id="text_7">
     <!-- $\lambda$ -->
     <g transform="translate(123.5925 159.421406)scale(0.11 -0.11)">
      <defs>
       <path d="M 2656 787 
L 2758 787 
Q 2560 -102 2112 -102 
Q 1965 -102 1869 48 
Q 1773 198 1773 499 
Q 1773 672 1789 889 
Q 1805 1107 1833 1446 
Q 1862 1786 1875 2016 
L 538 0 
L -77 0 
L 1907 2739 
Q 1933 2970 1933 3245 
Q 1933 3936 1619 3936 
Q 1530 3936 1408 3821 
Q 1286 3706 1203 3462 
L 1101 3462 
Q 1312 4339 1747 4339 
Q 1926 4339 2041 4115 
Q 2157 3891 2157 3475 
Q 2157 3040 2093 2192 
Q 2029 1344 2029 941 
Q 2029 602 2089 451 
Q 2150 301 2291 301 
Q 2483 301 2656 787 
z
" id="STIXGeneral-Italic-3bb" transform="scale(0.015625)"/>
      </defs>
      <use transform="translate(0 0.203125)" xlink:href="#STIXGeneral-Italic-3bb"/>
     </g>
    </g>
   </g>
   <g id="matplotlib.axis_2">
    <g id="ytick_1">
     <g id="line2d_7">
      <defs>
       <path d="M 0 0 
L -3.5 0 
" id="m0dd807634b" style="stroke:#000000;stroke-width:0.8;"/>
      </defs>
      <g>
       <use style="stroke:#000000;stroke-width:0.8;" x="44.48" xlink:href="#m0dd807634b" y="111.167008"/>
      </g>
     </g>
     <g id="text_8">
      <!-- 1500 -->
      <g transform="translate(15.48 114.923337)scale(0.11 -0.11)">
       <use xlink:href="#STIXGeneral-Regular-31"/>
       <use x="49.999985" xlink:href="#STIXGeneral-Regular-35"/>
       <use x="99.999969" xlink:href="#STIXGeneral-Regular-30"/>
       <use x="149.999954" xlink:href="#STIXGeneral-Regular-30"/>
      </g>
     </g>
    </g>
    <g id="ytick_2">
     <g id="line2d_8">
      <g>
       <use style="stroke:#000000;stroke-width:0.8;" x="44.48" xlink:href="#m0dd807634b" y="82.536897"/>
      </g>
     </g>
     <g id="text_9">
      <!-- 2000 -->
      <g transform="translate(15.48 86.293225)scale(0.11 -0.11)">
       <use xlink:href="#STIXGeneral-Regular-32"/>
       <use x="49.999985" xlink:href="#STIXGeneral-Regular-30"/>
       <use x="99.999969" xlink:href="#STIXGeneral-Regular-30"/>
       <use x="149.999954" xlink:href="#STIXGeneral-Regular-30"/>
      </g>
     </g>
    </g>
    <g id="ytick_3">
     <g id="line2d_9">
      <g>
       <use style="stroke:#000000;stroke-width:0.8;" x="44.48" xlink:href="#m0dd807634b" y="53.906786"/>
      </g>
     </g>
     <g id="text_10">
      <!-- 2500 -->
      <g transform="translate(15.48 57.663114)scale(0.11 -0.11)">
       <use xlink:href="#STIXGeneral-Regular-32"/>
       <use x="49.999985" xlink:href="#STIXGeneral-Regular-35"/>
       <use x="99.999969" xlink:href="#STIXGeneral-Regular-30"/>
       <use x="149.999954" xlink:href="#STIXGeneral-Regular-30"/>
      </g>
     </g>
    </g>
    <g id="ytick_4">
     <g id="line2d_10">
      <g>
       <use style="stroke:#000000;stroke-width:0.8;" x="44.48" xlink:href="#m0dd807634b" y="25.276675"/>
      </g>
     </g>
     <g id="text_11">
      <!-- 3000 -->
      <g transform="translate(15.48 29.033003)scale(0.11 -0.11)">
       <use xlink:href="#STIXGeneral-Regular-33"/>
       <use x="49.999985" xlink:href="#STIXGeneral-Regular-30"/>
       <use x="99.999969" xlink:href="#STIXGeneral-Regular-30"/>
       <use x="149.999954" xlink:href="#STIXGeneral-Regular-30"/>
      </g>
     </g>
    </g>
    <g id="text_12">
     <!-- Imaginary part ($\times 2\pi$, Hz) -->
     <g transform="translate(9.06 121.329375)rotate(-90)scale(0.11 -0.11)">
      <defs>
       <path d="M 2016 0 
L 115 0 
L 115 122 
Q 518 134 627 240 
Q 736 346 736 717 
L 736 3526 
Q 736 3898 633 3994 
Q 531 4090 115 4115 
L 115 4237 
L 2016 4237 
L 2016 4115 
Q 1613 4096 1501 3993 
Q 1389 3891 1389 3526 
L 1389 717 
Q 1389 358 1504 246 
Q 1619 134 2016 122 
L 2016 0 
z
" id="STIXGeneral-Regular-49" transform="scale(0.015625)"/>
       <path d="M 4960 0 
L 3565 0 
L 3565 96 
Q 3834 122 3907 208 
Q 3981 294 3981 576 
L 3981 1894 
Q 3981 2278 3869 2444 
Q 3757 2611 3488 2611 
Q 3264 2611 3107 2521 
Q 2950 2432 2803 2221 
L 2803 608 
Q 2803 301 2896 201 
Q 2989 102 3264 96 
L 3264 0 
L 1830 0 
L 1830 96 
Q 2112 115 2189 188 
Q 2266 262 2266 550 
L 2266 1901 
Q 2266 2611 1850 2611 
Q 1670 2611 1468 2531 
Q 1267 2451 1171 2336 
Q 1088 2240 1088 2227 
L 1088 448 
Q 1088 243 1177 176 
Q 1267 109 1523 96 
L 1523 0 
L 102 0 
L 102 96 
Q 371 102 460 195 
Q 550 288 550 563 
L 550 2150 
Q 550 2387 499 2480 
Q 448 2573 326 2573 
Q 230 2573 122 2547 
L 122 2656 
Q 557 2778 1011 2944 
L 1062 2925 
L 1062 2451 
L 1075 2451 
Q 1363 2752 1584 2848 
Q 1805 2944 2054 2944 
Q 2560 2944 2733 2406 
Q 3232 2944 3776 2944 
Q 4518 2944 4518 1792 
L 4518 493 
Q 4518 282 4582 202 
Q 4646 122 4794 109 
L 4960 96 
L 4960 0 
z
" id="STIXGeneral-Regular-6d" transform="scale(0.015625)"/>
       <path d="M 2829 422 
L 2829 243 
Q 2586 -64 2253 -64 
Q 1888 -64 1843 403 
L 1837 403 
Q 1427 -64 909 -64 
Q 608 -64 422 112 
Q 237 288 237 602 
Q 237 1050 685 1350 
Q 992 1555 1837 1869 
L 1837 2214 
Q 1837 2502 1699 2646 
Q 1562 2790 1338 2790 
Q 1146 2790 1018 2697 
Q 890 2605 890 2477 
Q 890 2419 909 2348 
Q 928 2278 928 2208 
Q 928 2112 841 2029 
Q 755 1946 634 1946 
Q 525 1946 441 2029 
Q 358 2112 358 2240 
Q 358 2547 685 2752 
Q 986 2944 1421 2944 
Q 1939 2944 2176 2656 
Q 2291 2522 2323 2384 
Q 2355 2246 2355 1946 
L 2355 723 
Q 2355 301 2554 301 
Q 2682 301 2829 422 
z
M 1837 813 
L 1837 1715 
Q 1248 1510 1018 1293 
Q 800 1094 800 800 
Q 800 557 921 432 
Q 1043 307 1242 307 
Q 1453 307 1613 410 
Q 1747 506 1792 589 
Q 1837 672 1837 813 
z
" id="STIXGeneral-Regular-61" transform="scale(0.015625)"/>
       <path d="M 3008 2483 
L 2477 2483 
Q 2598 2208 2598 1946 
Q 2598 1453 2265 1203 
Q 1933 954 1600 954 
Q 1530 954 1357 973 
L 1235 986 
Q 1107 947 979 812 
Q 851 678 851 582 
Q 851 435 1350 410 
L 2176 371 
Q 2528 358 2739 172 
Q 2950 -13 2950 -314 
Q 2950 -685 2566 -986 
Q 2035 -1395 1286 -1395 
Q 826 -1395 502 -1212 
Q 179 -1030 179 -774 
Q 179 -595 320 -419 
Q 461 -243 806 6 
Q 602 102 534 172 
Q 467 243 467 346 
Q 467 531 762 787 
Q 909 915 1037 1043 
Q 717 1203 579 1401 
Q 442 1600 442 1901 
Q 442 2336 752 2640 
Q 1062 2944 1510 2944 
Q 1766 2944 2022 2848 
L 2163 2797 
Q 2349 2733 2515 2733 
L 3008 2733 
L 3008 2483 
z
M 973 2163 
L 973 2144 
Q 973 1683 1155 1398 
Q 1338 1114 1632 1114 
Q 1850 1114 1978 1270 
Q 2106 1427 2106 1690 
Q 2106 2112 1914 2464 
Q 1754 2765 1446 2765 
Q 1222 2765 1097 2605 
Q 973 2445 973 2163 
z
M 2771 -410 
Q 2771 -230 2595 -163 
Q 2419 -96 1978 -96 
Q 1344 -96 941 -13 
Q 749 -243 688 -348 
Q 627 -454 627 -563 
Q 627 -774 880 -902 
Q 1133 -1030 1555 -1030 
Q 2099 -1030 2435 -860 
Q 2771 -691 2771 -410 
z
" id="STIXGeneral-Regular-67" transform="scale(0.015625)"/>
       <path d="M 1152 4045 
Q 1152 3904 1056 3811 
Q 960 3718 819 3718 
Q 685 3718 592 3811 
Q 499 3904 499 4045 
Q 499 4179 595 4275 
Q 691 4371 826 4371 
Q 966 4371 1059 4275 
Q 1152 4179 1152 4045 
z
M 1619 0 
L 102 0 
L 102 96 
Q 435 115 521 211 
Q 608 307 608 666 
L 608 2118 
Q 608 2342 563 2432 
Q 518 2522 397 2522 
Q 243 2522 128 2490 
L 128 2592 
L 1120 2944 
L 1146 2918 
L 1146 672 
Q 1146 314 1226 218 
Q 1306 122 1619 96 
L 1619 0 
z
" id="STIXGeneral-Regular-69" transform="scale(0.015625)"/>
       <path d="M 3104 0 
L 1773 0 
L 1779 96 
Q 2016 115 2096 233 
Q 2176 352 2176 672 
L 2176 1946 
Q 2176 2592 1709 2592 
Q 1549 2592 1408 2515 
Q 1267 2438 1050 2227 
L 1050 461 
Q 1050 269 1136 192 
Q 1222 115 1466 96 
L 1466 0 
L 115 0 
L 115 96 
Q 358 115 435 214 
Q 512 314 512 602 
L 512 2157 
Q 512 2394 467 2483 
Q 422 2573 288 2573 
Q 160 2573 102 2547 
L 102 2656 
Q 550 2784 979 2944 
L 1030 2925 
L 1030 2426 
L 1037 2426 
Q 1491 2944 1958 2944 
Q 2323 2944 2518 2688 
Q 2714 2432 2714 1958 
L 2714 544 
Q 2714 288 2790 205 
Q 2867 122 3104 96 
L 3104 0 
z
" id="STIXGeneral-Regular-6e" transform="scale(0.015625)"/>
       <path d="M 1024 2931 
L 1024 2342 
Q 1267 2688 1430 2816 
Q 1594 2944 1792 2944 
Q 1958 2944 2051 2854 
Q 2144 2765 2144 2605 
Q 2144 2470 2077 2393 
Q 2010 2317 1894 2317 
Q 1773 2317 1638 2445 
Q 1536 2541 1472 2541 
Q 1338 2541 1181 2355 
Q 1024 2170 1024 2016 
L 1024 576 
Q 1024 301 1133 205 
Q 1242 109 1568 96 
L 1568 0 
L 32 0 
L 32 96 
Q 339 154 412 224 
Q 486 294 486 538 
L 486 2138 
Q 486 2349 438 2435 
Q 390 2522 269 2522 
Q 166 2522 45 2496 
L 45 2598 
Q 448 2726 992 2944 
L 1024 2931 
z
" id="STIXGeneral-Regular-72" transform="scale(0.015625)"/>
       <path d="M 3040 2880 
L 3040 2784 
Q 2925 2771 2854 2700 
Q 2784 2630 2720 2458 
L 1760 -160 
Q 1510 -838 1257 -1116 
Q 1005 -1395 640 -1395 
Q 435 -1395 313 -1289 
Q 192 -1184 192 -1024 
Q 192 -902 272 -816 
Q 352 -730 467 -730 
Q 653 -730 800 -813 
Q 883 -858 966 -858 
Q 1101 -858 1286 -576 
Q 1376 -448 1459 -211 
Q 1542 26 1542 115 
Q 1542 198 1274 762 
L 429 2566 
Q 346 2752 90 2790 
L 90 2880 
L 1402 2880 
L 1402 2784 
Q 1197 2778 1117 2739 
Q 1037 2701 1037 2611 
Q 1037 2541 1120 2349 
L 1837 749 
L 2458 2515 
Q 2483 2573 2483 2630 
Q 2483 2784 2189 2784 
L 2189 2880 
L 3040 2880 
z
" id="STIXGeneral-Regular-79" transform="scale(0.015625)"/>
       <path id="STIXGeneral-Regular-20" transform="scale(0.015625)"/>
       <path d="M 1018 2931 
L 1018 2438 
Q 1421 2944 1939 2944 
Q 2406 2944 2707 2560 
Q 3008 2176 3008 1581 
Q 3008 883 2621 409 
Q 2234 -64 1664 -64 
Q 1466 -64 1328 -6 
Q 1190 51 1018 211 
L 1018 -794 
Q 1018 -1094 1120 -1180 
Q 1222 -1267 1581 -1274 
L 1581 -1389 
L 32 -1389 
L 32 -1280 
Q 314 -1254 397 -1171 
Q 480 -1088 480 -838 
L 480 2157 
Q 480 2381 429 2451 
Q 378 2522 218 2522 
Q 115 2522 58 2515 
L 58 2618 
Q 506 2752 979 2944 
L 1018 2931 
z
M 1018 2138 
L 1018 563 
Q 1018 422 1238 281 
Q 1459 141 1683 141 
Q 2029 141 2243 467 
Q 2458 794 2458 1325 
Q 2458 1888 2243 2224 
Q 2029 2560 1670 2560 
Q 1446 2560 1232 2419 
Q 1018 2278 1018 2138 
z
" id="STIXGeneral-Regular-70" transform="scale(0.015625)"/>
       <path d="M 1702 493 
L 1786 422 
Q 1478 -64 1011 -64 
Q 448 -64 448 749 
L 448 2675 
L 109 2675 
Q 83 2694 83 2720 
Q 83 2771 192 2842 
Q 435 2982 813 3526 
Q 826 3546 874 3606 
Q 922 3667 941 3706 
Q 986 3706 986 3622 
L 986 2880 
L 1632 2880 
L 1632 2675 
L 986 2675 
L 986 845 
Q 986 538 1062 403 
Q 1139 269 1318 269 
Q 1510 269 1702 493 
z
" id="STIXGeneral-Regular-74" transform="scale(0.015625)"/>
       <path d="M 1946 -1030 
L 1869 -1133 
Q 1126 -710 716 32 
Q 307 774 307 1613 
Q 307 3386 1888 4326 
L 1946 4224 
Q 1293 3667 1075 3126 
Q 858 2586 858 1632 
Q 858 685 1082 96 
Q 1306 -493 1946 -1030 
z
" id="STIXGeneral-Regular-28" transform="scale(0.015625)"/>
       <path d="M 3821 141 
L 3526 -160 
L 2048 1312 
L 570 -160 
L 275 134 
L 1747 1613 
L 275 3091 
L 576 3386 
L 2048 1914 
L 3526 3386 
L 3821 3098 
L 2349 1613 
L 3821 141 
z
" id="STIXGeneral-Regular-d7" transform="scale(0.015625)"/>
       <path d="M 3430 2739 
L 3296 2266 
L 2643 2266 
Q 2624 2195 2502 1782 
Q 2381 1370 2297 1072 
Q 2214 774 2214 717 
Q 2214 448 2413 448 
Q 2694 448 2867 838 
L 2970 838 
Q 2886 486 2652 208 
Q 2419 -70 2093 -70 
Q 1901 -70 1808 67 
Q 1715 205 1715 410 
Q 1715 627 1824 922 
L 2310 2266 
L 1645 2266 
Q 1568 2061 1401 1469 
Q 1235 877 1068 512 
Q 902 147 672 -38 
Q 563 -115 442 -115 
Q 314 -115 218 -32 
Q 122 51 122 166 
Q 122 429 314 480 
Q 634 563 774 928 
L 1299 2266 
L 1261 2266 
Q 973 2266 819 2208 
Q 666 2150 474 1914 
L 371 1914 
Q 640 2362 931 2550 
Q 1222 2739 1696 2739 
L 3430 2739 
z
" id="STIXGeneral-Italic-3c0" transform="scale(0.015625)"/>
       <path d="M 531 -902 
L 467 -781 
Q 998 -422 998 -96 
Q 998 -13 909 -13 
Q 883 -13 822 -25 
Q 762 -38 723 -38 
Q 352 -38 352 288 
Q 352 454 457 553 
Q 563 653 736 653 
Q 954 653 1101 496 
Q 1248 339 1248 96 
Q 1248 -198 1053 -473 
Q 858 -749 531 -902 
z
" id="STIXGeneral-Regular-2c" transform="scale(0.015625)"/>
       <path d="M 4499 0 
L 2714 0 
L 2714 122 
Q 3085 147 3181 265 
Q 3277 384 3277 794 
L 3277 2016 
L 1338 2016 
L 1338 723 
Q 1338 371 1440 256 
Q 1542 141 1894 122 
L 1901 0 
L 115 0 
L 115 122 
Q 493 147 589 259 
Q 685 371 685 781 
L 685 3507 
Q 685 3878 585 3980 
Q 486 4083 115 4115 
L 115 4237 
L 1907 4237 
L 1907 4115 
Q 1549 4083 1443 3977 
Q 1338 3872 1338 3507 
L 1338 2298 
L 3277 2298 
L 3277 3507 
Q 3277 3878 3177 3980 
Q 3078 4083 2707 4115 
L 2707 4237 
L 4499 4237 
L 4499 4115 
Q 4141 4083 4035 3977 
Q 3930 3872 3930 3507 
L 3930 710 
Q 3930 371 4035 259 
Q 4141 147 4499 122 
L 4499 0 
z
" id="STIXGeneral-Regular-48" transform="scale(0.015625)"/>
       <path d="M 2675 870 
L 2579 0 
L 173 0 
L 173 96 
L 1875 2688 
L 1011 2688 
Q 710 2688 604 2582 
Q 499 2477 454 2125 
L 339 2125 
L 365 2880 
L 2579 2880 
L 2579 2784 
L 858 192 
L 1709 192 
Q 2246 192 2387 365 
Q 2477 474 2560 896 
L 2675 870 
z
" id="STIXGeneral-Regular-7a" transform="scale(0.015625)"/>
       <path d="M 186 4224 
L 262 4326 
Q 992 3891 1408 3148 
Q 1824 2406 1824 1581 
Q 1824 -166 243 -1133 
L 186 -1030 
Q 845 -486 1059 54 
Q 1274 595 1274 1562 
Q 1274 2534 1059 3120 
Q 845 3706 186 4224 
z
" id="STIXGeneral-Regular-29" transform="scale(0.015625)"/>
      </defs>
      <use transform="translate(0 0.703125)" xlink:href="#STIXGeneral-Regular-49"/>
      <use transform="translate(33.299988 0.703125)" xlink:href="#STIXGeneral-Regular-6d"/>
      <use transform="translate(111.099976 0.703125)" xlink:href="#STIXGeneral-Regular-61"/>
      <use transform="translate(155.499969 0.703125)" xlink:href="#STIXGeneral-Regular-67"/>
      <use transform="translate(205.499954 0.703125)" xlink:href="#STIXGeneral-Regular-69"/>
      <use transform="translate(233.299942 0.703125)" xlink:href="#STIXGeneral-Regular-6e"/>
      <use transform="translate(283.299927 0.703125)" xlink:href="#STIXGeneral-Regular-61"/>
      <use transform="translate(327.699921 0.703125)" xlink:href="#STIXGeneral-Regular-72"/>
      <use transform="translate(360.999908 0.703125)" xlink:href="#STIXGeneral-Regular-79"/>
      <use transform="translate(410.999893 0.703125)" xlink:href="#STIXGeneral-Regular-20"/>
      <use transform="translate(435.999878 0.703125)" xlink:href="#STIXGeneral-Regular-70"/>
      <use transform="translate(485.999863 0.703125)" xlink:href="#STIXGeneral-Regular-61"/>
      <use transform="translate(530.399857 0.703125)" xlink:href="#STIXGeneral-Regular-72"/>
      <use transform="translate(563.699844 0.703125)" xlink:href="#STIXGeneral-Regular-74"/>
      <use transform="translate(591.499832 0.703125)" xlink:href="#STIXGeneral-Regular-20"/>
      <use transform="translate(616.499817 0.703125)" xlink:href="#STIXGeneral-Regular-28"/>
      <use transform="translate(649.799805 0.703125)" xlink:href="#STIXGeneral-Regular-d7"/>
      <use transform="translate(713.799789 0.703125)" xlink:href="#STIXGeneral-Regular-32"/>
      <use transform="translate(763.799774 0.703125)" xlink:href="#STIXGeneral-Italic-3c0"/>
      <use transform="translate(814.199768 0.703125)" xlink:href="#STIXGeneral-Regular-2c"/>
      <use transform="translate(839.199753 0.703125)" xlink:href="#STIXGeneral-Regular-20"/>
      <use transform="translate(864.199738 0.703125)" xlink:href="#STIXGeneral-Regular-48"/>
      <use transform="translate(936.399719 0.703125)" xlink:href="#STIXGeneral-Regular-7a"/>
      <use transform="translate(980.799713 0.703125)" xlink:href="#STIXGeneral-Regular-29"/>
     </g>
    </g>
   </g>
   <g id="line2d_11">
    <path clip-path="url(#p75ff7169d0)" d="M 44.48 125.053807 
L 47.7457 124.050094 
L 51.0114 122.958249 
L 54.2771 121.779568 
L 57.5428 120.515082 
L 60.8085 119.165662 
L 64.0742 117.731761 
L 67.3399 116.213432 
L 70.6056 114.610076 
L 73.8713 112.920346 
L 77.137 111.142151 
L 80.4027 109.272071 
L 83.6684 107.304914 
L 86.9341 105.233719 
L 90.1998 103.047629 
L 93.4655 100.731504 
L 96.7312 98.26177 
L 99.9969 95.601219 
L 103.2626 92.684453 
L 106.5283 89.378638 
L 109.794 85.314543 
L 110.12057 84.826551 
L 110.44714 84.31268 
L 110.77371 83.767079 
L 111.10028 83.179494 
L 111.42685 82.536869 
L 111.75342 81.811656 
L 112.07999 80.947633 
L 112.112647 80.849014 
L 112.145304 80.747569 
L 112.177961 80.641156 
L 112.210618 80.532956 
L 112.243275 80.418385 
L 112.275932 80.300226 
L 112.308589 80.175815 
L 112.341246 80.042406 
L 112.373903 79.900597 
L 112.40656 79.750137 
L 112.439217 79.582012 
L 112.471874 79.393974 
L 112.504531 79.176251 
L 112.537188 78.894865 
L 112.569845 78.378733 
L 112.602502 78.215173 
L 112.635159 78.195593 
L 112.667816 78.180262 
L 112.700473 78.166178 
L 112.73313 78.152745 
L 113.0597 78.026027 
L 116.3254 76.786703 
L 119.5911 75.527932 
L 122.8568 74.247473 
L 126.1225 72.945756 
L 129.3882 71.623254 
L 132.6539 70.280478 
L 135.9196 68.917976 
L 139.1853 67.536404 
L 142.451 66.136187 
L 145.7167 64.717734 
L 148.9824 63.281661 
L 152.2481 61.828377 
L 155.5138 60.358463 
L 158.7795 58.87226 
L 162.0452 57.37052 
L 165.3109 55.853581 
L 168.5766 54.322058 
L 171.8423 52.776601 
L 173.47515 51.998804 
L 173.80172 51.842898 
L 174.12829 51.686814 
L 174.45486 51.530567 
L 174.78143 51.374199 
L 175.108 51.217751 
L 175.43457 51.061156 
L 175.597855 50.982844 
L 175.630512 50.967157 
L 175.663169 50.951451 
L 175.695826 50.93582 
L 175.728483 50.920083 
L 175.76114 50.904491 
L 175.793797 50.888751 
L 175.826454 50.873037 
L 175.859111 50.85741 
L 175.891768 50.84169 
L 175.924425 50.826047 
L 175.957082 50.810369 
L 175.989739 50.794653 
L 176.022396 50.778958 
L 176.055053 50.763234 
L 176.08771 50.747536 
L 176.120367 50.731867 
L 176.153024 50.716146 
L 176.185681 50.700467 
L 176.218338 50.684777 
L 176.250995 50.669039 
L 176.41428 50.590594 
L 176.74085 50.433423 
L 178.3737 49.646143 
L 181.6394 48.062533 
L 184.9051 46.467534 
L 188.1708 44.862076 
L 191.4365 43.246947 
L 194.7022 41.623272 
L 197.9679 39.991766 
L 201.2336 38.353487 
L 204.4993 36.709771 
L 207.765 35.061607 
" style="fill:none;stroke:#000000;stroke-linecap:square;stroke-width:1.5;"/>
    <defs>
     <path d="M 0 3 
C 0.795609 3 1.55874 2.683901 2.12132 2.12132 
C 2.683901 1.55874 3 0.795609 3 0 
C 3 -0.795609 2.683901 -1.55874 2.12132 -2.12132 
C 1.55874 -2.683901 0.795609 -3 0 -3 
C -0.795609 -3 -1.55874 -2.683901 -2.12132 -2.12132 
C -2.683901 -1.55874 -3 -0.795609 -3 0 
C -3 0.795609 -2.683901 1.55874 -2.12132 2.12132 
C -1.55874 2.683901 -0.795609 3 0 3 
z
" id="mf4388686c9" style="stroke:#000000;"/>
    </defs>
    <g clip-path="url(#p75ff7169d0)">
     <use style="fill-opacity:0;stroke:#000000;" x="51.0114" xlink:href="#mf4388686c9" y="122.958249"/>
     <use style="fill-opacity:0;stroke:#000000;" x="64.0742" xlink:href="#mf4388686c9" y="117.731761"/>
     <use style="fill-opacity:0;stroke:#000000;" x="77.137" xlink:href="#mf4388686c9" y="111.142151"/>
     <use style="fill-opacity:0;stroke:#000000;" x="90.1998" xlink:href="#mf4388686c9" y="103.047629"/>
     <use style="fill-opacity:0;stroke:#000000;" x="103.2626" xlink:href="#mf4388686c9" y="92.684453"/>
     <use style="fill-opacity:0;stroke:#000000;" x="116.3254" xlink:href="#mf4388686c9" y="76.786703"/>
     <use style="fill-opacity:0;stroke:#000000;" x="129.3882" xlink:href="#mf4388686c9" y="71.623254"/>
     <use style="fill-opacity:0;stroke:#000000;" x="142.451" xlink:href="#mf4388686c9" y="66.136187"/>
     <use style="fill-opacity:0;stroke:#000000;" x="155.5138" xlink:href="#mf4388686c9" y="60.358463"/>
     <use style="fill-opacity:0;stroke:#000000;" x="168.5766" xlink:href="#mf4388686c9" y="54.322058"/>
     <use style="fill-opacity:0;stroke:#000000;" x="181.6394" xlink:href="#mf4388686c9" y="48.062533"/>
     <use style="fill-opacity:0;stroke:#000000;" x="194.7022" xlink:href="#mf4388686c9" y="41.623272"/>
     <use style="fill-opacity:0;stroke:#000000;" x="207.765" xlink:href="#mf4388686c9" y="35.061607"/>
    </g>
   </g>
   <g id="line2d_12">
    <path clip-path="url(#p75ff7169d0)" d="M 44.48 69.271999 
L 47.7457 69.198137 
L 51.0114 69.121447 
L 54.2771 69.043388 
L 57.5428 68.965874 
L 60.8085 68.890633 
L 64.0742 68.819757 
L 67.3399 68.756206 
L 70.6056 68.702944 
L 73.8713 68.664054 
L 77.137 68.644134 
L 80.4027 68.648752 
L 83.6684 68.685749 
L 86.9341 68.764341 
L 90.1998 68.897238 
L 93.4655 69.101811 
L 96.7312 69.40346 
L 99.9969 69.841521 
L 103.2626 70.482716 
L 106.5283 71.461926 
L 109.794 73.149742 
L 110.12057 73.397426 
L 110.44714 73.670476 
L 110.77371 73.974856 
L 111.10028 74.32073 
L 111.42685 74.721182 
L 111.75342 75.203727 
L 112.07999 75.824587 
L 112.112647 75.898847 
L 112.145304 75.9759 
L 112.177961 76.058097 
L 112.210618 76.141863 
L 112.243275 76.232133 
L 112.275932 76.325845 
L 112.308589 76.425868 
L 112.341246 76.535016 
L 112.373903 76.65245 
L 112.40656 76.778396 
L 112.439217 76.922194 
L 112.471874 77.085888 
L 112.504531 77.279127 
L 112.537188 77.536164 
L 112.569845 78.027942 
L 112.602502 78.166902 
L 112.635159 78.162179 
L 112.667816 78.153134 
L 112.700473 78.142712 
L 112.73313 78.131793 
L 113.0597 78.013937 
L 116.3254 76.782224 
L 119.5911 75.524563 
L 122.8568 74.244609 
L 126.1225 72.943186 
L 129.3882 71.620876 
L 132.6539 70.278234 
L 135.9196 68.915829 
L 139.1853 67.534328 
L 142.451 66.134162 
L 145.7167 64.715747 
L 148.9824 63.2797 
L 152.2481 61.826433 
L 155.5138 60.356527 
L 158.7795 58.870326 
L 162.0452 57.368583 
L 165.3109 55.851635 
L 168.5766 54.320098 
L 171.8423 52.774623 
L 173.47515 51.996816 
L 173.80172 51.840907 
L 174.12829 51.684822 
L 174.45486 51.528572 
L 174.78143 51.372202 
L 175.108 51.215751 
L 175.43457 51.059154 
L 175.597855 50.980841 
L 175.630512 50.965154 
L 175.663169 50.949448 
L 175.695826 50.933816 
L 175.728483 50.918079 
L 175.76114 50.902487 
L 175.793797 50.886747 
L 175.826454 50.871032 
L 175.859111 50.855404 
L 175.891768 50.839684 
L 175.924425 50.824042 
L 175.957082 50.808363 
L 175.989739 50.792647 
L 176.022396 50.776951 
L 176.055053 50.761227 
L 176.08771 50.74553 
L 176.120367 50.72986 
L 176.153024 50.714138 
L 176.185681 50.69846 
L 176.218338 50.682769 
L 176.250995 50.667031 
L 176.41428 50.588585 
L 176.74085 50.431411 
L 178.3737 49.644118 
L 181.6394 48.060478 
L 184.9051 46.465447 
L 188.1708 44.859954 
L 191.4365 43.244786 
L 194.7022 41.62107 
L 197.9679 39.989521 
L 201.2336 38.351197 
L 204.4993 36.707433 
L 207.765 35.059219 
" style="fill:none;stroke:#000000;stroke-linecap:square;stroke-width:1.5;"/>
    <defs>
     <path d="M -3 3 
L 3 -3 
M -3 -3 
L 3 3 
" id="m3d74bd4b7f" style="stroke:#000000;"/>
    </defs>
    <g clip-path="url(#p75ff7169d0)">
     <use style="fill-opacity:0;stroke:#000000;" x="51.0114" xlink:href="#m3d74bd4b7f" y="69.121447"/>
     <use style="fill-opacity:0;stroke:#000000;" x="64.0742" xlink:href="#m3d74bd4b7f" y="68.819757"/>
     <use style="fill-opacity:0;stroke:#000000;" x="77.137" xlink:href="#m3d74bd4b7f" y="68.644134"/>
     <use style="fill-opacity:0;stroke:#000000;" x="90.1998" xlink:href="#m3d74bd4b7f" y="68.897238"/>
     <use style="fill-opacity:0;stroke:#000000;" x="103.2626" xlink:href="#m3d74bd4b7f" y="70.482716"/>
     <use style="fill-opacity:0;stroke:#000000;" x="116.3254" xlink:href="#m3d74bd4b7f" y="76.782224"/>
     <use style="fill-opacity:0;stroke:#000000;" x="129.3882" xlink:href="#m3d74bd4b7f" y="71.620876"/>
     <use style="fill-opacity:0;stroke:#000000;" x="142.451" xlink:href="#m3d74bd4b7f" y="66.134162"/>
     <use style="fill-opacity:0;stroke:#000000;" x="155.5138" xlink:href="#m3d74bd4b7f" y="60.356527"/>
     <use style="fill-opacity:0;stroke:#000000;" x="168.5766" xlink:href="#m3d74bd4b7f" y="54.320098"/>
     <use style="fill-opacity:0;stroke:#000000;" x="181.6394" xlink:href="#m3d74bd4b7f" y="48.060478"/>
     <use style="fill-opacity:0;stroke:#000000;" x="194.7022" xlink:href="#m3d74bd4b7f" y="41.62107"/>
     <use style="fill-opacity:0;stroke:#000000;" x="207.765" xlink:href="#m3d74bd4b7f" y="35.059219"/>
    </g>
   </g>
   <g id="line2d_13">
    <path clip-path="url(#p75ff7169d0)" d="M 44.48 67.861893 
L 47.7457 67.483502 
L 51.0114 67.069416 
L 54.2771 66.619868 
L 57.5428 66.134771 
L 60.8085 65.614268 
L 64.0742 65.058469 
L 67.3399 64.467425 
L 70.6056 63.841192 
L 73.8713 63.179837 
L 77.137 62.483407 
L 80.4027 61.75187 
L 83.6684 60.985247 
L 86.9341 60.183497 
L 90.1998 59.346582 
L 93.4655 58.474318 
L 96.7312 57.566635 
L 99.9969 56.623223 
L 103.2626 55.643927 
L 106.5283 54.628306 
L 109.794 53.575904 
L 110.12057 53.468682 
L 110.44714 53.360994 
L 110.77371 53.253004 
L 111.10028 53.14457 
L 111.42685 53.035839 
L 111.75342 52.926656 
L 112.07999 52.817085 
L 112.112647 52.806199 
L 112.145304 52.79519 
L 112.177961 52.784236 
L 112.210618 52.773247 
L 112.243275 52.762231 
L 112.275932 52.751266 
L 112.308589 52.740246 
L 112.341246 52.729238 
L 112.373903 52.718225 
L 112.40656 52.707229 
L 112.439217 52.696253 
L 112.471874 52.685198 
L 112.504531 52.674201 
L 112.537188 52.663198 
L 112.569845 52.652164 
L 112.602502 52.641106 
L 112.635159 52.630083 
L 112.667816 52.619059 
L 112.700473 52.608008 
L 112.73313 52.596955 
L 113.0597 52.486313 
L 116.3254 51.358691 
L 119.5911 50.192401 
L 122.8568 48.986371 
L 126.1225 47.739381 
L 129.3882 46.449923 
L 132.6539 45.116291 
L 135.9196 43.73622 
L 139.1853 42.306981 
L 142.451 40.825033 
L 145.7167 39.286107 
L 148.9824 37.684374 
L 152.2481 36.012276 
L 155.5138 34.25957 
L 158.7795 32.411178 
L 162.0452 30.444779 
L 165.3109 28.323973 
L 168.5766 25.981197 
L 171.8423 23.260297 
L 173.47515 21.624132 
L 173.80172 21.256222 
L 174.12829 20.868362 
L 174.45486 20.455441 
L 174.78143 20.00877 
L 175.108 19.515973 
L 175.43457 18.951538 
L 175.597855 18.625289 
L 175.630512 18.556743 
L 175.663169 18.483649 
L 175.695826 18.407016 
L 175.728483 18.330515 
L 175.76114 18.251062 
L 175.793797 18.165569 
L 175.826454 18.078721 
L 175.859111 17.988107 
L 175.891768 17.888412 
L 175.924425 17.783808 
L 175.957082 17.668702 
L 175.989739 17.543683 
L 176.022396 17.398135 
L 176.055053 17.224667 
L 176.08771 16.972468 
L 176.120367 16.662008 
L 176.153024 16.636041 
L 176.185681 16.621031 
L 176.218338 16.608215 
L 176.250995 16.596384 
L 176.41428 16.541289 
L 176.74085 16.435903 
L 178.3737 15.916289 
L 181.6394 14.869507 
L 184.9051 13.80783 
L 188.1708 12.730919 
L 191.4365 11.638936 
L 194.7022 10.531846 
L 197.9679 9.410186 
L 201.2336 8.273619 
L 204.4993 7.122562 
L 207.765 5.957003 
" style="fill:none;stroke:#ff0000;stroke-linecap:square;stroke-width:1.5;"/>
    <defs>
     <path d="M 0 4.242641 
L 4.242641 0 
L 0 -4.242641 
L -4.242641 0 
z
" id="m0fbfda2981" style="stroke:#ff0000;stroke-linejoin:miter;"/>
    </defs>
    <g clip-path="url(#p75ff7169d0)">
     <use style="fill-opacity:0;stroke:#ff0000;stroke-linejoin:miter;" x="51.0114" xlink:href="#m0fbfda2981" y="67.069416"/>
     <use style="fill-opacity:0;stroke:#ff0000;stroke-linejoin:miter;" x="64.0742" xlink:href="#m0fbfda2981" y="65.058469"/>
     <use style="fill-opacity:0;stroke:#ff0000;stroke-linejoin:miter;" x="77.137" xlink:href="#m0fbfda2981" y="62.483407"/>
     <use style="fill-opacity:0;stroke:#ff0000;stroke-linejoin:miter;" x="90.1998" xlink:href="#m0fbfda2981" y="59.346582"/>
     <use style="fill-opacity:0;stroke:#ff0000;stroke-linejoin:miter;" x="103.2626" xlink:href="#m0fbfda2981" y="55.643927"/>
     <use style="fill-opacity:0;stroke:#ff0000;stroke-linejoin:miter;" x="116.3254" xlink:href="#m0fbfda2981" y="51.358691"/>
     <use style="fill-opacity:0;stroke:#ff0000;stroke-linejoin:miter;" x="129.3882" xlink:href="#m0fbfda2981" y="46.449923"/>
     <use style="fill-opacity:0;stroke:#ff0000;stroke-linejoin:miter;" x="142.451" xlink:href="#m0fbfda2981" y="40.825033"/>
     <use style="fill-opacity:0;stroke:#ff0000;stroke-linejoin:miter;" x="155.5138" xlink:href="#m0fbfda2981" y="34.25957"/>
     <use style="fill-opacity:0;stroke:#ff0000;stroke-linejoin:miter;" x="168.5766" xlink:href="#m0fbfda2981" y="25.981197"/>
     <use style="fill-opacity:0;stroke:#ff0000;stroke-linejoin:miter;" x="181.6394" xlink:href="#m0fbfda2981" y="14.869507"/>
     <use style="fill-opacity:0;stroke:#ff0000;stroke-linejoin:miter;" x="194.7022" xlink:href="#m0fbfda2981" y="10.531846"/>
     <use style="fill-opacity:0;stroke:#ff0000;stroke-linejoin:miter;" x="207.765" xlink:href="#m0fbfda2981" y="5.957003"/>
    </g>
   </g>
   <g id="line2d_14">
    <path clip-path="url(#p75ff7169d0)" d="M 44.48 18.390953 
L 47.7457 18.274758 
L 51.0114 18.148074 
L 54.2771 18.011013 
L 57.5428 17.863788 
L 60.8085 17.706607 
L 64.0742 17.539703 
L 67.3399 17.363292 
L 70.6056 17.177606 
L 73.8713 16.982885 
L 77.137 16.779608 
L 80.4027 16.568087 
L 83.6684 16.348576 
L 86.9341 16.121554 
L 90.1998 15.887531 
L 93.4655 15.646897 
L 96.7312 15.400381 
L 99.9969 15.148405 
L 103.2626 14.891772 
L 106.5283 14.631153 
L 109.794 14.367621 
L 110.12057 14.341091 
L 110.44714 14.314558 
L 110.77371 14.287959 
L 111.10028 14.261431 
L 111.42685 14.234884 
L 111.75342 14.208314 
L 112.07999 14.181835 
L 112.112647 14.179065 
L 112.145304 14.176376 
L 112.177961 14.173659 
L 112.210618 14.171041 
L 112.243275 14.168387 
L 112.275932 14.165705 
L 112.308589 14.163101 
L 112.341246 14.160415 
L 112.373903 14.157771 
L 112.40656 14.155138 
L 112.439217 14.152401 
L 112.471874 14.149814 
L 112.504531 14.147113 
L 112.537188 14.144406 
L 112.569845 14.141734 
L 112.602502 14.139173 
L 112.635159 14.136401 
L 112.667816 14.13376 
L 112.700473 14.131135 
L 112.73313 14.128472 
L 113.0597 14.101824 
L 116.3254 13.835094 
L 119.5911 13.568407 
L 122.8568 13.303269 
L 126.1225 13.041395 
L 129.3882 12.784703 
L 132.6539 12.535299 
L 135.9196 12.295677 
L 139.1853 12.069094 
L 142.451 11.859551 
L 145.7167 11.671573 
L 148.9824 11.511417 
L 152.2481 11.38719 
L 155.5138 11.309035 
L 158.7795 11.293038 
L 162.0452 11.361461 
L 165.3109 11.551069 
L 168.5766 11.929999 
L 171.8423 12.65466 
L 173.47515 13.280589 
L 173.80172 13.445504 
L 174.12829 13.630032 
L 174.45486 13.839257 
L 174.78143 14.081978 
L 175.108 14.370587 
L 175.43457 14.730468 
L 175.597855 14.954354 
L 175.630512 15.002241 
L 175.663169 15.054895 
L 175.695826 15.111128 
L 175.728483 15.167146 
L 175.76114 15.225937 
L 175.793797 15.291112 
L 175.826454 15.357399 
L 175.859111 15.427371 
L 175.891768 15.506597 
L 175.924425 15.590683 
L 175.957082 15.685381 
L 175.989739 15.789685 
L 176.022396 15.914806 
L 176.055053 16.067695 
L 176.08771 16.299481 
L 176.120367 16.58942 
L 176.153024 16.594703 
L 176.185681 16.589134 
L 176.218338 16.581375 
L 176.250995 16.57273 
L 176.41428 16.525035 
L 176.74085 16.424543 
L 178.3737 15.9102 
L 181.6394 14.865512 
L 184.9051 13.804584 
L 188.1708 12.728076 
L 191.4365 11.636348 
L 194.7022 10.529437 
L 197.9679 9.407902 
L 201.2336 8.271431 
L 204.4993 7.120446 
L 207.765 5.954943 
" style="fill:none;stroke:#ff0000;stroke-linecap:square;stroke-width:1.5;"/>
    <defs>
     <path d="M -3 0 
L 3 0 
M 0 3 
L 0 -3 
" id="m7c82d04c69" style="stroke:#ff0000;"/>
    </defs>
    <g clip-path="url(#p75ff7169d0)">
     <use style="fill-opacity:0;stroke:#ff0000;" x="51.0114" xlink:href="#m7c82d04c69" y="18.148074"/>
     <use style="fill-opacity:0;stroke:#ff0000;" x="64.0742" xlink:href="#m7c82d04c69" y="17.539703"/>
     <use style="fill-opacity:0;stroke:#ff0000;" x="77.137" xlink:href="#m7c82d04c69" y="16.779608"/>
     <use style="fill-opacity:0;stroke:#ff0000;" x="90.1998" xlink:href="#m7c82d04c69" y="15.887531"/>
     <use style="fill-opacity:0;stroke:#ff0000;" x="103.2626" xlink:href="#m7c82d04c69" y="14.891772"/>
     <use style="fill-opacity:0;stroke:#ff0000;" x="116.3254" xlink:href="#m7c82d04c69" y="13.835094"/>
     <use style="fill-opacity:0;stroke:#ff0000;" x="129.3882" xlink:href="#m7c82d04c69" y="12.784703"/>
     <use style="fill-opacity:0;stroke:#ff0000;" x="142.451" xlink:href="#m7c82d04c69" y="11.859551"/>
     <use style="fill-opacity:0;stroke:#ff0000;" x="155.5138" xlink:href="#m7c82d04c69" y="11.309035"/>
     <use style="fill-opacity:0;stroke:#ff0000;" x="168.5766" xlink:href="#m7c82d04c69" y="11.929999"/>
     <use style="fill-opacity:0;stroke:#ff0000;" x="181.6394" xlink:href="#m7c82d04c69" y="14.865512"/>
     <use style="fill-opacity:0;stroke:#ff0000;" x="194.7022" xlink:href="#m7c82d04c69" y="10.529437"/>
     <use style="fill-opacity:0;stroke:#ff0000;" x="207.765" xlink:href="#m7c82d04c69" y="5.954943"/>
    </g>
   </g>
   <g id="patch_3">
    <path d="M 44.48 131.00875 
L 44.48 0 
" style="fill:none;stroke:#000000;stroke-linecap:square;stroke-linejoin:miter;stroke-width:0.8;"/>
   </g>
   <g id="patch_4">
    <path d="M 207.765 131.00875 
L 207.765 0 
" style="fill:none;stroke:#000000;stroke-linecap:square;stroke-linejoin:miter;stroke-width:0.8;"/>
   </g>
   <g id="patch_5">
    <path d="M 44.48 131.00875 
L 207.765 131.00875 
" style="fill:none;stroke:#000000;stroke-linecap:square;stroke-linejoin:miter;stroke-width:0.8;"/>
   </g>
   <g id="patch_6">
    <path d="M 44.48 0 
L 207.765 0 
" style="fill:none;stroke:#000000;stroke-linecap:square;stroke-linejoin:miter;stroke-width:0.8;"/>
   </g>
   <g id="legend_1">
    <g id="patch_7">
     <path d="M 135.633578 126.42725 
L 201.3509 126.42725 
Q 203.1835 126.42725 203.1835 124.59465 
L 203.1835 73.573921 
Q 203.1835 71.741321 201.3509 71.741321 
L 135.633578 71.741321 
Q 133.800978 71.741321 133.800978 73.573921 
L 133.800978 124.59465 
Q 133.800978 126.42725 135.633578 126.42725 
z
" style="fill:#ffffff;opacity:0.8;stroke:#cccccc;stroke-linejoin:miter;"/>
    </g>
    <g id="line2d_15">
     <path d="M 137.466178 78.613571 
L 155.792178 78.613571 
" style="fill:none;stroke:#000000;stroke-linecap:square;stroke-width:1.5;"/>
    </g>
    <g id="line2d_16">
     <g>
      <use style="fill-opacity:0;stroke:#000000;" x="146.629178" xlink:href="#mf4388686c9" y="78.613571"/>
     </g>
    </g>
    <g id="text_13">
     <!-- 1st mode -->
     <g transform="translate(163.122578 81.820621)scale(0.09163 -0.09163)">
      <defs>
       <path d="M 998 1926 
L 1664 1523 
Q 1984 1331 2105 1164 
Q 2227 998 2227 736 
Q 2227 416 1961 176 
Q 1696 -64 1331 -64 
Q 1030 -64 864 -6 
Q 691 51 570 51 
Q 461 51 416 -26 
L 333 -26 
L 333 979 
L 435 979 
Q 538 512 730 294 
Q 922 77 1248 77 
Q 1485 77 1632 211 
Q 1779 346 1779 550 
Q 1779 845 1440 1030 
L 1094 1222 
Q 326 1651 326 2150 
Q 326 2522 566 2730 
Q 806 2938 1210 2938 
Q 1491 2938 1638 2867 
Q 1754 2816 1818 2816 
Q 1862 2816 1920 2880 
L 1990 2880 
L 2022 2010 
L 1926 2010 
Q 1818 2445 1654 2621 
Q 1491 2797 1203 2797 
Q 986 2797 854 2688 
Q 723 2579 723 2362 
Q 723 2253 796 2128 
Q 870 2003 998 1926 
z
" id="STIXGeneral-Regular-73" transform="scale(0.015625)"/>
       <path d="M 3008 1478 
Q 3008 806 2608 371 
Q 2208 -64 1568 -64 
Q 979 -64 582 368 
Q 186 800 186 1459 
Q 186 2125 582 2534 
Q 979 2944 1626 2944 
Q 2221 2944 2614 2537 
Q 3008 2131 3008 1478 
z
M 2432 1306 
Q 2432 2035 2112 2445 
Q 1856 2765 1504 2765 
Q 1171 2765 966 2493 
Q 762 2221 762 1747 
Q 762 928 1101 435 
Q 1318 115 1677 115 
Q 2029 115 2230 432 
Q 2432 749 2432 1306 
z
" id="STIXGeneral-Regular-6f" transform="scale(0.015625)"/>
       <path d="M 3142 269 
L 2202 -64 
L 2176 -45 
L 2176 365 
Q 1869 -64 1357 -64 
Q 826 -64 499 317 
Q 173 698 173 1312 
Q 173 1990 563 2467 
Q 954 2944 1504 2944 
Q 1850 2944 2176 2669 
L 2176 3667 
Q 2176 3866 2118 3930 
Q 2061 3994 1882 3994 
Q 1792 3994 1741 3987 
L 1741 4090 
Q 2323 4243 2682 4371 
L 2714 4358 
L 2714 730 
Q 2714 506 2768 435 
Q 2822 365 2995 365 
Q 3034 365 3142 371 
L 3142 269 
z
M 2176 653 
L 2176 2125 
Q 2176 2381 1981 2573 
Q 1786 2765 1523 2765 
Q 1158 2765 940 2438 
Q 723 2112 723 1568 
Q 723 979 963 624 
Q 1203 269 1606 269 
Q 1907 269 2080 474 
Q 2176 582 2176 653 
z
" id="STIXGeneral-Regular-64" transform="scale(0.015625)"/>
       <path d="M 2611 1050 
L 2714 1005 
Q 2330 -64 1376 -64 
Q 813 -64 486 329 
Q 160 723 160 1389 
Q 160 2074 525 2509 
Q 890 2944 1485 2944 
Q 2061 2944 2374 2502 
Q 2560 2246 2592 1773 
L 621 1773 
Q 646 1370 700 1158 
Q 755 947 915 730 
Q 1184 378 1626 378 
Q 1939 378 2153 531 
Q 2368 685 2611 1050 
z
M 634 1978 
L 1939 1978 
Q 1882 2381 1750 2547 
Q 1619 2714 1312 2714 
Q 1043 2714 864 2525 
Q 685 2336 634 1978 
z
" id="STIXGeneral-Regular-65" transform="scale(0.015625)"/>
      </defs>
      <use xlink:href="#STIXGeneral-Regular-31"/>
      <use x="49.999985" xlink:href="#STIXGeneral-Regular-73"/>
      <use x="88.899979" xlink:href="#STIXGeneral-Regular-74"/>
      <use x="116.699966" xlink:href="#STIXGeneral-Regular-20"/>
      <use x="141.699951" xlink:href="#STIXGeneral-Regular-6d"/>
      <use x="219.499939" xlink:href="#STIXGeneral-Regular-6f"/>
      <use x="269.499924" xlink:href="#STIXGeneral-Regular-64"/>
      <use x="319.499908" xlink:href="#STIXGeneral-Regular-65"/>
     </g>
    </g>
    <g id="line2d_17">
     <path d="M 137.466178 91.597828 
L 155.792178 91.597828 
" style="fill:none;stroke:#000000;stroke-linecap:square;stroke-width:1.5;"/>
    </g>
    <g id="line2d_18">
     <g>
      <use style="fill-opacity:0;stroke:#000000;" x="146.629178" xlink:href="#m3d74bd4b7f" y="91.597828"/>
     </g>
    </g>
    <g id="text_14">
     <!-- 2nd mode -->
     <g transform="translate(163.122578 94.804878)scale(0.09163 -0.09163)">
      <use xlink:href="#STIXGeneral-Regular-32"/>
      <use x="49.999985" xlink:href="#STIXGeneral-Regular-6e"/>
      <use x="99.999969" xlink:href="#STIXGeneral-Regular-64"/>
      <use x="149.999954" xlink:href="#STIXGeneral-Regular-20"/>
      <use x="174.999939" xlink:href="#STIXGeneral-Regular-6d"/>
      <use x="252.799927" xlink:href="#STIXGeneral-Regular-6f"/>
      <use x="302.799911" xlink:href="#STIXGeneral-Regular-64"/>
      <use x="352.799896" xlink:href="#STIXGeneral-Regular-65"/>
     </g>
    </g>
    <g id="line2d_19">
     <path d="M 137.466178 104.582085 
L 155.792178 104.582085 
" style="fill:none;stroke:#ff0000;stroke-linecap:square;stroke-width:1.5;"/>
    </g>
    <g id="line2d_20">
     <g>
      <use style="fill-opacity:0;stroke:#ff0000;stroke-linejoin:miter;" x="146.629178" xlink:href="#m0fbfda2981" y="104.582085"/>
     </g>
    </g>
    <g id="text_15">
     <!-- 3rd mode -->
     <g transform="translate(163.122578 107.789135)scale(0.09163 -0.09163)">
      <use xlink:href="#STIXGeneral-Regular-33"/>
      <use x="49.999985" xlink:href="#STIXGeneral-Regular-72"/>
      <use x="83.299973" xlink:href="#STIXGeneral-Regular-64"/>
      <use x="133.299957" xlink:href="#STIXGeneral-Regular-20"/>
      <use x="158.299942" xlink:href="#STIXGeneral-Regular-6d"/>
      <use x="236.09993" xlink:href="#STIXGeneral-Regular-6f"/>
      <use x="286.099915" xlink:href="#STIXGeneral-Regular-64"/>
      <use x="336.099899" xlink:href="#STIXGeneral-Regular-65"/>
     </g>
    </g>
    <g id="line2d_21">
     <path d="M 137.466178 117.566343 
L 155.792178 117.566343 
" style="fill:none;stroke:#ff0000;stroke-linecap:square;stroke-width:1.5;"/>
    </g>
    <g id="line2d_22">
     <g>
      <use style="fill-opacity:0;stroke:#ff0000;" x="146.629178" xlink:href="#m7c82d04c69" y="117.566343"/>
     </g>
    </g>
    <g id="text_16">
     <!-- 4th mode -->
     <g transform="translate(163.122578 120.773393)scale(0.09163 -0.09163)">
      <defs>
       <path d="M 3117 0 
L 1760 0 
L 1760 96 
Q 2042 128 2118 224 
Q 2195 320 2195 653 
L 2195 1920 
Q 2195 2598 1722 2598 
Q 1530 2598 1370 2508 
Q 1210 2419 1005 2195 
L 1005 653 
Q 1005 320 1081 224 
Q 1158 128 1440 96 
L 1440 0 
L 58 0 
L 58 96 
Q 333 134 400 224 
Q 467 314 467 653 
L 467 3667 
Q 467 3872 406 3933 
Q 346 3994 141 3994 
Q 83 3994 64 3987 
L 64 4090 
L 237 4141 
Q 730 4288 973 4371 
L 1005 4352 
L 1005 2406 
Q 1229 2694 1446 2819 
Q 1664 2944 1946 2944 
Q 2733 2944 2733 1926 
L 2733 653 
Q 2733 320 2793 233 
Q 2854 147 3117 96 
L 3117 0 
z
" id="STIXGeneral-Regular-68" transform="scale(0.015625)"/>
      </defs>
      <use xlink:href="#STIXGeneral-Regular-34"/>
      <use x="49.999985" xlink:href="#STIXGeneral-Regular-74"/>
      <use x="77.799973" xlink:href="#STIXGeneral-Regular-68"/>
      <use x="127.799957" xlink:href="#STIXGeneral-Regular-20"/>
      <use x="152.799942" xlink:href="#STIXGeneral-Regular-6d"/>
      <use x="230.59993" xlink:href="#STIXGeneral-Regular-6f"/>
      <use x="280.599915" xlink:href="#STIXGeneral-Regular-64"/>
      <use x="330.599899" xlink:href="#STIXGeneral-Regular-65"/>
     </g>
    </g>
   </g>
  </g>
 </g>
 <defs>
  <clipPath id="p75ff7169d0">
   <rect height="131.00875" width="163.285" x="44.48" y="0"/>
  </clipPath>
 </defs>
</svg>
