<?xml version="1.0" encoding="utf-8" standalone="no"?>
<!DOCTYPE svg PUBLIC "-//W3C//DTD SVG 1.1//EN"
  "http://www.w3.org/Graphics/SVG/1.1/DTD/svg11.dtd">
<svg height="162pt" version="1.1" viewBox="0 0 216 162" width="216pt" xmlns="http://www.w3.org/2000/svg" xmlns:xlink="http://www.w3.org/1999/xlink">
 <metadata>
  <rdf:RDF xmlns:cc="http://creativecommons.org/ns#" xmlns:dc="http://purl.org/dc/elements/1.1/" xmlns:rdf="http://www.w3.org/1999/02/22-rdf-syntax-ns#">
   <cc:Work>
    <dc:type rdf:resource="http://purl.org/dc/dcmitype/StillImage"/>
    <dc:date>2021-08-11T11:03:06.573468</dc:date>
    <dc:format>image/svg+xml</dc:format>
    <dc:creator>
     <cc:Agent>
      <dc:title>Matplotlib v3.4.2, https://matplotlib.org/</dc:title>
     </cc:Agent>
    </dc:creator>
   </cc:Work>
  </rdf:RDF>
 </metadata>
 <defs>
  <style type="text/css">*{stroke-linecap:butt;stroke-linejoin:round;}</style>
 </defs>
 <g id="figure_1">
  <g id="patch_1">
   <path d="M 0 162 
L 216 162 
L 216 0 
L 0 0 
z
" style="fill:#ffffff;"/>
  </g>
  <g id="axes_1">
   <g id="patch_2">
    <path d="M 42.955625 131.00875 
L 207.765 131.00875 
L 207.765 3.737813 
L 42.955625 3.737813 
z
" style="fill:#ffffff;"/>
   </g>
   <g id="matplotlib.axis_1">
    <g id="xtick_1">
     <g id="line2d_1">
      <defs>
       <path d="M 0 0 
L 0 3.5 
" id="mb02293fcd1" style="stroke:#000000;stroke-width:0.8;"/>
      </defs>
      <g>
       <use style="stroke:#000000;stroke-width:0.8;" x="75.9175" xlink:href="#mb02293fcd1" y="131.00875"/>
      </g>
     </g>
     <g id="text_1">
      <!-- 200 -->
      <g transform="translate(67.6675 145.521406)scale(0.11 -0.11)">
       <defs>
        <path d="M 3034 877 
L 2688 0 
L 186 0 
L 186 77 
L 1325 1286 
Q 1773 1754 1965 2144 
Q 2157 2534 2157 2950 
Q 2157 3379 1920 3616 
Q 1683 3853 1267 3853 
Q 922 3853 720 3673 
Q 518 3494 326 3021 
L 192 3053 
Q 301 3648 630 3987 
Q 960 4326 1523 4326 
Q 2054 4326 2380 4006 
Q 2707 3686 2707 3200 
Q 2707 2477 1888 1613 
L 832 486 
L 2330 486 
Q 2541 486 2665 569 
Q 2790 653 2944 915 
L 3034 877 
z
" id="STIXGeneral-Regular-32" transform="scale(0.015625)"/>
        <path d="M 3046 2112 
Q 3046 1683 2963 1302 
Q 2880 922 2717 602 
Q 2554 282 2266 96 
Q 1978 -90 1600 -90 
Q 1210 -90 915 108 
Q 621 307 461 640 
Q 301 973 227 1350 
Q 154 1728 154 2150 
Q 154 2746 301 3222 
Q 448 3699 790 4012 
Q 1133 4326 1626 4326 
Q 2253 4326 2649 3712 
Q 3046 3098 3046 2112 
z
M 2432 2080 
Q 2432 3091 2217 3625 
Q 2003 4160 1587 4160 
Q 1190 4160 979 3622 
Q 768 3085 768 2106 
Q 768 1120 979 598 
Q 1190 77 1600 77 
Q 2003 77 2217 598 
Q 2432 1120 2432 2080 
z
" id="STIXGeneral-Regular-30" transform="scale(0.015625)"/>
       </defs>
       <use xlink:href="#STIXGeneral-Regular-32"/>
       <use x="49.999985" xlink:href="#STIXGeneral-Regular-30"/>
       <use x="99.999969" xlink:href="#STIXGeneral-Regular-30"/>
      </g>
     </g>
    </g>
    <g id="xtick_2">
     <g id="line2d_2">
      <g>
       <use style="stroke:#000000;stroke-width:0.8;" x="141.84125" xlink:href="#mb02293fcd1" y="131.00875"/>
      </g>
     </g>
     <g id="text_2">
      <!-- 400 -->
      <g transform="translate(133.59125 145.521406)scale(0.11 -0.11)">
       <defs>
        <path d="M 3027 1069 
L 2368 1069 
L 2368 0 
L 1869 0 
L 1869 1069 
L 77 1069 
L 77 1478 
L 2086 4326 
L 2368 4326 
L 2368 1478 
L 3027 1478 
L 3027 1069 
z
M 1869 1478 
L 1869 3674 
L 333 1478 
L 1869 1478 
z
" id="STIXGeneral-Regular-34" transform="scale(0.015625)"/>
       </defs>
       <use xlink:href="#STIXGeneral-Regular-34"/>
       <use x="49.999985" xlink:href="#STIXGeneral-Regular-30"/>
       <use x="99.999969" xlink:href="#STIXGeneral-Regular-30"/>
      </g>
     </g>
    </g>
    <g id="xtick_3">
     <g id="line2d_3">
      <g>
       <use style="stroke:#000000;stroke-width:0.8;" x="207.765" xlink:href="#mb02293fcd1" y="131.00875"/>
      </g>
     </g>
     <g id="text_3">
      <!-- 600 -->
      <g transform="translate(199.515 145.521406)scale(0.11 -0.11)">
       <defs>
        <path d="M 2854 4378 
L 2867 4275 
Q 2112 4154 1606 3664 
Q 1101 3174 973 2451 
Q 1344 2739 1786 2739 
Q 2349 2739 2672 2380 
Q 2995 2022 2995 1402 
Q 2995 774 2669 378 
Q 2291 -90 1651 -90 
Q 870 -90 518 557 
Q 218 1107 218 1786 
Q 218 2835 915 3552 
Q 1312 3962 1731 4131 
Q 2150 4301 2854 4378 
z
M 2419 1203 
Q 2419 2445 1555 2445 
Q 1235 2445 1024 2275 
Q 813 2106 813 1702 
Q 813 954 1046 522 
Q 1280 90 1722 90 
Q 2061 90 2240 394 
Q 2419 698 2419 1203 
z
" id="STIXGeneral-Regular-36" transform="scale(0.015625)"/>
       </defs>
       <use xlink:href="#STIXGeneral-Regular-36"/>
       <use x="49.999985" xlink:href="#STIXGeneral-Regular-30"/>
       <use x="99.999969" xlink:href="#STIXGeneral-Regular-30"/>
      </g>
     </g>
    </g>
    <g id="text_4">
     <!-- $\lambda$ -->
     <g transform="translate(122.830312 159.421406)scale(0.11 -0.11)">
      <defs>
       <path d="M 2656 787 
L 2758 787 
Q 2560 -102 2112 -102 
Q 1965 -102 1869 48 
Q 1773 198 1773 499 
Q 1773 672 1789 889 
Q 1805 1107 1833 1446 
Q 1862 1786 1875 2016 
L 538 0 
L -77 0 
L 1907 2739 
Q 1933 2970 1933 3245 
Q 1933 3936 1619 3936 
Q 1530 3936 1408 3821 
Q 1286 3706 1203 3462 
L 1101 3462 
Q 1312 4339 1747 4339 
Q 1926 4339 2041 4115 
Q 2157 3891 2157 3475 
Q 2157 3040 2093 2192 
Q 2029 1344 2029 941 
Q 2029 602 2089 451 
Q 2150 301 2291 301 
Q 2483 301 2656 787 
z
" id="STIXGeneral-Italic-3bb" transform="scale(0.015625)"/>
      </defs>
      <use transform="translate(0 0.203125)" xlink:href="#STIXGeneral-Italic-3bb"/>
     </g>
    </g>
   </g>
   <g id="matplotlib.axis_2">
    <g id="ytick_1">
     <g id="line2d_4">
      <defs>
       <path d="M 0 0 
L -3.5 0 
" id="m2227cf522c" style="stroke:#000000;stroke-width:0.8;"/>
      </defs>
      <g>
       <use style="stroke:#000000;stroke-width:0.8;" x="42.955625" xlink:href="#m2227cf522c" y="109.796927"/>
      </g>
     </g>
     <g id="text_5">
      <!-- 500 -->
      <g transform="translate(19.455625 113.553255)scale(0.11 -0.11)">
       <defs>
        <path d="M 2803 4358 
L 2573 3814 
Q 2534 3731 2400 3731 
L 1158 3731 
L 902 3187 
Q 1606 3053 1920 2896 
Q 2234 2739 2502 2368 
Q 2726 2061 2726 1555 
Q 2726 1094 2576 780 
Q 2426 467 2099 224 
Q 1664 -90 1011 -90 
Q 646 -90 422 19 
Q 198 128 198 307 
Q 198 550 486 550 
Q 717 550 960 352 
Q 1210 147 1414 147 
Q 1747 147 2012 480 
Q 2278 813 2278 1229 
Q 2278 1843 1850 2189 
Q 1293 2637 486 2637 
Q 410 2637 410 2688 
L 416 2720 
L 1114 4237 
L 2438 4237 
Q 2547 4237 2608 4269 
Q 2669 4301 2746 4403 
L 2803 4358 
z
" id="STIXGeneral-Regular-35" transform="scale(0.015625)"/>
       </defs>
       <use xlink:href="#STIXGeneral-Regular-35"/>
       <use x="49.999985" xlink:href="#STIXGeneral-Regular-30"/>
       <use x="99.999969" xlink:href="#STIXGeneral-Regular-30"/>
      </g>
     </g>
    </g>
    <g id="ytick_2">
     <g id="line2d_5">
      <g>
       <use style="stroke:#000000;stroke-width:0.8;" x="42.955625" xlink:href="#m2227cf522c" y="83.282148"/>
      </g>
     </g>
     <g id="text_6">
      <!-- 750 -->
      <g transform="translate(19.455625 87.038477)scale(0.11 -0.11)">
       <defs>
        <path d="M 2874 4134 
L 1517 -51 
L 1101 -51 
L 2368 3763 
L 992 3763 
Q 717 3763 582 3667 
Q 448 3571 243 3238 
L 128 3296 
L 512 4237 
L 2874 4237 
L 2874 4134 
z
" id="STIXGeneral-Regular-37" transform="scale(0.015625)"/>
       </defs>
       <use xlink:href="#STIXGeneral-Regular-37"/>
       <use x="49.999985" xlink:href="#STIXGeneral-Regular-35"/>
       <use x="99.999969" xlink:href="#STIXGeneral-Regular-30"/>
      </g>
     </g>
    </g>
    <g id="ytick_3">
     <g id="line2d_6">
      <g>
       <use style="stroke:#000000;stroke-width:0.8;" x="42.955625" xlink:href="#m2227cf522c" y="56.76737"/>
      </g>
     </g>
     <g id="text_7">
      <!-- 1000 -->
      <g transform="translate(13.955625 60.523698)scale(0.11 -0.11)">
       <defs>
        <path d="M 2522 0 
L 755 0 
L 755 96 
Q 1107 115 1235 227 
Q 1363 339 1363 608 
L 1363 3482 
Q 1363 3795 1171 3795 
Q 1082 3795 883 3718 
L 710 3654 
L 710 3744 
L 1856 4326 
L 1914 4307 
L 1914 486 
Q 1914 275 2042 185 
Q 2170 96 2522 96 
L 2522 0 
z
" id="STIXGeneral-Regular-31" transform="scale(0.015625)"/>
       </defs>
       <use xlink:href="#STIXGeneral-Regular-31"/>
       <use x="49.999985" xlink:href="#STIXGeneral-Regular-30"/>
       <use x="99.999969" xlink:href="#STIXGeneral-Regular-30"/>
       <use x="149.999954" xlink:href="#STIXGeneral-Regular-30"/>
      </g>
     </g>
    </g>
    <g id="ytick_4">
     <g id="line2d_7">
      <g>
       <use style="stroke:#000000;stroke-width:0.8;" x="42.955625" xlink:href="#m2227cf522c" y="30.252591"/>
      </g>
     </g>
     <g id="text_8">
      <!-- 1250 -->
      <g transform="translate(13.955625 34.008919)scale(0.11 -0.11)">
       <use xlink:href="#STIXGeneral-Regular-31"/>
       <use x="49.999985" xlink:href="#STIXGeneral-Regular-32"/>
       <use x="99.999969" xlink:href="#STIXGeneral-Regular-35"/>
       <use x="149.999954" xlink:href="#STIXGeneral-Regular-30"/>
      </g>
     </g>
    </g>
    <g id="ytick_5">
     <g id="line2d_8">
      <g>
       <use style="stroke:#000000;stroke-width:0.8;" x="42.955625" xlink:href="#m2227cf522c" y="3.737812"/>
      </g>
     </g>
     <g id="text_9">
      <!-- 1500 -->
      <g transform="translate(13.955625 7.494141)scale(0.11 -0.11)">
       <use xlink:href="#STIXGeneral-Regular-31"/>
       <use x="49.999985" xlink:href="#STIXGeneral-Regular-35"/>
       <use x="99.999969" xlink:href="#STIXGeneral-Regular-30"/>
       <use x="149.999954" xlink:href="#STIXGeneral-Regular-30"/>
      </g>
     </g>
    </g>
    <g id="text_10">
     <!-- Frequency (Hz) -->
     <g transform="translate(7.557969 102.040469)rotate(-90)scale(0.11 -0.11)">
      <defs>
       <path d="M 3494 3322 
L 3334 3322 
Q 3264 3757 3094 3875 
Q 2925 3994 2349 3994 
L 1504 3994 
Q 1370 3994 1328 3946 
Q 1286 3898 1286 3744 
L 1286 2355 
L 2195 2355 
Q 2598 2355 2736 2470 
Q 2874 2586 2918 2963 
L 3066 2963 
L 3066 1472 
L 2918 1472 
Q 2880 1862 2745 1977 
Q 2611 2093 2195 2093 
L 1286 2093 
L 1286 717 
Q 1286 352 1392 246 
Q 1498 141 1869 122 
L 1869 0 
L 70 0 
L 70 122 
Q 435 147 534 259 
Q 634 371 634 787 
L 634 3526 
Q 634 3878 538 3984 
Q 442 4090 77 4115 
L 77 4237 
L 3462 4237 
L 3494 3322 
z
" id="STIXGeneral-Regular-46" transform="scale(0.015625)"/>
       <path d="M 1024 2931 
L 1024 2342 
Q 1267 2688 1430 2816 
Q 1594 2944 1792 2944 
Q 1958 2944 2051 2854 
Q 2144 2765 2144 2605 
Q 2144 2470 2077 2393 
Q 2010 2317 1894 2317 
Q 1773 2317 1638 2445 
Q 1536 2541 1472 2541 
Q 1338 2541 1181 2355 
Q 1024 2170 1024 2016 
L 1024 576 
Q 1024 301 1133 205 
Q 1242 109 1568 96 
L 1568 0 
L 32 0 
L 32 96 
Q 339 154 412 224 
Q 486 294 486 538 
L 486 2138 
Q 486 2349 438 2435 
Q 390 2522 269 2522 
Q 166 2522 45 2496 
L 45 2598 
Q 448 2726 992 2944 
L 1024 2931 
z
" id="STIXGeneral-Regular-72" transform="scale(0.015625)"/>
       <path d="M 2611 1050 
L 2714 1005 
Q 2330 -64 1376 -64 
Q 813 -64 486 329 
Q 160 723 160 1389 
Q 160 2074 525 2509 
Q 890 2944 1485 2944 
Q 2061 2944 2374 2502 
Q 2560 2246 2592 1773 
L 621 1773 
Q 646 1370 700 1158 
Q 755 947 915 730 
Q 1184 378 1626 378 
Q 1939 378 2153 531 
Q 2368 685 2611 1050 
z
M 634 1978 
L 1939 1978 
Q 1882 2381 1750 2547 
Q 1619 2714 1312 2714 
Q 1043 2714 864 2525 
Q 685 2336 634 1978 
z
" id="STIXGeneral-Regular-65" transform="scale(0.015625)"/>
       <path d="M 3123 -1389 
L 1613 -1389 
L 1613 -1280 
Q 1952 -1254 2067 -1158 
Q 2182 -1062 2182 -794 
L 2182 410 
Q 1747 -64 1178 -64 
Q 730 -64 442 320 
Q 154 704 154 1312 
Q 154 2003 560 2473 
Q 966 2944 1562 2944 
Q 1920 2944 2304 2720 
L 2650 2925 
L 2720 2925 
L 2720 -902 
Q 2720 -1107 2797 -1180 
Q 2874 -1254 3123 -1280 
L 3123 -1389 
z
M 2182 813 
L 2182 2131 
Q 2182 2758 1587 2758 
Q 1178 2758 941 2432 
Q 704 2106 704 1542 
Q 704 1210 803 925 
Q 902 640 1062 499 
Q 1254 326 1542 326 
Q 1882 326 2106 531 
Q 2182 602 2182 813 
z
" id="STIXGeneral-Regular-71" transform="scale(0.015625)"/>
       <path d="M 3072 320 
L 3072 230 
Q 2573 96 2195 -58 
L 2163 -38 
L 2163 486 
L 2150 486 
Q 1747 -64 1235 -64 
Q 870 -64 662 160 
Q 454 384 454 755 
L 454 2362 
Q 454 2598 371 2688 
Q 288 2778 58 2790 
L 58 2880 
L 992 2880 
L 992 813 
Q 992 595 1123 451 
Q 1254 307 1446 307 
Q 1760 307 1984 506 
Q 2067 582 2099 649 
Q 2131 717 2131 877 
L 2131 2355 
Q 2131 2605 2041 2678 
Q 1952 2752 1658 2771 
L 1658 2880 
L 2669 2880 
L 2669 685 
Q 2669 461 2742 390 
Q 2816 320 3034 320 
L 3072 320 
z
" id="STIXGeneral-Regular-75" transform="scale(0.015625)"/>
       <path d="M 3104 0 
L 1773 0 
L 1779 96 
Q 2016 115 2096 233 
Q 2176 352 2176 672 
L 2176 1946 
Q 2176 2592 1709 2592 
Q 1549 2592 1408 2515 
Q 1267 2438 1050 2227 
L 1050 461 
Q 1050 269 1136 192 
Q 1222 115 1466 96 
L 1466 0 
L 115 0 
L 115 96 
Q 358 115 435 214 
Q 512 314 512 602 
L 512 2157 
Q 512 2394 467 2483 
Q 422 2573 288 2573 
Q 160 2573 102 2547 
L 102 2656 
Q 550 2784 979 2944 
L 1030 2925 
L 1030 2426 
L 1037 2426 
Q 1491 2944 1958 2944 
Q 2323 2944 2518 2688 
Q 2714 2432 2714 1958 
L 2714 544 
Q 2714 288 2790 205 
Q 2867 122 3104 96 
L 3104 0 
z
" id="STIXGeneral-Regular-6e" transform="scale(0.015625)"/>
       <path d="M 2547 998 
L 2637 941 
Q 2362 403 2112 205 
Q 1786 -64 1376 -64 
Q 845 -64 502 336 
Q 160 736 160 1357 
Q 160 2170 698 2618 
Q 1094 2944 1562 2944 
Q 1965 2944 2256 2749 
Q 2547 2554 2547 2285 
Q 2547 2176 2457 2096 
Q 2368 2016 2246 2016 
Q 2022 2016 1939 2310 
L 1901 2451 
Q 1850 2630 1773 2694 
Q 1696 2758 1523 2758 
Q 1133 2758 893 2451 
Q 653 2144 653 1645 
Q 653 1094 928 745 
Q 1203 397 1645 397 
Q 1920 397 2118 528 
Q 2317 659 2547 998 
z
" id="STIXGeneral-Regular-63" transform="scale(0.015625)"/>
       <path d="M 3040 2880 
L 3040 2784 
Q 2925 2771 2854 2700 
Q 2784 2630 2720 2458 
L 1760 -160 
Q 1510 -838 1257 -1116 
Q 1005 -1395 640 -1395 
Q 435 -1395 313 -1289 
Q 192 -1184 192 -1024 
Q 192 -902 272 -816 
Q 352 -730 467 -730 
Q 653 -730 800 -813 
Q 883 -858 966 -858 
Q 1101 -858 1286 -576 
Q 1376 -448 1459 -211 
Q 1542 26 1542 115 
Q 1542 198 1274 762 
L 429 2566 
Q 346 2752 90 2790 
L 90 2880 
L 1402 2880 
L 1402 2784 
Q 1197 2778 1117 2739 
Q 1037 2701 1037 2611 
Q 1037 2541 1120 2349 
L 1837 749 
L 2458 2515 
Q 2483 2573 2483 2630 
Q 2483 2784 2189 2784 
L 2189 2880 
L 3040 2880 
z
" id="STIXGeneral-Regular-79" transform="scale(0.015625)"/>
       <path id="STIXGeneral-Regular-20" transform="scale(0.015625)"/>
       <path d="M 1946 -1030 
L 1869 -1133 
Q 1126 -710 716 32 
Q 307 774 307 1613 
Q 307 3386 1888 4326 
L 1946 4224 
Q 1293 3667 1075 3126 
Q 858 2586 858 1632 
Q 858 685 1082 96 
Q 1306 -493 1946 -1030 
z
" id="STIXGeneral-Regular-28" transform="scale(0.015625)"/>
       <path d="M 4499 0 
L 2714 0 
L 2714 122 
Q 3085 147 3181 265 
Q 3277 384 3277 794 
L 3277 2016 
L 1338 2016 
L 1338 723 
Q 1338 371 1440 256 
Q 1542 141 1894 122 
L 1901 0 
L 115 0 
L 115 122 
Q 493 147 589 259 
Q 685 371 685 781 
L 685 3507 
Q 685 3878 585 3980 
Q 486 4083 115 4115 
L 115 4237 
L 1907 4237 
L 1907 4115 
Q 1549 4083 1443 3977 
Q 1338 3872 1338 3507 
L 1338 2298 
L 3277 2298 
L 3277 3507 
Q 3277 3878 3177 3980 
Q 3078 4083 2707 4115 
L 2707 4237 
L 4499 4237 
L 4499 4115 
Q 4141 4083 4035 3977 
Q 3930 3872 3930 3507 
L 3930 710 
Q 3930 371 4035 259 
Q 4141 147 4499 122 
L 4499 0 
z
" id="STIXGeneral-Regular-48" transform="scale(0.015625)"/>
       <path d="M 2675 870 
L 2579 0 
L 173 0 
L 173 96 
L 1875 2688 
L 1011 2688 
Q 710 2688 604 2582 
Q 499 2477 454 2125 
L 339 2125 
L 365 2880 
L 2579 2880 
L 2579 2784 
L 858 192 
L 1709 192 
Q 2246 192 2387 365 
Q 2477 474 2560 896 
L 2675 870 
z
" id="STIXGeneral-Regular-7a" transform="scale(0.015625)"/>
       <path d="M 186 4224 
L 262 4326 
Q 992 3891 1408 3148 
Q 1824 2406 1824 1581 
Q 1824 -166 243 -1133 
L 186 -1030 
Q 845 -486 1059 54 
Q 1274 595 1274 1562 
Q 1274 2534 1059 3120 
Q 845 3706 186 4224 
z
" id="STIXGeneral-Regular-29" transform="scale(0.015625)"/>
      </defs>
      <use xlink:href="#STIXGeneral-Regular-46"/>
      <use x="55.599991" xlink:href="#STIXGeneral-Regular-72"/>
      <use x="88.899979" xlink:href="#STIXGeneral-Regular-65"/>
      <use x="133.299973" xlink:href="#STIXGeneral-Regular-71"/>
      <use x="183.299957" xlink:href="#STIXGeneral-Regular-75"/>
      <use x="233.299942" xlink:href="#STIXGeneral-Regular-65"/>
      <use x="277.699936" xlink:href="#STIXGeneral-Regular-6e"/>
      <use x="327.699921" xlink:href="#STIXGeneral-Regular-63"/>
      <use x="372.099915" xlink:href="#STIXGeneral-Regular-79"/>
      <use x="422.099899" xlink:href="#STIXGeneral-Regular-20"/>
      <use x="447.099884" xlink:href="#STIXGeneral-Regular-28"/>
      <use x="480.399872" xlink:href="#STIXGeneral-Regular-48"/>
      <use x="552.599854" xlink:href="#STIXGeneral-Regular-7a"/>
      <use x="596.999847" xlink:href="#STIXGeneral-Regular-29"/>
     </g>
    </g>
   </g>
   <g id="line2d_9">
    <path clip-path="url(#pc02d957b59)" d="M 42.955625 108.954274 
L 46.251812 108.441881 
L 49.548 107.884526 
L 52.844188 107.28309 
L 56.140375 106.638466 
L 59.436563 105.951554 
L 62.73275 105.22324 
L 66.028937 104.454394 
L 69.325125 103.645854 
L 72.621312 102.798418 
L 75.9175 101.912834 
L 79.213687 100.989791 
L 82.509875 100.029906 
L 85.806062 99.03372 
L 89.10225 98.001681 
L 92.398438 96.93414 
L 95.694625 95.831334 
L 98.990812 94.693375 
L 102.287 93.520234 
L 105.583187 92.311723 
L 108.879375 91.067474 
L 112.175562 89.786908 
L 115.47175 88.469209 
L 118.767937 87.113274 
L 122.064125 85.717662 
L 125.360312 84.280521 
L 128.6565 82.799492 
L 131.952687 81.271575 
L 135.248875 79.692951 
L 138.545063 78.058718 
L 141.84125 76.362502 
L 145.137437 74.595874 
L 148.433625 72.747396 
L 151.729812 70.801031 
L 155.026 68.733225 
L 158.322187 66.50707 
L 161.618375 64.058881 
L 164.914562 61.259852 
L 168.21075 57.751164 
L 169.858844 55.276305 
L 169.891806 55.214304 
L 169.924767 55.151465 
L 169.957729 55.087748 
L 169.990691 55.023112 
L 170.023653 54.957511 
L 170.056615 54.89089 
L 170.089577 54.823199 
L 170.122539 54.754373 
L 170.155501 54.684354 
L 170.188462 54.613059 
L 170.221424 54.540418 
L 170.254386 54.466331 
L 170.287348 54.390705 
L 170.32031 54.313427 
L 170.353272 54.234371 
L 170.386234 54.153393 
L 170.419196 54.070331 
L 170.452157 53.984999 
L 170.485119 53.897175 
L 170.518081 53.806611 
L 170.551043 53.713003 
L 170.584005 53.615989 
L 170.616967 53.515133 
L 170.649929 53.409896 
L 170.682891 53.299598 
L 170.715852 53.183358 
L 170.748814 53.060021 
L 170.781776 52.927975 
L 170.814738 52.784897 
L 170.8477 52.627276 
L 170.880662 52.448998 
L 170.913624 52.238219 
L 170.946586 51.963484 
L 170.979547 51.353763 
L 171.012509 51.336516 
L 171.045471 51.328422 
L 171.078433 51.320788 
L 171.111395 51.313307 
L 171.144357 51.305895 
L 171.177319 51.298525 
L 171.210281 51.29118 
L 171.243242 51.283853 
L 171.276204 51.276536 
L 171.309166 51.269229 
L 171.342128 51.261928 
L 171.37509 51.254632 
L 171.408052 51.247341 
L 171.441014 51.240052 
L 171.473976 51.232765 
L 171.506937 51.225481 
L 174.803125 50.495704 
L 178.099312 49.759788 
L 181.3955 49.017491 
L 184.691687 48.2689 
L 187.987875 47.514116 
L 191.284062 46.753234 
L 194.58025 45.986342 
L 197.876437 45.213533 
L 201.172625 44.434879 
L 204.468812 43.650456 
L 207.765 42.860332 
" style="fill:none;stroke:#000000;stroke-linecap:square;stroke-width:1.5;"/>
   </g>
   <g id="line2d_10">
    <path clip-path="url(#pc02d957b59)" d="M 42.955625 37.893105 
L 46.251812 37.760399 
L 49.548 37.615123 
L 52.844188 37.457295 
L 56.140375 37.286934 
L 59.436563 37.104064 
L 62.73275 36.908703 
L 66.028937 36.700875 
L 69.325125 36.480605 
L 72.621312 36.247917 
L 75.9175 36.002835 
L 79.213687 35.745389 
L 82.509875 35.475601 
L 85.806062 35.443363 
L 89.10225 35.516463 
L 92.398438 35.596981 
L 95.694625 35.685665 
L 98.990812 35.783349 
L 102.287 35.890977 
L 105.583187 36.009611 
L 108.879375 36.140459 
L 112.175562 36.284899 
L 115.47175 36.444516 
L 118.767937 36.621141 
L 122.064125 36.816909 
L 125.360312 37.034336 
L 128.6565 37.276403 
L 131.952687 37.546706 
L 135.248875 37.849629 
L 138.545063 38.190607 
L 141.84125 38.576516 
L 145.137437 39.016265 
L 148.433625 39.52174 
L 151.729812 40.109404 
L 155.026 40.803212 
L 158.322187 41.640447 
L 161.618375 42.685152 
L 164.914562 44.066467 
L 168.21075 46.143524 
L 169.858844 47.897441 
L 169.891806 47.944989 
L 169.924767 47.993374 
L 169.957729 48.042635 
L 169.990691 48.092813 
L 170.023653 48.143955 
L 170.056615 48.196116 
L 170.089577 48.249346 
L 170.122539 48.30371 
L 170.155501 48.359264 
L 170.188462 48.416094 
L 170.221424 48.474267 
L 170.254386 48.533887 
L 170.287348 48.595044 
L 170.32031 48.657851 
L 170.353272 48.722434 
L 170.386234 48.788939 
L 170.419196 48.857526 
L 170.452157 48.928382 
L 170.485119 49.001728 
L 170.518081 49.077813 
L 170.551043 49.156941 
L 170.584005 49.239473 
L 170.616967 49.325847 
L 170.649929 49.416599 
L 170.682891 49.512411 
L 170.715852 49.614165 
L 170.748814 49.723012 
L 170.781776 49.840569 
L 170.814738 49.969158 
L 170.8477 50.112285 
L 170.880662 50.276071 
L 170.913624 50.472354 
L 170.946586 50.732591 
L 170.979547 51.327816 
L 171.012509 51.330564 
L 171.045471 51.324158 
L 171.078433 51.31729 
L 171.111395 51.31027 
L 171.144357 51.303176 
L 171.177319 51.29604 
L 171.210281 51.288878 
L 171.243242 51.281698 
L 171.276204 51.274504 
L 171.309166 51.2673 
L 171.342128 51.260089 
L 171.37509 51.252871 
L 171.408052 51.245648 
L 171.441014 51.238421 
L 171.473976 51.231189 
L 171.506937 51.223954 
L 174.803125 50.495134 
L 178.099312 49.759369 
L 181.3955 49.017143 
L 184.691687 48.268595 
L 187.987875 47.513841 
L 191.284062 46.752981 
L 194.58025 45.986107 
L 197.876437 45.213311 
L 201.172625 44.434669 
L 204.468812 43.650255 
L 207.765 42.86014 
" style="fill:none;stroke:#000000;stroke-linecap:square;stroke-width:1.5;"/>
   </g>
   <g id="line2d_11">
    <path clip-path="url(#pc02d957b59)" d="M 42.955625 34.938636 
L 46.251812 34.957284 
L 49.548 34.978357 
L 52.844188 35.002045 
L 56.140375 35.02856 
L 59.436563 35.058139 
L 62.73275 35.091045 
L 66.028937 35.127568 
L 69.325125 35.16803 
L 72.621312 35.212789 
L 75.9175 35.26224 
L 79.213687 35.31682 
L 82.509875 35.377016 
L 85.806062 35.193501 
L 89.10225 34.899117 
L 92.398438 34.592475 
L 95.694625 34.273603 
L 98.990812 33.94253 
L 102.287 33.599283 
L 105.583187 33.243888 
L 108.879375 32.876374 
L 112.175562 32.496763 
L 115.47175 32.105083 
L 118.767937 31.701358 
L 122.064125 31.285609 
L 125.360312 30.857858 
L 128.6565 30.418125 
L 131.952687 29.966426 
L 135.248875 29.50278 
L 138.545063 29.027196 
L 141.84125 28.539687 
L 145.137437 28.04026 
L 148.433625 27.528921 
L 151.729812 27.005669 
L 155.026 26.470501 
L 158.322187 25.923413 
L 161.618375 25.36439 
L 164.914562 24.793417 
L 168.21075 24.210472 
L 169.858844 23.914501 
L 169.891806 23.908551 
L 169.924767 23.9026 
L 169.957729 23.896648 
L 169.990691 23.890693 
L 170.023653 23.884739 
L 170.056615 23.878783 
L 170.089577 23.872826 
L 170.122539 23.866868 
L 170.155501 23.860908 
L 170.188462 23.854947 
L 170.221424 23.848983 
L 170.254386 23.843021 
L 170.287348 23.837056 
L 170.32031 23.831092 
L 170.353272 23.825124 
L 170.386234 23.819157 
L 170.419196 23.813187 
L 170.452157 23.807217 
L 170.485119 23.801245 
L 170.518081 23.795272 
L 170.551043 23.789298 
L 170.584005 23.783323 
L 170.616967 23.777347 
L 170.649929 23.771369 
L 170.682891 23.76539 
L 170.715852 23.75941 
L 170.748814 23.753429 
L 170.781776 23.747446 
L 170.814738 23.741463 
L 170.8477 23.735477 
L 170.880662 23.729491 
L 170.913624 23.723504 
L 170.946586 23.717516 
L 170.979547 23.711526 
L 171.012509 23.705535 
L 171.045471 23.699544 
L 171.078433 23.69355 
L 171.111395 23.687555 
L 171.144357 23.681559 
L 171.177319 23.675562 
L 171.210281 23.669564 
L 171.243242 23.663565 
L 171.276204 23.657566 
L 171.309166 23.651564 
L 171.342128 23.64556 
L 171.37509 23.639556 
L 171.408052 23.633549 
L 171.441014 23.627544 
L 171.473976 23.621536 
L 171.506937 23.615527 
L 174.803125 23.008548 
L 178.099312 22.389493 
L 181.3955 21.758315 
L 184.691687 21.114957 
L 187.987875 20.459351 
L 191.284062 19.791423 
L 194.58025 19.111086 
L 197.876437 18.418244 
L 201.172625 17.712784 
L 204.468812 16.994582 
L 207.765 16.263497 
" style="fill:none;stroke:#000000;stroke-linecap:square;stroke-width:1.5;"/>
   </g>
   <g id="line2d_12">
    <path clip-path="url(#pc02d957b59)" d="M 9.750617 111.372062 
L 25.797389 110.53199 
L 42.087293 108.641828 
L 59.349729 105.491557 
L 76.369033 101.081178 
L 91.929538 96.250763 
L 108.705709 91.000312 
L 124.75248 84.069716 
L 141.528651 75.879012 
L 149.795169 70.418543 
L 158.304821 65.168092 
L 163.167479 60.967731 
L 165.355675 58.657532 
L 167.057605 55.71728 
L 167.787004 52.146973 
L 174.351592 50.676846 
L 190.641497 46.896522 
L 207.174534 42.696161 
L 217 40.634976 
" style="fill:none;stroke:#ff0000;stroke-dasharray:5.55,2.4;stroke-dashoffset:0;stroke-width:1.5;"/>
   </g>
   <g id="line2d_13">
    <path clip-path="url(#pc02d957b59)" d="M 9.99375 38.915836 
L 25.797389 38.915836 
L 42.573559 38.705818 
L 59.106596 38.075763 
L 75.639634 36.605637 
L 91.929538 34.715475 
L 107.490044 33.245348 
L 124.509347 31.145168 
L 142.258049 29.044987 
L 158.061688 26.104735 
L 173.865327 23.3745 
L 190.155231 19.594175 
L 206.931401 15.603832 
L 217 13.24315 
" style="fill:none;stroke:#ff0000;stroke-dasharray:5.55,2.4;stroke-dashoffset:0;stroke-width:1.5;"/>
   </g>
   <g id="line2d_14">
    <path clip-path="url(#pc02d957b59)" d="M 9.750617 35.345529 
L 25.797389 35.135511 
L 43.059825 36.395619 
L 59.349729 35.975583 
L 75.639634 36.395619 
L 92.658937 36.605637 
L 108.948842 37.025673 
L 124.995613 38.285782 
L 135.693461 38.705818 
L 142.014916 39.965926 
L 152.469631 41.436052 
L 159.277352 43.536233 
L 163.167479 45.636413 
L 166.328207 48.576666 
L 167.300738 51.936955 
" style="fill:none;stroke:#ff0000;stroke-dasharray:5.55,2.4;stroke-dashoffset:0;stroke-width:1.5;"/>
   </g>
   <g id="patch_3">
    <path d="M 42.955625 131.00875 
L 42.955625 3.737812 
" style="fill:none;stroke:#000000;stroke-linecap:square;stroke-linejoin:miter;stroke-width:0.8;"/>
   </g>
   <g id="patch_4">
    <path d="M 207.765 131.00875 
L 207.765 3.737812 
" style="fill:none;stroke:#000000;stroke-linecap:square;stroke-linejoin:miter;stroke-width:0.8;"/>
   </g>
   <g id="patch_5">
    <path d="M 42.955625 131.00875 
L 207.765 131.00875 
" style="fill:none;stroke:#000000;stroke-linecap:square;stroke-linejoin:miter;stroke-width:0.8;"/>
   </g>
   <g id="patch_6">
    <path d="M 42.955625 3.737813 
L 207.765 3.737813 
" style="fill:none;stroke:#000000;stroke-linecap:square;stroke-linejoin:miter;stroke-width:0.8;"/>
   </g>
   <g id="text_11">
    <!-- $k_3L_2/D=2\times 10^5$ -->
    <g transform="translate(59.436563 67.373281)scale(0.11 -0.11)">
     <defs>
      <path d="M 2950 2739 
L 2950 2637 
Q 2720 2624 2464 2448 
Q 2208 2272 1510 1651 
L 1747 1088 
Q 2099 262 2266 262 
Q 2400 262 2554 531 
Q 2586 582 2650 698 
L 2746 627 
Q 2522 224 2374 77 
Q 2227 -70 2035 -70 
Q 1894 -70 1782 42 
Q 1670 154 1517 454 
Q 1325 826 1133 1357 
L 877 1152 
L 570 0 
L 90 0 
L 992 3379 
Q 1082 3699 1107 3942 
Q 1088 4096 781 4096 
L 666 4096 
L 666 4198 
Q 1146 4256 1670 4371 
L 1709 4333 
L 941 1414 
L 1216 1626 
Q 2131 2330 2131 2522 
Q 2131 2637 1894 2637 
L 1805 2637 
L 1805 2739 
L 2950 2739 
z
" id="STIXGeneral-Italic-6b" transform="scale(0.015625)"/>
      <path d="M 390 3264 
L 288 3290 
Q 435 3770 748 4048 
Q 1062 4326 1542 4326 
Q 1990 4326 2265 4083 
Q 2541 3840 2541 3450 
Q 2541 2925 1946 2566 
Q 2298 2413 2477 2227 
Q 2758 1914 2758 1402 
Q 2758 890 2464 506 
Q 2246 211 1840 60 
Q 1434 -90 979 -90 
Q 262 -90 262 275 
Q 262 378 339 442 
Q 416 506 525 506 
Q 685 506 915 339 
Q 1197 141 1466 141 
Q 1818 141 2058 425 
Q 2298 710 2298 1120 
Q 2298 1856 1632 2048 
Q 1434 2112 979 2112 
L 979 2202 
Q 1338 2323 1517 2432 
Q 2035 2726 2035 3290 
Q 2035 3610 1852 3776 
Q 1670 3942 1344 3942 
Q 768 3942 390 3264 
z
" id="STIXGeneral-Regular-33" transform="scale(0.015625)"/>
      <path d="M 3578 1152 
L 3206 0 
L -51 0 
L -51 102 
Q 218 128 301 211 
Q 384 294 474 602 
L 1254 3405 
Q 1325 3642 1325 3802 
Q 1325 3942 1225 4000 
Q 1126 4058 832 4077 
L 832 4179 
L 2579 4179 
L 2579 4077 
Q 2285 4058 2147 3955 
Q 2010 3853 1933 3584 
L 1165 838 
Q 1101 595 1101 493 
Q 1101 346 1241 288 
Q 1382 230 1773 230 
Q 2266 230 2480 275 
Q 2694 320 2925 474 
Q 3187 646 3450 1190 
L 3578 1152 
z
" id="STIXGeneral-Italic-4c" transform="scale(0.015625)"/>
      <path d="M 1837 4326 
L 378 -90 
L -58 -90 
L 1408 4326 
L 1837 4326 
z
" id="STIXGeneral-Regular-2f" transform="scale(0.015625)"/>
      <path d="M 838 4179 
L 2611 4179 
Q 3469 4179 3974 3731 
Q 4480 3283 4480 2458 
Q 4480 1325 3456 531 
Q 2778 0 1594 0 
L -51 0 
L -51 102 
Q 224 154 310 230 
Q 397 307 474 589 
L 1254 3437 
Q 1325 3686 1325 3814 
Q 1325 3949 1222 4009 
Q 1120 4070 838 4077 
L 838 4179 
z
M 1984 3738 
L 1229 1037 
Q 1088 525 1088 429 
Q 1088 192 1523 192 
Q 2470 192 3066 768 
Q 3398 1088 3584 1597 
Q 3770 2106 3770 2611 
Q 3770 3386 3270 3763 
Q 2970 3987 2432 3987 
Q 2227 3987 2128 3939 
Q 2029 3891 1984 3738 
z
" id="STIXGeneral-Italic-44" transform="scale(0.015625)"/>
      <path d="M 4077 2048 
L 307 2048 
L 307 2470 
L 4077 2470 
L 4077 2048 
z
M 4077 768 
L 307 768 
L 307 1190 
L 4077 1190 
L 4077 768 
z
" id="STIXGeneral-Regular-3d" transform="scale(0.015625)"/>
      <path d="M 3821 141 
L 3526 -160 
L 2048 1312 
L 570 -160 
L 275 134 
L 1747 1613 
L 275 3091 
L 576 3386 
L 2048 1914 
L 3526 3386 
L 3821 3098 
L 2349 1613 
L 3821 141 
z
" id="STIXGeneral-Regular-d7" transform="scale(0.015625)"/>
     </defs>
     <use transform="translate(0 0.567188)" xlink:href="#STIXGeneral-Italic-6b"/>
     <use transform="translate(44.399994 -12.660938)scale(0.7)" xlink:href="#STIXGeneral-Regular-33"/>
     <use transform="translate(83.809358 0.567188)" xlink:href="#STIXGeneral-Italic-4c"/>
     <use transform="translate(139.409349 -12.660938)scale(0.7)" xlink:href="#STIXGeneral-Regular-32"/>
     <use transform="translate(178.818713 0.567188)" xlink:href="#STIXGeneral-Regular-2f"/>
     <use transform="translate(206.618701 0.567188)" xlink:href="#STIXGeneral-Italic-44"/>
     <use transform="translate(293.258679 0.567188)" xlink:href="#STIXGeneral-Regular-3d"/>
     <use transform="translate(376.19866 0.567188)" xlink:href="#STIXGeneral-Regular-32"/>
     <use transform="translate(440.638641 0.567188)" xlink:href="#STIXGeneral-Regular-d7"/>
     <use transform="translate(519.078622 0.567188)" xlink:href="#STIXGeneral-Regular-31"/>
     <use transform="translate(569.078607 0.567188)" xlink:href="#STIXGeneral-Regular-30"/>
     <use transform="translate(620.621873 35.842188)scale(0.7)" xlink:href="#STIXGeneral-Regular-35"/>
    </g>
   </g>
   <g id="legend_1">
    <g id="patch_7">
     <path d="M 115.263083 126.42725 
L 201.3509 126.42725 
Q 203.1835 126.42725 203.1835 124.59465 
L 203.1835 99.542435 
Q 203.1835 97.709835 201.3509 97.709835 
L 115.263083 97.709835 
Q 113.430483 97.709835 113.430483 99.542435 
L 113.430483 124.59465 
Q 113.430483 126.42725 115.263083 126.42725 
z
" style="fill:#ffffff;opacity:0.8;stroke:#cccccc;stroke-linejoin:miter;"/>
    </g>
    <g id="line2d_15">
     <path d="M 117.095683 104.582085 
L 135.421683 104.582085 
" style="fill:none;stroke:#000000;stroke-linecap:square;stroke-width:1.5;"/>
    </g>
    <g id="line2d_16"/>
    <g id="text_12">
     <!-- Present method -->
     <g transform="translate(142.752083 107.789135)scale(0.09163 -0.09163)">
      <defs>
       <path d="M 102 4237 
L 1760 4237 
Q 2669 4237 3149 3834 
Q 3469 3565 3469 3072 
Q 3469 2560 3104 2234 
Q 2835 1990 2553 1916 
Q 2272 1843 1734 1843 
Q 1549 1843 1293 1862 
L 1293 717 
Q 1293 352 1398 246 
Q 1504 141 1894 122 
L 1894 0 
L 102 0 
L 102 122 
Q 474 147 557 256 
Q 640 365 640 781 
L 640 3526 
Q 640 3885 547 3987 
Q 454 4090 102 4115 
L 102 4237 
z
M 1293 3770 
L 1293 2118 
Q 1510 2099 1683 2099 
Q 2202 2099 2486 2352 
Q 2771 2605 2771 3040 
Q 2771 3558 2476 3779 
Q 2182 4000 1517 4000 
Q 1382 4000 1337 3952 
Q 1293 3904 1293 3770 
z
" id="STIXGeneral-Regular-50" transform="scale(0.015625)"/>
       <path d="M 998 1926 
L 1664 1523 
Q 1984 1331 2105 1164 
Q 2227 998 2227 736 
Q 2227 416 1961 176 
Q 1696 -64 1331 -64 
Q 1030 -64 864 -6 
Q 691 51 570 51 
Q 461 51 416 -26 
L 333 -26 
L 333 979 
L 435 979 
Q 538 512 730 294 
Q 922 77 1248 77 
Q 1485 77 1632 211 
Q 1779 346 1779 550 
Q 1779 845 1440 1030 
L 1094 1222 
Q 326 1651 326 2150 
Q 326 2522 566 2730 
Q 806 2938 1210 2938 
Q 1491 2938 1638 2867 
Q 1754 2816 1818 2816 
Q 1862 2816 1920 2880 
L 1990 2880 
L 2022 2010 
L 1926 2010 
Q 1818 2445 1654 2621 
Q 1491 2797 1203 2797 
Q 986 2797 854 2688 
Q 723 2579 723 2362 
Q 723 2253 796 2128 
Q 870 2003 998 1926 
z
" id="STIXGeneral-Regular-73" transform="scale(0.015625)"/>
       <path d="M 1702 493 
L 1786 422 
Q 1478 -64 1011 -64 
Q 448 -64 448 749 
L 448 2675 
L 109 2675 
Q 83 2694 83 2720 
Q 83 2771 192 2842 
Q 435 2982 813 3526 
Q 826 3546 874 3606 
Q 922 3667 941 3706 
Q 986 3706 986 3622 
L 986 2880 
L 1632 2880 
L 1632 2675 
L 986 2675 
L 986 845 
Q 986 538 1062 403 
Q 1139 269 1318 269 
Q 1510 269 1702 493 
z
" id="STIXGeneral-Regular-74" transform="scale(0.015625)"/>
       <path d="M 4960 0 
L 3565 0 
L 3565 96 
Q 3834 122 3907 208 
Q 3981 294 3981 576 
L 3981 1894 
Q 3981 2278 3869 2444 
Q 3757 2611 3488 2611 
Q 3264 2611 3107 2521 
Q 2950 2432 2803 2221 
L 2803 608 
Q 2803 301 2896 201 
Q 2989 102 3264 96 
L 3264 0 
L 1830 0 
L 1830 96 
Q 2112 115 2189 188 
Q 2266 262 2266 550 
L 2266 1901 
Q 2266 2611 1850 2611 
Q 1670 2611 1468 2531 
Q 1267 2451 1171 2336 
Q 1088 2240 1088 2227 
L 1088 448 
Q 1088 243 1177 176 
Q 1267 109 1523 96 
L 1523 0 
L 102 0 
L 102 96 
Q 371 102 460 195 
Q 550 288 550 563 
L 550 2150 
Q 550 2387 499 2480 
Q 448 2573 326 2573 
Q 230 2573 122 2547 
L 122 2656 
Q 557 2778 1011 2944 
L 1062 2925 
L 1062 2451 
L 1075 2451 
Q 1363 2752 1584 2848 
Q 1805 2944 2054 2944 
Q 2560 2944 2733 2406 
Q 3232 2944 3776 2944 
Q 4518 2944 4518 1792 
L 4518 493 
Q 4518 282 4582 202 
Q 4646 122 4794 109 
L 4960 96 
L 4960 0 
z
" id="STIXGeneral-Regular-6d" transform="scale(0.015625)"/>
       <path d="M 3117 0 
L 1760 0 
L 1760 96 
Q 2042 128 2118 224 
Q 2195 320 2195 653 
L 2195 1920 
Q 2195 2598 1722 2598 
Q 1530 2598 1370 2508 
Q 1210 2419 1005 2195 
L 1005 653 
Q 1005 320 1081 224 
Q 1158 128 1440 96 
L 1440 0 
L 58 0 
L 58 96 
Q 333 134 400 224 
Q 467 314 467 653 
L 467 3667 
Q 467 3872 406 3933 
Q 346 3994 141 3994 
Q 83 3994 64 3987 
L 64 4090 
L 237 4141 
Q 730 4288 973 4371 
L 1005 4352 
L 1005 2406 
Q 1229 2694 1446 2819 
Q 1664 2944 1946 2944 
Q 2733 2944 2733 1926 
L 2733 653 
Q 2733 320 2793 233 
Q 2854 147 3117 96 
L 3117 0 
z
" id="STIXGeneral-Regular-68" transform="scale(0.015625)"/>
       <path d="M 3008 1478 
Q 3008 806 2608 371 
Q 2208 -64 1568 -64 
Q 979 -64 582 368 
Q 186 800 186 1459 
Q 186 2125 582 2534 
Q 979 2944 1626 2944 
Q 2221 2944 2614 2537 
Q 3008 2131 3008 1478 
z
M 2432 1306 
Q 2432 2035 2112 2445 
Q 1856 2765 1504 2765 
Q 1171 2765 966 2493 
Q 762 2221 762 1747 
Q 762 928 1101 435 
Q 1318 115 1677 115 
Q 2029 115 2230 432 
Q 2432 749 2432 1306 
z
" id="STIXGeneral-Regular-6f" transform="scale(0.015625)"/>
       <path d="M 3142 269 
L 2202 -64 
L 2176 -45 
L 2176 365 
Q 1869 -64 1357 -64 
Q 826 -64 499 317 
Q 173 698 173 1312 
Q 173 1990 563 2467 
Q 954 2944 1504 2944 
Q 1850 2944 2176 2669 
L 2176 3667 
Q 2176 3866 2118 3930 
Q 2061 3994 1882 3994 
Q 1792 3994 1741 3987 
L 1741 4090 
Q 2323 4243 2682 4371 
L 2714 4358 
L 2714 730 
Q 2714 506 2768 435 
Q 2822 365 2995 365 
Q 3034 365 3142 371 
L 3142 269 
z
M 2176 653 
L 2176 2125 
Q 2176 2381 1981 2573 
Q 1786 2765 1523 2765 
Q 1158 2765 940 2438 
Q 723 2112 723 1568 
Q 723 979 963 624 
Q 1203 269 1606 269 
Q 1907 269 2080 474 
Q 2176 582 2176 653 
z
" id="STIXGeneral-Regular-64" transform="scale(0.015625)"/>
      </defs>
      <use xlink:href="#STIXGeneral-Regular-50"/>
      <use x="55.699997" xlink:href="#STIXGeneral-Regular-72"/>
      <use x="88.999985" xlink:href="#STIXGeneral-Regular-65"/>
      <use x="133.399979" xlink:href="#STIXGeneral-Regular-73"/>
      <use x="172.299973" xlink:href="#STIXGeneral-Regular-65"/>
      <use x="216.699966" xlink:href="#STIXGeneral-Regular-6e"/>
      <use x="266.699951" xlink:href="#STIXGeneral-Regular-74"/>
      <use x="294.499939" xlink:href="#STIXGeneral-Regular-20"/>
      <use x="319.499924" xlink:href="#STIXGeneral-Regular-6d"/>
      <use x="397.299911" xlink:href="#STIXGeneral-Regular-65"/>
      <use x="441.699905" xlink:href="#STIXGeneral-Regular-74"/>
      <use x="469.499893" xlink:href="#STIXGeneral-Regular-68"/>
      <use x="519.499878" xlink:href="#STIXGeneral-Regular-6f"/>
      <use x="569.499863" xlink:href="#STIXGeneral-Regular-64"/>
     </g>
    </g>
    <g id="line2d_17">
     <path d="M 117.095683 117.566343 
L 135.421683 117.566343 
" style="fill:none;stroke:#ff0000;stroke-dasharray:5.55,2.4;stroke-dashoffset:0;stroke-width:1.5;"/>
    </g>
    <g id="line2d_18"/>
    <g id="text_13">
     <!-- Ref. [10] -->
     <g transform="translate(142.752083 120.773393)scale(0.09163 -0.09163)">
      <defs>
       <path d="M 4224 0 
L 3187 0 
L 1664 1971 
L 1306 1958 
L 1306 717 
Q 1306 352 1405 249 
Q 1504 147 1875 122 
L 1875 0 
L 109 0 
L 109 122 
Q 474 154 563 262 
Q 653 371 653 794 
L 653 3526 
Q 653 3885 563 3987 
Q 474 4090 109 4115 
L 109 4237 
L 1850 4237 
Q 2726 4237 3187 3859 
Q 3501 3603 3501 3091 
Q 3501 2221 2342 2042 
L 3622 422 
Q 3757 256 3878 198 
Q 4000 141 4224 122 
L 4224 0 
z
M 1306 3731 
L 1306 2195 
Q 1766 2202 1990 2246 
Q 2214 2291 2438 2413 
Q 2803 2618 2803 3142 
Q 2803 4000 1632 4000 
Q 1459 4000 1382 3945 
Q 1306 3891 1306 3731 
z
" id="STIXGeneral-Regular-52" transform="scale(0.015625)"/>
       <path d="M 134 2880 
L 659 2880 
Q 666 3264 710 3478 
Q 755 3693 883 3910 
Q 1152 4371 1786 4371 
Q 2074 4371 2262 4259 
Q 2451 4147 2451 3974 
Q 2451 3866 2374 3789 
Q 2298 3712 2182 3712 
Q 2029 3712 1894 3942 
Q 1741 4192 1555 4192 
Q 1197 4192 1197 3622 
L 1197 2880 
L 1978 2880 
L 1978 2675 
L 1197 2675 
L 1197 666 
Q 1197 307 1299 208 
Q 1402 109 1792 96 
L 1792 0 
L 128 0 
L 128 96 
Q 474 115 566 214 
Q 659 314 659 666 
L 659 2675 
L 134 2675 
L 134 2880 
z
" id="STIXGeneral-Regular-66" transform="scale(0.015625)"/>
       <path d="M 1158 275 
Q 1158 134 1052 32 
Q 947 -70 800 -70 
Q 653 -70 550 32 
Q 448 134 448 281 
Q 448 429 553 534 
Q 659 640 806 640 
Q 947 640 1052 531 
Q 1158 422 1158 275 
z
" id="STIXGeneral-Regular-2e" transform="scale(0.015625)"/>
       <path d="M 1914 -998 
L 563 -998 
L 563 4237 
L 1914 4237 
L 1914 4077 
L 1382 4077 
Q 1216 4077 1133 4006 
Q 1050 3936 1050 3770 
L 1050 -493 
Q 1050 -838 1382 -838 
L 1914 -838 
L 1914 -998 
z
" id="STIXGeneral-Regular-5b" transform="scale(0.015625)"/>
       <path d="M 1568 -998 
L 218 -998 
L 218 -838 
L 781 -838 
Q 947 -838 1014 -768 
Q 1082 -698 1082 -544 
L 1082 3731 
Q 1082 4077 755 4077 
L 218 4077 
L 218 4237 
L 1568 4237 
L 1568 -998 
z
" id="STIXGeneral-Regular-5d" transform="scale(0.015625)"/>
      </defs>
      <use xlink:href="#STIXGeneral-Regular-52"/>
      <use x="66.699997" xlink:href="#STIXGeneral-Regular-65"/>
      <use x="111.099991" xlink:href="#STIXGeneral-Regular-66"/>
      <use x="144.399979" xlink:href="#STIXGeneral-Regular-2e"/>
      <use x="169.399963" xlink:href="#STIXGeneral-Regular-20"/>
      <use x="194.399948" xlink:href="#STIXGeneral-Regular-5b"/>
      <use x="227.699936" xlink:href="#STIXGeneral-Regular-31"/>
      <use x="277.699921" xlink:href="#STIXGeneral-Regular-30"/>
      <use x="327.699905" xlink:href="#STIXGeneral-Regular-5d"/>
     </g>
    </g>
   </g>
  </g>
 </g>
 <defs>
  <clipPath id="pc02d957b59">
   <rect height="127.270938" width="164.809375" x="42.955625" y="3.737812"/>
  </clipPath>
 </defs>
</svg>
