<?xml version="1.0" encoding="utf-8" standalone="no"?>
<!DOCTYPE svg PUBLIC "-//W3C//DTD SVG 1.1//EN"
  "http://www.w3.org/Graphics/SVG/1.1/DTD/svg11.dtd">
<svg height="180pt" version="1.1" viewBox="0 0 216 180" width="216pt" xmlns="http://www.w3.org/2000/svg" xmlns:xlink="http://www.w3.org/1999/xlink">
 <metadata>
  <rdf:RDF xmlns:cc="http://creativecommons.org/ns#" xmlns:dc="http://purl.org/dc/elements/1.1/" xmlns:rdf="http://www.w3.org/1999/02/22-rdf-syntax-ns#">
   <cc:Work>
    <dc:type rdf:resource="http://purl.org/dc/dcmitype/StillImage"/>
    <dc:date>2021-07-27T17:10:26.042422</dc:date>
    <dc:format>image/svg+xml</dc:format>
    <dc:creator>
     <cc:Agent>
      <dc:title>Matplotlib v3.4.2, https://matplotlib.org/</dc:title>
     </cc:Agent>
    </dc:creator>
   </cc:Work>
  </rdf:RDF>
 </metadata>
 <defs>
  <style type="text/css">*{stroke-linecap:butt;stroke-linejoin:round;}</style>
 </defs>
 <g id="figure_1">
  <g id="patch_1">
   <path d="M 0 180 
L 216 180 
L 216 0 
L 0 0 
z
" style="fill:#ffffff;"/>
  </g>
  <g id="axes_1">
   <g id="patch_2">
    <path d="M 42.955625 149.00875 
L 206.3925 149.00875 
L 206.3925 0 
L 42.955625 0 
z
" style="fill:#ffffff;"/>
   </g>
   <g id="matplotlib.axis_1">
    <g id="xtick_1">
     <g id="line2d_1">
      <defs>
       <path d="M 0 0 
L 0 3.5 
" id="mc1926b89a6" style="stroke:#000000;stroke-width:0.8;"/>
      </defs>
      <g>
       <use style="stroke:#000000;stroke-width:0.8;" x="42.955625" xlink:href="#mc1926b89a6" y="149.00875"/>
      </g>
     </g>
     <g id="text_1">
      <!-- 0.00 -->
      <g transform="translate(33.330625 163.521406)scale(0.11 -0.11)">
       <defs>
        <path d="M 3046 2112 
Q 3046 1683 2963 1302 
Q 2880 922 2717 602 
Q 2554 282 2266 96 
Q 1978 -90 1600 -90 
Q 1210 -90 915 108 
Q 621 307 461 640 
Q 301 973 227 1350 
Q 154 1728 154 2150 
Q 154 2746 301 3222 
Q 448 3699 790 4012 
Q 1133 4326 1626 4326 
Q 2253 4326 2649 3712 
Q 3046 3098 3046 2112 
z
M 2432 2080 
Q 2432 3091 2217 3625 
Q 2003 4160 1587 4160 
Q 1190 4160 979 3622 
Q 768 3085 768 2106 
Q 768 1120 979 598 
Q 1190 77 1600 77 
Q 2003 77 2217 598 
Q 2432 1120 2432 2080 
z
" id="STIXGeneral-Regular-30" transform="scale(0.015625)"/>
        <path d="M 1158 275 
Q 1158 134 1052 32 
Q 947 -70 800 -70 
Q 653 -70 550 32 
Q 448 134 448 281 
Q 448 429 553 534 
Q 659 640 806 640 
Q 947 640 1052 531 
Q 1158 422 1158 275 
z
" id="STIXGeneral-Regular-2e" transform="scale(0.015625)"/>
       </defs>
       <use xlink:href="#STIXGeneral-Regular-30"/>
       <use x="49.999985" xlink:href="#STIXGeneral-Regular-2e"/>
       <use x="74.999969" xlink:href="#STIXGeneral-Regular-30"/>
       <use x="124.999954" xlink:href="#STIXGeneral-Regular-30"/>
      </g>
     </g>
    </g>
    <g id="xtick_2">
     <g id="line2d_2">
      <g>
       <use style="stroke:#000000;stroke-width:0.8;" x="83.814844" xlink:href="#mc1926b89a6" y="149.00875"/>
      </g>
     </g>
     <g id="text_2">
      <!-- 0.05 -->
      <g transform="translate(74.189844 163.521406)scale(0.11 -0.11)">
       <defs>
        <path d="M 2803 4358 
L 2573 3814 
Q 2534 3731 2400 3731 
L 1158 3731 
L 902 3187 
Q 1606 3053 1920 2896 
Q 2234 2739 2502 2368 
Q 2726 2061 2726 1555 
Q 2726 1094 2576 780 
Q 2426 467 2099 224 
Q 1664 -90 1011 -90 
Q 646 -90 422 19 
Q 198 128 198 307 
Q 198 550 486 550 
Q 717 550 960 352 
Q 1210 147 1414 147 
Q 1747 147 2012 480 
Q 2278 813 2278 1229 
Q 2278 1843 1850 2189 
Q 1293 2637 486 2637 
Q 410 2637 410 2688 
L 416 2720 
L 1114 4237 
L 2438 4237 
Q 2547 4237 2608 4269 
Q 2669 4301 2746 4403 
L 2803 4358 
z
" id="STIXGeneral-Regular-35" transform="scale(0.015625)"/>
       </defs>
       <use xlink:href="#STIXGeneral-Regular-30"/>
       <use x="49.999985" xlink:href="#STIXGeneral-Regular-2e"/>
       <use x="74.999969" xlink:href="#STIXGeneral-Regular-30"/>
       <use x="124.999954" xlink:href="#STIXGeneral-Regular-35"/>
      </g>
     </g>
    </g>
    <g id="xtick_3">
     <g id="line2d_3">
      <g>
       <use style="stroke:#000000;stroke-width:0.8;" x="124.674062" xlink:href="#mc1926b89a6" y="149.00875"/>
      </g>
     </g>
     <g id="text_3">
      <!-- 0.10 -->
      <g transform="translate(115.049062 163.521406)scale(0.11 -0.11)">
       <defs>
        <path d="M 2522 0 
L 755 0 
L 755 96 
Q 1107 115 1235 227 
Q 1363 339 1363 608 
L 1363 3482 
Q 1363 3795 1171 3795 
Q 1082 3795 883 3718 
L 710 3654 
L 710 3744 
L 1856 4326 
L 1914 4307 
L 1914 486 
Q 1914 275 2042 185 
Q 2170 96 2522 96 
L 2522 0 
z
" id="STIXGeneral-Regular-31" transform="scale(0.015625)"/>
       </defs>
       <use xlink:href="#STIXGeneral-Regular-30"/>
       <use x="49.999985" xlink:href="#STIXGeneral-Regular-2e"/>
       <use x="74.999969" xlink:href="#STIXGeneral-Regular-31"/>
       <use x="124.999954" xlink:href="#STIXGeneral-Regular-30"/>
      </g>
     </g>
    </g>
    <g id="xtick_4">
     <g id="line2d_4">
      <g>
       <use style="stroke:#000000;stroke-width:0.8;" x="165.533281" xlink:href="#mc1926b89a6" y="149.00875"/>
      </g>
     </g>
     <g id="text_4">
      <!-- 0.15 -->
      <g transform="translate(155.908281 163.521406)scale(0.11 -0.11)">
       <use xlink:href="#STIXGeneral-Regular-30"/>
       <use x="49.999985" xlink:href="#STIXGeneral-Regular-2e"/>
       <use x="74.999969" xlink:href="#STIXGeneral-Regular-31"/>
       <use x="124.999954" xlink:href="#STIXGeneral-Regular-35"/>
      </g>
     </g>
    </g>
    <g id="xtick_5">
     <g id="line2d_5">
      <g>
       <use style="stroke:#000000;stroke-width:0.8;" x="206.3925" xlink:href="#mc1926b89a6" y="149.00875"/>
      </g>
     </g>
     <g id="text_5">
      <!-- 0.20 -->
      <g transform="translate(196.7675 163.521406)scale(0.11 -0.11)">
       <defs>
        <path d="M 3034 877 
L 2688 0 
L 186 0 
L 186 77 
L 1325 1286 
Q 1773 1754 1965 2144 
Q 2157 2534 2157 2950 
Q 2157 3379 1920 3616 
Q 1683 3853 1267 3853 
Q 922 3853 720 3673 
Q 518 3494 326 3021 
L 192 3053 
Q 301 3648 630 3987 
Q 960 4326 1523 4326 
Q 2054 4326 2380 4006 
Q 2707 3686 2707 3200 
Q 2707 2477 1888 1613 
L 832 486 
L 2330 486 
Q 2541 486 2665 569 
Q 2790 653 2944 915 
L 3034 877 
z
" id="STIXGeneral-Regular-32" transform="scale(0.015625)"/>
       </defs>
       <use xlink:href="#STIXGeneral-Regular-30"/>
       <use x="49.999985" xlink:href="#STIXGeneral-Regular-2e"/>
       <use x="74.999969" xlink:href="#STIXGeneral-Regular-32"/>
       <use x="124.999954" xlink:href="#STIXGeneral-Regular-30"/>
      </g>
     </g>
    </g>
    <g id="text_6">
     <!-- $\eta_2$ -->
     <g transform="translate(119.889062 177.421406)scale(0.11 -0.11)">
      <defs>
       <path d="M 947 1459 
L 960 1453 
Q 1811 2822 2374 2822 
Q 2573 2822 2701 2729 
Q 2829 2637 2829 2458 
Q 2829 2304 2765 2054 
L 2208 0 
Q 2016 -698 2016 -1094 
Q 2016 -1190 2067 -1312 
L 1600 -1312 
Q 1530 -1229 1530 -1030 
Q 1530 -710 1741 58 
L 2221 1811 
Q 2310 2112 2310 2272 
Q 2310 2496 2150 2496 
Q 1894 2496 1427 1897 
Q 960 1299 774 678 
L 570 0 
L 90 0 
L 614 1952 
Q 704 2272 704 2349 
Q 704 2458 614 2458 
Q 589 2458 560 2445 
Q 531 2432 499 2403 
Q 467 2374 438 2348 
Q 410 2323 374 2281 
Q 339 2240 316 2211 
Q 294 2182 259 2140 
Q 224 2099 211 2086 
L 134 2150 
Q 218 2291 320 2413 
Q 634 2803 941 2803 
Q 1197 2803 1197 2515 
Q 1197 2253 947 1459 
z
" id="STIXGeneral-Italic-3b7" transform="scale(0.015625)"/>
      </defs>
      <use transform="translate(0 0.90625)" xlink:href="#STIXGeneral-Italic-3b7"/>
      <use transform="translate(47.399994 -12.321875)scale(0.7)" xlink:href="#STIXGeneral-Regular-32"/>
     </g>
    </g>
   </g>
   <g id="matplotlib.axis_2">
    <g id="ytick_1">
     <g id="line2d_6">
      <defs>
       <path d="M 0 0 
L -3.5 0 
" id="m37cc5693f5" style="stroke:#000000;stroke-width:0.8;"/>
      </defs>
      <g>
       <use style="stroke:#000000;stroke-width:0.8;" x="42.955625" xlink:href="#m37cc5693f5" y="134.107875"/>
      </g>
     </g>
     <g id="text_7">
      <!-- 500 -->
      <g transform="translate(19.455625 137.864203)scale(0.11 -0.11)">
       <use xlink:href="#STIXGeneral-Regular-35"/>
       <use x="49.999985" xlink:href="#STIXGeneral-Regular-30"/>
       <use x="99.999969" xlink:href="#STIXGeneral-Regular-30"/>
      </g>
     </g>
    </g>
    <g id="ytick_2">
     <g id="line2d_7">
      <g>
       <use style="stroke:#000000;stroke-width:0.8;" x="42.955625" xlink:href="#m37cc5693f5" y="109.273083"/>
      </g>
     </g>
     <g id="text_8">
      <!-- 1000 -->
      <g transform="translate(13.955625 113.029411)scale(0.11 -0.11)">
       <use xlink:href="#STIXGeneral-Regular-31"/>
       <use x="49.999985" xlink:href="#STIXGeneral-Regular-30"/>
       <use x="99.999969" xlink:href="#STIXGeneral-Regular-30"/>
       <use x="149.999954" xlink:href="#STIXGeneral-Regular-30"/>
      </g>
     </g>
    </g>
    <g id="ytick_3">
     <g id="line2d_8">
      <g>
       <use style="stroke:#000000;stroke-width:0.8;" x="42.955625" xlink:href="#m37cc5693f5" y="84.438292"/>
      </g>
     </g>
     <g id="text_9">
      <!-- 1500 -->
      <g transform="translate(13.955625 88.19462)scale(0.11 -0.11)">
       <use xlink:href="#STIXGeneral-Regular-31"/>
       <use x="49.999985" xlink:href="#STIXGeneral-Regular-35"/>
       <use x="99.999969" xlink:href="#STIXGeneral-Regular-30"/>
       <use x="149.999954" xlink:href="#STIXGeneral-Regular-30"/>
      </g>
     </g>
    </g>
    <g id="ytick_4">
     <g id="line2d_9">
      <g>
       <use style="stroke:#000000;stroke-width:0.8;" x="42.955625" xlink:href="#m37cc5693f5" y="59.6035"/>
      </g>
     </g>
     <g id="text_10">
      <!-- 2000 -->
      <g transform="translate(13.955625 63.359828)scale(0.11 -0.11)">
       <use xlink:href="#STIXGeneral-Regular-32"/>
       <use x="49.999985" xlink:href="#STIXGeneral-Regular-30"/>
       <use x="99.999969" xlink:href="#STIXGeneral-Regular-30"/>
       <use x="149.999954" xlink:href="#STIXGeneral-Regular-30"/>
      </g>
     </g>
    </g>
    <g id="ytick_5">
     <g id="line2d_10">
      <g>
       <use style="stroke:#000000;stroke-width:0.8;" x="42.955625" xlink:href="#m37cc5693f5" y="34.768708"/>
      </g>
     </g>
     <g id="text_11">
      <!-- 2500 -->
      <g transform="translate(13.955625 38.525036)scale(0.11 -0.11)">
       <use xlink:href="#STIXGeneral-Regular-32"/>
       <use x="49.999985" xlink:href="#STIXGeneral-Regular-35"/>
       <use x="99.999969" xlink:href="#STIXGeneral-Regular-30"/>
       <use x="149.999954" xlink:href="#STIXGeneral-Regular-30"/>
      </g>
     </g>
    </g>
    <g id="ytick_6">
     <g id="line2d_11">
      <g>
       <use style="stroke:#000000;stroke-width:0.8;" x="42.955625" xlink:href="#m37cc5693f5" y="9.933917"/>
      </g>
     </g>
     <g id="text_12">
      <!-- 3000 -->
      <g transform="translate(13.955625 13.690245)scale(0.11 -0.11)">
       <defs>
        <path d="M 390 3264 
L 288 3290 
Q 435 3770 748 4048 
Q 1062 4326 1542 4326 
Q 1990 4326 2265 4083 
Q 2541 3840 2541 3450 
Q 2541 2925 1946 2566 
Q 2298 2413 2477 2227 
Q 2758 1914 2758 1402 
Q 2758 890 2464 506 
Q 2246 211 1840 60 
Q 1434 -90 979 -90 
Q 262 -90 262 275 
Q 262 378 339 442 
Q 416 506 525 506 
Q 685 506 915 339 
Q 1197 141 1466 141 
Q 1818 141 2058 425 
Q 2298 710 2298 1120 
Q 2298 1856 1632 2048 
Q 1434 2112 979 2112 
L 979 2202 
Q 1338 2323 1517 2432 
Q 2035 2726 2035 3290 
Q 2035 3610 1852 3776 
Q 1670 3942 1344 3942 
Q 768 3942 390 3264 
z
" id="STIXGeneral-Regular-33" transform="scale(0.015625)"/>
       </defs>
       <use xlink:href="#STIXGeneral-Regular-33"/>
       <use x="49.999985" xlink:href="#STIXGeneral-Regular-30"/>
       <use x="99.999969" xlink:href="#STIXGeneral-Regular-30"/>
       <use x="149.999954" xlink:href="#STIXGeneral-Regular-30"/>
      </g>
     </g>
    </g>
    <g id="text_13">
     <!-- Frequency (Hz) -->
     <g transform="translate(7.557969 109.171562)rotate(-90)scale(0.11 -0.11)">
      <defs>
       <path d="M 3494 3322 
L 3334 3322 
Q 3264 3757 3094 3875 
Q 2925 3994 2349 3994 
L 1504 3994 
Q 1370 3994 1328 3946 
Q 1286 3898 1286 3744 
L 1286 2355 
L 2195 2355 
Q 2598 2355 2736 2470 
Q 2874 2586 2918 2963 
L 3066 2963 
L 3066 1472 
L 2918 1472 
Q 2880 1862 2745 1977 
Q 2611 2093 2195 2093 
L 1286 2093 
L 1286 717 
Q 1286 352 1392 246 
Q 1498 141 1869 122 
L 1869 0 
L 70 0 
L 70 122 
Q 435 147 534 259 
Q 634 371 634 787 
L 634 3526 
Q 634 3878 538 3984 
Q 442 4090 77 4115 
L 77 4237 
L 3462 4237 
L 3494 3322 
z
" id="STIXGeneral-Regular-46" transform="scale(0.015625)"/>
       <path d="M 1024 2931 
L 1024 2342 
Q 1267 2688 1430 2816 
Q 1594 2944 1792 2944 
Q 1958 2944 2051 2854 
Q 2144 2765 2144 2605 
Q 2144 2470 2077 2393 
Q 2010 2317 1894 2317 
Q 1773 2317 1638 2445 
Q 1536 2541 1472 2541 
Q 1338 2541 1181 2355 
Q 1024 2170 1024 2016 
L 1024 576 
Q 1024 301 1133 205 
Q 1242 109 1568 96 
L 1568 0 
L 32 0 
L 32 96 
Q 339 154 412 224 
Q 486 294 486 538 
L 486 2138 
Q 486 2349 438 2435 
Q 390 2522 269 2522 
Q 166 2522 45 2496 
L 45 2598 
Q 448 2726 992 2944 
L 1024 2931 
z
" id="STIXGeneral-Regular-72" transform="scale(0.015625)"/>
       <path d="M 2611 1050 
L 2714 1005 
Q 2330 -64 1376 -64 
Q 813 -64 486 329 
Q 160 723 160 1389 
Q 160 2074 525 2509 
Q 890 2944 1485 2944 
Q 2061 2944 2374 2502 
Q 2560 2246 2592 1773 
L 621 1773 
Q 646 1370 700 1158 
Q 755 947 915 730 
Q 1184 378 1626 378 
Q 1939 378 2153 531 
Q 2368 685 2611 1050 
z
M 634 1978 
L 1939 1978 
Q 1882 2381 1750 2547 
Q 1619 2714 1312 2714 
Q 1043 2714 864 2525 
Q 685 2336 634 1978 
z
" id="STIXGeneral-Regular-65" transform="scale(0.015625)"/>
       <path d="M 3123 -1389 
L 1613 -1389 
L 1613 -1280 
Q 1952 -1254 2067 -1158 
Q 2182 -1062 2182 -794 
L 2182 410 
Q 1747 -64 1178 -64 
Q 730 -64 442 320 
Q 154 704 154 1312 
Q 154 2003 560 2473 
Q 966 2944 1562 2944 
Q 1920 2944 2304 2720 
L 2650 2925 
L 2720 2925 
L 2720 -902 
Q 2720 -1107 2797 -1180 
Q 2874 -1254 3123 -1280 
L 3123 -1389 
z
M 2182 813 
L 2182 2131 
Q 2182 2758 1587 2758 
Q 1178 2758 941 2432 
Q 704 2106 704 1542 
Q 704 1210 803 925 
Q 902 640 1062 499 
Q 1254 326 1542 326 
Q 1882 326 2106 531 
Q 2182 602 2182 813 
z
" id="STIXGeneral-Regular-71" transform="scale(0.015625)"/>
       <path d="M 3072 320 
L 3072 230 
Q 2573 96 2195 -58 
L 2163 -38 
L 2163 486 
L 2150 486 
Q 1747 -64 1235 -64 
Q 870 -64 662 160 
Q 454 384 454 755 
L 454 2362 
Q 454 2598 371 2688 
Q 288 2778 58 2790 
L 58 2880 
L 992 2880 
L 992 813 
Q 992 595 1123 451 
Q 1254 307 1446 307 
Q 1760 307 1984 506 
Q 2067 582 2099 649 
Q 2131 717 2131 877 
L 2131 2355 
Q 2131 2605 2041 2678 
Q 1952 2752 1658 2771 
L 1658 2880 
L 2669 2880 
L 2669 685 
Q 2669 461 2742 390 
Q 2816 320 3034 320 
L 3072 320 
z
" id="STIXGeneral-Regular-75" transform="scale(0.015625)"/>
       <path d="M 3104 0 
L 1773 0 
L 1779 96 
Q 2016 115 2096 233 
Q 2176 352 2176 672 
L 2176 1946 
Q 2176 2592 1709 2592 
Q 1549 2592 1408 2515 
Q 1267 2438 1050 2227 
L 1050 461 
Q 1050 269 1136 192 
Q 1222 115 1466 96 
L 1466 0 
L 115 0 
L 115 96 
Q 358 115 435 214 
Q 512 314 512 602 
L 512 2157 
Q 512 2394 467 2483 
Q 422 2573 288 2573 
Q 160 2573 102 2547 
L 102 2656 
Q 550 2784 979 2944 
L 1030 2925 
L 1030 2426 
L 1037 2426 
Q 1491 2944 1958 2944 
Q 2323 2944 2518 2688 
Q 2714 2432 2714 1958 
L 2714 544 
Q 2714 288 2790 205 
Q 2867 122 3104 96 
L 3104 0 
z
" id="STIXGeneral-Regular-6e" transform="scale(0.015625)"/>
       <path d="M 2547 998 
L 2637 941 
Q 2362 403 2112 205 
Q 1786 -64 1376 -64 
Q 845 -64 502 336 
Q 160 736 160 1357 
Q 160 2170 698 2618 
Q 1094 2944 1562 2944 
Q 1965 2944 2256 2749 
Q 2547 2554 2547 2285 
Q 2547 2176 2457 2096 
Q 2368 2016 2246 2016 
Q 2022 2016 1939 2310 
L 1901 2451 
Q 1850 2630 1773 2694 
Q 1696 2758 1523 2758 
Q 1133 2758 893 2451 
Q 653 2144 653 1645 
Q 653 1094 928 745 
Q 1203 397 1645 397 
Q 1920 397 2118 528 
Q 2317 659 2547 998 
z
" id="STIXGeneral-Regular-63" transform="scale(0.015625)"/>
       <path d="M 3040 2880 
L 3040 2784 
Q 2925 2771 2854 2700 
Q 2784 2630 2720 2458 
L 1760 -160 
Q 1510 -838 1257 -1116 
Q 1005 -1395 640 -1395 
Q 435 -1395 313 -1289 
Q 192 -1184 192 -1024 
Q 192 -902 272 -816 
Q 352 -730 467 -730 
Q 653 -730 800 -813 
Q 883 -858 966 -858 
Q 1101 -858 1286 -576 
Q 1376 -448 1459 -211 
Q 1542 26 1542 115 
Q 1542 198 1274 762 
L 429 2566 
Q 346 2752 90 2790 
L 90 2880 
L 1402 2880 
L 1402 2784 
Q 1197 2778 1117 2739 
Q 1037 2701 1037 2611 
Q 1037 2541 1120 2349 
L 1837 749 
L 2458 2515 
Q 2483 2573 2483 2630 
Q 2483 2784 2189 2784 
L 2189 2880 
L 3040 2880 
z
" id="STIXGeneral-Regular-79" transform="scale(0.015625)"/>
       <path id="STIXGeneral-Regular-20" transform="scale(0.015625)"/>
       <path d="M 1946 -1030 
L 1869 -1133 
Q 1126 -710 716 32 
Q 307 774 307 1613 
Q 307 3386 1888 4326 
L 1946 4224 
Q 1293 3667 1075 3126 
Q 858 2586 858 1632 
Q 858 685 1082 96 
Q 1306 -493 1946 -1030 
z
" id="STIXGeneral-Regular-28" transform="scale(0.015625)"/>
       <path d="M 4499 0 
L 2714 0 
L 2714 122 
Q 3085 147 3181 265 
Q 3277 384 3277 794 
L 3277 2016 
L 1338 2016 
L 1338 723 
Q 1338 371 1440 256 
Q 1542 141 1894 122 
L 1901 0 
L 115 0 
L 115 122 
Q 493 147 589 259 
Q 685 371 685 781 
L 685 3507 
Q 685 3878 585 3980 
Q 486 4083 115 4115 
L 115 4237 
L 1907 4237 
L 1907 4115 
Q 1549 4083 1443 3977 
Q 1338 3872 1338 3507 
L 1338 2298 
L 3277 2298 
L 3277 3507 
Q 3277 3878 3177 3980 
Q 3078 4083 2707 4115 
L 2707 4237 
L 4499 4237 
L 4499 4115 
Q 4141 4083 4035 3977 
Q 3930 3872 3930 3507 
L 3930 710 
Q 3930 371 4035 259 
Q 4141 147 4499 122 
L 4499 0 
z
" id="STIXGeneral-Regular-48" transform="scale(0.015625)"/>
       <path d="M 2675 870 
L 2579 0 
L 173 0 
L 173 96 
L 1875 2688 
L 1011 2688 
Q 710 2688 604 2582 
Q 499 2477 454 2125 
L 339 2125 
L 365 2880 
L 2579 2880 
L 2579 2784 
L 858 192 
L 1709 192 
Q 2246 192 2387 365 
Q 2477 474 2560 896 
L 2675 870 
z
" id="STIXGeneral-Regular-7a" transform="scale(0.015625)"/>
       <path d="M 186 4224 
L 262 4326 
Q 992 3891 1408 3148 
Q 1824 2406 1824 1581 
Q 1824 -166 243 -1133 
L 186 -1030 
Q 845 -486 1059 54 
Q 1274 595 1274 1562 
Q 1274 2534 1059 3120 
Q 845 3706 186 4224 
z
" id="STIXGeneral-Regular-29" transform="scale(0.015625)"/>
      </defs>
      <use xlink:href="#STIXGeneral-Regular-46"/>
      <use x="55.599991" xlink:href="#STIXGeneral-Regular-72"/>
      <use x="88.899979" xlink:href="#STIXGeneral-Regular-65"/>
      <use x="133.299973" xlink:href="#STIXGeneral-Regular-71"/>
      <use x="183.299957" xlink:href="#STIXGeneral-Regular-75"/>
      <use x="233.299942" xlink:href="#STIXGeneral-Regular-65"/>
      <use x="277.699936" xlink:href="#STIXGeneral-Regular-6e"/>
      <use x="327.699921" xlink:href="#STIXGeneral-Regular-63"/>
      <use x="372.099915" xlink:href="#STIXGeneral-Regular-79"/>
      <use x="422.099899" xlink:href="#STIXGeneral-Regular-20"/>
      <use x="447.099884" xlink:href="#STIXGeneral-Regular-28"/>
      <use x="480.399872" xlink:href="#STIXGeneral-Regular-48"/>
      <use x="552.599854" xlink:href="#STIXGeneral-Regular-7a"/>
      <use x="596.999847" xlink:href="#STIXGeneral-Regular-29"/>
     </g>
    </g>
   </g>
   <g id="line2d_12">
    <path clip-path="url(#p6739b62a1b)" d="M 47.041547 121.438552 
L 51.127469 112.330825 
L 52.761838 110.118209 
L 54.396206 108.362444 
L 56.030575 106.945184 
L 57.664944 105.78664 
L 59.299312 104.830677 
L 60.933681 104.036461 
L 62.56805 103.373481 
L 64.202419 102.81843 
L 65.836788 102.35316 
L 67.471156 101.963317 
L 69.105525 101.637389 
L 70.739894 101.366027 
L 72.374263 101.141557 
L 74.008631 100.957621 
L 75.643 100.808905 
L 77.277369 100.690934 
L 78.911738 100.599911 
L 80.546106 100.532595 
L 82.180475 100.486206 
L 83.814844 100.45834 
L 85.449213 100.446916 
L 87.083581 100.450119 
L 88.71795 100.466361 
L 90.352319 100.494248 
L 91.986688 100.53255 
L 93.621056 100.580181 
L 95.255425 100.636177 
L 96.889794 100.699679 
L 98.524163 100.769924 
L 100.158531 100.846225 
L 101.7929 100.927971 
L 103.427269 101.01461 
L 105.061637 101.105646 
L 106.696006 101.200632 
L 108.330375 101.299163 
L 109.964744 101.400874 
L 111.599112 101.505433 
L 113.233481 101.612539 
L 114.86785 101.721918 
L 116.502219 101.83332 
L 118.136587 101.946519 
L 119.770956 102.061307 
L 121.405325 102.177495 
L 123.039694 102.29491 
L 124.674062 102.413394 
L 126.308431 102.5328 
L 127.9428 102.652996 
L 129.577169 102.77386 
L 131.211537 102.895281 
L 132.845906 103.017154 
L 134.480275 103.139385 
L 136.114644 103.261888 
L 137.749012 103.384582 
L 139.383381 103.507394 
L 141.01775 103.630256 
L 142.652119 103.753106 
L 144.286487 103.875886 
L 145.920856 103.998543 
L 147.555225 104.12103 
L 149.189594 104.2433 
L 150.823962 104.365314 
L 152.458331 104.487032 
L 154.0927 104.60842 
L 155.727069 104.729446 
L 157.361437 104.85008 
L 158.995806 104.970296 
L 160.630175 105.090068 
L 162.264544 105.209373 
L 163.898913 105.328191 
L 165.533281 105.446503 
L 167.16765 105.56429 
L 168.802019 105.681538 
L 170.436387 105.798231 
L 172.070756 105.914356 
L 173.705125 106.029901 
L 175.339494 106.144855 
L 176.973862 106.259208 
L 178.608231 106.372953 
L 180.2426 106.486079 
L 181.876969 106.598581 
L 183.511337 106.710453 
L 185.145706 106.821688 
L 186.780075 106.932282 
L 188.414444 107.04223 
L 190.048812 107.151529 
L 191.683181 107.260176 
L 193.31755 107.368169 
L 194.951919 107.475504 
L 196.586287 107.582181 
L 198.220656 107.688198 
L 199.855025 107.793555 
L 201.489394 107.898251 
L 203.123762 108.002285 
L 204.758131 108.105659 
L 206.3925 108.208372 
" style="fill:none;stroke:#000000;stroke-linecap:square;stroke-width:1.5;"/>
    <defs>
     <path d="M 0 3 
C 0.795609 3 1.55874 2.683901 2.12132 2.12132 
C 2.683901 1.55874 3 0.795609 3 0 
C 3 -0.795609 2.683901 -1.55874 2.12132 -2.12132 
C 1.55874 -2.683901 0.795609 -3 0 -3 
C -0.795609 -3 -1.55874 -2.683901 -2.12132 -2.12132 
C -2.683901 -1.55874 -3 -0.795609 -3 0 
C -3 0.795609 -2.683901 1.55874 -2.12132 2.12132 
C -1.55874 2.683901 -0.795609 3 0 3 
z
" id="m690e90ec78" style="stroke:#000000;"/>
    </defs>
    <g clip-path="url(#p6739b62a1b)">
     <use style="fill-opacity:0;stroke:#000000;" x="59.299312" xlink:href="#m690e90ec78" y="104.830677"/>
     <use style="fill-opacity:0;stroke:#000000;" x="75.643" xlink:href="#m690e90ec78" y="100.808905"/>
     <use style="fill-opacity:0;stroke:#000000;" x="91.986688" xlink:href="#m690e90ec78" y="100.53255"/>
     <use style="fill-opacity:0;stroke:#000000;" x="108.330375" xlink:href="#m690e90ec78" y="101.299163"/>
     <use style="fill-opacity:0;stroke:#000000;" x="124.674062" xlink:href="#m690e90ec78" y="102.413394"/>
     <use style="fill-opacity:0;stroke:#000000;" x="141.01775" xlink:href="#m690e90ec78" y="103.630256"/>
     <use style="fill-opacity:0;stroke:#000000;" x="157.361437" xlink:href="#m690e90ec78" y="104.85008"/>
     <use style="fill-opacity:0;stroke:#000000;" x="173.705125" xlink:href="#m690e90ec78" y="106.029901"/>
     <use style="fill-opacity:0;stroke:#000000;" x="190.048812" xlink:href="#m690e90ec78" y="107.151529"/>
     <use style="fill-opacity:0;stroke:#000000;" x="206.3925" xlink:href="#m690e90ec78" y="108.208372"/>
    </g>
   </g>
   <g id="line2d_13">
    <path clip-path="url(#p6739b62a1b)" d="M 47.041547 97.893207 
L 51.127469 80.495443 
L 52.761838 75.858035 
L 54.396206 72.014162 
L 56.030575 68.781238 
L 57.664944 66.032187 
L 59.299312 63.674701 
L 60.933681 61.639509 
L 62.56805 59.873281 
L 64.202419 58.334102 
L 65.836788 56.988457 
L 67.471156 55.80916 
L 69.105525 54.773882 
L 70.739894 53.864086 
L 72.374263 53.064238 
L 74.008631 52.36121 
L 75.643 51.743822 
L 77.277369 51.202496 
L 78.911738 50.72897 
L 80.546106 50.316079 
L 82.180475 49.957582 
L 83.814844 49.648013 
L 85.449213 49.382566 
L 87.083581 49.156999 
L 88.71795 48.967554 
L 90.352319 48.810892 
L 91.986688 48.684032 
L 93.621056 48.584311 
L 95.255425 48.50934 
L 96.889794 48.45697 
L 98.524163 48.425266 
L 100.158531 48.412477 
L 101.7929 48.417021 
L 103.427269 48.437459 
L 105.061637 48.472488 
L 106.696006 48.520918 
L 108.330375 48.581663 
L 109.964744 48.653735 
L 111.599112 48.736225 
L 113.233481 48.828303 
L 114.86785 48.929207 
L 116.502219 49.038237 
L 118.136587 49.154747 
L 119.770956 49.278144 
L 121.405325 49.407882 
L 123.039694 49.543455 
L 124.674062 49.684396 
L 126.308431 49.830272 
L 127.9428 49.980685 
L 129.577169 50.135264 
L 131.211537 50.293666 
L 132.845906 50.455571 
L 134.480275 50.620683 
L 136.114644 50.788727 
L 137.749012 50.959447 
L 139.383381 51.132604 
L 141.01775 51.307977 
L 142.652119 51.485359 
L 144.286487 51.664557 
L 145.920856 51.84539 
L 147.555225 52.027692 
L 149.189594 52.211305 
L 150.823962 52.396083 
L 152.458331 52.58189 
L 154.0927 52.768596 
L 155.727069 52.956083 
L 157.361437 53.144239 
L 158.995806 53.332959 
L 160.630175 53.522144 
L 162.264544 53.711705 
L 163.898913 53.901554 
L 165.533281 54.091611 
L 167.16765 54.281801 
L 168.802019 54.472053 
L 170.436387 54.662302 
L 172.070756 54.852485 
L 173.705125 55.042545 
L 175.339494 55.232428 
L 176.973862 55.422082 
L 178.608231 55.611459 
L 180.2426 55.800516 
L 181.876969 55.989211 
L 183.511337 56.177505 
L 185.145706 56.36536 
L 186.780075 56.552743 
L 188.414444 56.739622 
L 190.048812 56.925968 
L 191.683181 57.111751 
L 193.31755 57.296947 
L 194.951919 57.48153 
L 196.586287 57.665478 
L 198.220656 57.84877 
L 199.855025 58.031386 
L 201.489394 58.213308 
L 203.123762 58.394519 
L 204.758131 58.575004 
L 206.3925 58.754746 
" style="fill:none;stroke:#ff0000;stroke-linecap:square;stroke-width:1.5;"/>
    <defs>
     <path d="M -3 3 
L 3 3 
L 3 -3 
L -3 -3 
z
" id="m8e17f231b9" style="stroke:#ff0000;stroke-linejoin:miter;"/>
    </defs>
    <g clip-path="url(#p6739b62a1b)">
     <use style="fill-opacity:0;stroke:#ff0000;stroke-linejoin:miter;" x="59.299312" xlink:href="#m8e17f231b9" y="63.674701"/>
     <use style="fill-opacity:0;stroke:#ff0000;stroke-linejoin:miter;" x="75.643" xlink:href="#m8e17f231b9" y="51.743822"/>
     <use style="fill-opacity:0;stroke:#ff0000;stroke-linejoin:miter;" x="91.986688" xlink:href="#m8e17f231b9" y="48.684032"/>
     <use style="fill-opacity:0;stroke:#ff0000;stroke-linejoin:miter;" x="108.330375" xlink:href="#m8e17f231b9" y="48.581663"/>
     <use style="fill-opacity:0;stroke:#ff0000;stroke-linejoin:miter;" x="124.674062" xlink:href="#m8e17f231b9" y="49.684396"/>
     <use style="fill-opacity:0;stroke:#ff0000;stroke-linejoin:miter;" x="141.01775" xlink:href="#m8e17f231b9" y="51.307977"/>
     <use style="fill-opacity:0;stroke:#ff0000;stroke-linejoin:miter;" x="157.361437" xlink:href="#m8e17f231b9" y="53.144239"/>
     <use style="fill-opacity:0;stroke:#ff0000;stroke-linejoin:miter;" x="173.705125" xlink:href="#m8e17f231b9" y="55.042545"/>
     <use style="fill-opacity:0;stroke:#ff0000;stroke-linejoin:miter;" x="190.048812" xlink:href="#m8e17f231b9" y="56.925968"/>
     <use style="fill-opacity:0;stroke:#ff0000;stroke-linejoin:miter;" x="206.3925" xlink:href="#m8e17f231b9" y="58.754746"/>
    </g>
   </g>
   <g id="line2d_14">
    <path clip-path="url(#p6739b62a1b)" d="M 47.041547 97.893206 
L 51.127469 80.495438 
L 52.761838 75.858026 
L 54.396206 72.014147 
L 56.030575 68.781213 
L 57.664944 66.032149 
L 59.299312 63.674646 
L 60.933681 61.639432 
L 62.56805 59.873177 
L 64.202419 58.333963 
L 65.836788 56.988277 
L 67.471156 55.808932 
L 69.105525 54.773597 
L 70.739894 53.863736 
L 72.374263 53.063813 
L 74.008631 52.360698 
L 75.643 51.743214 
L 77.277369 51.20178 
L 78.911738 50.728133 
L 80.546106 50.31511 
L 82.180475 49.956466 
L 83.814844 49.646736 
L 85.449213 49.381113 
L 87.083581 49.155356 
L 88.71795 48.965704 
L 90.352319 48.808819 
L 91.986688 48.681719 
L 93.621056 48.581741 
L 95.255425 48.506494 
L 96.889794 48.45383 
L 98.524163 48.421812 
L 100.158531 48.40869 
L 101.7929 48.41288 
L 103.427269 48.432945 
L 105.061637 48.467578 
L 106.696006 48.515591 
L 108.330375 48.575898 
L 109.964744 48.647507 
L 111.599112 48.729513 
L 113.233481 48.821083 
L 114.86785 48.921454 
L 116.502219 49.029927 
L 118.136587 49.145856 
L 119.770956 49.268647 
L 121.405325 49.397752 
L 123.039694 49.532666 
L 124.674062 49.672922 
L 126.308431 49.818087 
L 127.9428 49.967761 
L 129.577169 50.121573 
L 131.211537 50.279179 
L 132.845906 50.44026 
L 134.480275 50.60452 
L 136.114644 50.771683 
L 137.749012 50.941492 
L 139.383381 51.113708 
L 141.01775 51.288111 
L 142.652119 51.464491 
L 144.286487 51.642656 
L 145.920856 51.822426 
L 147.555225 52.003633 
L 149.189594 52.186119 
L 150.823962 52.369739 
L 152.458331 52.554353 
L 154.0927 52.739835 
L 155.727069 52.926065 
L 157.361437 53.112931 
L 158.995806 53.300326 
L 160.630175 53.488154 
L 162.264544 53.676323 
L 163.898913 53.864745 
L 165.533281 54.053341 
L 167.16765 54.242035 
L 168.802019 54.430756 
L 170.436387 54.619439 
L 172.070756 54.80802 
L 173.705125 54.996442 
L 175.339494 55.18465 
L 176.973862 55.372593 
L 178.608231 55.560224 
L 180.2426 55.747497 
L 181.876969 55.934371 
L 183.511337 56.120806 
L 185.145706 56.306766 
L 186.780075 56.492216 
L 188.414444 56.677124 
L 190.048812 56.86146 
L 191.683181 57.045196 
L 193.31755 57.228306 
L 194.951919 57.410765 
L 196.586287 57.59255 
L 198.220656 57.773641 
L 199.855025 57.954016 
L 201.489394 58.133658 
L 203.123762 58.31255 
L 204.758131 58.490675 
L 206.3925 58.668018 
" style="fill:none;stroke:#0000ff;stroke-linecap:square;stroke-width:1.5;"/>
    <defs>
     <path d="M 0 -3 
L -3 3 
L 3 3 
z
" id="m016e73b581" style="stroke:#0000ff;stroke-linejoin:miter;"/>
    </defs>
    <g clip-path="url(#p6739b62a1b)">
     <use style="fill-opacity:0;stroke:#0000ff;stroke-linejoin:miter;" x="59.299312" xlink:href="#m016e73b581" y="63.674646"/>
     <use style="fill-opacity:0;stroke:#0000ff;stroke-linejoin:miter;" x="75.643" xlink:href="#m016e73b581" y="51.743214"/>
     <use style="fill-opacity:0;stroke:#0000ff;stroke-linejoin:miter;" x="91.986688" xlink:href="#m016e73b581" y="48.681719"/>
     <use style="fill-opacity:0;stroke:#0000ff;stroke-linejoin:miter;" x="108.330375" xlink:href="#m016e73b581" y="48.575898"/>
     <use style="fill-opacity:0;stroke:#0000ff;stroke-linejoin:miter;" x="124.674062" xlink:href="#m016e73b581" y="49.672922"/>
     <use style="fill-opacity:0;stroke:#0000ff;stroke-linejoin:miter;" x="141.01775" xlink:href="#m016e73b581" y="51.288111"/>
     <use style="fill-opacity:0;stroke:#0000ff;stroke-linejoin:miter;" x="157.361437" xlink:href="#m016e73b581" y="53.112931"/>
     <use style="fill-opacity:0;stroke:#0000ff;stroke-linejoin:miter;" x="173.705125" xlink:href="#m016e73b581" y="54.996442"/>
     <use style="fill-opacity:0;stroke:#0000ff;stroke-linejoin:miter;" x="190.048812" xlink:href="#m016e73b581" y="56.86146"/>
     <use style="fill-opacity:0;stroke:#0000ff;stroke-linejoin:miter;" x="206.3925" xlink:href="#m016e73b581" y="58.668018"/>
    </g>
   </g>
   <g id="line2d_15">
    <path clip-path="url(#p6739b62a1b)" d="M 47.041547 79.218453 
L 51.127469 55.097128 
L 52.761838 48.487543 
L 54.396206 42.930597 
L 56.030575 38.191428 
L 57.664944 34.10599 
L 59.299312 30.55455 
L 60.933681 27.446747 
L 62.56805 24.712584 
L 64.202419 22.296678 
L 65.836788 20.154439 
L 67.471156 18.249445 
L 69.105525 16.551567 
L 70.739894 15.035618 
L 72.374263 13.680341 
L 74.008631 12.467648 
L 75.643 11.382036 
L 77.277369 10.410128 
L 78.911738 9.540312 
L 80.546106 8.762456 
L 82.180475 8.067677 
L 83.814844 7.448147 
L 85.449213 6.896946 
L 87.083581 6.407928 
L 88.71795 5.975617 
L 90.352319 5.595119 
L 91.986688 5.262046 
L 93.621056 4.972452 
L 95.255425 4.72278 
L 96.889794 4.509815 
L 98.524163 4.330645 
L 100.158531 4.182625 
L 101.7929 4.06335 
L 103.427269 3.970628 
L 105.061637 3.902456 
L 106.696006 3.857001 
L 108.330375 3.832585 
L 109.964744 3.827667 
L 111.599112 3.840831 
L 113.233481 3.870773 
L 114.86785 3.91629 
L 116.502219 3.976275 
L 118.136587 4.049702 
L 119.770956 4.135622 
L 121.405325 4.233158 
L 123.039694 4.341495 
L 124.674062 4.459878 
L 126.308431 4.587605 
L 127.9428 4.724021 
L 129.577169 4.86852 
L 131.211537 5.020536 
L 132.845906 5.17954 
L 134.480275 5.345041 
L 136.114644 5.516578 
L 137.749012 5.693722 
L 139.383381 5.876071 
L 141.01775 6.063249 
L 142.652119 6.254905 
L 144.286487 6.450708 
L 145.920856 6.65035 
L 147.555225 6.85354 
L 149.189594 7.060007 
L 150.823962 7.269496 
L 152.458331 7.481766 
L 154.0927 7.696592 
L 155.727069 7.913763 
L 157.361437 8.13308 
L 158.995806 8.354354 
L 160.630175 8.577409 
L 162.264544 8.80208 
L 163.898913 9.02821 
L 165.533281 9.255651 
L 167.16765 9.484264 
L 168.802019 9.713919 
L 170.436387 9.944492 
L 172.070756 10.175867 
L 173.705125 10.407934 
L 175.339494 10.640589 
L 176.973862 10.873735 
L 178.608231 11.107279 
L 180.2426 11.341134 
L 181.876969 11.575217 
L 183.511337 11.809453 
L 185.145706 12.043766 
L 186.780075 12.278087 
L 188.414444 12.512352 
L 190.048812 12.746499 
L 191.683181 12.980469 
L 193.31755 13.214207 
L 194.951919 13.447662 
L 196.586287 13.680784 
L 198.220656 13.913526 
L 199.855025 14.145846 
L 201.489394 14.377702 
L 203.123762 14.609055 
L 204.758131 14.839868 
L 206.3925 15.070107 
" style="fill:none;stroke:#008000;stroke-linecap:square;stroke-width:1.5;"/>
    <defs>
     <path d="M 0 4.242641 
L 4.242641 0 
L 0 -4.242641 
L -4.242641 0 
z
" id="mcb4ea659cc" style="stroke:#008000;stroke-linejoin:miter;"/>
    </defs>
    <g clip-path="url(#p6739b62a1b)">
     <use style="fill-opacity:0;stroke:#008000;stroke-linejoin:miter;" x="59.299312" xlink:href="#mcb4ea659cc" y="30.55455"/>
     <use style="fill-opacity:0;stroke:#008000;stroke-linejoin:miter;" x="75.643" xlink:href="#mcb4ea659cc" y="11.382036"/>
     <use style="fill-opacity:0;stroke:#008000;stroke-linejoin:miter;" x="91.986688" xlink:href="#mcb4ea659cc" y="5.262046"/>
     <use style="fill-opacity:0;stroke:#008000;stroke-linejoin:miter;" x="108.330375" xlink:href="#mcb4ea659cc" y="3.832585"/>
     <use style="fill-opacity:0;stroke:#008000;stroke-linejoin:miter;" x="124.674062" xlink:href="#mcb4ea659cc" y="4.459878"/>
     <use style="fill-opacity:0;stroke:#008000;stroke-linejoin:miter;" x="141.01775" xlink:href="#mcb4ea659cc" y="6.063249"/>
     <use style="fill-opacity:0;stroke:#008000;stroke-linejoin:miter;" x="157.361437" xlink:href="#mcb4ea659cc" y="8.13308"/>
     <use style="fill-opacity:0;stroke:#008000;stroke-linejoin:miter;" x="173.705125" xlink:href="#mcb4ea659cc" y="10.407934"/>
     <use style="fill-opacity:0;stroke:#008000;stroke-linejoin:miter;" x="190.048812" xlink:href="#mcb4ea659cc" y="12.746499"/>
     <use style="fill-opacity:0;stroke:#008000;stroke-linejoin:miter;" x="206.3925" xlink:href="#mcb4ea659cc" y="15.070107"/>
    </g>
   </g>
   <g id="patch_3">
    <path d="M 42.955625 149.00875 
L 42.955625 -0 
" style="fill:none;stroke:#000000;stroke-linecap:square;stroke-linejoin:miter;stroke-width:0.8;"/>
   </g>
   <g id="patch_4">
    <path d="M 206.3925 149.00875 
L 206.3925 -0 
" style="fill:none;stroke:#000000;stroke-linecap:square;stroke-linejoin:miter;stroke-width:0.8;"/>
   </g>
   <g id="patch_5">
    <path d="M 42.955625 149.00875 
L 206.3925 149.00875 
" style="fill:none;stroke:#000000;stroke-linecap:square;stroke-linejoin:miter;stroke-width:0.8;"/>
   </g>
   <g id="patch_6">
    <path d="M 42.955625 0 
L 206.3925 0 
" style="fill:none;stroke:#000000;stroke-linecap:square;stroke-linejoin:miter;stroke-width:0.8;"/>
   </g>
   <g id="legend_1">
    <g id="patch_7">
     <path d="M 100.715907 144.42725 
L 199.9784 144.42725 
Q 201.811 144.42725 201.811 142.59465 
L 201.811 117.542435 
Q 201.811 115.709835 199.9784 115.709835 
L 100.715907 115.709835 
Q 98.883307 115.709835 98.883307 117.542435 
L 98.883307 142.59465 
Q 98.883307 144.42725 100.715907 144.42725 
z
" style="fill:#ffffff;opacity:0.8;stroke:#cccccc;stroke-linejoin:miter;"/>
    </g>
    <g id="line2d_16">
     <path d="M 102.548507 122.582085 
L 120.874507 122.582085 
" style="fill:none;stroke:#000000;stroke-linecap:square;stroke-width:1.5;"/>
    </g>
    <g id="line2d_17">
     <g>
      <use style="fill-opacity:0;stroke:#000000;" x="111.711507" xlink:href="#m690e90ec78" y="122.582085"/>
     </g>
    </g>
    <g id="text_14">
     <!-- 1st -->
     <g transform="translate(128.204907 125.789135)scale(0.09163 -0.09163)">
      <defs>
       <path d="M 998 1926 
L 1664 1523 
Q 1984 1331 2105 1164 
Q 2227 998 2227 736 
Q 2227 416 1961 176 
Q 1696 -64 1331 -64 
Q 1030 -64 864 -6 
Q 691 51 570 51 
Q 461 51 416 -26 
L 333 -26 
L 333 979 
L 435 979 
Q 538 512 730 294 
Q 922 77 1248 77 
Q 1485 77 1632 211 
Q 1779 346 1779 550 
Q 1779 845 1440 1030 
L 1094 1222 
Q 326 1651 326 2150 
Q 326 2522 566 2730 
Q 806 2938 1210 2938 
Q 1491 2938 1638 2867 
Q 1754 2816 1818 2816 
Q 1862 2816 1920 2880 
L 1990 2880 
L 2022 2010 
L 1926 2010 
Q 1818 2445 1654 2621 
Q 1491 2797 1203 2797 
Q 986 2797 854 2688 
Q 723 2579 723 2362 
Q 723 2253 796 2128 
Q 870 2003 998 1926 
z
" id="STIXGeneral-Regular-73" transform="scale(0.015625)"/>
       <path d="M 1702 493 
L 1786 422 
Q 1478 -64 1011 -64 
Q 448 -64 448 749 
L 448 2675 
L 109 2675 
Q 83 2694 83 2720 
Q 83 2771 192 2842 
Q 435 2982 813 3526 
Q 826 3546 874 3606 
Q 922 3667 941 3706 
Q 986 3706 986 3622 
L 986 2880 
L 1632 2880 
L 1632 2675 
L 986 2675 
L 986 845 
Q 986 538 1062 403 
Q 1139 269 1318 269 
Q 1510 269 1702 493 
z
" id="STIXGeneral-Regular-74" transform="scale(0.015625)"/>
      </defs>
      <use xlink:href="#STIXGeneral-Regular-31"/>
      <use x="49.999985" xlink:href="#STIXGeneral-Regular-73"/>
      <use x="88.899979" xlink:href="#STIXGeneral-Regular-74"/>
     </g>
    </g>
    <g id="line2d_18">
     <path d="M 102.548507 135.566343 
L 120.874507 135.566343 
" style="fill:none;stroke:#ff0000;stroke-linecap:square;stroke-width:1.5;"/>
    </g>
    <g id="line2d_19">
     <g>
      <use style="fill-opacity:0;stroke:#ff0000;stroke-linejoin:miter;" x="111.711507" xlink:href="#m8e17f231b9" y="135.566343"/>
     </g>
    </g>
    <g id="text_15">
     <!-- 2nd -->
     <g transform="translate(128.204907 138.773393)scale(0.09163 -0.09163)">
      <defs>
       <path d="M 3142 269 
L 2202 -64 
L 2176 -45 
L 2176 365 
Q 1869 -64 1357 -64 
Q 826 -64 499 317 
Q 173 698 173 1312 
Q 173 1990 563 2467 
Q 954 2944 1504 2944 
Q 1850 2944 2176 2669 
L 2176 3667 
Q 2176 3866 2118 3930 
Q 2061 3994 1882 3994 
Q 1792 3994 1741 3987 
L 1741 4090 
Q 2323 4243 2682 4371 
L 2714 4358 
L 2714 730 
Q 2714 506 2768 435 
Q 2822 365 2995 365 
Q 3034 365 3142 371 
L 3142 269 
z
M 2176 653 
L 2176 2125 
Q 2176 2381 1981 2573 
Q 1786 2765 1523 2765 
Q 1158 2765 940 2438 
Q 723 2112 723 1568 
Q 723 979 963 624 
Q 1203 269 1606 269 
Q 1907 269 2080 474 
Q 2176 582 2176 653 
z
" id="STIXGeneral-Regular-64" transform="scale(0.015625)"/>
      </defs>
      <use xlink:href="#STIXGeneral-Regular-32"/>
      <use x="49.999985" xlink:href="#STIXGeneral-Regular-6e"/>
      <use x="99.999969" xlink:href="#STIXGeneral-Regular-64"/>
     </g>
    </g>
    <g id="line2d_20">
     <path d="M 160.275407 122.582085 
L 178.601407 122.582085 
" style="fill:none;stroke:#0000ff;stroke-linecap:square;stroke-width:1.5;"/>
    </g>
    <g id="line2d_21">
     <g>
      <use style="fill-opacity:0;stroke:#0000ff;stroke-linejoin:miter;" x="169.438407" xlink:href="#m016e73b581" y="122.582085"/>
     </g>
    </g>
    <g id="text_16">
     <!-- 3rd -->
     <g transform="translate(185.931807 125.789135)scale(0.09163 -0.09163)">
      <use xlink:href="#STIXGeneral-Regular-33"/>
      <use x="49.999985" xlink:href="#STIXGeneral-Regular-72"/>
      <use x="83.299973" xlink:href="#STIXGeneral-Regular-64"/>
     </g>
    </g>
    <g id="line2d_22">
     <path d="M 160.275407 135.566343 
L 178.601407 135.566343 
" style="fill:none;stroke:#008000;stroke-linecap:square;stroke-width:1.5;"/>
    </g>
    <g id="line2d_23">
     <g>
      <use style="fill-opacity:0;stroke:#008000;stroke-linejoin:miter;" x="169.438407" xlink:href="#mcb4ea659cc" y="135.566343"/>
     </g>
    </g>
    <g id="text_17">
     <!-- 4th -->
     <g transform="translate(185.931807 138.773393)scale(0.09163 -0.09163)">
      <defs>
       <path d="M 3027 1069 
L 2368 1069 
L 2368 0 
L 1869 0 
L 1869 1069 
L 77 1069 
L 77 1478 
L 2086 4326 
L 2368 4326 
L 2368 1478 
L 3027 1478 
L 3027 1069 
z
M 1869 1478 
L 1869 3674 
L 333 1478 
L 1869 1478 
z
" id="STIXGeneral-Regular-34" transform="scale(0.015625)"/>
       <path d="M 3117 0 
L 1760 0 
L 1760 96 
Q 2042 128 2118 224 
Q 2195 320 2195 653 
L 2195 1920 
Q 2195 2598 1722 2598 
Q 1530 2598 1370 2508 
Q 1210 2419 1005 2195 
L 1005 653 
Q 1005 320 1081 224 
Q 1158 128 1440 96 
L 1440 0 
L 58 0 
L 58 96 
Q 333 134 400 224 
Q 467 314 467 653 
L 467 3667 
Q 467 3872 406 3933 
Q 346 3994 141 3994 
Q 83 3994 64 3987 
L 64 4090 
L 237 4141 
Q 730 4288 973 4371 
L 1005 4352 
L 1005 2406 
Q 1229 2694 1446 2819 
Q 1664 2944 1946 2944 
Q 2733 2944 2733 1926 
L 2733 653 
Q 2733 320 2793 233 
Q 2854 147 3117 96 
L 3117 0 
z
" id="STIXGeneral-Regular-68" transform="scale(0.015625)"/>
      </defs>
      <use xlink:href="#STIXGeneral-Regular-34"/>
      <use x="49.999985" xlink:href="#STIXGeneral-Regular-74"/>
      <use x="77.799973" xlink:href="#STIXGeneral-Regular-68"/>
     </g>
    </g>
   </g>
  </g>
 </g>
 <defs>
  <clipPath id="p6739b62a1b">
   <rect height="149.00875" width="163.436875" x="42.955625" y="0"/>
  </clipPath>
 </defs>
</svg>
