<?xml version="1.0" encoding="utf-8" standalone="no"?>
<!DOCTYPE svg PUBLIC "-//W3C//DTD SVG 1.1//EN"
  "http://www.w3.org/Graphics/SVG/1.1/DTD/svg11.dtd">
<svg height="162pt" version="1.1" viewBox="0 0 216 162" width="216pt" xmlns="http://www.w3.org/2000/svg" xmlns:xlink="http://www.w3.org/1999/xlink">
 <metadata>
  <rdf:RDF xmlns:cc="http://creativecommons.org/ns#" xmlns:dc="http://purl.org/dc/elements/1.1/" xmlns:rdf="http://www.w3.org/1999/02/22-rdf-syntax-ns#">
   <cc:Work>
    <dc:type rdf:resource="http://purl.org/dc/dcmitype/StillImage"/>
    <dc:date>2021-07-23T22:47:41.245328</dc:date>
    <dc:format>image/svg+xml</dc:format>
    <dc:creator>
     <cc:Agent>
      <dc:title>Matplotlib v3.4.2, https://matplotlib.org/</dc:title>
     </cc:Agent>
    </dc:creator>
   </cc:Work>
  </rdf:RDF>
 </metadata>
 <defs>
  <style type="text/css">*{stroke-linecap:butt;stroke-linejoin:round;}</style>
 </defs>
 <g id="figure_1">
  <g id="patch_1">
   <path d="M 0 162 
L 216 162 
L 216 0 
L 0 0 
z
" style="fill:#ffffff;"/>
  </g>
  <g id="axes_1">
   <g id="patch_2">
    <path d="M 34.720625 131.00875 
L 209.1375 131.00875 
L 209.1375 3.737813 
L 34.720625 3.737813 
z
" style="fill:#ffffff;"/>
   </g>
   <g id="matplotlib.axis_1">
    <g id="xtick_1">
     <g id="line2d_1">
      <defs>
       <path d="M 0 0 
L 0 3.5 
" id="med5df9efda" style="stroke:#000000;stroke-width:0.8;"/>
      </defs>
      <g>
       <use style="stroke:#000000;stroke-width:0.8;" x="34.720625" xlink:href="#med5df9efda" y="131.00875"/>
      </g>
     </g>
     <g id="text_1">
      <!-- 0.0 -->
      <g transform="translate(27.845625 145.521406)scale(0.11 -0.11)">
       <defs>
        <path d="M 3046 2112 
Q 3046 1683 2963 1302 
Q 2880 922 2717 602 
Q 2554 282 2266 96 
Q 1978 -90 1600 -90 
Q 1210 -90 915 108 
Q 621 307 461 640 
Q 301 973 227 1350 
Q 154 1728 154 2150 
Q 154 2746 301 3222 
Q 448 3699 790 4012 
Q 1133 4326 1626 4326 
Q 2253 4326 2649 3712 
Q 3046 3098 3046 2112 
z
M 2432 2080 
Q 2432 3091 2217 3625 
Q 2003 4160 1587 4160 
Q 1190 4160 979 3622 
Q 768 3085 768 2106 
Q 768 1120 979 598 
Q 1190 77 1600 77 
Q 2003 77 2217 598 
Q 2432 1120 2432 2080 
z
" id="STIXGeneral-Regular-30" transform="scale(0.015625)"/>
        <path d="M 1158 275 
Q 1158 134 1052 32 
Q 947 -70 800 -70 
Q 653 -70 550 32 
Q 448 134 448 281 
Q 448 429 553 534 
Q 659 640 806 640 
Q 947 640 1052 531 
Q 1158 422 1158 275 
z
" id="STIXGeneral-Regular-2e" transform="scale(0.015625)"/>
       </defs>
       <use xlink:href="#STIXGeneral-Regular-30"/>
       <use x="49.999985" xlink:href="#STIXGeneral-Regular-2e"/>
       <use x="74.999969" xlink:href="#STIXGeneral-Regular-30"/>
      </g>
     </g>
    </g>
    <g id="xtick_2">
     <g id="line2d_2">
      <g>
       <use style="stroke:#000000;stroke-width:0.8;" x="69.604" xlink:href="#med5df9efda" y="131.00875"/>
      </g>
     </g>
     <g id="text_2">
      <!-- 0.2 -->
      <g transform="translate(62.729 145.521406)scale(0.11 -0.11)">
       <defs>
        <path d="M 3034 877 
L 2688 0 
L 186 0 
L 186 77 
L 1325 1286 
Q 1773 1754 1965 2144 
Q 2157 2534 2157 2950 
Q 2157 3379 1920 3616 
Q 1683 3853 1267 3853 
Q 922 3853 720 3673 
Q 518 3494 326 3021 
L 192 3053 
Q 301 3648 630 3987 
Q 960 4326 1523 4326 
Q 2054 4326 2380 4006 
Q 2707 3686 2707 3200 
Q 2707 2477 1888 1613 
L 832 486 
L 2330 486 
Q 2541 486 2665 569 
Q 2790 653 2944 915 
L 3034 877 
z
" id="STIXGeneral-Regular-32" transform="scale(0.015625)"/>
       </defs>
       <use xlink:href="#STIXGeneral-Regular-30"/>
       <use x="49.999985" xlink:href="#STIXGeneral-Regular-2e"/>
       <use x="74.999969" xlink:href="#STIXGeneral-Regular-32"/>
      </g>
     </g>
    </g>
    <g id="xtick_3">
     <g id="line2d_3">
      <g>
       <use style="stroke:#000000;stroke-width:0.8;" x="104.487375" xlink:href="#med5df9efda" y="131.00875"/>
      </g>
     </g>
     <g id="text_3">
      <!-- 0.4 -->
      <g transform="translate(97.612375 145.521406)scale(0.11 -0.11)">
       <defs>
        <path d="M 3027 1069 
L 2368 1069 
L 2368 0 
L 1869 0 
L 1869 1069 
L 77 1069 
L 77 1478 
L 2086 4326 
L 2368 4326 
L 2368 1478 
L 3027 1478 
L 3027 1069 
z
M 1869 1478 
L 1869 3674 
L 333 1478 
L 1869 1478 
z
" id="STIXGeneral-Regular-34" transform="scale(0.015625)"/>
       </defs>
       <use xlink:href="#STIXGeneral-Regular-30"/>
       <use x="49.999985" xlink:href="#STIXGeneral-Regular-2e"/>
       <use x="74.999969" xlink:href="#STIXGeneral-Regular-34"/>
      </g>
     </g>
    </g>
    <g id="xtick_4">
     <g id="line2d_4">
      <g>
       <use style="stroke:#000000;stroke-width:0.8;" x="139.37075" xlink:href="#med5df9efda" y="131.00875"/>
      </g>
     </g>
     <g id="text_4">
      <!-- 0.6 -->
      <g transform="translate(132.49575 145.521406)scale(0.11 -0.11)">
       <defs>
        <path d="M 2854 4378 
L 2867 4275 
Q 2112 4154 1606 3664 
Q 1101 3174 973 2451 
Q 1344 2739 1786 2739 
Q 2349 2739 2672 2380 
Q 2995 2022 2995 1402 
Q 2995 774 2669 378 
Q 2291 -90 1651 -90 
Q 870 -90 518 557 
Q 218 1107 218 1786 
Q 218 2835 915 3552 
Q 1312 3962 1731 4131 
Q 2150 4301 2854 4378 
z
M 2419 1203 
Q 2419 2445 1555 2445 
Q 1235 2445 1024 2275 
Q 813 2106 813 1702 
Q 813 954 1046 522 
Q 1280 90 1722 90 
Q 2061 90 2240 394 
Q 2419 698 2419 1203 
z
" id="STIXGeneral-Regular-36" transform="scale(0.015625)"/>
       </defs>
       <use xlink:href="#STIXGeneral-Regular-30"/>
       <use x="49.999985" xlink:href="#STIXGeneral-Regular-2e"/>
       <use x="74.999969" xlink:href="#STIXGeneral-Regular-36"/>
      </g>
     </g>
    </g>
    <g id="xtick_5">
     <g id="line2d_5">
      <g>
       <use style="stroke:#000000;stroke-width:0.8;" x="174.254125" xlink:href="#med5df9efda" y="131.00875"/>
      </g>
     </g>
     <g id="text_5">
      <!-- 0.8 -->
      <g transform="translate(167.379125 145.521406)scale(0.11 -0.11)">
       <defs>
        <path d="M 2848 992 
Q 2848 499 2505 204 
Q 2163 -90 1587 -90 
Q 1050 -90 704 204 
Q 358 499 358 954 
Q 358 1293 524 1533 
Q 691 1773 1190 2125 
Q 710 2522 553 2765 
Q 397 3008 397 3328 
Q 397 3782 745 4054 
Q 1094 4326 1638 4326 
Q 2106 4326 2410 4060 
Q 2714 3795 2714 3411 
Q 2714 3059 2531 2848 
Q 2349 2637 1856 2374 
Q 2432 1990 2640 1689 
Q 2848 1389 2848 992 
z
M 2272 3411 
Q 2272 3744 2086 3945 
Q 1901 4147 1574 4147 
Q 1248 4147 1059 3977 
Q 870 3808 870 3513 
Q 870 3219 1059 2979 
Q 1248 2739 1670 2490 
Q 1997 2682 2134 2896 
Q 2272 3110 2272 3411 
z
M 1734 1741 
L 1357 1997 
Q 1075 1766 960 1545 
Q 845 1325 845 1011 
Q 845 576 1065 333 
Q 1286 90 1658 90 
Q 1971 90 2166 285 
Q 2362 480 2362 794 
Q 2362 1082 2214 1299 
Q 2067 1517 1734 1741 
z
" id="STIXGeneral-Regular-38" transform="scale(0.015625)"/>
       </defs>
       <use xlink:href="#STIXGeneral-Regular-30"/>
       <use x="49.999985" xlink:href="#STIXGeneral-Regular-2e"/>
       <use x="74.999969" xlink:href="#STIXGeneral-Regular-38"/>
      </g>
     </g>
    </g>
    <g id="xtick_6">
     <g id="line2d_6">
      <g>
       <use style="stroke:#000000;stroke-width:0.8;" x="209.1375" xlink:href="#med5df9efda" y="131.00875"/>
      </g>
     </g>
     <g id="text_6">
      <!-- 1.0 -->
      <g transform="translate(202.2625 145.521406)scale(0.11 -0.11)">
       <defs>
        <path d="M 2522 0 
L 755 0 
L 755 96 
Q 1107 115 1235 227 
Q 1363 339 1363 608 
L 1363 3482 
Q 1363 3795 1171 3795 
Q 1082 3795 883 3718 
L 710 3654 
L 710 3744 
L 1856 4326 
L 1914 4307 
L 1914 486 
Q 1914 275 2042 185 
Q 2170 96 2522 96 
L 2522 0 
z
" id="STIXGeneral-Regular-31" transform="scale(0.015625)"/>
       </defs>
       <use xlink:href="#STIXGeneral-Regular-31"/>
       <use x="49.999985" xlink:href="#STIXGeneral-Regular-2e"/>
       <use x="74.999969" xlink:href="#STIXGeneral-Regular-30"/>
      </g>
     </g>
    </g>
    <g id="text_7">
     <!-- $\alpha$ -->
     <g transform="translate(118.849062 159.421406)scale(0.11 -0.11)">
      <defs>
       <path d="M 3514 2739 
L 2605 1069 
L 2605 954 
Q 2605 704 2662 512 
Q 2720 320 2822 320 
Q 2970 320 3149 794 
L 3251 749 
Q 3014 -58 2605 -58 
Q 2291 -58 2272 614 
Q 1709 -70 1030 -70 
Q 589 -70 381 198 
Q 173 467 173 902 
Q 173 1293 329 1673 
Q 486 2054 755 2330 
Q 973 2547 1270 2684 
Q 1568 2822 1862 2822 
Q 2246 2822 2457 2595 
Q 2669 2368 2669 2061 
L 2963 2739 
L 3514 2739 
z
M 2298 1741 
Q 2298 2688 1805 2688 
Q 1472 2688 1085 2099 
Q 698 1510 698 800 
Q 698 493 806 278 
Q 915 64 1139 64 
Q 1606 64 2195 1286 
Q 2202 1325 2230 1411 
Q 2259 1498 2278 1581 
Q 2298 1664 2298 1741 
z
" id="STIXGeneral-Italic-3b1" transform="scale(0.015625)"/>
      </defs>
      <use transform="translate(0 0.90625)" xlink:href="#STIXGeneral-Italic-3b1"/>
     </g>
    </g>
   </g>
   <g id="matplotlib.axis_2">
    <g id="ytick_1">
     <g id="line2d_7">
      <defs>
       <path d="M 0 0 
L -3.5 0 
" id="m4f98d792bd" style="stroke:#000000;stroke-width:0.8;"/>
      </defs>
      <g>
       <use style="stroke:#000000;stroke-width:0.8;" x="34.720625" xlink:href="#m4f98d792bd" y="131.00875"/>
      </g>
     </g>
     <g id="text_8">
      <!-- 0.0 -->
      <g transform="translate(13.970625 134.765078)scale(0.11 -0.11)">
       <use xlink:href="#STIXGeneral-Regular-30"/>
       <use x="49.999985" xlink:href="#STIXGeneral-Regular-2e"/>
       <use x="74.999969" xlink:href="#STIXGeneral-Regular-30"/>
      </g>
     </g>
    </g>
    <g id="ytick_2">
     <g id="line2d_8">
      <g>
       <use style="stroke:#000000;stroke-width:0.8;" x="34.720625" xlink:href="#m4f98d792bd" y="105.554563"/>
      </g>
     </g>
     <g id="text_9">
      <!-- 0.2 -->
      <g transform="translate(13.970625 109.310891)scale(0.11 -0.11)">
       <use xlink:href="#STIXGeneral-Regular-30"/>
       <use x="49.999985" xlink:href="#STIXGeneral-Regular-2e"/>
       <use x="74.999969" xlink:href="#STIXGeneral-Regular-32"/>
      </g>
     </g>
    </g>
    <g id="ytick_3">
     <g id="line2d_9">
      <g>
       <use style="stroke:#000000;stroke-width:0.8;" x="34.720625" xlink:href="#m4f98d792bd" y="80.100375"/>
      </g>
     </g>
     <g id="text_10">
      <!-- 0.4 -->
      <g transform="translate(13.970625 83.856703)scale(0.11 -0.11)">
       <use xlink:href="#STIXGeneral-Regular-30"/>
       <use x="49.999985" xlink:href="#STIXGeneral-Regular-2e"/>
       <use x="74.999969" xlink:href="#STIXGeneral-Regular-34"/>
      </g>
     </g>
    </g>
    <g id="ytick_4">
     <g id="line2d_10">
      <g>
       <use style="stroke:#000000;stroke-width:0.8;" x="34.720625" xlink:href="#m4f98d792bd" y="54.646187"/>
      </g>
     </g>
     <g id="text_11">
      <!-- 0.6 -->
      <g transform="translate(13.970625 58.402516)scale(0.11 -0.11)">
       <use xlink:href="#STIXGeneral-Regular-30"/>
       <use x="49.999985" xlink:href="#STIXGeneral-Regular-2e"/>
       <use x="74.999969" xlink:href="#STIXGeneral-Regular-36"/>
      </g>
     </g>
    </g>
    <g id="ytick_5">
     <g id="line2d_11">
      <g>
       <use style="stroke:#000000;stroke-width:0.8;" x="34.720625" xlink:href="#m4f98d792bd" y="29.192"/>
      </g>
     </g>
     <g id="text_12">
      <!-- 0.8 -->
      <g transform="translate(13.970625 32.948328)scale(0.11 -0.11)">
       <use xlink:href="#STIXGeneral-Regular-30"/>
       <use x="49.999985" xlink:href="#STIXGeneral-Regular-2e"/>
       <use x="74.999969" xlink:href="#STIXGeneral-Regular-38"/>
      </g>
     </g>
    </g>
    <g id="ytick_6">
     <g id="line2d_12">
      <g>
       <use style="stroke:#000000;stroke-width:0.8;" x="34.720625" xlink:href="#m4f98d792bd" y="3.737813"/>
      </g>
     </g>
     <g id="text_13">
      <!-- 1.0 -->
      <g transform="translate(13.970625 7.494141)scale(0.11 -0.11)">
       <use xlink:href="#STIXGeneral-Regular-31"/>
       <use x="49.999985" xlink:href="#STIXGeneral-Regular-2e"/>
       <use x="74.999969" xlink:href="#STIXGeneral-Regular-30"/>
      </g>
     </g>
    </g>
    <g id="text_14">
     <!-- Shear correction factor -->
     <g transform="translate(7.583281 117.770469)rotate(-90)scale(0.11 -0.11)">
      <defs>
       <path d="M 3002 2963 
L 2842 2963 
Q 2733 3360 2579 3565 
Q 2189 4064 1651 4064 
Q 1357 4064 1181 3894 
Q 1005 3725 1005 3456 
Q 1005 3328 1069 3206 
Q 1133 3085 1206 2998 
Q 1280 2912 1465 2784 
Q 1651 2656 1766 2589 
Q 1882 2522 2150 2362 
Q 2669 2061 2905 1763 
Q 3142 1466 3142 1107 
Q 3142 576 2771 243 
Q 2400 -90 1837 -90 
Q 1421 -90 1082 58 
Q 915 128 781 128 
Q 704 128 653 70 
Q 602 13 602 -83 
L 461 -83 
L 275 1274 
L 416 1274 
Q 845 141 1734 141 
Q 2074 141 2285 342 
Q 2496 544 2496 858 
Q 2496 1158 2310 1363 
Q 2003 1696 1235 2106 
Q 454 2522 454 3206 
Q 454 3718 768 4022 
Q 1082 4326 1568 4326 
Q 1907 4326 2240 4186 
Q 2413 4109 2522 4109 
Q 2688 4109 2726 4326 
L 2861 4326 
L 3002 2963 
z
" id="STIXGeneral-Regular-53" transform="scale(0.015625)"/>
       <path d="M 3117 0 
L 1760 0 
L 1760 96 
Q 2042 128 2118 224 
Q 2195 320 2195 653 
L 2195 1920 
Q 2195 2598 1722 2598 
Q 1530 2598 1370 2508 
Q 1210 2419 1005 2195 
L 1005 653 
Q 1005 320 1081 224 
Q 1158 128 1440 96 
L 1440 0 
L 58 0 
L 58 96 
Q 333 134 400 224 
Q 467 314 467 653 
L 467 3667 
Q 467 3872 406 3933 
Q 346 3994 141 3994 
Q 83 3994 64 3987 
L 64 4090 
L 237 4141 
Q 730 4288 973 4371 
L 1005 4352 
L 1005 2406 
Q 1229 2694 1446 2819 
Q 1664 2944 1946 2944 
Q 2733 2944 2733 1926 
L 2733 653 
Q 2733 320 2793 233 
Q 2854 147 3117 96 
L 3117 0 
z
" id="STIXGeneral-Regular-68" transform="scale(0.015625)"/>
       <path d="M 2611 1050 
L 2714 1005 
Q 2330 -64 1376 -64 
Q 813 -64 486 329 
Q 160 723 160 1389 
Q 160 2074 525 2509 
Q 890 2944 1485 2944 
Q 2061 2944 2374 2502 
Q 2560 2246 2592 1773 
L 621 1773 
Q 646 1370 700 1158 
Q 755 947 915 730 
Q 1184 378 1626 378 
Q 1939 378 2153 531 
Q 2368 685 2611 1050 
z
M 634 1978 
L 1939 1978 
Q 1882 2381 1750 2547 
Q 1619 2714 1312 2714 
Q 1043 2714 864 2525 
Q 685 2336 634 1978 
z
" id="STIXGeneral-Regular-65" transform="scale(0.015625)"/>
       <path d="M 2829 422 
L 2829 243 
Q 2586 -64 2253 -64 
Q 1888 -64 1843 403 
L 1837 403 
Q 1427 -64 909 -64 
Q 608 -64 422 112 
Q 237 288 237 602 
Q 237 1050 685 1350 
Q 992 1555 1837 1869 
L 1837 2214 
Q 1837 2502 1699 2646 
Q 1562 2790 1338 2790 
Q 1146 2790 1018 2697 
Q 890 2605 890 2477 
Q 890 2419 909 2348 
Q 928 2278 928 2208 
Q 928 2112 841 2029 
Q 755 1946 634 1946 
Q 525 1946 441 2029 
Q 358 2112 358 2240 
Q 358 2547 685 2752 
Q 986 2944 1421 2944 
Q 1939 2944 2176 2656 
Q 2291 2522 2323 2384 
Q 2355 2246 2355 1946 
L 2355 723 
Q 2355 301 2554 301 
Q 2682 301 2829 422 
z
M 1837 813 
L 1837 1715 
Q 1248 1510 1018 1293 
Q 800 1094 800 800 
Q 800 557 921 432 
Q 1043 307 1242 307 
Q 1453 307 1613 410 
Q 1747 506 1792 589 
Q 1837 672 1837 813 
z
" id="STIXGeneral-Regular-61" transform="scale(0.015625)"/>
       <path d="M 1024 2931 
L 1024 2342 
Q 1267 2688 1430 2816 
Q 1594 2944 1792 2944 
Q 1958 2944 2051 2854 
Q 2144 2765 2144 2605 
Q 2144 2470 2077 2393 
Q 2010 2317 1894 2317 
Q 1773 2317 1638 2445 
Q 1536 2541 1472 2541 
Q 1338 2541 1181 2355 
Q 1024 2170 1024 2016 
L 1024 576 
Q 1024 301 1133 205 
Q 1242 109 1568 96 
L 1568 0 
L 32 0 
L 32 96 
Q 339 154 412 224 
Q 486 294 486 538 
L 486 2138 
Q 486 2349 438 2435 
Q 390 2522 269 2522 
Q 166 2522 45 2496 
L 45 2598 
Q 448 2726 992 2944 
L 1024 2931 
z
" id="STIXGeneral-Regular-72" transform="scale(0.015625)"/>
       <path id="STIXGeneral-Regular-20" transform="scale(0.015625)"/>
       <path d="M 2547 998 
L 2637 941 
Q 2362 403 2112 205 
Q 1786 -64 1376 -64 
Q 845 -64 502 336 
Q 160 736 160 1357 
Q 160 2170 698 2618 
Q 1094 2944 1562 2944 
Q 1965 2944 2256 2749 
Q 2547 2554 2547 2285 
Q 2547 2176 2457 2096 
Q 2368 2016 2246 2016 
Q 2022 2016 1939 2310 
L 1901 2451 
Q 1850 2630 1773 2694 
Q 1696 2758 1523 2758 
Q 1133 2758 893 2451 
Q 653 2144 653 1645 
Q 653 1094 928 745 
Q 1203 397 1645 397 
Q 1920 397 2118 528 
Q 2317 659 2547 998 
z
" id="STIXGeneral-Regular-63" transform="scale(0.015625)"/>
       <path d="M 3008 1478 
Q 3008 806 2608 371 
Q 2208 -64 1568 -64 
Q 979 -64 582 368 
Q 186 800 186 1459 
Q 186 2125 582 2534 
Q 979 2944 1626 2944 
Q 2221 2944 2614 2537 
Q 3008 2131 3008 1478 
z
M 2432 1306 
Q 2432 2035 2112 2445 
Q 1856 2765 1504 2765 
Q 1171 2765 966 2493 
Q 762 2221 762 1747 
Q 762 928 1101 435 
Q 1318 115 1677 115 
Q 2029 115 2230 432 
Q 2432 749 2432 1306 
z
" id="STIXGeneral-Regular-6f" transform="scale(0.015625)"/>
       <path d="M 1702 493 
L 1786 422 
Q 1478 -64 1011 -64 
Q 448 -64 448 749 
L 448 2675 
L 109 2675 
Q 83 2694 83 2720 
Q 83 2771 192 2842 
Q 435 2982 813 3526 
Q 826 3546 874 3606 
Q 922 3667 941 3706 
Q 986 3706 986 3622 
L 986 2880 
L 1632 2880 
L 1632 2675 
L 986 2675 
L 986 845 
Q 986 538 1062 403 
Q 1139 269 1318 269 
Q 1510 269 1702 493 
z
" id="STIXGeneral-Regular-74" transform="scale(0.015625)"/>
       <path d="M 1152 4045 
Q 1152 3904 1056 3811 
Q 960 3718 819 3718 
Q 685 3718 592 3811 
Q 499 3904 499 4045 
Q 499 4179 595 4275 
Q 691 4371 826 4371 
Q 966 4371 1059 4275 
Q 1152 4179 1152 4045 
z
M 1619 0 
L 102 0 
L 102 96 
Q 435 115 521 211 
Q 608 307 608 666 
L 608 2118 
Q 608 2342 563 2432 
Q 518 2522 397 2522 
Q 243 2522 128 2490 
L 128 2592 
L 1120 2944 
L 1146 2918 
L 1146 672 
Q 1146 314 1226 218 
Q 1306 122 1619 96 
L 1619 0 
z
" id="STIXGeneral-Regular-69" transform="scale(0.015625)"/>
       <path d="M 3104 0 
L 1773 0 
L 1779 96 
Q 2016 115 2096 233 
Q 2176 352 2176 672 
L 2176 1946 
Q 2176 2592 1709 2592 
Q 1549 2592 1408 2515 
Q 1267 2438 1050 2227 
L 1050 461 
Q 1050 269 1136 192 
Q 1222 115 1466 96 
L 1466 0 
L 115 0 
L 115 96 
Q 358 115 435 214 
Q 512 314 512 602 
L 512 2157 
Q 512 2394 467 2483 
Q 422 2573 288 2573 
Q 160 2573 102 2547 
L 102 2656 
Q 550 2784 979 2944 
L 1030 2925 
L 1030 2426 
L 1037 2426 
Q 1491 2944 1958 2944 
Q 2323 2944 2518 2688 
Q 2714 2432 2714 1958 
L 2714 544 
Q 2714 288 2790 205 
Q 2867 122 3104 96 
L 3104 0 
z
" id="STIXGeneral-Regular-6e" transform="scale(0.015625)"/>
       <path d="M 134 2880 
L 659 2880 
Q 666 3264 710 3478 
Q 755 3693 883 3910 
Q 1152 4371 1786 4371 
Q 2074 4371 2262 4259 
Q 2451 4147 2451 3974 
Q 2451 3866 2374 3789 
Q 2298 3712 2182 3712 
Q 2029 3712 1894 3942 
Q 1741 4192 1555 4192 
Q 1197 4192 1197 3622 
L 1197 2880 
L 1978 2880 
L 1978 2675 
L 1197 2675 
L 1197 666 
Q 1197 307 1299 208 
Q 1402 109 1792 96 
L 1792 0 
L 128 0 
L 128 96 
Q 474 115 566 214 
Q 659 314 659 666 
L 659 2675 
L 134 2675 
L 134 2880 
z
" id="STIXGeneral-Regular-66" transform="scale(0.015625)"/>
      </defs>
      <use xlink:href="#STIXGeneral-Regular-53"/>
      <use x="55.599991" xlink:href="#STIXGeneral-Regular-68"/>
      <use x="105.599976" xlink:href="#STIXGeneral-Regular-65"/>
      <use x="149.999969" xlink:href="#STIXGeneral-Regular-61"/>
      <use x="194.399963" xlink:href="#STIXGeneral-Regular-72"/>
      <use x="227.699951" xlink:href="#STIXGeneral-Regular-20"/>
      <use x="252.699936" xlink:href="#STIXGeneral-Regular-63"/>
      <use x="297.09993" xlink:href="#STIXGeneral-Regular-6f"/>
      <use x="347.099915" xlink:href="#STIXGeneral-Regular-72"/>
      <use x="380.399902" xlink:href="#STIXGeneral-Regular-72"/>
      <use x="413.69989" xlink:href="#STIXGeneral-Regular-65"/>
      <use x="458.099884" xlink:href="#STIXGeneral-Regular-63"/>
      <use x="502.499878" xlink:href="#STIXGeneral-Regular-74"/>
      <use x="530.299866" xlink:href="#STIXGeneral-Regular-69"/>
      <use x="558.099854" xlink:href="#STIXGeneral-Regular-6f"/>
      <use x="608.099838" xlink:href="#STIXGeneral-Regular-6e"/>
      <use x="658.099823" xlink:href="#STIXGeneral-Regular-20"/>
      <use x="683.099808" xlink:href="#STIXGeneral-Regular-66"/>
      <use x="716.399796" xlink:href="#STIXGeneral-Regular-61"/>
      <use x="760.799789" xlink:href="#STIXGeneral-Regular-63"/>
      <use x="805.199783" xlink:href="#STIXGeneral-Regular-74"/>
      <use x="832.999771" xlink:href="#STIXGeneral-Regular-6f"/>
      <use x="882.999756" xlink:href="#STIXGeneral-Regular-72"/>
     </g>
    </g>
   </g>
   <g id="line2d_13">
    <path clip-path="url(#pe60392374b)" d="M 34.720625 24.949635 
L 38.208963 75.153467 
L 41.6973 92.547439 
L 45.185638 101.323251 
L 48.673975 106.58038 
L 52.162312 110.056729 
L 55.65065 112.506484 
L 59.138988 114.30971 
L 62.627325 115.678612 
L 66.115662 116.740882 
L 69.604 117.577859 
L 73.092337 118.24372 
L 76.580675 118.775848 
L 80.069012 119.200784 
L 83.55735 119.537803 
L 87.045687 119.801143 
L 90.534025 120.001459 
L 94.022362 120.146781 
L 97.5107 120.243166 
L 100.999037 120.29515 
L 104.487375 120.306066 
L 107.975712 120.278261 
L 111.46405 120.213255 
L 114.952387 120.11184 
L 118.440725 119.974145 
L 121.929062 119.799674 
L 125.4174 119.5873 
L 128.905737 119.335253 
L 132.394075 119.041062 
L 135.882412 118.701475 
L 139.37075 118.312345 
L 142.859087 117.868463 
L 146.347425 117.363336 
L 149.835762 116.788891 
L 153.3241 116.135063 
L 156.812437 115.389246 
L 160.300775 114.535518 
L 163.789112 113.553563 
L 167.27745 112.417125 
L 170.765787 111.091744 
L 174.254125 109.531359 
L 177.742463 107.673067 
L 181.2308 105.428731 
L 184.719137 102.671034 
L 188.207475 99.209127 
L 191.695812 94.743617 
L 195.18415 88.77731 
L 198.672487 80.42228 
L 202.160825 67.939526 
L 205.649162 47.615076 
L 209.1375 24.949635 
" style="fill:none;stroke:#000000;stroke-linecap:square;stroke-width:1.5;"/>
   </g>
   <g id="line2d_14">
    <path clip-path="url(#pe60392374b)" d="M 34.720625 24.949635 
L 38.208963 75.153469 
L 41.6973 92.547445 
L 45.185638 101.323263 
L 48.673975 106.580398 
L 52.162312 110.056753 
L 55.65065 112.506515 
L 59.138988 114.309748 
L 62.627325 115.678657 
L 66.115662 116.740933 
L 69.604 117.577918 
L 73.092337 118.243785 
L 76.580675 118.775921 
L 80.069012 119.200865 
L 83.55735 119.537892 
L 87.045687 119.80124 
L 90.534025 120.001565 
L 94.022362 120.146896 
L 97.5107 120.24329 
L 100.999037 120.295284 
L 104.487375 120.30621 
L 107.975712 120.278417 
L 111.46405 120.213422 
L 114.952387 120.112019 
L 118.440725 119.974338 
L 121.929062 119.79988 
L 125.4174 119.587522 
L 128.905737 119.335491 
L 132.394075 119.041317 
L 135.882412 118.701749 
L 139.37075 118.31264 
L 142.859087 117.86878 
L 146.347425 117.363677 
L 149.835762 116.789259 
L 153.3241 116.135461 
L 156.812437 115.389678 
L 160.300775 114.535987 
L 163.789112 113.554075 
L 167.27745 112.417687 
L 170.765787 111.092363 
L 174.254125 109.532047 
L 177.742463 107.673837 
L 181.2308 105.429602 
L 184.719137 102.672034 
L 188.207475 99.210298 
L 191.695812 94.745034 
L 195.18415 88.779116 
L 198.672487 80.424806 
L 202.160825 67.943795 
L 205.649162 47.62603 
L 209.1375 24.949635 
" style="fill:none;stroke:#ff0000;stroke-dasharray:5.55,2.4;stroke-dashoffset:0;stroke-width:1.5;"/>
   </g>
   <g id="line2d_15">
    <path clip-path="url(#pe60392374b)" d="M 34.720625 24.949635 
L 38.208963 24.949635 
L 41.6973 24.949635 
L 45.185638 24.949635 
L 48.673975 24.949635 
L 52.162312 24.949635 
L 55.65065 24.949635 
L 59.138988 24.949635 
L 62.627325 24.949635 
L 66.115662 24.949635 
L 69.604 24.949635 
L 73.092337 24.949635 
L 76.580675 24.949635 
L 80.069012 24.949635 
L 83.55735 24.949635 
L 87.045687 24.949635 
L 90.534025 24.949635 
L 94.022362 24.949635 
L 97.5107 24.949635 
L 100.999037 24.949635 
L 104.487375 24.949635 
L 107.975712 24.949635 
L 111.46405 24.949635 
L 114.952387 24.949635 
L 118.440725 24.949635 
L 121.929062 24.949635 
L 125.4174 24.949635 
L 128.905737 24.949635 
L 132.394075 24.949635 
L 135.882412 24.949635 
L 139.37075 24.949635 
L 142.859087 24.949635 
L 146.347425 24.949635 
L 149.835762 24.949635 
L 153.3241 24.949635 
L 156.812437 24.949635 
L 160.300775 24.949635 
L 163.789112 24.949635 
L 167.27745 24.949635 
L 170.765787 24.949635 
L 174.254125 24.949635 
L 177.742463 24.949635 
L 181.2308 24.949635 
L 184.719137 24.949635 
L 188.207475 24.949635 
L 191.695812 24.949635 
L 195.18415 24.949635 
L 198.672487 24.949635 
L 202.160825 24.949635 
L 205.649162 24.949635 
L 209.1375 24.949635 
" style="fill:none;stroke:#0000ff;stroke-dasharray:1.5,2.475;stroke-dashoffset:0;stroke-width:1.5;"/>
   </g>
   <g id="patch_3">
    <path d="M 34.720625 131.00875 
L 34.720625 3.737813 
" style="fill:none;stroke:#000000;stroke-linecap:square;stroke-linejoin:miter;stroke-width:0.8;"/>
   </g>
   <g id="patch_4">
    <path d="M 209.1375 131.00875 
L 209.1375 3.737813 
" style="fill:none;stroke:#000000;stroke-linecap:square;stroke-linejoin:miter;stroke-width:0.8;"/>
   </g>
   <g id="patch_5">
    <path d="M 34.720625 131.00875 
L 209.1375 131.00875 
" style="fill:none;stroke:#000000;stroke-linecap:square;stroke-linejoin:miter;stroke-width:0.8;"/>
   </g>
   <g id="patch_6">
    <path d="M 34.720625 3.737813 
L 209.1375 3.737813 
" style="fill:none;stroke:#000000;stroke-linecap:square;stroke-linejoin:miter;stroke-width:0.8;"/>
   </g>
   <g id="legend_1">
    <g id="patch_7">
     <path d="M 72.723752 88.224117 
L 171.134372 88.224117 
Q 172.966972 88.224117 172.966972 86.391517 
L 172.966972 48.355045 
Q 172.966972 46.522445 171.134372 46.522445 
L 72.723752 46.522445 
Q 70.891152 46.522445 70.891152 48.355045 
L 70.891152 86.391517 
Q 70.891152 88.224117 72.723752 88.224117 
z
" style="fill:#ffffff;opacity:0.8;stroke:#cccccc;stroke-linejoin:miter;"/>
    </g>
    <g id="line2d_16">
     <path d="M 74.556352 53.394695 
L 92.882352 53.394695 
" style="fill:none;stroke:#000000;stroke-linecap:square;stroke-width:1.5;"/>
    </g>
    <g id="line2d_17"/>
    <g id="text_15">
     <!-- Present method, $\kappa_1$ -->
     <g transform="translate(100.212752 56.601745)scale(0.09163 -0.09163)">
      <defs>
       <path d="M 102 4237 
L 1760 4237 
Q 2669 4237 3149 3834 
Q 3469 3565 3469 3072 
Q 3469 2560 3104 2234 
Q 2835 1990 2553 1916 
Q 2272 1843 1734 1843 
Q 1549 1843 1293 1862 
L 1293 717 
Q 1293 352 1398 246 
Q 1504 141 1894 122 
L 1894 0 
L 102 0 
L 102 122 
Q 474 147 557 256 
Q 640 365 640 781 
L 640 3526 
Q 640 3885 547 3987 
Q 454 4090 102 4115 
L 102 4237 
z
M 1293 3770 
L 1293 2118 
Q 1510 2099 1683 2099 
Q 2202 2099 2486 2352 
Q 2771 2605 2771 3040 
Q 2771 3558 2476 3779 
Q 2182 4000 1517 4000 
Q 1382 4000 1337 3952 
Q 1293 3904 1293 3770 
z
" id="STIXGeneral-Regular-50" transform="scale(0.015625)"/>
       <path d="M 998 1926 
L 1664 1523 
Q 1984 1331 2105 1164 
Q 2227 998 2227 736 
Q 2227 416 1961 176 
Q 1696 -64 1331 -64 
Q 1030 -64 864 -6 
Q 691 51 570 51 
Q 461 51 416 -26 
L 333 -26 
L 333 979 
L 435 979 
Q 538 512 730 294 
Q 922 77 1248 77 
Q 1485 77 1632 211 
Q 1779 346 1779 550 
Q 1779 845 1440 1030 
L 1094 1222 
Q 326 1651 326 2150 
Q 326 2522 566 2730 
Q 806 2938 1210 2938 
Q 1491 2938 1638 2867 
Q 1754 2816 1818 2816 
Q 1862 2816 1920 2880 
L 1990 2880 
L 2022 2010 
L 1926 2010 
Q 1818 2445 1654 2621 
Q 1491 2797 1203 2797 
Q 986 2797 854 2688 
Q 723 2579 723 2362 
Q 723 2253 796 2128 
Q 870 2003 998 1926 
z
" id="STIXGeneral-Regular-73" transform="scale(0.015625)"/>
       <path d="M 4960 0 
L 3565 0 
L 3565 96 
Q 3834 122 3907 208 
Q 3981 294 3981 576 
L 3981 1894 
Q 3981 2278 3869 2444 
Q 3757 2611 3488 2611 
Q 3264 2611 3107 2521 
Q 2950 2432 2803 2221 
L 2803 608 
Q 2803 301 2896 201 
Q 2989 102 3264 96 
L 3264 0 
L 1830 0 
L 1830 96 
Q 2112 115 2189 188 
Q 2266 262 2266 550 
L 2266 1901 
Q 2266 2611 1850 2611 
Q 1670 2611 1468 2531 
Q 1267 2451 1171 2336 
Q 1088 2240 1088 2227 
L 1088 448 
Q 1088 243 1177 176 
Q 1267 109 1523 96 
L 1523 0 
L 102 0 
L 102 96 
Q 371 102 460 195 
Q 550 288 550 563 
L 550 2150 
Q 550 2387 499 2480 
Q 448 2573 326 2573 
Q 230 2573 122 2547 
L 122 2656 
Q 557 2778 1011 2944 
L 1062 2925 
L 1062 2451 
L 1075 2451 
Q 1363 2752 1584 2848 
Q 1805 2944 2054 2944 
Q 2560 2944 2733 2406 
Q 3232 2944 3776 2944 
Q 4518 2944 4518 1792 
L 4518 493 
Q 4518 282 4582 202 
Q 4646 122 4794 109 
L 4960 96 
L 4960 0 
z
" id="STIXGeneral-Regular-6d" transform="scale(0.015625)"/>
       <path d="M 3142 269 
L 2202 -64 
L 2176 -45 
L 2176 365 
Q 1869 -64 1357 -64 
Q 826 -64 499 317 
Q 173 698 173 1312 
Q 173 1990 563 2467 
Q 954 2944 1504 2944 
Q 1850 2944 2176 2669 
L 2176 3667 
Q 2176 3866 2118 3930 
Q 2061 3994 1882 3994 
Q 1792 3994 1741 3987 
L 1741 4090 
Q 2323 4243 2682 4371 
L 2714 4358 
L 2714 730 
Q 2714 506 2768 435 
Q 2822 365 2995 365 
Q 3034 365 3142 371 
L 3142 269 
z
M 2176 653 
L 2176 2125 
Q 2176 2381 1981 2573 
Q 1786 2765 1523 2765 
Q 1158 2765 940 2438 
Q 723 2112 723 1568 
Q 723 979 963 624 
Q 1203 269 1606 269 
Q 1907 269 2080 474 
Q 2176 582 2176 653 
z
" id="STIXGeneral-Regular-64" transform="scale(0.015625)"/>
       <path d="M 531 -902 
L 467 -781 
Q 998 -422 998 -96 
Q 998 -13 909 -13 
Q 883 -13 822 -25 
Q 762 -38 723 -38 
Q 352 -38 352 288 
Q 352 454 457 553 
Q 563 653 736 653 
Q 954 653 1101 496 
Q 1248 339 1248 96 
Q 1248 -198 1053 -473 
Q 858 -749 531 -902 
z
" id="STIXGeneral-Regular-2c" transform="scale(0.015625)"/>
       <path d="M 979 1440 
L 998 1446 
Q 1850 2541 2464 2790 
Q 2547 2822 2630 2822 
Q 2797 2822 2886 2736 
Q 2976 2650 2976 2522 
Q 2976 2387 2893 2307 
Q 2810 2227 2682 2227 
Q 2605 2227 2502 2288 
Q 2400 2349 2336 2349 
Q 2170 2349 1990 2205 
Q 1811 2061 1414 1645 
L 2042 544 
Q 2202 262 2310 182 
Q 2419 102 2624 102 
L 2624 0 
Q 2374 -83 2182 -83 
Q 1786 -83 1555 326 
L 960 1350 
L 576 0 
L 90 0 
L 640 1978 
Q 730 2317 730 2406 
Q 730 2560 518 2560 
L 339 2560 
L 339 2650 
Q 678 2694 1306 2822 
L 1325 2803 
L 979 1440 
z
" id="STIXGeneral-Italic-3ba" transform="scale(0.015625)"/>
      </defs>
      <use transform="translate(0 0.703125)" xlink:href="#STIXGeneral-Regular-50"/>
      <use transform="translate(55.699997 0.703125)" xlink:href="#STIXGeneral-Regular-72"/>
      <use transform="translate(88.999985 0.703125)" xlink:href="#STIXGeneral-Regular-65"/>
      <use transform="translate(133.399979 0.703125)" xlink:href="#STIXGeneral-Regular-73"/>
      <use transform="translate(172.299973 0.703125)" xlink:href="#STIXGeneral-Regular-65"/>
      <use transform="translate(216.699966 0.703125)" xlink:href="#STIXGeneral-Regular-6e"/>
      <use transform="translate(266.699951 0.703125)" xlink:href="#STIXGeneral-Regular-74"/>
      <use transform="translate(294.499939 0.703125)" xlink:href="#STIXGeneral-Regular-20"/>
      <use transform="translate(319.499924 0.703125)" xlink:href="#STIXGeneral-Regular-6d"/>
      <use transform="translate(397.299911 0.703125)" xlink:href="#STIXGeneral-Regular-65"/>
      <use transform="translate(441.699905 0.703125)" xlink:href="#STIXGeneral-Regular-74"/>
      <use transform="translate(469.499893 0.703125)" xlink:href="#STIXGeneral-Regular-68"/>
      <use transform="translate(519.499878 0.703125)" xlink:href="#STIXGeneral-Regular-6f"/>
      <use transform="translate(569.499863 0.703125)" xlink:href="#STIXGeneral-Regular-64"/>
      <use transform="translate(619.499847 0.703125)" xlink:href="#STIXGeneral-Regular-2c"/>
      <use transform="translate(644.499832 0.703125)" xlink:href="#STIXGeneral-Regular-20"/>
      <use transform="translate(669.499817 0.703125)" xlink:href="#STIXGeneral-Italic-3ba"/>
      <use transform="translate(713.899811 -12.525)scale(0.7)" xlink:href="#STIXGeneral-Regular-31"/>
     </g>
    </g>
    <g id="line2d_18">
     <path d="M 74.556352 66.378953 
L 92.882352 66.378953 
" style="fill:none;stroke:#ff0000;stroke-dasharray:5.55,2.4;stroke-dashoffset:0;stroke-width:1.5;"/>
    </g>
    <g id="line2d_19"/>
    <g id="text_16">
     <!-- Present method, $\kappa_2$ -->
     <g transform="translate(100.212752 69.586003)scale(0.09163 -0.09163)">
      <use transform="translate(0 0.703125)" xlink:href="#STIXGeneral-Regular-50"/>
      <use transform="translate(55.699997 0.703125)" xlink:href="#STIXGeneral-Regular-72"/>
      <use transform="translate(88.999985 0.703125)" xlink:href="#STIXGeneral-Regular-65"/>
      <use transform="translate(133.399979 0.703125)" xlink:href="#STIXGeneral-Regular-73"/>
      <use transform="translate(172.299973 0.703125)" xlink:href="#STIXGeneral-Regular-65"/>
      <use transform="translate(216.699966 0.703125)" xlink:href="#STIXGeneral-Regular-6e"/>
      <use transform="translate(266.699951 0.703125)" xlink:href="#STIXGeneral-Regular-74"/>
      <use transform="translate(294.499939 0.703125)" xlink:href="#STIXGeneral-Regular-20"/>
      <use transform="translate(319.499924 0.703125)" xlink:href="#STIXGeneral-Regular-6d"/>
      <use transform="translate(397.299911 0.703125)" xlink:href="#STIXGeneral-Regular-65"/>
      <use transform="translate(441.699905 0.703125)" xlink:href="#STIXGeneral-Regular-74"/>
      <use transform="translate(469.499893 0.703125)" xlink:href="#STIXGeneral-Regular-68"/>
      <use transform="translate(519.499878 0.703125)" xlink:href="#STIXGeneral-Regular-6f"/>
      <use transform="translate(569.499863 0.703125)" xlink:href="#STIXGeneral-Regular-64"/>
      <use transform="translate(619.499847 0.703125)" xlink:href="#STIXGeneral-Regular-2c"/>
      <use transform="translate(644.499832 0.703125)" xlink:href="#STIXGeneral-Regular-20"/>
      <use transform="translate(669.499817 0.703125)" xlink:href="#STIXGeneral-Italic-3ba"/>
      <use transform="translate(713.899811 -12.525)scale(0.7)" xlink:href="#STIXGeneral-Regular-32"/>
     </g>
    </g>
    <g id="line2d_20">
     <path d="M 74.556352 79.36321 
L 92.882352 79.36321 
" style="fill:none;stroke:#0000ff;stroke-dasharray:1.5,2.475;stroke-dashoffset:0;stroke-width:1.5;"/>
    </g>
    <g id="line2d_21"/>
    <g id="text_17">
     <!-- $\kappa=5/6$ -->
     <g transform="translate(100.212752 82.57026)scale(0.09163 -0.09163)">
      <defs>
       <path d="M 4077 2048 
L 307 2048 
L 307 2470 
L 4077 2470 
L 4077 2048 
z
M 4077 768 
L 307 768 
L 307 1190 
L 4077 1190 
L 4077 768 
z
" id="STIXGeneral-Regular-3d" transform="scale(0.015625)"/>
       <path d="M 2803 4358 
L 2573 3814 
Q 2534 3731 2400 3731 
L 1158 3731 
L 902 3187 
Q 1606 3053 1920 2896 
Q 2234 2739 2502 2368 
Q 2726 2061 2726 1555 
Q 2726 1094 2576 780 
Q 2426 467 2099 224 
Q 1664 -90 1011 -90 
Q 646 -90 422 19 
Q 198 128 198 307 
Q 198 550 486 550 
Q 717 550 960 352 
Q 1210 147 1414 147 
Q 1747 147 2012 480 
Q 2278 813 2278 1229 
Q 2278 1843 1850 2189 
Q 1293 2637 486 2637 
Q 410 2637 410 2688 
L 416 2720 
L 1114 4237 
L 2438 4237 
Q 2547 4237 2608 4269 
Q 2669 4301 2746 4403 
L 2803 4358 
z
" id="STIXGeneral-Regular-35" transform="scale(0.015625)"/>
       <path d="M 1837 4326 
L 378 -90 
L -58 -90 
L 1408 4326 
L 1837 4326 
z
" id="STIXGeneral-Regular-2f" transform="scale(0.015625)"/>
      </defs>
      <use transform="translate(0 0.203125)" xlink:href="#STIXGeneral-Italic-3ba"/>
      <use transform="translate(58.83999 0.203125)" xlink:href="#STIXGeneral-Regular-3d"/>
      <use transform="translate(141.779971 0.203125)" xlink:href="#STIXGeneral-Regular-35"/>
      <use transform="translate(191.779956 0.203125)" xlink:href="#STIXGeneral-Regular-2f"/>
      <use transform="translate(219.579944 0.203125)" xlink:href="#STIXGeneral-Regular-36"/>
     </g>
    </g>
   </g>
  </g>
 </g>
 <defs>
  <clipPath id="pe60392374b">
   <rect height="127.270938" width="174.416875" x="34.720625" y="3.737812"/>
  </clipPath>
 </defs>
</svg>
