<?xml version="1.0" encoding="utf-8" standalone="no"?>
<!DOCTYPE svg PUBLIC "-//W3C//DTD SVG 1.1//EN"
  "http://www.w3.org/Graphics/SVG/1.1/DTD/svg11.dtd">
<svg height="108pt" version="1.1" viewBox="0 0 144 108" width="144pt" xmlns="http://www.w3.org/2000/svg" xmlns:xlink="http://www.w3.org/1999/xlink">
 <metadata>
  <rdf:RDF xmlns:cc="http://creativecommons.org/ns#" xmlns:dc="http://purl.org/dc/elements/1.1/" xmlns:rdf="http://www.w3.org/1999/02/22-rdf-syntax-ns#">
   <cc:Work>
    <dc:type rdf:resource="http://purl.org/dc/dcmitype/StillImage"/>
    <dc:date>2021-07-29T11:23:01.687536</dc:date>
    <dc:format>image/svg+xml</dc:format>
    <dc:creator>
     <cc:Agent>
      <dc:title>Matplotlib v3.4.2, https://matplotlib.org/</dc:title>
     </cc:Agent>
    </dc:creator>
   </cc:Work>
  </rdf:RDF>
 </metadata>
 <defs>
  <style type="text/css">*{stroke-linecap:butt;stroke-linejoin:round;}</style>
 </defs>
 <g id="figure_1">
  <g id="patch_1">
   <path d="M 0 108 
L 144 108 
L 144 0 
L 0 0 
z
" style="fill:#ffffff;"/>
  </g>
  <g id="axes_1">
   <g id="patch_2">
    <path d="M 38.342 77.00875 
L 134.3925 77.00875 
L 134.3925 3.03552 
L 38.342 3.03552 
z
" style="fill:#ffffff;"/>
   </g>
   <g id="matplotlib.axis_1">
    <g id="xtick_1">
     <g id="line2d_1">
      <defs>
       <path d="M 0 0 
L 0 3.5 
" id="m76d473ed2a" style="stroke:#000000;stroke-width:0.8;"/>
      </defs>
      <g>
       <use style="stroke:#000000;stroke-width:0.8;" x="38.342" xlink:href="#m76d473ed2a" y="77.00875"/>
      </g>
     </g>
     <g id="text_1">
      <!-- 0.00 -->
      <g transform="translate(28.717 91.521406)scale(0.11 -0.11)">
       <defs>
        <path d="M 3046 2112 
Q 3046 1683 2963 1302 
Q 2880 922 2717 602 
Q 2554 282 2266 96 
Q 1978 -90 1600 -90 
Q 1210 -90 915 108 
Q 621 307 461 640 
Q 301 973 227 1350 
Q 154 1728 154 2150 
Q 154 2746 301 3222 
Q 448 3699 790 4012 
Q 1133 4326 1626 4326 
Q 2253 4326 2649 3712 
Q 3046 3098 3046 2112 
z
M 2432 2080 
Q 2432 3091 2217 3625 
Q 2003 4160 1587 4160 
Q 1190 4160 979 3622 
Q 768 3085 768 2106 
Q 768 1120 979 598 
Q 1190 77 1600 77 
Q 2003 77 2217 598 
Q 2432 1120 2432 2080 
z
" id="STIXGeneral-Regular-30" transform="scale(0.015625)"/>
        <path d="M 1158 275 
Q 1158 134 1052 32 
Q 947 -70 800 -70 
Q 653 -70 550 32 
Q 448 134 448 281 
Q 448 429 553 534 
Q 659 640 806 640 
Q 947 640 1052 531 
Q 1158 422 1158 275 
z
" id="STIXGeneral-Regular-2e" transform="scale(0.015625)"/>
       </defs>
       <use xlink:href="#STIXGeneral-Regular-30"/>
       <use x="49.999985" xlink:href="#STIXGeneral-Regular-2e"/>
       <use x="74.999969" xlink:href="#STIXGeneral-Regular-30"/>
       <use x="124.999954" xlink:href="#STIXGeneral-Regular-30"/>
      </g>
     </g>
    </g>
    <g id="xtick_2">
     <g id="line2d_2">
      <g>
       <use style="stroke:#000000;stroke-width:0.8;" x="62.354625" xlink:href="#m76d473ed2a" y="77.00875"/>
      </g>
     </g>
     <g id="text_2">
      <!-- 0.05 -->
      <g transform="translate(52.729625 91.521406)scale(0.11 -0.11)">
       <defs>
        <path d="M 2803 4358 
L 2573 3814 
Q 2534 3731 2400 3731 
L 1158 3731 
L 902 3187 
Q 1606 3053 1920 2896 
Q 2234 2739 2502 2368 
Q 2726 2061 2726 1555 
Q 2726 1094 2576 780 
Q 2426 467 2099 224 
Q 1664 -90 1011 -90 
Q 646 -90 422 19 
Q 198 128 198 307 
Q 198 550 486 550 
Q 717 550 960 352 
Q 1210 147 1414 147 
Q 1747 147 2012 480 
Q 2278 813 2278 1229 
Q 2278 1843 1850 2189 
Q 1293 2637 486 2637 
Q 410 2637 410 2688 
L 416 2720 
L 1114 4237 
L 2438 4237 
Q 2547 4237 2608 4269 
Q 2669 4301 2746 4403 
L 2803 4358 
z
" id="STIXGeneral-Regular-35" transform="scale(0.015625)"/>
       </defs>
       <use xlink:href="#STIXGeneral-Regular-30"/>
       <use x="49.999985" xlink:href="#STIXGeneral-Regular-2e"/>
       <use x="74.999969" xlink:href="#STIXGeneral-Regular-30"/>
       <use x="124.999954" xlink:href="#STIXGeneral-Regular-35"/>
      </g>
     </g>
    </g>
    <g id="xtick_3">
     <g id="line2d_3">
      <g>
       <use style="stroke:#000000;stroke-width:0.8;" x="86.36725" xlink:href="#m76d473ed2a" y="77.00875"/>
      </g>
     </g>
     <g id="text_3">
      <!-- 0.10 -->
      <g transform="translate(76.74225 91.521406)scale(0.11 -0.11)">
       <defs>
        <path d="M 2522 0 
L 755 0 
L 755 96 
Q 1107 115 1235 227 
Q 1363 339 1363 608 
L 1363 3482 
Q 1363 3795 1171 3795 
Q 1082 3795 883 3718 
L 710 3654 
L 710 3744 
L 1856 4326 
L 1914 4307 
L 1914 486 
Q 1914 275 2042 185 
Q 2170 96 2522 96 
L 2522 0 
z
" id="STIXGeneral-Regular-31" transform="scale(0.015625)"/>
       </defs>
       <use xlink:href="#STIXGeneral-Regular-30"/>
       <use x="49.999985" xlink:href="#STIXGeneral-Regular-2e"/>
       <use x="74.999969" xlink:href="#STIXGeneral-Regular-31"/>
       <use x="124.999954" xlink:href="#STIXGeneral-Regular-30"/>
      </g>
     </g>
    </g>
    <g id="xtick_4">
     <g id="line2d_4">
      <g>
       <use style="stroke:#000000;stroke-width:0.8;" x="110.379875" xlink:href="#m76d473ed2a" y="77.00875"/>
      </g>
     </g>
     <g id="text_4">
      <!-- 0.15 -->
      <g transform="translate(100.754875 91.521406)scale(0.11 -0.11)">
       <use xlink:href="#STIXGeneral-Regular-30"/>
       <use x="49.999985" xlink:href="#STIXGeneral-Regular-2e"/>
       <use x="74.999969" xlink:href="#STIXGeneral-Regular-31"/>
       <use x="124.999954" xlink:href="#STIXGeneral-Regular-35"/>
      </g>
     </g>
    </g>
    <g id="xtick_5">
     <g id="line2d_5">
      <g>
       <use style="stroke:#000000;stroke-width:0.8;" x="134.3925" xlink:href="#m76d473ed2a" y="77.00875"/>
      </g>
     </g>
     <g id="text_5">
      <!-- 0.20 -->
      <g transform="translate(124.7675 91.521406)scale(0.11 -0.11)">
       <defs>
        <path d="M 3034 877 
L 2688 0 
L 186 0 
L 186 77 
L 1325 1286 
Q 1773 1754 1965 2144 
Q 2157 2534 2157 2950 
Q 2157 3379 1920 3616 
Q 1683 3853 1267 3853 
Q 922 3853 720 3673 
Q 518 3494 326 3021 
L 192 3053 
Q 301 3648 630 3987 
Q 960 4326 1523 4326 
Q 2054 4326 2380 4006 
Q 2707 3686 2707 3200 
Q 2707 2477 1888 1613 
L 832 486 
L 2330 486 
Q 2541 486 2665 569 
Q 2790 653 2944 915 
L 3034 877 
z
" id="STIXGeneral-Regular-32" transform="scale(0.015625)"/>
       </defs>
       <use xlink:href="#STIXGeneral-Regular-30"/>
       <use x="49.999985" xlink:href="#STIXGeneral-Regular-2e"/>
       <use x="74.999969" xlink:href="#STIXGeneral-Regular-32"/>
       <use x="124.999954" xlink:href="#STIXGeneral-Regular-30"/>
      </g>
     </g>
    </g>
    <g id="text_6">
     <!-- $\eta_2$ -->
     <g transform="translate(81.58225 105.421406)scale(0.11 -0.11)">
      <defs>
       <path d="M 947 1459 
L 960 1453 
Q 1811 2822 2374 2822 
Q 2573 2822 2701 2729 
Q 2829 2637 2829 2458 
Q 2829 2304 2765 2054 
L 2208 0 
Q 2016 -698 2016 -1094 
Q 2016 -1190 2067 -1312 
L 1600 -1312 
Q 1530 -1229 1530 -1030 
Q 1530 -710 1741 58 
L 2221 1811 
Q 2310 2112 2310 2272 
Q 2310 2496 2150 2496 
Q 1894 2496 1427 1897 
Q 960 1299 774 678 
L 570 0 
L 90 0 
L 614 1952 
Q 704 2272 704 2349 
Q 704 2458 614 2458 
Q 589 2458 560 2445 
Q 531 2432 499 2403 
Q 467 2374 438 2348 
Q 410 2323 374 2281 
Q 339 2240 316 2211 
Q 294 2182 259 2140 
Q 224 2099 211 2086 
L 134 2150 
Q 218 2291 320 2413 
Q 634 2803 941 2803 
Q 1197 2803 1197 2515 
Q 1197 2253 947 1459 
z
" id="STIXGeneral-Italic-3b7" transform="scale(0.015625)"/>
      </defs>
      <use transform="translate(0 0.90625)" xlink:href="#STIXGeneral-Italic-3b7"/>
      <use transform="translate(47.399994 -12.321875)scale(0.7)" xlink:href="#STIXGeneral-Regular-32"/>
     </g>
    </g>
   </g>
   <g id="matplotlib.axis_2">
    <g id="ytick_1">
     <g id="line2d_6">
      <defs>
       <path d="M 0 0 
L -3.5 0 
" id="mcd9921a534" style="stroke:#000000;stroke-width:0.8;"/>
      </defs>
      <g>
       <use style="stroke:#000000;stroke-width:0.8;" x="38.342" xlink:href="#mcd9921a534" y="55.245056"/>
      </g>
     </g>
     <g id="text_7">
      <!-- 200 -->
      <g transform="translate(14.842 59.001384)scale(0.11 -0.11)">
       <use xlink:href="#STIXGeneral-Regular-32"/>
       <use x="49.999985" xlink:href="#STIXGeneral-Regular-30"/>
       <use x="99.999969" xlink:href="#STIXGeneral-Regular-30"/>
      </g>
     </g>
    </g>
    <g id="ytick_2">
     <g id="line2d_7">
      <g>
       <use style="stroke:#000000;stroke-width:0.8;" x="38.342" xlink:href="#mcd9921a534" y="29.452643"/>
      </g>
     </g>
     <g id="text_8">
      <!-- 300 -->
      <g transform="translate(14.842 33.208971)scale(0.11 -0.11)">
       <defs>
        <path d="M 390 3264 
L 288 3290 
Q 435 3770 748 4048 
Q 1062 4326 1542 4326 
Q 1990 4326 2265 4083 
Q 2541 3840 2541 3450 
Q 2541 2925 1946 2566 
Q 2298 2413 2477 2227 
Q 2758 1914 2758 1402 
Q 2758 890 2464 506 
Q 2246 211 1840 60 
Q 1434 -90 979 -90 
Q 262 -90 262 275 
Q 262 378 339 442 
Q 416 506 525 506 
Q 685 506 915 339 
Q 1197 141 1466 141 
Q 1818 141 2058 425 
Q 2298 710 2298 1120 
Q 2298 1856 1632 2048 
Q 1434 2112 979 2112 
L 979 2202 
Q 1338 2323 1517 2432 
Q 2035 2726 2035 3290 
Q 2035 3610 1852 3776 
Q 1670 3942 1344 3942 
Q 768 3942 390 3264 
z
" id="STIXGeneral-Regular-33" transform="scale(0.015625)"/>
       </defs>
       <use xlink:href="#STIXGeneral-Regular-33"/>
       <use x="49.999985" xlink:href="#STIXGeneral-Regular-30"/>
       <use x="99.999969" xlink:href="#STIXGeneral-Regular-30"/>
      </g>
     </g>
    </g>
    <g id="ytick_3">
     <g id="line2d_8">
      <g>
       <use style="stroke:#000000;stroke-width:0.8;" x="38.342" xlink:href="#mcd9921a534" y="3.66023"/>
      </g>
     </g>
     <g id="text_9">
      <!-- 400 -->
      <g transform="translate(14.842 7.416558)scale(0.11 -0.11)">
       <defs>
        <path d="M 3027 1069 
L 2368 1069 
L 2368 0 
L 1869 0 
L 1869 1069 
L 77 1069 
L 77 1478 
L 2086 4326 
L 2368 4326 
L 2368 1478 
L 3027 1478 
L 3027 1069 
z
M 1869 1478 
L 1869 3674 
L 333 1478 
L 1869 1478 
z
" id="STIXGeneral-Regular-34" transform="scale(0.015625)"/>
       </defs>
       <use xlink:href="#STIXGeneral-Regular-34"/>
       <use x="49.999985" xlink:href="#STIXGeneral-Regular-30"/>
       <use x="99.999969" xlink:href="#STIXGeneral-Regular-30"/>
      </g>
     </g>
    </g>
    <g id="text_10">
     <!-- $\lambda_{cr}$ -->
     <g transform="translate(8.454656 46.017135)rotate(-90)scale(0.11 -0.11)">
      <defs>
       <path d="M 2656 787 
L 2758 787 
Q 2560 -102 2112 -102 
Q 1965 -102 1869 48 
Q 1773 198 1773 499 
Q 1773 672 1789 889 
Q 1805 1107 1833 1446 
Q 1862 1786 1875 2016 
L 538 0 
L -77 0 
L 1907 2739 
Q 1933 2970 1933 3245 
Q 1933 3936 1619 3936 
Q 1530 3936 1408 3821 
Q 1286 3706 1203 3462 
L 1101 3462 
Q 1312 4339 1747 4339 
Q 1926 4339 2041 4115 
Q 2157 3891 2157 3475 
Q 2157 3040 2093 2192 
Q 2029 1344 2029 941 
Q 2029 602 2089 451 
Q 2150 301 2291 301 
Q 2483 301 2656 787 
z
" id="STIXGeneral-Italic-3bb" transform="scale(0.015625)"/>
       <path d="M 2240 685 
L 2342 621 
Q 2048 250 1769 90 
Q 1491 -70 1133 -70 
Q 678 -70 435 179 
Q 192 429 192 915 
Q 192 1344 409 1744 
Q 627 2144 979 2432 
Q 1472 2822 2048 2822 
Q 2342 2822 2531 2675 
Q 2720 2528 2720 2304 
Q 2720 2176 2630 2086 
Q 2541 1997 2413 1997 
Q 2285 1997 2224 2070 
Q 2163 2144 2163 2253 
Q 2163 2310 2211 2403 
Q 2259 2496 2259 2560 
Q 2259 2688 2022 2688 
Q 1619 2688 1325 2381 
Q 742 1766 742 890 
Q 742 544 889 352 
Q 1037 160 1312 160 
Q 1562 160 1766 281 
Q 1971 403 2240 685 
z
" id="STIXGeneral-Italic-63" transform="scale(0.015625)"/>
       <path d="M 1126 1427 
L 1229 1651 
Q 1446 2131 1830 2534 
Q 2106 2822 2336 2822 
Q 2470 2822 2553 2732 
Q 2637 2643 2637 2496 
Q 2637 2349 2557 2249 
Q 2477 2150 2336 2150 
Q 2214 2150 2112 2317 
Q 2061 2406 2010 2406 
Q 1837 2406 1485 1805 
Q 1267 1434 1136 1104 
Q 1005 774 774 0 
L 288 0 
L 806 1869 
Q 909 2246 909 2394 
Q 909 2560 666 2560 
Q 614 2560 467 2541 
L 467 2650 
L 1459 2822 
L 1478 2810 
L 1126 1427 
z
" id="STIXGeneral-Italic-72" transform="scale(0.015625)"/>
      </defs>
      <use transform="translate(0 0.203125)" xlink:href="#STIXGeneral-Italic-3bb"/>
      <use transform="translate(45.799988 -13.025)scale(0.7)" xlink:href="#STIXGeneral-Italic-63"/>
      <use transform="translate(76.879984 -13.025)scale(0.7)" xlink:href="#STIXGeneral-Italic-72"/>
     </g>
    </g>
   </g>
   <g id="line2d_9">
    <path clip-path="url(#pcc8e0d19c6)" d="M 43.144525 73.64633 
L 47.94705 57.166773 
L 52.749575 46.637267 
L 57.5521 39.29265 
L 62.354625 33.841103 
L 67.15715 29.61232 
L 71.959675 26.187826 
L 76.7622 23.364786 
L 81.564725 20.97387 
L 86.36725 18.89114 
L 91.169775 17.077611 
L 95.9723 15.457525 
L 100.774825 13.982521 
L 105.57735 12.6526 
L 110.379875 11.43552 
L 115.1824 10.299042 
L 119.984925 9.243165 
L 124.78745 8.235649 
L 129.589975 7.292614 
L 134.3925 6.39794 
" style="fill:none;stroke:#000000;stroke-linecap:square;stroke-width:1.5;"/>
   </g>
   <g id="patch_3">
    <path d="M 38.342 77.00875 
L 38.342 3.03552 
" style="fill:none;stroke:#000000;stroke-linecap:square;stroke-linejoin:miter;stroke-width:0.8;"/>
   </g>
   <g id="patch_4">
    <path d="M 134.3925 77.00875 
L 134.3925 3.03552 
" style="fill:none;stroke:#000000;stroke-linecap:square;stroke-linejoin:miter;stroke-width:0.8;"/>
   </g>
   <g id="patch_5">
    <path d="M 38.342 77.00875 
L 134.3925 77.00875 
" style="fill:none;stroke:#000000;stroke-linecap:square;stroke-linejoin:miter;stroke-width:0.8;"/>
   </g>
   <g id="patch_6">
    <path d="M 38.342 3.03552 
L 134.3925 3.03552 
" style="fill:none;stroke:#000000;stroke-linecap:square;stroke-linejoin:miter;stroke-width:0.8;"/>
   </g>
  </g>
 </g>
 <defs>
  <clipPath id="pcc8e0d19c6">
   <rect height="73.97323" width="96.0505" x="38.342" y="3.03552"/>
  </clipPath>
 </defs>
</svg>
