<?xml version="1.0" encoding="utf-8" standalone="no"?>
<!DOCTYPE svg PUBLIC "-//W3C//DTD SVG 1.1//EN"
  "http://www.w3.org/Graphics/SVG/1.1/DTD/svg11.dtd">
<svg xmlns:xlink="http://www.w3.org/1999/xlink" width="216pt" height="162pt" viewBox="0 0 216 162" xmlns="http://www.w3.org/2000/svg" version="1.1">
 <metadata>
  <rdf:RDF xmlns:dc="http://purl.org/dc/elements/1.1/" xmlns:cc="http://creativecommons.org/ns#" xmlns:rdf="http://www.w3.org/1999/02/22-rdf-syntax-ns#">
   <cc:Work>
    <dc:type rdf:resource="http://purl.org/dc/dcmitype/StillImage"/>
    <dc:date>2022-10-17T14:59:03.308732</dc:date>
    <dc:format>image/svg+xml</dc:format>
    <dc:creator>
     <cc:Agent>
      <dc:title>Matplotlib v3.5.2, https://matplotlib.org/</dc:title>
     </cc:Agent>
    </dc:creator>
   </cc:Work>
  </rdf:RDF>
 </metadata>
 <defs>
  <style type="text/css">*{stroke-linejoin: round; stroke-linecap: butt}</style>
 </defs>
 <g id="figure_1">
  <g id="patch_1">
   <path d="M 0 162 
L 216 162 
L 216 0 
L 0 0 
z
" style="fill: #ffffff"/>
  </g>
  <g id="axes_1">
   <g id="patch_2">
    <path d="M 42.69125 125.1745 
L 207.991811 125.1745 
L 207.991811 3.740625 
L 42.69125 3.740625 
z
" style="fill: #ffffff"/>
   </g>
   <g id="matplotlib.axis_1">
    <g id="xtick_1">
     <g id="line2d_1">
      <defs>
       <path id="m75e5962289" d="M 0 0 
L 0 3.5 
" style="stroke: #000000; stroke-width: 0.8"/>
      </defs>
      <g>
       <use xlink:href="#m75e5962289" x="42.69125" y="125.1745" style="stroke: #000000; stroke-width: 0.8"/>
      </g>
     </g>
     <g id="text_1">
      <!-- $\mathdefault{10^{2}}$ -->
      <g transform="translate(34.88125 139.687156)scale(0.11 -0.11)">
       <defs>
        <path id="STIXGeneral-Regular-31" d="M 2522 0 
L 755 0 
L 755 96 
Q 1107 115 1235 227 
Q 1363 339 1363 608 
L 1363 3482 
Q 1363 3795 1171 3795 
Q 1082 3795 883 3718 
L 710 3654 
L 710 3744 
L 1856 4326 
L 1914 4307 
L 1914 486 
Q 1914 275 2042 185 
Q 2170 96 2522 96 
L 2522 0 
z
" transform="scale(0.015625)"/>
        <path id="STIXGeneral-Regular-30" d="M 3046 2112 
Q 3046 1683 2963 1302 
Q 2880 922 2717 602 
Q 2554 282 2266 96 
Q 1978 -90 1600 -90 
Q 1210 -90 915 108 
Q 621 307 461 640 
Q 301 973 227 1350 
Q 154 1728 154 2150 
Q 154 2746 301 3222 
Q 448 3699 790 4012 
Q 1133 4326 1626 4326 
Q 2253 4326 2649 3712 
Q 3046 3098 3046 2112 
z
M 2432 2080 
Q 2432 3091 2217 3625 
Q 2003 4160 1587 4160 
Q 1190 4160 979 3622 
Q 768 3085 768 2106 
Q 768 1120 979 598 
Q 1190 77 1600 77 
Q 2003 77 2217 598 
Q 2432 1120 2432 2080 
z
" transform="scale(0.015625)"/>
        <path id="STIXGeneral-Regular-32" d="M 3034 877 
L 2688 0 
L 186 0 
L 186 77 
L 1325 1286 
Q 1773 1754 1965 2144 
Q 2157 2534 2157 2950 
Q 2157 3379 1920 3616 
Q 1683 3853 1267 3853 
Q 922 3853 720 3673 
Q 518 3494 326 3021 
L 192 3053 
Q 301 3648 630 3987 
Q 960 4326 1523 4326 
Q 2054 4326 2380 4006 
Q 2707 3686 2707 3200 
Q 2707 2477 1888 1613 
L 832 486 
L 2330 486 
Q 2541 486 2665 569 
Q 2790 653 2944 915 
L 3034 877 
z
" transform="scale(0.015625)"/>
       </defs>
       <use xlink:href="#STIXGeneral-Regular-31" transform="translate(0 0.684375)"/>
       <use xlink:href="#STIXGeneral-Regular-30" transform="translate(49.999985 0.684375)"/>
       <use xlink:href="#STIXGeneral-Regular-32" transform="translate(101.574969 36.684375)scale(0.7)"/>
      </g>
     </g>
    </g>
    <g id="xtick_2">
     <g id="line2d_2">
      <g>
       <use xlink:href="#m75e5962289" x="97.791437" y="125.1745" style="stroke: #000000; stroke-width: 0.8"/>
      </g>
     </g>
     <g id="text_2">
      <!-- $\mathdefault{10^{4}}$ -->
      <g transform="translate(89.981437 139.687156)scale(0.11 -0.11)">
       <defs>
        <path id="STIXGeneral-Regular-34" d="M 3027 1069 
L 2368 1069 
L 2368 0 
L 1869 0 
L 1869 1069 
L 77 1069 
L 77 1478 
L 2086 4326 
L 2368 4326 
L 2368 1478 
L 3027 1478 
L 3027 1069 
z
M 1869 1478 
L 1869 3674 
L 333 1478 
L 1869 1478 
z
" transform="scale(0.015625)"/>
       </defs>
       <use xlink:href="#STIXGeneral-Regular-31" transform="translate(0 0.684375)"/>
       <use xlink:href="#STIXGeneral-Regular-30" transform="translate(49.999985 0.684375)"/>
       <use xlink:href="#STIXGeneral-Regular-34" transform="translate(101.574969 36.684375)scale(0.7)"/>
      </g>
     </g>
    </g>
    <g id="xtick_3">
     <g id="line2d_3">
      <g>
       <use xlink:href="#m75e5962289" x="152.891624" y="125.1745" style="stroke: #000000; stroke-width: 0.8"/>
      </g>
     </g>
     <g id="text_3">
      <!-- $\mathdefault{10^{6}}$ -->
      <g transform="translate(145.081624 139.687156)scale(0.11 -0.11)">
       <defs>
        <path id="STIXGeneral-Regular-36" d="M 2854 4378 
L 2867 4275 
Q 2112 4154 1606 3664 
Q 1101 3174 973 2451 
Q 1344 2739 1786 2739 
Q 2349 2739 2672 2380 
Q 2995 2022 2995 1402 
Q 2995 774 2669 378 
Q 2291 -90 1651 -90 
Q 870 -90 518 557 
Q 218 1107 218 1786 
Q 218 2835 915 3552 
Q 1312 3962 1731 4131 
Q 2150 4301 2854 4378 
z
M 2419 1203 
Q 2419 2445 1555 2445 
Q 1235 2445 1024 2275 
Q 813 2106 813 1702 
Q 813 954 1046 522 
Q 1280 90 1722 90 
Q 2061 90 2240 394 
Q 2419 698 2419 1203 
z
" transform="scale(0.015625)"/>
       </defs>
       <use xlink:href="#STIXGeneral-Regular-31" transform="translate(0 0.115625)"/>
       <use xlink:href="#STIXGeneral-Regular-30" transform="translate(49.999985 0.115625)"/>
       <use xlink:href="#STIXGeneral-Regular-36" transform="translate(101.574969 36.115625)scale(0.7)"/>
      </g>
     </g>
    </g>
    <g id="xtick_4">
     <g id="line2d_4">
      <g>
       <use xlink:href="#m75e5962289" x="207.991811" y="125.1745" style="stroke: #000000; stroke-width: 0.8"/>
      </g>
     </g>
     <g id="text_4">
      <!-- $\mathdefault{10^{8}}$ -->
      <g transform="translate(200.181811 139.687156)scale(0.11 -0.11)">
       <defs>
        <path id="STIXGeneral-Regular-38" d="M 2848 992 
Q 2848 499 2505 204 
Q 2163 -90 1587 -90 
Q 1050 -90 704 204 
Q 358 499 358 954 
Q 358 1293 524 1533 
Q 691 1773 1190 2125 
Q 710 2522 553 2765 
Q 397 3008 397 3328 
Q 397 3782 745 4054 
Q 1094 4326 1638 4326 
Q 2106 4326 2410 4060 
Q 2714 3795 2714 3411 
Q 2714 3059 2531 2848 
Q 2349 2637 1856 2374 
Q 2432 1990 2640 1689 
Q 2848 1389 2848 992 
z
M 2272 3411 
Q 2272 3744 2086 3945 
Q 1901 4147 1574 4147 
Q 1248 4147 1059 3977 
Q 870 3808 870 3513 
Q 870 3219 1059 2979 
Q 1248 2739 1670 2490 
Q 1997 2682 2134 2896 
Q 2272 3110 2272 3411 
z
M 1734 1741 
L 1357 1997 
Q 1075 1766 960 1545 
Q 845 1325 845 1011 
Q 845 576 1065 333 
Q 1286 90 1658 90 
Q 1971 90 2166 285 
Q 2362 480 2362 794 
Q 2362 1082 2214 1299 
Q 2067 1517 1734 1741 
z
" transform="scale(0.015625)"/>
       </defs>
       <use xlink:href="#STIXGeneral-Regular-31" transform="translate(0 0.684375)"/>
       <use xlink:href="#STIXGeneral-Regular-30" transform="translate(49.999985 0.684375)"/>
       <use xlink:href="#STIXGeneral-Regular-38" transform="translate(101.574969 36.684375)scale(0.7)"/>
      </g>
     </g>
    </g>
    <g id="text_5">
     <!-- $k_5\ \mathrm{(N/rad)}$ -->
     <g transform="translate(103.17653 153.587156)scale(0.11 -0.11)">
      <defs>
       <path id="STIXGeneral-Italic-6b" d="M 2950 2739 
L 2950 2637 
Q 2720 2624 2464 2448 
Q 2208 2272 1510 1651 
L 1747 1088 
Q 2099 262 2266 262 
Q 2400 262 2554 531 
Q 2586 582 2650 698 
L 2746 627 
Q 2522 224 2374 77 
Q 2227 -70 2035 -70 
Q 1894 -70 1782 42 
Q 1670 154 1517 454 
Q 1325 826 1133 1357 
L 877 1152 
L 570 0 
L 90 0 
L 992 3379 
Q 1082 3699 1107 3942 
Q 1088 4096 781 4096 
L 666 4096 
L 666 4198 
Q 1146 4256 1670 4371 
L 1709 4333 
L 941 1414 
L 1216 1626 
Q 2131 2330 2131 2522 
Q 2131 2637 1894 2637 
L 1805 2637 
L 1805 2739 
L 2950 2739 
z
" transform="scale(0.015625)"/>
       <path id="STIXGeneral-Regular-35" d="M 2803 4358 
L 2573 3814 
Q 2534 3731 2400 3731 
L 1158 3731 
L 902 3187 
Q 1606 3053 1920 2896 
Q 2234 2739 2502 2368 
Q 2726 2061 2726 1555 
Q 2726 1094 2576 780 
Q 2426 467 2099 224 
Q 1664 -90 1011 -90 
Q 646 -90 422 19 
Q 198 128 198 307 
Q 198 550 486 550 
Q 717 550 960 352 
Q 1210 147 1414 147 
Q 1747 147 2012 480 
Q 2278 813 2278 1229 
Q 2278 1843 1850 2189 
Q 1293 2637 486 2637 
Q 410 2637 410 2688 
L 416 2720 
L 1114 4237 
L 2438 4237 
Q 2547 4237 2608 4269 
Q 2669 4301 2746 4403 
L 2803 4358 
z
" transform="scale(0.015625)"/>
       <path id="STIXGeneral-Regular-28" d="M 1946 -1030 
L 1869 -1133 
Q 1126 -710 716 32 
Q 307 774 307 1613 
Q 307 3386 1888 4326 
L 1946 4224 
Q 1293 3667 1075 3126 
Q 858 2586 858 1632 
Q 858 685 1082 96 
Q 1306 -493 1946 -1030 
z
" transform="scale(0.015625)"/>
       <path id="STIXGeneral-Regular-4e" d="M 4525 4237 
L 4525 4115 
Q 4198 4083 4102 4000 
Q 4000 3910 3958 3756 
Q 3917 3603 3917 3245 
L 3917 -70 
L 3802 -70 
L 979 3443 
L 979 960 
Q 979 474 1088 323 
Q 1197 173 1574 122 
L 1574 0 
L 77 0 
L 77 122 
Q 474 166 586 310 
Q 698 454 698 960 
L 698 3776 
Q 531 3981 416 4048 
Q 301 4115 77 4115 
L 77 4237 
L 1165 4237 
L 3635 1146 
L 3635 3322 
Q 3635 3808 3514 3949 
Q 3437 4032 3344 4061 
Q 3251 4090 3008 4115 
L 3008 4237 
L 4525 4237 
z
" transform="scale(0.015625)"/>
       <path id="STIXGeneral-Regular-2f" d="M 1837 4326 
L 378 -90 
L -58 -90 
L 1408 4326 
L 1837 4326 
z
" transform="scale(0.015625)"/>
       <path id="STIXGeneral-Regular-72" d="M 1024 2931 
L 1024 2342 
Q 1267 2688 1430 2816 
Q 1594 2944 1792 2944 
Q 1958 2944 2051 2854 
Q 2144 2765 2144 2605 
Q 2144 2470 2077 2393 
Q 2010 2317 1894 2317 
Q 1773 2317 1638 2445 
Q 1536 2541 1472 2541 
Q 1338 2541 1181 2355 
Q 1024 2170 1024 2016 
L 1024 576 
Q 1024 301 1133 205 
Q 1242 109 1568 96 
L 1568 0 
L 32 0 
L 32 96 
Q 339 154 412 224 
Q 486 294 486 538 
L 486 2138 
Q 486 2349 438 2435 
Q 390 2522 269 2522 
Q 166 2522 45 2496 
L 45 2598 
Q 448 2726 992 2944 
L 1024 2931 
z
" transform="scale(0.015625)"/>
       <path id="STIXGeneral-Regular-61" d="M 2829 422 
L 2829 243 
Q 2586 -64 2253 -64 
Q 1888 -64 1843 403 
L 1837 403 
Q 1427 -64 909 -64 
Q 608 -64 422 112 
Q 237 288 237 602 
Q 237 1050 685 1350 
Q 992 1555 1837 1869 
L 1837 2214 
Q 1837 2502 1699 2646 
Q 1562 2790 1338 2790 
Q 1146 2790 1018 2697 
Q 890 2605 890 2477 
Q 890 2419 909 2348 
Q 928 2278 928 2208 
Q 928 2112 841 2029 
Q 755 1946 634 1946 
Q 525 1946 441 2029 
Q 358 2112 358 2240 
Q 358 2547 685 2752 
Q 986 2944 1421 2944 
Q 1939 2944 2176 2656 
Q 2291 2522 2323 2384 
Q 2355 2246 2355 1946 
L 2355 723 
Q 2355 301 2554 301 
Q 2682 301 2829 422 
z
M 1837 813 
L 1837 1715 
Q 1248 1510 1018 1293 
Q 800 1094 800 800 
Q 800 557 921 432 
Q 1043 307 1242 307 
Q 1453 307 1613 410 
Q 1747 506 1792 589 
Q 1837 672 1837 813 
z
" transform="scale(0.015625)"/>
       <path id="STIXGeneral-Regular-64" d="M 3142 269 
L 2202 -64 
L 2176 -45 
L 2176 365 
Q 1869 -64 1357 -64 
Q 826 -64 499 317 
Q 173 698 173 1312 
Q 173 1990 563 2467 
Q 954 2944 1504 2944 
Q 1850 2944 2176 2669 
L 2176 3667 
Q 2176 3866 2118 3930 
Q 2061 3994 1882 3994 
Q 1792 3994 1741 3987 
L 1741 4090 
Q 2323 4243 2682 4371 
L 2714 4358 
L 2714 730 
Q 2714 506 2768 435 
Q 2822 365 2995 365 
Q 3034 365 3142 371 
L 3142 269 
z
M 2176 653 
L 2176 2125 
Q 2176 2381 1981 2573 
Q 1786 2765 1523 2765 
Q 1158 2765 940 2438 
Q 723 2112 723 1568 
Q 723 979 963 624 
Q 1203 269 1606 269 
Q 1907 269 2080 474 
Q 2176 582 2176 653 
z
" transform="scale(0.015625)"/>
       <path id="STIXGeneral-Regular-29" d="M 186 4224 
L 262 4326 
Q 992 3891 1408 3148 
Q 1824 2406 1824 1581 
Q 1824 -166 243 -1133 
L 186 -1030 
Q 845 -486 1059 54 
Q 1274 595 1274 1562 
Q 1274 2534 1059 3120 
Q 845 3706 186 4224 
z
" transform="scale(0.015625)"/>
      </defs>
      <use xlink:href="#STIXGeneral-Italic-6b" transform="translate(0 0.703125)"/>
      <use xlink:href="#STIXGeneral-Regular-35" transform="translate(44.399994 -12.525)scale(0.7)"/>
      <use xlink:href="#STIXGeneral-Regular-28" transform="translate(107.875778 0.703125)"/>
      <use xlink:href="#STIXGeneral-Regular-4e" transform="translate(141.175766 0.703125)"/>
      <use xlink:href="#STIXGeneral-Regular-2f" transform="translate(213.375748 0.703125)"/>
      <use xlink:href="#STIXGeneral-Regular-72" transform="translate(241.175735 0.703125)"/>
      <use xlink:href="#STIXGeneral-Regular-61" transform="translate(274.475723 0.703125)"/>
      <use xlink:href="#STIXGeneral-Regular-64" transform="translate(318.875717 0.703125)"/>
      <use xlink:href="#STIXGeneral-Regular-29" transform="translate(368.875702 0.703125)"/>
     </g>
    </g>
   </g>
   <g id="matplotlib.axis_2">
    <g id="ytick_1">
     <g id="line2d_5">
      <defs>
       <path id="mdc2df073ec" d="M 0 0 
L -3.5 0 
" style="stroke: #000000; stroke-width: 0.8"/>
      </defs>
      <g>
       <use xlink:href="#mdc2df073ec" x="42.69125" y="125.1745" style="stroke: #000000; stroke-width: 0.8"/>
      </g>
     </g>
     <g id="text_6">
      <!-- 0 -->
      <g transform="translate(30.19125 128.930828)scale(0.11 -0.11)">
       <use xlink:href="#STIXGeneral-Regular-30"/>
      </g>
     </g>
    </g>
    <g id="ytick_2">
     <g id="line2d_6">
      <g>
       <use xlink:href="#mdc2df073ec" x="42.69125" y="84.696542" style="stroke: #000000; stroke-width: 0.8"/>
      </g>
     </g>
     <g id="text_7">
      <!-- 1000 -->
      <g transform="translate(13.69125 88.45287)scale(0.11 -0.11)">
       <use xlink:href="#STIXGeneral-Regular-31"/>
       <use xlink:href="#STIXGeneral-Regular-30" x="49.999985"/>
       <use xlink:href="#STIXGeneral-Regular-30" x="99.999969"/>
       <use xlink:href="#STIXGeneral-Regular-30" x="149.999954"/>
      </g>
     </g>
    </g>
    <g id="ytick_3">
     <g id="line2d_7">
      <g>
       <use xlink:href="#mdc2df073ec" x="42.69125" y="44.218583" style="stroke: #000000; stroke-width: 0.8"/>
      </g>
     </g>
     <g id="text_8">
      <!-- 2000 -->
      <g transform="translate(13.69125 47.974911)scale(0.11 -0.11)">
       <use xlink:href="#STIXGeneral-Regular-32"/>
       <use xlink:href="#STIXGeneral-Regular-30" x="49.999985"/>
       <use xlink:href="#STIXGeneral-Regular-30" x="99.999969"/>
       <use xlink:href="#STIXGeneral-Regular-30" x="149.999954"/>
      </g>
     </g>
    </g>
    <g id="ytick_4">
     <g id="line2d_8">
      <g>
       <use xlink:href="#mdc2df073ec" x="42.69125" y="3.740625" style="stroke: #000000; stroke-width: 0.8"/>
      </g>
     </g>
     <g id="text_9">
      <!-- 3000 -->
      <g transform="translate(13.69125 7.496953)scale(0.11 -0.11)">
       <defs>
        <path id="STIXGeneral-Regular-33" d="M 390 3264 
L 288 3290 
Q 435 3770 748 4048 
Q 1062 4326 1542 4326 
Q 1990 4326 2265 4083 
Q 2541 3840 2541 3450 
Q 2541 2925 1946 2566 
Q 2298 2413 2477 2227 
Q 2758 1914 2758 1402 
Q 2758 890 2464 506 
Q 2246 211 1840 60 
Q 1434 -90 979 -90 
Q 262 -90 262 275 
Q 262 378 339 442 
Q 416 506 525 506 
Q 685 506 915 339 
Q 1197 141 1466 141 
Q 1818 141 2058 425 
Q 2298 710 2298 1120 
Q 2298 1856 1632 2048 
Q 1434 2112 979 2112 
L 979 2202 
Q 1338 2323 1517 2432 
Q 2035 2726 2035 3290 
Q 2035 3610 1852 3776 
Q 1670 3942 1344 3942 
Q 768 3942 390 3264 
z
" transform="scale(0.015625)"/>
       </defs>
       <use xlink:href="#STIXGeneral-Regular-33"/>
       <use xlink:href="#STIXGeneral-Regular-30" x="49.999985"/>
       <use xlink:href="#STIXGeneral-Regular-30" x="99.999969"/>
       <use xlink:href="#STIXGeneral-Regular-30" x="149.999954"/>
      </g>
     </g>
    </g>
    <g id="text_10">
     <!-- Frequency (Hz) -->
     <g transform="translate(7.293594 99.12475)rotate(-90)scale(0.11 -0.11)">
      <defs>
       <path id="STIXGeneral-Regular-46" d="M 3494 3322 
L 3334 3322 
Q 3264 3757 3094 3875 
Q 2925 3994 2349 3994 
L 1504 3994 
Q 1370 3994 1328 3946 
Q 1286 3898 1286 3744 
L 1286 2355 
L 2195 2355 
Q 2598 2355 2736 2470 
Q 2874 2586 2918 2963 
L 3066 2963 
L 3066 1472 
L 2918 1472 
Q 2880 1862 2745 1977 
Q 2611 2093 2195 2093 
L 1286 2093 
L 1286 717 
Q 1286 352 1392 246 
Q 1498 141 1869 122 
L 1869 0 
L 70 0 
L 70 122 
Q 435 147 534 259 
Q 634 371 634 787 
L 634 3526 
Q 634 3878 538 3984 
Q 442 4090 77 4115 
L 77 4237 
L 3462 4237 
L 3494 3322 
z
" transform="scale(0.015625)"/>
       <path id="STIXGeneral-Regular-65" d="M 2611 1050 
L 2714 1005 
Q 2330 -64 1376 -64 
Q 813 -64 486 329 
Q 160 723 160 1389 
Q 160 2074 525 2509 
Q 890 2944 1485 2944 
Q 2061 2944 2374 2502 
Q 2560 2246 2592 1773 
L 621 1773 
Q 646 1370 700 1158 
Q 755 947 915 730 
Q 1184 378 1626 378 
Q 1939 378 2153 531 
Q 2368 685 2611 1050 
z
M 634 1978 
L 1939 1978 
Q 1882 2381 1750 2547 
Q 1619 2714 1312 2714 
Q 1043 2714 864 2525 
Q 685 2336 634 1978 
z
" transform="scale(0.015625)"/>
       <path id="STIXGeneral-Regular-71" d="M 3123 -1389 
L 1613 -1389 
L 1613 -1280 
Q 1952 -1254 2067 -1158 
Q 2182 -1062 2182 -794 
L 2182 410 
Q 1747 -64 1178 -64 
Q 730 -64 442 320 
Q 154 704 154 1312 
Q 154 2003 560 2473 
Q 966 2944 1562 2944 
Q 1920 2944 2304 2720 
L 2650 2925 
L 2720 2925 
L 2720 -902 
Q 2720 -1107 2797 -1180 
Q 2874 -1254 3123 -1280 
L 3123 -1389 
z
M 2182 813 
L 2182 2131 
Q 2182 2758 1587 2758 
Q 1178 2758 941 2432 
Q 704 2106 704 1542 
Q 704 1210 803 925 
Q 902 640 1062 499 
Q 1254 326 1542 326 
Q 1882 326 2106 531 
Q 2182 602 2182 813 
z
" transform="scale(0.015625)"/>
       <path id="STIXGeneral-Regular-75" d="M 3072 320 
L 3072 230 
Q 2573 96 2195 -58 
L 2163 -38 
L 2163 486 
L 2150 486 
Q 1747 -64 1235 -64 
Q 870 -64 662 160 
Q 454 384 454 755 
L 454 2362 
Q 454 2598 371 2688 
Q 288 2778 58 2790 
L 58 2880 
L 992 2880 
L 992 813 
Q 992 595 1123 451 
Q 1254 307 1446 307 
Q 1760 307 1984 506 
Q 2067 582 2099 649 
Q 2131 717 2131 877 
L 2131 2355 
Q 2131 2605 2041 2678 
Q 1952 2752 1658 2771 
L 1658 2880 
L 2669 2880 
L 2669 685 
Q 2669 461 2742 390 
Q 2816 320 3034 320 
L 3072 320 
z
" transform="scale(0.015625)"/>
       <path id="STIXGeneral-Regular-6e" d="M 3104 0 
L 1773 0 
L 1779 96 
Q 2016 115 2096 233 
Q 2176 352 2176 672 
L 2176 1946 
Q 2176 2592 1709 2592 
Q 1549 2592 1408 2515 
Q 1267 2438 1050 2227 
L 1050 461 
Q 1050 269 1136 192 
Q 1222 115 1466 96 
L 1466 0 
L 115 0 
L 115 96 
Q 358 115 435 214 
Q 512 314 512 602 
L 512 2157 
Q 512 2394 467 2483 
Q 422 2573 288 2573 
Q 160 2573 102 2547 
L 102 2656 
Q 550 2784 979 2944 
L 1030 2925 
L 1030 2426 
L 1037 2426 
Q 1491 2944 1958 2944 
Q 2323 2944 2518 2688 
Q 2714 2432 2714 1958 
L 2714 544 
Q 2714 288 2790 205 
Q 2867 122 3104 96 
L 3104 0 
z
" transform="scale(0.015625)"/>
       <path id="STIXGeneral-Regular-63" d="M 2547 998 
L 2637 941 
Q 2362 403 2112 205 
Q 1786 -64 1376 -64 
Q 845 -64 502 336 
Q 160 736 160 1357 
Q 160 2170 698 2618 
Q 1094 2944 1562 2944 
Q 1965 2944 2256 2749 
Q 2547 2554 2547 2285 
Q 2547 2176 2457 2096 
Q 2368 2016 2246 2016 
Q 2022 2016 1939 2310 
L 1901 2451 
Q 1850 2630 1773 2694 
Q 1696 2758 1523 2758 
Q 1133 2758 893 2451 
Q 653 2144 653 1645 
Q 653 1094 928 745 
Q 1203 397 1645 397 
Q 1920 397 2118 528 
Q 2317 659 2547 998 
z
" transform="scale(0.015625)"/>
       <path id="STIXGeneral-Regular-79" d="M 3040 2880 
L 3040 2784 
Q 2925 2771 2854 2700 
Q 2784 2630 2720 2458 
L 1760 -160 
Q 1510 -838 1257 -1116 
Q 1005 -1395 640 -1395 
Q 435 -1395 313 -1289 
Q 192 -1184 192 -1024 
Q 192 -902 272 -816 
Q 352 -730 467 -730 
Q 653 -730 800 -813 
Q 883 -858 966 -858 
Q 1101 -858 1286 -576 
Q 1376 -448 1459 -211 
Q 1542 26 1542 115 
Q 1542 198 1274 762 
L 429 2566 
Q 346 2752 90 2790 
L 90 2880 
L 1402 2880 
L 1402 2784 
Q 1197 2778 1117 2739 
Q 1037 2701 1037 2611 
Q 1037 2541 1120 2349 
L 1837 749 
L 2458 2515 
Q 2483 2573 2483 2630 
Q 2483 2784 2189 2784 
L 2189 2880 
L 3040 2880 
z
" transform="scale(0.015625)"/>
       <path id="STIXGeneral-Regular-20" transform="scale(0.015625)"/>
       <path id="STIXGeneral-Regular-48" d="M 4499 0 
L 2714 0 
L 2714 122 
Q 3085 147 3181 265 
Q 3277 384 3277 794 
L 3277 2016 
L 1338 2016 
L 1338 723 
Q 1338 371 1440 256 
Q 1542 141 1894 122 
L 1901 0 
L 115 0 
L 115 122 
Q 493 147 589 259 
Q 685 371 685 781 
L 685 3507 
Q 685 3878 585 3980 
Q 486 4083 115 4115 
L 115 4237 
L 1907 4237 
L 1907 4115 
Q 1549 4083 1443 3977 
Q 1338 3872 1338 3507 
L 1338 2298 
L 3277 2298 
L 3277 3507 
Q 3277 3878 3177 3980 
Q 3078 4083 2707 4115 
L 2707 4237 
L 4499 4237 
L 4499 4115 
Q 4141 4083 4035 3977 
Q 3930 3872 3930 3507 
L 3930 710 
Q 3930 371 4035 259 
Q 4141 147 4499 122 
L 4499 0 
z
" transform="scale(0.015625)"/>
       <path id="STIXGeneral-Regular-7a" d="M 2675 870 
L 2579 0 
L 173 0 
L 173 96 
L 1875 2688 
L 1011 2688 
Q 710 2688 604 2582 
Q 499 2477 454 2125 
L 339 2125 
L 365 2880 
L 2579 2880 
L 2579 2784 
L 858 192 
L 1709 192 
Q 2246 192 2387 365 
Q 2477 474 2560 896 
L 2675 870 
z
" transform="scale(0.015625)"/>
      </defs>
      <use xlink:href="#STIXGeneral-Regular-46"/>
      <use xlink:href="#STIXGeneral-Regular-72" x="55.599991"/>
      <use xlink:href="#STIXGeneral-Regular-65" x="88.899979"/>
      <use xlink:href="#STIXGeneral-Regular-71" x="133.299973"/>
      <use xlink:href="#STIXGeneral-Regular-75" x="183.299957"/>
      <use xlink:href="#STIXGeneral-Regular-65" x="233.299942"/>
      <use xlink:href="#STIXGeneral-Regular-6e" x="277.699936"/>
      <use xlink:href="#STIXGeneral-Regular-63" x="327.699921"/>
      <use xlink:href="#STIXGeneral-Regular-79" x="372.099915"/>
      <use xlink:href="#STIXGeneral-Regular-20" x="422.099899"/>
      <use xlink:href="#STIXGeneral-Regular-28" x="447.099884"/>
      <use xlink:href="#STIXGeneral-Regular-48" x="480.399872"/>
      <use xlink:href="#STIXGeneral-Regular-7a" x="552.599854"/>
      <use xlink:href="#STIXGeneral-Regular-29" x="596.999847"/>
     </g>
    </g>
   </g>
   <g id="line2d_9">
    <path d="M 42.69125 95.11859 
L 45.997261 95.116355 
L 49.303272 95.113412 
L 52.609284 95.109537 
L 55.915295 95.104437 
L 59.221306 95.09773 
L 62.527317 95.088914 
L 65.833329 95.077338 
L 69.13934 95.062154 
L 72.445351 95.042272 
L 75.751362 95.016293 
L 79.057373 94.982438 
L 82.363385 94.938479 
L 85.669396 94.881664 
L 88.975407 94.808673 
L 92.281418 94.715622 
L 95.58743 94.598157 
L 98.893441 94.451706 
L 102.199452 94.271924 
L 105.505463 94.055388 
L 108.811474 93.800504 
L 112.117486 93.508491 
L 115.423497 93.184171 
L 118.729508 92.836205 
L 122.035519 92.476483 
L 125.34153 92.118636 
L 128.647542 91.77603 
L 131.953553 91.459825 
L 135.259564 91.177687 
L 138.565575 90.933413 
L 141.871587 90.727346 
L 145.177598 90.557271 
L 148.483609 90.419403 
L 151.78962 90.309259 
L 155.095631 90.222277 
L 158.401643 90.154214 
L 161.707654 90.101334 
L 165.013665 90.060479 
L 168.319676 90.029049 
L 171.625688 90.004951 
L 174.931699 89.98652 
L 178.23771 89.972452 
L 181.543721 89.961729 
L 184.849732 89.953566 
L 188.155744 89.947357 
L 191.461755 89.942637 
L 194.767766 89.93905 
L 198.073777 89.936327 
L 201.379789 89.934259 
L 204.6858 89.932689 
L 207.991811 89.931497 
" clip-path="url(#p9da03bf061)" style="fill: none; stroke: #000000; stroke-width: 1.5; stroke-linecap: square"/>
    <defs>
     <path id="m0d98ed40f2" d="M 0 3 
C 0.795609 3 1.55874 2.683901 2.12132 2.12132 
C 2.683901 1.55874 3 0.795609 3 0 
C 3 -0.795609 2.683901 -1.55874 2.12132 -2.12132 
C 1.55874 -2.683901 0.795609 -3 0 -3 
C -0.795609 -3 -1.55874 -2.683901 -2.12132 -2.12132 
C -2.683901 -1.55874 -3 -0.795609 -3 0 
C -3 0.795609 -2.683901 1.55874 -2.12132 2.12132 
C -1.55874 2.683901 -0.795609 3 0 3 
z
" style="stroke: #000000"/>
    </defs>
    <g clip-path="url(#p9da03bf061)">
     <use xlink:href="#m0d98ed40f2" x="42.69125" y="95.11859" style="fill-opacity: 0; stroke: #000000"/>
     <use xlink:href="#m0d98ed40f2" x="59.221306" y="95.09773" style="fill-opacity: 0; stroke: #000000"/>
     <use xlink:href="#m0d98ed40f2" x="75.751362" y="95.016293" style="fill-opacity: 0; stroke: #000000"/>
     <use xlink:href="#m0d98ed40f2" x="92.281418" y="94.715622" style="fill-opacity: 0; stroke: #000000"/>
     <use xlink:href="#m0d98ed40f2" x="108.811474" y="93.800504" style="fill-opacity: 0; stroke: #000000"/>
     <use xlink:href="#m0d98ed40f2" x="125.34153" y="92.118636" style="fill-opacity: 0; stroke: #000000"/>
     <use xlink:href="#m0d98ed40f2" x="141.871587" y="90.727346" style="fill-opacity: 0; stroke: #000000"/>
     <use xlink:href="#m0d98ed40f2" x="158.401643" y="90.154214" style="fill-opacity: 0; stroke: #000000"/>
     <use xlink:href="#m0d98ed40f2" x="174.931699" y="89.98652" style="fill-opacity: 0; stroke: #000000"/>
     <use xlink:href="#m0d98ed40f2" x="191.461755" y="89.942637" style="fill-opacity: 0; stroke: #000000"/>
     <use xlink:href="#m0d98ed40f2" x="207.991811" y="89.931497" style="fill-opacity: 0; stroke: #000000"/>
    </g>
   </g>
   <g id="line2d_10">
    <path d="M 42.69125 90.381015 
L 45.997261 90.377489 
L 49.303272 90.372844 
L 52.609284 90.366727 
L 55.915295 90.358676 
L 59.221306 90.348084 
L 62.527317 90.334156 
L 65.833329 90.315857 
L 69.13934 90.291841 
L 72.445351 90.260367 
L 75.751362 90.219193 
L 79.057373 90.165458 
L 82.363385 90.09555 
L 85.669396 90.004967 
L 88.975407 89.888209 
L 92.281418 89.738725 
L 95.58743 89.548982 
L 98.893441 89.310747 
L 102.199452 89.015675 
L 105.505463 88.656296 
L 108.811474 88.227417 
L 112.117486 87.727819 
L 115.423497 87.161912 
L 118.729508 86.540812 
L 122.035519 85.882245 
L 125.34153 85.20896 
L 128.647542 84.54578 
L 131.953553 83.916085 
L 135.259564 83.338689 
L 138.565575 82.825981 
L 141.871587 82.383565 
L 145.177598 82.011169 
L 148.483609 81.704231 
L 151.78962 81.455613 
L 155.095631 81.25707 
L 158.401643 81.100313 
L 161.707654 80.977658 
L 165.013665 80.882367 
L 168.319676 80.808744 
L 171.625688 80.752104 
L 174.931699 80.708675 
L 178.23771 80.675459 
L 181.543721 80.650105 
L 184.849732 80.63078 
L 188.155744 80.616068 
L 191.461755 80.604877 
L 194.767766 80.59637 
L 198.073777 80.589906 
L 201.379789 80.584997 
L 204.6858 80.58127 
L 207.991811 80.57844 
" clip-path="url(#p9da03bf061)" style="fill: none; stroke: #ff0000; stroke-width: 1.5; stroke-linecap: square"/>
    <defs>
     <path id="m2cbdf2195c" d="M -3 3 
L 3 3 
L 3 -3 
L -3 -3 
z
" style="stroke: #ff0000; stroke-linejoin: miter"/>
    </defs>
    <g clip-path="url(#p9da03bf061)">
     <use xlink:href="#m2cbdf2195c" x="42.69125" y="90.381015" style="fill-opacity: 0; stroke: #ff0000; stroke-linejoin: miter"/>
     <use xlink:href="#m2cbdf2195c" x="59.221306" y="90.348084" style="fill-opacity: 0; stroke: #ff0000; stroke-linejoin: miter"/>
     <use xlink:href="#m2cbdf2195c" x="75.751362" y="90.219193" style="fill-opacity: 0; stroke: #ff0000; stroke-linejoin: miter"/>
     <use xlink:href="#m2cbdf2195c" x="92.281418" y="89.738725" style="fill-opacity: 0; stroke: #ff0000; stroke-linejoin: miter"/>
     <use xlink:href="#m2cbdf2195c" x="108.811474" y="88.227417" style="fill-opacity: 0; stroke: #ff0000; stroke-linejoin: miter"/>
     <use xlink:href="#m2cbdf2195c" x="125.34153" y="85.20896" style="fill-opacity: 0; stroke: #ff0000; stroke-linejoin: miter"/>
     <use xlink:href="#m2cbdf2195c" x="141.871587" y="82.383565" style="fill-opacity: 0; stroke: #ff0000; stroke-linejoin: miter"/>
     <use xlink:href="#m2cbdf2195c" x="158.401643" y="81.100313" style="fill-opacity: 0; stroke: #ff0000; stroke-linejoin: miter"/>
     <use xlink:href="#m2cbdf2195c" x="174.931699" y="80.708675" style="fill-opacity: 0; stroke: #ff0000; stroke-linejoin: miter"/>
     <use xlink:href="#m2cbdf2195c" x="191.461755" y="80.604877" style="fill-opacity: 0; stroke: #ff0000; stroke-linejoin: miter"/>
     <use xlink:href="#m2cbdf2195c" x="207.991811" y="80.57844" style="fill-opacity: 0; stroke: #ff0000; stroke-linejoin: miter"/>
    </g>
   </g>
   <g id="line2d_11">
    <path d="M 42.69125 68.686964 
L 45.997261 68.685433 
L 49.303272 68.683416 
L 52.609284 68.680759 
L 55.915295 68.67726 
L 59.221306 68.672654 
L 62.527317 68.666594 
L 65.833329 68.658623 
L 69.13934 68.648149 
L 72.445351 68.6344 
L 75.751362 68.616374 
L 79.057373 68.592782 
L 82.363385 68.561975 
L 85.669396 68.521866 
L 88.975407 68.469847 
L 92.281418 68.40272 
L 95.58743 68.316654 
L 98.893441 68.207222 
L 102.199452 68.069552 
L 105.505463 67.898659 
L 108.811474 67.69004 
L 112.117486 67.440518 
L 115.423497 67.149306 
L 118.729508 66.819052 
L 122.035519 66.456532 
L 125.34153 66.072584 
L 128.647542 65.681055 
L 131.953553 65.296895 
L 135.259564 64.933926 
L 138.565575 64.602959 
L 141.871587 64.310779 
L 145.177598 64.060089 
L 148.483609 63.850186 
L 151.78962 63.67799 
L 155.095631 63.539075 
L 158.401643 63.428515 
L 161.707654 63.341467 
L 165.013665 63.27351 
L 168.319676 63.220808 
L 171.625688 63.180147 
L 174.931699 63.148901 
L 178.23771 63.124963 
L 181.543721 63.106667 
L 184.849732 63.092709 
L 188.155744 63.082074 
L 191.461755 63.07398 
L 194.767766 63.067824 
L 198.073777 63.063146 
L 201.379789 63.059592 
L 204.6858 63.056893 
L 207.991811 63.054843 
" clip-path="url(#p9da03bf061)" style="fill: none; stroke: #0000ff; stroke-width: 1.5; stroke-linecap: square"/>
    <defs>
     <path id="m88e93ea289" d="M 0 -3 
L -3 3 
L 3 3 
z
" style="stroke: #0000ff; stroke-linejoin: miter"/>
    </defs>
    <g clip-path="url(#p9da03bf061)">
     <use xlink:href="#m88e93ea289" x="42.69125" y="68.686964" style="fill-opacity: 0; stroke: #0000ff; stroke-linejoin: miter"/>
     <use xlink:href="#m88e93ea289" x="59.221306" y="68.672654" style="fill-opacity: 0; stroke: #0000ff; stroke-linejoin: miter"/>
     <use xlink:href="#m88e93ea289" x="75.751362" y="68.616374" style="fill-opacity: 0; stroke: #0000ff; stroke-linejoin: miter"/>
     <use xlink:href="#m88e93ea289" x="92.281418" y="68.40272" style="fill-opacity: 0; stroke: #0000ff; stroke-linejoin: miter"/>
     <use xlink:href="#m88e93ea289" x="108.811474" y="67.69004" style="fill-opacity: 0; stroke: #0000ff; stroke-linejoin: miter"/>
     <use xlink:href="#m88e93ea289" x="125.34153" y="66.072584" style="fill-opacity: 0; stroke: #0000ff; stroke-linejoin: miter"/>
     <use xlink:href="#m88e93ea289" x="141.871587" y="64.310779" style="fill-opacity: 0; stroke: #0000ff; stroke-linejoin: miter"/>
     <use xlink:href="#m88e93ea289" x="158.401643" y="63.428515" style="fill-opacity: 0; stroke: #0000ff; stroke-linejoin: miter"/>
     <use xlink:href="#m88e93ea289" x="174.931699" y="63.148901" style="fill-opacity: 0; stroke: #0000ff; stroke-linejoin: miter"/>
     <use xlink:href="#m88e93ea289" x="191.461755" y="63.07398" style="fill-opacity: 0; stroke: #0000ff; stroke-linejoin: miter"/>
     <use xlink:href="#m88e93ea289" x="207.991811" y="63.054843" style="fill-opacity: 0; stroke: #0000ff; stroke-linejoin: miter"/>
    </g>
   </g>
   <g id="line2d_12">
    <path d="M 42.69125 48.8586 
L 45.997261 48.855827 
L 49.303272 48.852176 
L 52.609284 48.847367 
L 55.915295 48.84104 
L 59.221306 48.832716 
L 62.527317 48.821774 
L 65.833329 48.807404 
L 69.13934 48.788554 
L 72.445351 48.763864 
L 75.751362 48.731593 
L 79.057373 48.689524 
L 82.363385 48.634872 
L 85.669396 48.564193 
L 88.975407 48.47332 
L 92.281418 48.357363 
L 95.58743 48.210815 
L 98.893441 48.027862 
L 102.199452 47.802938 
L 105.505463 47.531614 
L 108.811474 47.211772 
L 112.117486 46.844908 
L 115.423497 46.437205 
L 118.729508 45.999871 
L 122.035519 45.548338 
L 125.34153 45.10026 
L 128.647542 44.672788 
L 131.953553 44.279998 
L 135.259564 43.931256 
L 138.565575 43.630848 
L 141.871587 43.378664 
L 145.177598 43.171453 
L 148.483609 43.004134 
L 151.78962 42.870896 
L 155.095631 42.765959 
L 158.401643 42.684022 
L 161.707654 42.620471 
L 165.013665 42.571435 
L 168.319676 42.53375 
L 171.625688 42.504878 
L 174.931699 42.482809 
L 178.23771 42.465972 
L 181.543721 42.453143 
L 184.849732 42.443379 
L 188.155744 42.435954 
L 191.461755 42.43031 
L 194.767766 42.426022 
L 198.073777 42.422766 
L 201.379789 42.420294 
L 204.6858 42.418418 
L 207.991811 42.416994 
" clip-path="url(#p9da03bf061)" style="fill: none; stroke: #008000; stroke-width: 1.5; stroke-linecap: square"/>
    <defs>
     <path id="md09f14256c" d="M 0 4.242641 
L 4.242641 0 
L 0 -4.242641 
L -4.242641 0 
z
" style="stroke: #008000; stroke-linejoin: miter"/>
    </defs>
    <g clip-path="url(#p9da03bf061)">
     <use xlink:href="#md09f14256c" x="42.69125" y="48.8586" style="fill-opacity: 0; stroke: #008000; stroke-linejoin: miter"/>
     <use xlink:href="#md09f14256c" x="59.221306" y="48.832716" style="fill-opacity: 0; stroke: #008000; stroke-linejoin: miter"/>
     <use xlink:href="#md09f14256c" x="75.751362" y="48.731593" style="fill-opacity: 0; stroke: #008000; stroke-linejoin: miter"/>
     <use xlink:href="#md09f14256c" x="92.281418" y="48.357363" style="fill-opacity: 0; stroke: #008000; stroke-linejoin: miter"/>
     <use xlink:href="#md09f14256c" x="108.811474" y="47.211772" style="fill-opacity: 0; stroke: #008000; stroke-linejoin: miter"/>
     <use xlink:href="#md09f14256c" x="125.34153" y="45.10026" style="fill-opacity: 0; stroke: #008000; stroke-linejoin: miter"/>
     <use xlink:href="#md09f14256c" x="141.871587" y="43.378664" style="fill-opacity: 0; stroke: #008000; stroke-linejoin: miter"/>
     <use xlink:href="#md09f14256c" x="158.401643" y="42.684022" style="fill-opacity: 0; stroke: #008000; stroke-linejoin: miter"/>
     <use xlink:href="#md09f14256c" x="174.931699" y="42.482809" style="fill-opacity: 0; stroke: #008000; stroke-linejoin: miter"/>
     <use xlink:href="#md09f14256c" x="191.461755" y="42.43031" style="fill-opacity: 0; stroke: #008000; stroke-linejoin: miter"/>
     <use xlink:href="#md09f14256c" x="207.991811" y="42.416994" style="fill-opacity: 0; stroke: #008000; stroke-linejoin: miter"/>
    </g>
   </g>
   <g id="patch_3">
    <path d="M 42.69125 125.1745 
L 42.69125 3.740625 
" style="fill: none; stroke: #000000; stroke-width: 0.8; stroke-linejoin: miter; stroke-linecap: square"/>
   </g>
   <g id="patch_4">
    <path d="M 207.991811 125.1745 
L 207.991811 3.740625 
" style="fill: none; stroke: #000000; stroke-width: 0.8; stroke-linejoin: miter; stroke-linecap: square"/>
   </g>
   <g id="patch_5">
    <path d="M 42.69125 125.1745 
L 207.991811 125.1745 
" style="fill: none; stroke: #000000; stroke-width: 0.8; stroke-linejoin: miter; stroke-linecap: square"/>
   </g>
   <g id="patch_6">
    <path d="M 42.69125 3.740625 
L 207.991811 3.740625 
" style="fill: none; stroke: #000000; stroke-width: 0.8; stroke-linejoin: miter; stroke-linecap: square"/>
   </g>
   <g id="legend_1">
    <g id="patch_7">
     <path d="M 57.012774 37.03954 
L 201.577711 37.03954 
Q 203.410311 37.03954 203.410311 35.20694 
L 203.410311 10.154725 
Q 203.410311 8.322125 201.577711 8.322125 
L 57.012774 8.322125 
Q 55.180174 8.322125 55.180174 10.154725 
L 55.180174 35.20694 
Q 55.180174 37.03954 57.012774 37.03954 
z
" style="fill: #ffffff; opacity: 0.8; stroke: #cccccc; stroke-linejoin: miter"/>
    </g>
    <g id="line2d_13">
     <path d="M 58.845374 15.194375 
L 68.008374 15.194375 
L 77.171374 15.194375 
" style="fill: none; stroke: #000000; stroke-width: 1.5; stroke-linecap: square"/>
     <g>
      <use xlink:href="#m0d98ed40f2" x="68.008374" y="15.194375" style="fill-opacity: 0; stroke: #000000"/>
     </g>
    </g>
    <g id="text_11">
     <!-- 1st mode -->
     <g transform="translate(84.501774 18.401425)scale(0.09163 -0.09163)">
      <defs>
       <path id="STIXGeneral-Regular-73" d="M 998 1926 
L 1664 1523 
Q 1984 1331 2105 1164 
Q 2227 998 2227 736 
Q 2227 416 1961 176 
Q 1696 -64 1331 -64 
Q 1030 -64 864 -6 
Q 691 51 570 51 
Q 461 51 416 -26 
L 333 -26 
L 333 979 
L 435 979 
Q 538 512 730 294 
Q 922 77 1248 77 
Q 1485 77 1632 211 
Q 1779 346 1779 550 
Q 1779 845 1440 1030 
L 1094 1222 
Q 326 1651 326 2150 
Q 326 2522 566 2730 
Q 806 2938 1210 2938 
Q 1491 2938 1638 2867 
Q 1754 2816 1818 2816 
Q 1862 2816 1920 2880 
L 1990 2880 
L 2022 2010 
L 1926 2010 
Q 1818 2445 1654 2621 
Q 1491 2797 1203 2797 
Q 986 2797 854 2688 
Q 723 2579 723 2362 
Q 723 2253 796 2128 
Q 870 2003 998 1926 
z
" transform="scale(0.015625)"/>
       <path id="STIXGeneral-Regular-74" d="M 1702 493 
L 1786 422 
Q 1478 -64 1011 -64 
Q 448 -64 448 749 
L 448 2675 
L 109 2675 
Q 83 2694 83 2720 
Q 83 2771 192 2842 
Q 435 2982 813 3526 
Q 826 3546 874 3606 
Q 922 3667 941 3706 
Q 986 3706 986 3622 
L 986 2880 
L 1632 2880 
L 1632 2675 
L 986 2675 
L 986 845 
Q 986 538 1062 403 
Q 1139 269 1318 269 
Q 1510 269 1702 493 
z
" transform="scale(0.015625)"/>
       <path id="STIXGeneral-Regular-6d" d="M 4960 0 
L 3565 0 
L 3565 96 
Q 3834 122 3907 208 
Q 3981 294 3981 576 
L 3981 1894 
Q 3981 2278 3869 2444 
Q 3757 2611 3488 2611 
Q 3264 2611 3107 2521 
Q 2950 2432 2803 2221 
L 2803 608 
Q 2803 301 2896 201 
Q 2989 102 3264 96 
L 3264 0 
L 1830 0 
L 1830 96 
Q 2112 115 2189 188 
Q 2266 262 2266 550 
L 2266 1901 
Q 2266 2611 1850 2611 
Q 1670 2611 1468 2531 
Q 1267 2451 1171 2336 
Q 1088 2240 1088 2227 
L 1088 448 
Q 1088 243 1177 176 
Q 1267 109 1523 96 
L 1523 0 
L 102 0 
L 102 96 
Q 371 102 460 195 
Q 550 288 550 563 
L 550 2150 
Q 550 2387 499 2480 
Q 448 2573 326 2573 
Q 230 2573 122 2547 
L 122 2656 
Q 557 2778 1011 2944 
L 1062 2925 
L 1062 2451 
L 1075 2451 
Q 1363 2752 1584 2848 
Q 1805 2944 2054 2944 
Q 2560 2944 2733 2406 
Q 3232 2944 3776 2944 
Q 4518 2944 4518 1792 
L 4518 493 
Q 4518 282 4582 202 
Q 4646 122 4794 109 
L 4960 96 
L 4960 0 
z
" transform="scale(0.015625)"/>
       <path id="STIXGeneral-Regular-6f" d="M 3008 1478 
Q 3008 806 2608 371 
Q 2208 -64 1568 -64 
Q 979 -64 582 368 
Q 186 800 186 1459 
Q 186 2125 582 2534 
Q 979 2944 1626 2944 
Q 2221 2944 2614 2537 
Q 3008 2131 3008 1478 
z
M 2432 1306 
Q 2432 2035 2112 2445 
Q 1856 2765 1504 2765 
Q 1171 2765 966 2493 
Q 762 2221 762 1747 
Q 762 928 1101 435 
Q 1318 115 1677 115 
Q 2029 115 2230 432 
Q 2432 749 2432 1306 
z
" transform="scale(0.015625)"/>
      </defs>
      <use xlink:href="#STIXGeneral-Regular-31"/>
      <use xlink:href="#STIXGeneral-Regular-73" x="49.999985"/>
      <use xlink:href="#STIXGeneral-Regular-74" x="88.899979"/>
      <use xlink:href="#STIXGeneral-Regular-20" x="116.699966"/>
      <use xlink:href="#STIXGeneral-Regular-6d" x="141.699951"/>
      <use xlink:href="#STIXGeneral-Regular-6f" x="219.499939"/>
      <use xlink:href="#STIXGeneral-Regular-64" x="269.499924"/>
      <use xlink:href="#STIXGeneral-Regular-65" x="319.499908"/>
     </g>
    </g>
    <g id="line2d_14">
     <path d="M 58.845374 28.178632 
L 68.008374 28.178632 
L 77.171374 28.178632 
" style="fill: none; stroke: #ff0000; stroke-width: 1.5; stroke-linecap: square"/>
     <g>
      <use xlink:href="#m2cbdf2195c" x="68.008374" y="28.178632" style="fill-opacity: 0; stroke: #ff0000; stroke-linejoin: miter"/>
     </g>
    </g>
    <g id="text_12">
     <!-- 2nd mode -->
     <g transform="translate(84.501774 31.385682)scale(0.09163 -0.09163)">
      <use xlink:href="#STIXGeneral-Regular-32"/>
      <use xlink:href="#STIXGeneral-Regular-6e" x="49.999985"/>
      <use xlink:href="#STIXGeneral-Regular-64" x="99.999969"/>
      <use xlink:href="#STIXGeneral-Regular-20" x="149.999954"/>
      <use xlink:href="#STIXGeneral-Regular-6d" x="174.999939"/>
      <use xlink:href="#STIXGeneral-Regular-6f" x="252.799927"/>
      <use xlink:href="#STIXGeneral-Regular-64" x="302.799911"/>
      <use xlink:href="#STIXGeneral-Regular-65" x="352.799896"/>
     </g>
    </g>
    <g id="line2d_15">
     <path d="M 139.223496 15.194375 
L 148.386496 15.194375 
L 157.549496 15.194375 
" style="fill: none; stroke: #0000ff; stroke-width: 1.5; stroke-linecap: square"/>
     <g>
      <use xlink:href="#m88e93ea289" x="148.386496" y="15.194375" style="fill-opacity: 0; stroke: #0000ff; stroke-linejoin: miter"/>
     </g>
    </g>
    <g id="text_13">
     <!-- 3rd mode -->
     <g transform="translate(164.879896 18.401425)scale(0.09163 -0.09163)">
      <use xlink:href="#STIXGeneral-Regular-33"/>
      <use xlink:href="#STIXGeneral-Regular-72" x="49.999985"/>
      <use xlink:href="#STIXGeneral-Regular-64" x="83.299973"/>
      <use xlink:href="#STIXGeneral-Regular-20" x="133.299957"/>
      <use xlink:href="#STIXGeneral-Regular-6d" x="158.299942"/>
      <use xlink:href="#STIXGeneral-Regular-6f" x="236.09993"/>
      <use xlink:href="#STIXGeneral-Regular-64" x="286.099915"/>
      <use xlink:href="#STIXGeneral-Regular-65" x="336.099899"/>
     </g>
    </g>
    <g id="line2d_16">
     <path d="M 139.223496 28.178632 
L 148.386496 28.178632 
L 157.549496 28.178632 
" style="fill: none; stroke: #008000; stroke-width: 1.5; stroke-linecap: square"/>
     <g>
      <use xlink:href="#md09f14256c" x="148.386496" y="28.178632" style="fill-opacity: 0; stroke: #008000; stroke-linejoin: miter"/>
     </g>
    </g>
    <g id="text_14">
     <!-- 4th mode -->
     <g transform="translate(164.879896 31.385682)scale(0.09163 -0.09163)">
      <defs>
       <path id="STIXGeneral-Regular-68" d="M 3117 0 
L 1760 0 
L 1760 96 
Q 2042 128 2118 224 
Q 2195 320 2195 653 
L 2195 1920 
Q 2195 2598 1722 2598 
Q 1530 2598 1370 2508 
Q 1210 2419 1005 2195 
L 1005 653 
Q 1005 320 1081 224 
Q 1158 128 1440 96 
L 1440 0 
L 58 0 
L 58 96 
Q 333 134 400 224 
Q 467 314 467 653 
L 467 3667 
Q 467 3872 406 3933 
Q 346 3994 141 3994 
Q 83 3994 64 3987 
L 64 4090 
L 237 4141 
Q 730 4288 973 4371 
L 1005 4352 
L 1005 2406 
Q 1229 2694 1446 2819 
Q 1664 2944 1946 2944 
Q 2733 2944 2733 1926 
L 2733 653 
Q 2733 320 2793 233 
Q 2854 147 3117 96 
L 3117 0 
z
" transform="scale(0.015625)"/>
      </defs>
      <use xlink:href="#STIXGeneral-Regular-34"/>
      <use xlink:href="#STIXGeneral-Regular-74" x="49.999985"/>
      <use xlink:href="#STIXGeneral-Regular-68" x="77.799973"/>
      <use xlink:href="#STIXGeneral-Regular-20" x="127.799957"/>
      <use xlink:href="#STIXGeneral-Regular-6d" x="152.799942"/>
      <use xlink:href="#STIXGeneral-Regular-6f" x="230.59993"/>
      <use xlink:href="#STIXGeneral-Regular-64" x="280.599915"/>
      <use xlink:href="#STIXGeneral-Regular-65" x="330.599899"/>
     </g>
    </g>
   </g>
  </g>
 </g>
 <defs>
  <clipPath id="p9da03bf061">
   <rect x="42.69125" y="3.740625" width="165.300561" height="121.433875"/>
  </clipPath>
 </defs>
</svg>
