<?xml version="1.0" encoding="utf-8" standalone="no"?>
<!DOCTYPE svg PUBLIC "-//W3C//DTD SVG 1.1//EN"
  "http://www.w3.org/Graphics/SVG/1.1/DTD/svg11.dtd">
<svg height="162pt" version="1.1" viewBox="0 0 216 162" width="216pt" xmlns="http://www.w3.org/2000/svg" xmlns:xlink="http://www.w3.org/1999/xlink">
 <metadata>
  <rdf:RDF xmlns:cc="http://creativecommons.org/ns#" xmlns:dc="http://purl.org/dc/elements/1.1/" xmlns:rdf="http://www.w3.org/1999/02/22-rdf-syntax-ns#">
   <cc:Work>
    <dc:type rdf:resource="http://purl.org/dc/dcmitype/StillImage"/>
    <dc:date>2021-07-30T16:19:54.331793</dc:date>
    <dc:format>image/svg+xml</dc:format>
    <dc:creator>
     <cc:Agent>
      <dc:title>Matplotlib v3.4.2, https://matplotlib.org/</dc:title>
     </cc:Agent>
    </dc:creator>
   </cc:Work>
  </rdf:RDF>
 </metadata>
 <defs>
  <style type="text/css">*{stroke-linecap:butt;stroke-linejoin:round;}</style>
 </defs>
 <g id="figure_1">
  <g id="patch_1">
   <path d="M 0 162 
L 216 162 
L 216 0 
L 0 0 
z
" style="fill:#ffffff;"/>
  </g>
  <g id="axes_1">
   <g id="patch_2">
    <path d="M 38.342 129.923125 
L 216 129.923125 
L 216 3.737813 
L 38.342 3.737813 
z
" style="fill:#ffffff;"/>
   </g>
   <g id="matplotlib.axis_1">
    <g id="xtick_1">
     <g id="line2d_1">
      <defs>
       <path d="M 0 0 
L 0 3.5 
" id="mc53661d229" style="stroke:#000000;stroke-width:0.8;"/>
      </defs>
      <g>
       <use style="stroke:#000000;stroke-width:0.8;" x="38.342" xlink:href="#mc53661d229" y="129.923125"/>
      </g>
     </g>
     <g id="text_1">
      <!-- 0 -->
      <g transform="translate(35.592 144.435781)scale(0.11 -0.11)">
       <defs>
        <path d="M 3046 2112 
Q 3046 1683 2963 1302 
Q 2880 922 2717 602 
Q 2554 282 2266 96 
Q 1978 -90 1600 -90 
Q 1210 -90 915 108 
Q 621 307 461 640 
Q 301 973 227 1350 
Q 154 1728 154 2150 
Q 154 2746 301 3222 
Q 448 3699 790 4012 
Q 1133 4326 1626 4326 
Q 2253 4326 2649 3712 
Q 3046 3098 3046 2112 
z
M 2432 2080 
Q 2432 3091 2217 3625 
Q 2003 4160 1587 4160 
Q 1190 4160 979 3622 
Q 768 3085 768 2106 
Q 768 1120 979 598 
Q 1190 77 1600 77 
Q 2003 77 2217 598 
Q 2432 1120 2432 2080 
z
" id="STIXGeneral-Regular-30" transform="scale(0.015625)"/>
       </defs>
       <use xlink:href="#STIXGeneral-Regular-30"/>
      </g>
     </g>
    </g>
    <g id="xtick_2">
     <g id="line2d_2">
      <g>
       <use style="stroke:#000000;stroke-width:0.8;" x="77.821556" xlink:href="#mc53661d229" y="129.923125"/>
      </g>
     </g>
     <g id="text_2">
      <!-- 20 -->
      <g transform="translate(72.321556 144.435781)scale(0.11 -0.11)">
       <defs>
        <path d="M 3034 877 
L 2688 0 
L 186 0 
L 186 77 
L 1325 1286 
Q 1773 1754 1965 2144 
Q 2157 2534 2157 2950 
Q 2157 3379 1920 3616 
Q 1683 3853 1267 3853 
Q 922 3853 720 3673 
Q 518 3494 326 3021 
L 192 3053 
Q 301 3648 630 3987 
Q 960 4326 1523 4326 
Q 2054 4326 2380 4006 
Q 2707 3686 2707 3200 
Q 2707 2477 1888 1613 
L 832 486 
L 2330 486 
Q 2541 486 2665 569 
Q 2790 653 2944 915 
L 3034 877 
z
" id="STIXGeneral-Regular-32" transform="scale(0.015625)"/>
       </defs>
       <use xlink:href="#STIXGeneral-Regular-32"/>
       <use x="49.999985" xlink:href="#STIXGeneral-Regular-30"/>
      </g>
     </g>
    </g>
    <g id="xtick_3">
     <g id="line2d_3">
      <g>
       <use style="stroke:#000000;stroke-width:0.8;" x="117.301111" xlink:href="#mc53661d229" y="129.923125"/>
      </g>
     </g>
     <g id="text_3">
      <!-- 40 -->
      <g transform="translate(111.801111 144.435781)scale(0.11 -0.11)">
       <defs>
        <path d="M 3027 1069 
L 2368 1069 
L 2368 0 
L 1869 0 
L 1869 1069 
L 77 1069 
L 77 1478 
L 2086 4326 
L 2368 4326 
L 2368 1478 
L 3027 1478 
L 3027 1069 
z
M 1869 1478 
L 1869 3674 
L 333 1478 
L 1869 1478 
z
" id="STIXGeneral-Regular-34" transform="scale(0.015625)"/>
       </defs>
       <use xlink:href="#STIXGeneral-Regular-34"/>
       <use x="49.999985" xlink:href="#STIXGeneral-Regular-30"/>
      </g>
     </g>
    </g>
    <g id="xtick_4">
     <g id="line2d_4">
      <g>
       <use style="stroke:#000000;stroke-width:0.8;" x="156.780667" xlink:href="#mc53661d229" y="129.923125"/>
      </g>
     </g>
     <g id="text_4">
      <!-- 60 -->
      <g transform="translate(151.280667 144.435781)scale(0.11 -0.11)">
       <defs>
        <path d="M 2854 4378 
L 2867 4275 
Q 2112 4154 1606 3664 
Q 1101 3174 973 2451 
Q 1344 2739 1786 2739 
Q 2349 2739 2672 2380 
Q 2995 2022 2995 1402 
Q 2995 774 2669 378 
Q 2291 -90 1651 -90 
Q 870 -90 518 557 
Q 218 1107 218 1786 
Q 218 2835 915 3552 
Q 1312 3962 1731 4131 
Q 2150 4301 2854 4378 
z
M 2419 1203 
Q 2419 2445 1555 2445 
Q 1235 2445 1024 2275 
Q 813 2106 813 1702 
Q 813 954 1046 522 
Q 1280 90 1722 90 
Q 2061 90 2240 394 
Q 2419 698 2419 1203 
z
" id="STIXGeneral-Regular-36" transform="scale(0.015625)"/>
       </defs>
       <use xlink:href="#STIXGeneral-Regular-36"/>
       <use x="49.999985" xlink:href="#STIXGeneral-Regular-30"/>
      </g>
     </g>
    </g>
    <g id="xtick_5">
     <g id="line2d_5">
      <g>
       <use style="stroke:#000000;stroke-width:0.8;" x="196.260222" xlink:href="#mc53661d229" y="129.923125"/>
      </g>
     </g>
     <g id="text_5">
      <!-- 80 -->
      <g transform="translate(190.760222 144.435781)scale(0.11 -0.11)">
       <defs>
        <path d="M 2848 992 
Q 2848 499 2505 204 
Q 2163 -90 1587 -90 
Q 1050 -90 704 204 
Q 358 499 358 954 
Q 358 1293 524 1533 
Q 691 1773 1190 2125 
Q 710 2522 553 2765 
Q 397 3008 397 3328 
Q 397 3782 745 4054 
Q 1094 4326 1638 4326 
Q 2106 4326 2410 4060 
Q 2714 3795 2714 3411 
Q 2714 3059 2531 2848 
Q 2349 2637 1856 2374 
Q 2432 1990 2640 1689 
Q 2848 1389 2848 992 
z
M 2272 3411 
Q 2272 3744 2086 3945 
Q 1901 4147 1574 4147 
Q 1248 4147 1059 3977 
Q 870 3808 870 3513 
Q 870 3219 1059 2979 
Q 1248 2739 1670 2490 
Q 1997 2682 2134 2896 
Q 2272 3110 2272 3411 
z
M 1734 1741 
L 1357 1997 
Q 1075 1766 960 1545 
Q 845 1325 845 1011 
Q 845 576 1065 333 
Q 1286 90 1658 90 
Q 1971 90 2166 285 
Q 2362 480 2362 794 
Q 2362 1082 2214 1299 
Q 2067 1517 1734 1741 
z
" id="STIXGeneral-Regular-38" transform="scale(0.015625)"/>
       </defs>
       <use xlink:href="#STIXGeneral-Regular-38"/>
       <use x="49.999985" xlink:href="#STIXGeneral-Regular-30"/>
      </g>
     </g>
    </g>
    <g id="text_6">
     <!-- $\theta_2$ ($\degree$) -->
     <g transform="translate(115.071 158.335781)scale(0.11 -0.11)">
      <defs>
       <path d="M 3162 3270 
Q 3162 2534 2925 1862 
Q 2688 1190 2304 678 
Q 1741 -70 992 -70 
Q 608 -70 390 224 
Q 173 518 173 1030 
Q 173 1997 592 2813 
Q 1011 3629 1594 4070 
Q 1952 4339 2374 4339 
Q 2733 4339 2947 4076 
Q 3162 3814 3162 3270 
z
M 941 2221 
L 2432 2221 
Q 2624 2874 2624 3533 
Q 2624 4205 2285 4205 
Q 2029 4205 1728 3814 
Q 1427 3424 1232 2992 
Q 1037 2560 941 2221 
z
M 2387 2016 
L 896 2016 
Q 710 1530 710 960 
Q 710 64 1069 64 
Q 1286 64 1510 275 
Q 1734 486 1904 806 
Q 2074 1126 2198 1440 
Q 2323 1754 2387 2016 
z
" id="STIXGeneral-Italic-3b8" transform="scale(0.015625)"/>
       <path id="STIXGeneral-Regular-20" transform="scale(0.015625)"/>
       <path d="M 1946 -1030 
L 1869 -1133 
Q 1126 -710 716 32 
Q 307 774 307 1613 
Q 307 3386 1888 4326 
L 1946 4224 
Q 1293 3667 1075 3126 
Q 858 2586 858 1632 
Q 858 685 1082 96 
Q 1306 -493 1946 -1030 
z
" id="STIXGeneral-Regular-28" transform="scale(0.015625)"/>
       <path d="M 2195 3411 
Q 2195 3027 1929 2761 
Q 1664 2496 1280 2496 
Q 890 2496 627 2761 
Q 365 3027 365 3418 
Q 365 3802 633 4064 
Q 902 4326 1293 4326 
Q 1664 4326 1929 4057 
Q 2195 3789 2195 3411 
z
M 1946 3418 
Q 1946 3699 1744 3904 
Q 1542 4109 1267 4109 
Q 1005 4109 809 3901 
Q 614 3693 614 3411 
Q 614 3123 809 2918 
Q 1005 2714 1280 2714 
Q 1555 2714 1750 2922 
Q 1946 3130 1946 3418 
z
" id="STIXGeneral-Regular-b0" transform="scale(0.015625)"/>
       <path d="M 186 4224 
L 262 4326 
Q 992 3891 1408 3148 
Q 1824 2406 1824 1581 
Q 1824 -166 243 -1133 
L 186 -1030 
Q 845 -486 1059 54 
Q 1274 595 1274 1562 
Q 1274 2534 1059 3120 
Q 845 3706 186 4224 
z
" id="STIXGeneral-Regular-29" transform="scale(0.015625)"/>
      </defs>
      <use transform="translate(0 0.203125)" xlink:href="#STIXGeneral-Italic-3b8"/>
      <use transform="translate(47.999985 -13.025)scale(0.7)" xlink:href="#STIXGeneral-Regular-32"/>
      <use transform="translate(87.409349 0.203125)" xlink:href="#STIXGeneral-Regular-20"/>
      <use transform="translate(112.409334 0.203125)" xlink:href="#STIXGeneral-Regular-28"/>
      <use transform="translate(145.709322 0.203125)" xlink:href="#STIXGeneral-Regular-b0"/>
      <use transform="translate(185.709306 0.203125)" xlink:href="#STIXGeneral-Regular-29"/>
     </g>
    </g>
   </g>
   <g id="matplotlib.axis_2">
    <g id="ytick_1">
     <g id="line2d_6">
      <defs>
       <path d="M 0 0 
L -3.5 0 
" id="m87770f0c1d" style="stroke:#000000;stroke-width:0.8;"/>
      </defs>
      <g>
       <use style="stroke:#000000;stroke-width:0.8;" x="38.342" xlink:href="#m87770f0c1d" y="129.923125"/>
      </g>
     </g>
     <g id="text_7">
      <!-- 280 -->
      <g transform="translate(14.842 133.679453)scale(0.11 -0.11)">
       <use xlink:href="#STIXGeneral-Regular-32"/>
       <use x="49.999985" xlink:href="#STIXGeneral-Regular-38"/>
       <use x="99.999969" xlink:href="#STIXGeneral-Regular-30"/>
      </g>
     </g>
    </g>
    <g id="ytick_2">
     <g id="line2d_7">
      <g>
       <use style="stroke:#000000;stroke-width:0.8;" x="38.342" xlink:href="#m87770f0c1d" y="87.861354"/>
      </g>
     </g>
     <g id="text_8">
      <!-- 300 -->
      <g transform="translate(14.842 91.617682)scale(0.11 -0.11)">
       <defs>
        <path d="M 390 3264 
L 288 3290 
Q 435 3770 748 4048 
Q 1062 4326 1542 4326 
Q 1990 4326 2265 4083 
Q 2541 3840 2541 3450 
Q 2541 2925 1946 2566 
Q 2298 2413 2477 2227 
Q 2758 1914 2758 1402 
Q 2758 890 2464 506 
Q 2246 211 1840 60 
Q 1434 -90 979 -90 
Q 262 -90 262 275 
Q 262 378 339 442 
Q 416 506 525 506 
Q 685 506 915 339 
Q 1197 141 1466 141 
Q 1818 141 2058 425 
Q 2298 710 2298 1120 
Q 2298 1856 1632 2048 
Q 1434 2112 979 2112 
L 979 2202 
Q 1338 2323 1517 2432 
Q 2035 2726 2035 3290 
Q 2035 3610 1852 3776 
Q 1670 3942 1344 3942 
Q 768 3942 390 3264 
z
" id="STIXGeneral-Regular-33" transform="scale(0.015625)"/>
       </defs>
       <use xlink:href="#STIXGeneral-Regular-33"/>
       <use x="49.999985" xlink:href="#STIXGeneral-Regular-30"/>
       <use x="99.999969" xlink:href="#STIXGeneral-Regular-30"/>
      </g>
     </g>
    </g>
    <g id="ytick_3">
     <g id="line2d_8">
      <g>
       <use style="stroke:#000000;stroke-width:0.8;" x="38.342" xlink:href="#m87770f0c1d" y="45.799583"/>
      </g>
     </g>
     <g id="text_9">
      <!-- 320 -->
      <g transform="translate(14.842 49.555911)scale(0.11 -0.11)">
       <use xlink:href="#STIXGeneral-Regular-33"/>
       <use x="49.999985" xlink:href="#STIXGeneral-Regular-32"/>
       <use x="99.999969" xlink:href="#STIXGeneral-Regular-30"/>
      </g>
     </g>
    </g>
    <g id="ytick_4">
     <g id="line2d_9">
      <g>
       <use style="stroke:#000000;stroke-width:0.8;" x="38.342" xlink:href="#m87770f0c1d" y="3.737813"/>
      </g>
     </g>
     <g id="text_10">
      <!-- 340 -->
      <g transform="translate(14.842 7.494141)scale(0.11 -0.11)">
       <use xlink:href="#STIXGeneral-Regular-33"/>
       <use x="49.999985" xlink:href="#STIXGeneral-Regular-34"/>
       <use x="99.999969" xlink:href="#STIXGeneral-Regular-30"/>
      </g>
     </g>
    </g>
    <g id="text_11">
     <!-- $\lambda_{cr}$ -->
     <g transform="translate(8.454656 72.825469)rotate(-90)scale(0.11 -0.11)">
      <defs>
       <path d="M 2656 787 
L 2758 787 
Q 2560 -102 2112 -102 
Q 1965 -102 1869 48 
Q 1773 198 1773 499 
Q 1773 672 1789 889 
Q 1805 1107 1833 1446 
Q 1862 1786 1875 2016 
L 538 0 
L -77 0 
L 1907 2739 
Q 1933 2970 1933 3245 
Q 1933 3936 1619 3936 
Q 1530 3936 1408 3821 
Q 1286 3706 1203 3462 
L 1101 3462 
Q 1312 4339 1747 4339 
Q 1926 4339 2041 4115 
Q 2157 3891 2157 3475 
Q 2157 3040 2093 2192 
Q 2029 1344 2029 941 
Q 2029 602 2089 451 
Q 2150 301 2291 301 
Q 2483 301 2656 787 
z
" id="STIXGeneral-Italic-3bb" transform="scale(0.015625)"/>
       <path d="M 2240 685 
L 2342 621 
Q 2048 250 1769 90 
Q 1491 -70 1133 -70 
Q 678 -70 435 179 
Q 192 429 192 915 
Q 192 1344 409 1744 
Q 627 2144 979 2432 
Q 1472 2822 2048 2822 
Q 2342 2822 2531 2675 
Q 2720 2528 2720 2304 
Q 2720 2176 2630 2086 
Q 2541 1997 2413 1997 
Q 2285 1997 2224 2070 
Q 2163 2144 2163 2253 
Q 2163 2310 2211 2403 
Q 2259 2496 2259 2560 
Q 2259 2688 2022 2688 
Q 1619 2688 1325 2381 
Q 742 1766 742 890 
Q 742 544 889 352 
Q 1037 160 1312 160 
Q 1562 160 1766 281 
Q 1971 403 2240 685 
z
" id="STIXGeneral-Italic-63" transform="scale(0.015625)"/>
       <path d="M 1126 1427 
L 1229 1651 
Q 1446 2131 1830 2534 
Q 2106 2822 2336 2822 
Q 2470 2822 2553 2732 
Q 2637 2643 2637 2496 
Q 2637 2349 2557 2249 
Q 2477 2150 2336 2150 
Q 2214 2150 2112 2317 
Q 2061 2406 2010 2406 
Q 1837 2406 1485 1805 
Q 1267 1434 1136 1104 
Q 1005 774 774 0 
L 288 0 
L 806 1869 
Q 909 2246 909 2394 
Q 909 2560 666 2560 
Q 614 2560 467 2541 
L 467 2650 
L 1459 2822 
L 1478 2810 
L 1126 1427 
z
" id="STIXGeneral-Italic-72" transform="scale(0.015625)"/>
      </defs>
      <use transform="translate(0 0.203125)" xlink:href="#STIXGeneral-Italic-3bb"/>
      <use transform="translate(45.799988 -13.025)scale(0.7)" xlink:href="#STIXGeneral-Italic-63"/>
      <use transform="translate(76.879984 -13.025)scale(0.7)" xlink:href="#STIXGeneral-Italic-72"/>
     </g>
    </g>
   </g>
   <g id="line2d_10">
    <path clip-path="url(#pdecc37b104)" d="M 38.342 72.49895 
L 58.081778 67.980595 
L 77.821556 57.383001 
L 97.561333 45.963887 
L 117.301111 37.830849 
L 137.040889 34.462622 
L 156.780667 35.037685 
L 176.520444 38.077305 
L 196.260222 41.116925 
L 216 42.349204 
" style="fill:none;stroke:#000000;stroke-linecap:square;stroke-width:1.5;"/>
    <defs>
     <path d="M 0 3 
C 0.795609 3 1.55874 2.683901 2.12132 2.12132 
C 2.683901 1.55874 3 0.795609 3 0 
C 3 -0.795609 2.683901 -1.55874 2.12132 -2.12132 
C 1.55874 -2.683901 0.795609 -3 0 -3 
C -0.795609 -3 -1.55874 -2.683901 -2.12132 -2.12132 
C -2.683901 -1.55874 -3 -0.795609 -3 0 
C -3 0.795609 -2.683901 1.55874 -2.12132 2.12132 
C -1.55874 2.683901 -0.795609 3 0 3 
z
" id="m6ebd55ff23" style="stroke:#000000;"/>
    </defs>
    <g clip-path="url(#pdecc37b104)">
     <use style="fill-opacity:0;stroke:#000000;" x="38.342" xlink:href="#m6ebd55ff23" y="72.49895"/>
     <use style="fill-opacity:0;stroke:#000000;" x="58.081778" xlink:href="#m6ebd55ff23" y="67.980595"/>
     <use style="fill-opacity:0;stroke:#000000;" x="77.821556" xlink:href="#m6ebd55ff23" y="57.383001"/>
     <use style="fill-opacity:0;stroke:#000000;" x="97.561333" xlink:href="#m6ebd55ff23" y="45.963887"/>
     <use style="fill-opacity:0;stroke:#000000;" x="117.301111" xlink:href="#m6ebd55ff23" y="37.830849"/>
     <use style="fill-opacity:0;stroke:#000000;" x="137.040889" xlink:href="#m6ebd55ff23" y="34.462622"/>
     <use style="fill-opacity:0;stroke:#000000;" x="156.780667" xlink:href="#m6ebd55ff23" y="35.037685"/>
     <use style="fill-opacity:0;stroke:#000000;" x="176.520444" xlink:href="#m6ebd55ff23" y="38.077305"/>
     <use style="fill-opacity:0;stroke:#000000;" x="196.260222" xlink:href="#m6ebd55ff23" y="41.116925"/>
     <use style="fill-opacity:0;stroke:#000000;" x="216" xlink:href="#m6ebd55ff23" y="42.349204"/>
    </g>
   </g>
   <g id="line2d_11">
    <path clip-path="url(#pdecc37b104)" d="M 38.342 69.976449 
L 58.081778 69.894297 
L 77.821556 69.976449 
L 97.561333 69.894297 
L 117.301111 69.976449 
L 137.040889 69.894297 
L 156.780667 69.976449 
L 176.520444 69.894297 
L 196.260222 69.976449 
L 216 69.894297 
" style="fill:none;stroke:#ff0000;stroke-linecap:square;stroke-width:1.5;"/>
    <defs>
     <path d="M -3 3 
L 3 3 
L 3 -3 
L -3 -3 
z
" id="mf5fdb6e43e" style="stroke:#ff0000;stroke-linejoin:miter;"/>
    </defs>
    <g clip-path="url(#pdecc37b104)">
     <use style="fill-opacity:0;stroke:#ff0000;stroke-linejoin:miter;" x="38.342" xlink:href="#mf5fdb6e43e" y="69.976449"/>
     <use style="fill-opacity:0;stroke:#ff0000;stroke-linejoin:miter;" x="58.081778" xlink:href="#mf5fdb6e43e" y="69.894297"/>
     <use style="fill-opacity:0;stroke:#ff0000;stroke-linejoin:miter;" x="77.821556" xlink:href="#mf5fdb6e43e" y="69.976449"/>
     <use style="fill-opacity:0;stroke:#ff0000;stroke-linejoin:miter;" x="97.561333" xlink:href="#mf5fdb6e43e" y="69.894297"/>
     <use style="fill-opacity:0;stroke:#ff0000;stroke-linejoin:miter;" x="117.301111" xlink:href="#mf5fdb6e43e" y="69.976449"/>
     <use style="fill-opacity:0;stroke:#ff0000;stroke-linejoin:miter;" x="137.040889" xlink:href="#mf5fdb6e43e" y="69.894297"/>
     <use style="fill-opacity:0;stroke:#ff0000;stroke-linejoin:miter;" x="156.780667" xlink:href="#mf5fdb6e43e" y="69.976449"/>
     <use style="fill-opacity:0;stroke:#ff0000;stroke-linejoin:miter;" x="176.520444" xlink:href="#mf5fdb6e43e" y="69.894297"/>
     <use style="fill-opacity:0;stroke:#ff0000;stroke-linejoin:miter;" x="196.260222" xlink:href="#mf5fdb6e43e" y="69.976449"/>
     <use style="fill-opacity:0;stroke:#ff0000;stroke-linejoin:miter;" x="216" xlink:href="#mf5fdb6e43e" y="69.894297"/>
    </g>
   </g>
   <g id="line2d_12">
    <path clip-path="url(#pdecc37b104)" d="M 38.342 42.341158 
L 58.081778 37.494196 
L 77.821556 26.40369 
L 97.561333 15.9704 
L 117.301111 11.123438 
L 137.040889 15.806096 
L 156.780667 32.975842 
L 176.520444 63.413873 
L 196.260222 97.899274 
L 216 114.247502 
" style="fill:none;stroke:#0000ff;stroke-linecap:square;stroke-width:1.5;"/>
    <defs>
     <path d="M 0 -3 
L -3 3 
L 3 3 
z
" id="mcb87da95bf" style="stroke:#0000ff;stroke-linejoin:miter;"/>
    </defs>
    <g clip-path="url(#pdecc37b104)">
     <use style="fill-opacity:0;stroke:#0000ff;stroke-linejoin:miter;" x="38.342" xlink:href="#mcb87da95bf" y="42.341158"/>
     <use style="fill-opacity:0;stroke:#0000ff;stroke-linejoin:miter;" x="58.081778" xlink:href="#mcb87da95bf" y="37.494196"/>
     <use style="fill-opacity:0;stroke:#0000ff;stroke-linejoin:miter;" x="77.821556" xlink:href="#mcb87da95bf" y="26.40369"/>
     <use style="fill-opacity:0;stroke:#0000ff;stroke-linejoin:miter;" x="97.561333" xlink:href="#mcb87da95bf" y="15.9704"/>
     <use style="fill-opacity:0;stroke:#0000ff;stroke-linejoin:miter;" x="117.301111" xlink:href="#mcb87da95bf" y="11.123438"/>
     <use style="fill-opacity:0;stroke:#0000ff;stroke-linejoin:miter;" x="137.040889" xlink:href="#mcb87da95bf" y="15.806096"/>
     <use style="fill-opacity:0;stroke:#0000ff;stroke-linejoin:miter;" x="156.780667" xlink:href="#mcb87da95bf" y="32.975842"/>
     <use style="fill-opacity:0;stroke:#0000ff;stroke-linejoin:miter;" x="176.520444" xlink:href="#mcb87da95bf" y="63.413873"/>
     <use style="fill-opacity:0;stroke:#0000ff;stroke-linejoin:miter;" x="196.260222" xlink:href="#mcb87da95bf" y="97.899274"/>
     <use style="fill-opacity:0;stroke:#0000ff;stroke-linejoin:miter;" x="216" xlink:href="#mcb87da95bf" y="114.247502"/>
    </g>
   </g>
   <g id="patch_3">
    <path d="M 38.342 129.923125 
L 38.342 3.737813 
" style="fill:none;stroke:#000000;stroke-linecap:square;stroke-linejoin:miter;stroke-width:0.8;"/>
   </g>
   <g id="patch_4">
    <path d="M 216 129.923125 
L 216 3.737813 
" style="fill:none;stroke:#000000;stroke-linecap:square;stroke-linejoin:miter;stroke-width:0.8;"/>
   </g>
   <g id="patch_5">
    <path d="M 38.342 129.923125 
L 216 129.923125 
" style="fill:none;stroke:#000000;stroke-linecap:square;stroke-linejoin:miter;stroke-width:0.8;"/>
   </g>
   <g id="patch_6">
    <path d="M 38.342 3.737813 
L 216 3.737813 
" style="fill:none;stroke:#000000;stroke-linecap:square;stroke-linejoin:miter;stroke-width:0.8;"/>
   </g>
   <g id="legend_1">
    <g id="patch_7">
     <path d="M 44.7561 125.341625 
L 103.49093 125.341625 
Q 105.32353 125.341625 105.32353 123.509025 
L 105.32353 85.472553 
Q 105.32353 83.639953 103.49093 83.639953 
L 44.7561 83.639953 
Q 42.9235 83.639953 42.9235 85.472553 
L 42.9235 123.509025 
Q 42.9235 125.341625 44.7561 125.341625 
z
" style="fill:#ffffff;opacity:0.8;stroke:#cccccc;stroke-linejoin:miter;"/>
    </g>
    <g id="line2d_13">
     <path d="M 46.5887 90.512203 
L 64.9147 90.512203 
" style="fill:none;stroke:#000000;stroke-linecap:square;stroke-width:1.5;"/>
    </g>
    <g id="line2d_14">
     <g>
      <use style="fill-opacity:0;stroke:#000000;" x="55.7517" xlink:href="#m6ebd55ff23" y="90.512203"/>
     </g>
    </g>
    <g id="text_12">
     <!-- $\theta_c=0\degree$ -->
     <g transform="translate(72.2451 93.719253)scale(0.09163 -0.09163)">
      <defs>
       <path d="M 4077 2048 
L 307 2048 
L 307 2470 
L 4077 2470 
L 4077 2048 
z
M 4077 768 
L 307 768 
L 307 1190 
L 4077 1190 
L 4077 768 
z
" id="STIXGeneral-Regular-3d" transform="scale(0.015625)"/>
      </defs>
      <use transform="translate(0 0.203125)" xlink:href="#STIXGeneral-Italic-3b8"/>
      <use transform="translate(47.999985 -13.025)scale(0.7)" xlink:href="#STIXGeneral-Italic-63"/>
      <use transform="translate(97.929352 0.203125)" xlink:href="#STIXGeneral-Regular-3d"/>
      <use transform="translate(180.869333 0.203125)" xlink:href="#STIXGeneral-Regular-30"/>
      <use transform="translate(230.869318 0.203125)" xlink:href="#STIXGeneral-Regular-b0"/>
     </g>
    </g>
    <g id="line2d_15">
     <path d="M 46.5887 103.49646 
L 64.9147 103.49646 
" style="fill:none;stroke:#ff0000;stroke-linecap:square;stroke-width:1.5;"/>
    </g>
    <g id="line2d_16">
     <g>
      <use style="fill-opacity:0;stroke:#ff0000;stroke-linejoin:miter;" x="55.7517" xlink:href="#mf5fdb6e43e" y="103.49646"/>
     </g>
    </g>
    <g id="text_13">
     <!-- $\theta_c=30\degree$ -->
     <g transform="translate(72.2451 106.70351)scale(0.09163 -0.09163)">
      <use transform="translate(0 0.203125)" xlink:href="#STIXGeneral-Italic-3b8"/>
      <use transform="translate(47.999985 -13.025)scale(0.7)" xlink:href="#STIXGeneral-Italic-63"/>
      <use transform="translate(97.929352 0.203125)" xlink:href="#STIXGeneral-Regular-3d"/>
      <use transform="translate(180.869333 0.203125)" xlink:href="#STIXGeneral-Regular-33"/>
      <use transform="translate(230.869318 0.203125)" xlink:href="#STIXGeneral-Regular-30"/>
      <use transform="translate(280.869302 0.203125)" xlink:href="#STIXGeneral-Regular-b0"/>
     </g>
    </g>
    <g id="line2d_17">
     <path d="M 46.5887 116.480718 
L 64.9147 116.480718 
" style="fill:none;stroke:#0000ff;stroke-linecap:square;stroke-width:1.5;"/>
    </g>
    <g id="line2d_18">
     <g>
      <use style="fill-opacity:0;stroke:#0000ff;stroke-linejoin:miter;" x="55.7517" xlink:href="#mcb87da95bf" y="116.480718"/>
     </g>
    </g>
    <g id="text_14">
     <!-- $\theta_c=60\degree$ -->
     <g transform="translate(72.2451 119.687768)scale(0.09163 -0.09163)">
      <use transform="translate(0 0.59375)" xlink:href="#STIXGeneral-Italic-3b8"/>
      <use transform="translate(47.999985 -12.634375)scale(0.7)" xlink:href="#STIXGeneral-Italic-63"/>
      <use transform="translate(97.929352 0.59375)" xlink:href="#STIXGeneral-Regular-3d"/>
      <use transform="translate(180.869333 0.59375)" xlink:href="#STIXGeneral-Regular-36"/>
      <use transform="translate(230.869318 0.59375)" xlink:href="#STIXGeneral-Regular-30"/>
      <use transform="translate(280.869302 0.59375)" xlink:href="#STIXGeneral-Regular-b0"/>
     </g>
    </g>
   </g>
  </g>
 </g>
 <defs>
  <clipPath id="pdecc37b104">
   <rect height="126.185312" width="177.658" x="38.342" y="3.737813"/>
  </clipPath>
 </defs>
</svg>
