<?xml version="1.0" encoding="utf-8" standalone="no"?>
<!DOCTYPE svg PUBLIC "-//W3C//DTD SVG 1.1//EN"
  "http://www.w3.org/Graphics/SVG/1.1/DTD/svg11.dtd">
<svg height="162pt" version="1.1" viewBox="0 0 216 162" width="216pt" xmlns="http://www.w3.org/2000/svg" xmlns:xlink="http://www.w3.org/1999/xlink">
 <metadata>
  <rdf:RDF xmlns:cc="http://creativecommons.org/ns#" xmlns:dc="http://purl.org/dc/elements/1.1/" xmlns:rdf="http://www.w3.org/1999/02/22-rdf-syntax-ns#">
   <cc:Work>
    <dc:type rdf:resource="http://purl.org/dc/dcmitype/StillImage"/>
    <dc:date>2021-07-26T15:51:29.997580</dc:date>
    <dc:format>image/svg+xml</dc:format>
    <dc:creator>
     <cc:Agent>
      <dc:title>Matplotlib v3.4.2, https://matplotlib.org/</dc:title>
     </cc:Agent>
    </dc:creator>
   </cc:Work>
  </rdf:RDF>
 </metadata>
 <defs>
  <style type="text/css">*{stroke-linecap:butt;stroke-linejoin:round;}</style>
 </defs>
 <g id="figure_1">
  <g id="patch_1">
   <path d="M 0 162 
L 216 162 
L 216 0 
L 0 0 
z
" style="fill:#ffffff;"/>
  </g>
  <g id="axes_1">
   <g id="patch_2">
    <path d="M 42.955625 129.484375 
L 209.1375 129.484375 
L 209.1375 0 
L 42.955625 0 
z
" style="fill:#ffffff;"/>
   </g>
   <g id="matplotlib.axis_1">
    <g id="xtick_1">
     <g id="line2d_1">
      <defs>
       <path d="M 0 0 
L 0 3.5 
" id="m06608e06e2" style="stroke:#000000;stroke-width:0.8;"/>
      </defs>
      <g>
       <use style="stroke:#000000;stroke-width:0.8;" x="42.955625" xlink:href="#m06608e06e2" y="129.484375"/>
      </g>
     </g>
     <g id="text_1">
      <!-- 0.0 -->
      <g transform="translate(36.080625 143.997031)scale(0.11 -0.11)">
       <defs>
        <path d="M 3046 2112 
Q 3046 1683 2963 1302 
Q 2880 922 2717 602 
Q 2554 282 2266 96 
Q 1978 -90 1600 -90 
Q 1210 -90 915 108 
Q 621 307 461 640 
Q 301 973 227 1350 
Q 154 1728 154 2150 
Q 154 2746 301 3222 
Q 448 3699 790 4012 
Q 1133 4326 1626 4326 
Q 2253 4326 2649 3712 
Q 3046 3098 3046 2112 
z
M 2432 2080 
Q 2432 3091 2217 3625 
Q 2003 4160 1587 4160 
Q 1190 4160 979 3622 
Q 768 3085 768 2106 
Q 768 1120 979 598 
Q 1190 77 1600 77 
Q 2003 77 2217 598 
Q 2432 1120 2432 2080 
z
" id="STIXGeneral-Regular-30" transform="scale(0.015625)"/>
        <path d="M 1158 275 
Q 1158 134 1052 32 
Q 947 -70 800 -70 
Q 653 -70 550 32 
Q 448 134 448 281 
Q 448 429 553 534 
Q 659 640 806 640 
Q 947 640 1052 531 
Q 1158 422 1158 275 
z
" id="STIXGeneral-Regular-2e" transform="scale(0.015625)"/>
       </defs>
       <use xlink:href="#STIXGeneral-Regular-30"/>
       <use x="49.999985" xlink:href="#STIXGeneral-Regular-2e"/>
       <use x="74.999969" xlink:href="#STIXGeneral-Regular-30"/>
      </g>
     </g>
    </g>
    <g id="xtick_2">
     <g id="line2d_2">
      <g>
       <use style="stroke:#000000;stroke-width:0.8;" x="76.192" xlink:href="#m06608e06e2" y="129.484375"/>
      </g>
     </g>
     <g id="text_2">
      <!-- 0.2 -->
      <g transform="translate(69.317 143.997031)scale(0.11 -0.11)">
       <defs>
        <path d="M 3034 877 
L 2688 0 
L 186 0 
L 186 77 
L 1325 1286 
Q 1773 1754 1965 2144 
Q 2157 2534 2157 2950 
Q 2157 3379 1920 3616 
Q 1683 3853 1267 3853 
Q 922 3853 720 3673 
Q 518 3494 326 3021 
L 192 3053 
Q 301 3648 630 3987 
Q 960 4326 1523 4326 
Q 2054 4326 2380 4006 
Q 2707 3686 2707 3200 
Q 2707 2477 1888 1613 
L 832 486 
L 2330 486 
Q 2541 486 2665 569 
Q 2790 653 2944 915 
L 3034 877 
z
" id="STIXGeneral-Regular-32" transform="scale(0.015625)"/>
       </defs>
       <use xlink:href="#STIXGeneral-Regular-30"/>
       <use x="49.999985" xlink:href="#STIXGeneral-Regular-2e"/>
       <use x="74.999969" xlink:href="#STIXGeneral-Regular-32"/>
      </g>
     </g>
    </g>
    <g id="xtick_3">
     <g id="line2d_3">
      <g>
       <use style="stroke:#000000;stroke-width:0.8;" x="109.428375" xlink:href="#m06608e06e2" y="129.484375"/>
      </g>
     </g>
     <g id="text_3">
      <!-- 0.4 -->
      <g transform="translate(102.553375 143.997031)scale(0.11 -0.11)">
       <defs>
        <path d="M 3027 1069 
L 2368 1069 
L 2368 0 
L 1869 0 
L 1869 1069 
L 77 1069 
L 77 1478 
L 2086 4326 
L 2368 4326 
L 2368 1478 
L 3027 1478 
L 3027 1069 
z
M 1869 1478 
L 1869 3674 
L 333 1478 
L 1869 1478 
z
" id="STIXGeneral-Regular-34" transform="scale(0.015625)"/>
       </defs>
       <use xlink:href="#STIXGeneral-Regular-30"/>
       <use x="49.999985" xlink:href="#STIXGeneral-Regular-2e"/>
       <use x="74.999969" xlink:href="#STIXGeneral-Regular-34"/>
      </g>
     </g>
    </g>
    <g id="xtick_4">
     <g id="line2d_4">
      <g>
       <use style="stroke:#000000;stroke-width:0.8;" x="142.66475" xlink:href="#m06608e06e2" y="129.484375"/>
      </g>
     </g>
     <g id="text_4">
      <!-- 0.6 -->
      <g transform="translate(135.78975 143.997031)scale(0.11 -0.11)">
       <defs>
        <path d="M 2854 4378 
L 2867 4275 
Q 2112 4154 1606 3664 
Q 1101 3174 973 2451 
Q 1344 2739 1786 2739 
Q 2349 2739 2672 2380 
Q 2995 2022 2995 1402 
Q 2995 774 2669 378 
Q 2291 -90 1651 -90 
Q 870 -90 518 557 
Q 218 1107 218 1786 
Q 218 2835 915 3552 
Q 1312 3962 1731 4131 
Q 2150 4301 2854 4378 
z
M 2419 1203 
Q 2419 2445 1555 2445 
Q 1235 2445 1024 2275 
Q 813 2106 813 1702 
Q 813 954 1046 522 
Q 1280 90 1722 90 
Q 2061 90 2240 394 
Q 2419 698 2419 1203 
z
" id="STIXGeneral-Regular-36" transform="scale(0.015625)"/>
       </defs>
       <use xlink:href="#STIXGeneral-Regular-30"/>
       <use x="49.999985" xlink:href="#STIXGeneral-Regular-2e"/>
       <use x="74.999969" xlink:href="#STIXGeneral-Regular-36"/>
      </g>
     </g>
    </g>
    <g id="xtick_5">
     <g id="line2d_5">
      <g>
       <use style="stroke:#000000;stroke-width:0.8;" x="175.901125" xlink:href="#m06608e06e2" y="129.484375"/>
      </g>
     </g>
     <g id="text_5">
      <!-- 0.8 -->
      <g transform="translate(169.026125 143.997031)scale(0.11 -0.11)">
       <defs>
        <path d="M 2848 992 
Q 2848 499 2505 204 
Q 2163 -90 1587 -90 
Q 1050 -90 704 204 
Q 358 499 358 954 
Q 358 1293 524 1533 
Q 691 1773 1190 2125 
Q 710 2522 553 2765 
Q 397 3008 397 3328 
Q 397 3782 745 4054 
Q 1094 4326 1638 4326 
Q 2106 4326 2410 4060 
Q 2714 3795 2714 3411 
Q 2714 3059 2531 2848 
Q 2349 2637 1856 2374 
Q 2432 1990 2640 1689 
Q 2848 1389 2848 992 
z
M 2272 3411 
Q 2272 3744 2086 3945 
Q 1901 4147 1574 4147 
Q 1248 4147 1059 3977 
Q 870 3808 870 3513 
Q 870 3219 1059 2979 
Q 1248 2739 1670 2490 
Q 1997 2682 2134 2896 
Q 2272 3110 2272 3411 
z
M 1734 1741 
L 1357 1997 
Q 1075 1766 960 1545 
Q 845 1325 845 1011 
Q 845 576 1065 333 
Q 1286 90 1658 90 
Q 1971 90 2166 285 
Q 2362 480 2362 794 
Q 2362 1082 2214 1299 
Q 2067 1517 1734 1741 
z
" id="STIXGeneral-Regular-38" transform="scale(0.015625)"/>
       </defs>
       <use xlink:href="#STIXGeneral-Regular-30"/>
       <use x="49.999985" xlink:href="#STIXGeneral-Regular-2e"/>
       <use x="74.999969" xlink:href="#STIXGeneral-Regular-38"/>
      </g>
     </g>
    </g>
    <g id="xtick_6">
     <g id="line2d_6">
      <g>
       <use style="stroke:#000000;stroke-width:0.8;" x="209.1375" xlink:href="#m06608e06e2" y="129.484375"/>
      </g>
     </g>
     <g id="text_6">
      <!-- 1.0 -->
      <g transform="translate(202.2625 143.997031)scale(0.11 -0.11)">
       <defs>
        <path d="M 2522 0 
L 755 0 
L 755 96 
Q 1107 115 1235 227 
Q 1363 339 1363 608 
L 1363 3482 
Q 1363 3795 1171 3795 
Q 1082 3795 883 3718 
L 710 3654 
L 710 3744 
L 1856 4326 
L 1914 4307 
L 1914 486 
Q 1914 275 2042 185 
Q 2170 96 2522 96 
L 2522 0 
z
" id="STIXGeneral-Regular-31" transform="scale(0.015625)"/>
       </defs>
       <use xlink:href="#STIXGeneral-Regular-31"/>
       <use x="49.999985" xlink:href="#STIXGeneral-Regular-2e"/>
       <use x="74.999969" xlink:href="#STIXGeneral-Regular-30"/>
      </g>
     </g>
    </g>
    <g id="text_7">
     <!-- $\beta$ -->
     <g transform="translate(123.241562 157.897031)scale(0.11 -0.11)">
      <defs>
       <path d="M -58 -813 
L 819 2355 
Q 902 2662 995 2908 
Q 1088 3155 1235 3433 
Q 1382 3712 1555 3901 
Q 1728 4090 1977 4214 
Q 2227 4339 2515 4339 
Q 2816 4339 3053 4182 
Q 3290 4026 3290 3693 
Q 3290 3328 3037 3001 
Q 2784 2675 2470 2534 
L 2470 2528 
Q 2682 2509 2858 2320 
Q 3034 2131 3034 1818 
Q 3034 1376 2694 873 
Q 2355 371 1901 122 
Q 1562 -70 1107 -70 
Q 922 -70 685 38 
L 442 -813 
Q 352 -1126 243 -1312 
L -256 -1312 
Q -154 -1158 -58 -813 
z
M 1491 3053 
L 762 288 
Q 762 186 848 118 
Q 934 51 1069 51 
Q 1594 51 2029 704 
Q 2464 1357 2464 2029 
Q 2464 2406 2208 2406 
Q 2150 2406 2044 2380 
Q 1939 2355 1888 2355 
Q 1805 2355 1750 2396 
Q 1696 2438 1696 2496 
Q 1696 2650 1978 2650 
Q 1997 2650 2099 2630 
Q 2202 2611 2253 2611 
Q 2451 2611 2640 2969 
Q 2829 3328 2829 3622 
Q 2829 3962 2713 4083 
Q 2598 4205 2400 4205 
Q 2080 4205 1846 3865 
Q 1613 3526 1491 3053 
z
" id="STIXGeneral-Italic-3b2" transform="scale(0.015625)"/>
      </defs>
      <use transform="translate(0 0.203125)" xlink:href="#STIXGeneral-Italic-3b2"/>
     </g>
    </g>
   </g>
   <g id="matplotlib.axis_2">
    <g id="ytick_1">
     <g id="line2d_7">
      <defs>
       <path d="M 0 0 
L -3.5 0 
" id="m823906df85" style="stroke:#000000;stroke-width:0.8;"/>
      </defs>
      <g>
       <use style="stroke:#000000;stroke-width:0.8;" x="42.955625" xlink:href="#m823906df85" y="129.484375"/>
      </g>
     </g>
     <g id="text_8">
      <!-- 0 -->
      <g transform="translate(30.455625 133.240703)scale(0.11 -0.11)">
       <use xlink:href="#STIXGeneral-Regular-30"/>
      </g>
     </g>
    </g>
    <g id="ytick_2">
     <g id="line2d_8">
      <g>
       <use style="stroke:#000000;stroke-width:0.8;" x="42.955625" xlink:href="#m823906df85" y="90.246686"/>
      </g>
     </g>
     <g id="text_9">
      <!-- 1000 -->
      <g transform="translate(13.955625 94.003014)scale(0.11 -0.11)">
       <use xlink:href="#STIXGeneral-Regular-31"/>
       <use x="49.999985" xlink:href="#STIXGeneral-Regular-30"/>
       <use x="99.999969" xlink:href="#STIXGeneral-Regular-30"/>
       <use x="149.999954" xlink:href="#STIXGeneral-Regular-30"/>
      </g>
     </g>
    </g>
    <g id="ytick_3">
     <g id="line2d_9">
      <g>
       <use style="stroke:#000000;stroke-width:0.8;" x="42.955625" xlink:href="#m823906df85" y="51.008996"/>
      </g>
     </g>
     <g id="text_10">
      <!-- 2000 -->
      <g transform="translate(13.955625 54.765324)scale(0.11 -0.11)">
       <use xlink:href="#STIXGeneral-Regular-32"/>
       <use x="49.999985" xlink:href="#STIXGeneral-Regular-30"/>
       <use x="99.999969" xlink:href="#STIXGeneral-Regular-30"/>
       <use x="149.999954" xlink:href="#STIXGeneral-Regular-30"/>
      </g>
     </g>
    </g>
    <g id="ytick_4">
     <g id="line2d_10">
      <g>
       <use style="stroke:#000000;stroke-width:0.8;" x="42.955625" xlink:href="#m823906df85" y="11.771307"/>
      </g>
     </g>
     <g id="text_11">
      <!-- 3000 -->
      <g transform="translate(13.955625 15.527635)scale(0.11 -0.11)">
       <defs>
        <path d="M 390 3264 
L 288 3290 
Q 435 3770 748 4048 
Q 1062 4326 1542 4326 
Q 1990 4326 2265 4083 
Q 2541 3840 2541 3450 
Q 2541 2925 1946 2566 
Q 2298 2413 2477 2227 
Q 2758 1914 2758 1402 
Q 2758 890 2464 506 
Q 2246 211 1840 60 
Q 1434 -90 979 -90 
Q 262 -90 262 275 
Q 262 378 339 442 
Q 416 506 525 506 
Q 685 506 915 339 
Q 1197 141 1466 141 
Q 1818 141 2058 425 
Q 2298 710 2298 1120 
Q 2298 1856 1632 2048 
Q 1434 2112 979 2112 
L 979 2202 
Q 1338 2323 1517 2432 
Q 2035 2726 2035 3290 
Q 2035 3610 1852 3776 
Q 1670 3942 1344 3942 
Q 768 3942 390 3264 
z
" id="STIXGeneral-Regular-33" transform="scale(0.015625)"/>
       </defs>
       <use xlink:href="#STIXGeneral-Regular-33"/>
       <use x="49.999985" xlink:href="#STIXGeneral-Regular-30"/>
       <use x="99.999969" xlink:href="#STIXGeneral-Regular-30"/>
       <use x="149.999954" xlink:href="#STIXGeneral-Regular-30"/>
      </g>
     </g>
    </g>
    <g id="text_12">
     <!-- Frequency (Hz) -->
     <g transform="translate(7.557969 99.409375)rotate(-90)scale(0.11 -0.11)">
      <defs>
       <path d="M 3494 3322 
L 3334 3322 
Q 3264 3757 3094 3875 
Q 2925 3994 2349 3994 
L 1504 3994 
Q 1370 3994 1328 3946 
Q 1286 3898 1286 3744 
L 1286 2355 
L 2195 2355 
Q 2598 2355 2736 2470 
Q 2874 2586 2918 2963 
L 3066 2963 
L 3066 1472 
L 2918 1472 
Q 2880 1862 2745 1977 
Q 2611 2093 2195 2093 
L 1286 2093 
L 1286 717 
Q 1286 352 1392 246 
Q 1498 141 1869 122 
L 1869 0 
L 70 0 
L 70 122 
Q 435 147 534 259 
Q 634 371 634 787 
L 634 3526 
Q 634 3878 538 3984 
Q 442 4090 77 4115 
L 77 4237 
L 3462 4237 
L 3494 3322 
z
" id="STIXGeneral-Regular-46" transform="scale(0.015625)"/>
       <path d="M 1024 2931 
L 1024 2342 
Q 1267 2688 1430 2816 
Q 1594 2944 1792 2944 
Q 1958 2944 2051 2854 
Q 2144 2765 2144 2605 
Q 2144 2470 2077 2393 
Q 2010 2317 1894 2317 
Q 1773 2317 1638 2445 
Q 1536 2541 1472 2541 
Q 1338 2541 1181 2355 
Q 1024 2170 1024 2016 
L 1024 576 
Q 1024 301 1133 205 
Q 1242 109 1568 96 
L 1568 0 
L 32 0 
L 32 96 
Q 339 154 412 224 
Q 486 294 486 538 
L 486 2138 
Q 486 2349 438 2435 
Q 390 2522 269 2522 
Q 166 2522 45 2496 
L 45 2598 
Q 448 2726 992 2944 
L 1024 2931 
z
" id="STIXGeneral-Regular-72" transform="scale(0.015625)"/>
       <path d="M 2611 1050 
L 2714 1005 
Q 2330 -64 1376 -64 
Q 813 -64 486 329 
Q 160 723 160 1389 
Q 160 2074 525 2509 
Q 890 2944 1485 2944 
Q 2061 2944 2374 2502 
Q 2560 2246 2592 1773 
L 621 1773 
Q 646 1370 700 1158 
Q 755 947 915 730 
Q 1184 378 1626 378 
Q 1939 378 2153 531 
Q 2368 685 2611 1050 
z
M 634 1978 
L 1939 1978 
Q 1882 2381 1750 2547 
Q 1619 2714 1312 2714 
Q 1043 2714 864 2525 
Q 685 2336 634 1978 
z
" id="STIXGeneral-Regular-65" transform="scale(0.015625)"/>
       <path d="M 3123 -1389 
L 1613 -1389 
L 1613 -1280 
Q 1952 -1254 2067 -1158 
Q 2182 -1062 2182 -794 
L 2182 410 
Q 1747 -64 1178 -64 
Q 730 -64 442 320 
Q 154 704 154 1312 
Q 154 2003 560 2473 
Q 966 2944 1562 2944 
Q 1920 2944 2304 2720 
L 2650 2925 
L 2720 2925 
L 2720 -902 
Q 2720 -1107 2797 -1180 
Q 2874 -1254 3123 -1280 
L 3123 -1389 
z
M 2182 813 
L 2182 2131 
Q 2182 2758 1587 2758 
Q 1178 2758 941 2432 
Q 704 2106 704 1542 
Q 704 1210 803 925 
Q 902 640 1062 499 
Q 1254 326 1542 326 
Q 1882 326 2106 531 
Q 2182 602 2182 813 
z
" id="STIXGeneral-Regular-71" transform="scale(0.015625)"/>
       <path d="M 3072 320 
L 3072 230 
Q 2573 96 2195 -58 
L 2163 -38 
L 2163 486 
L 2150 486 
Q 1747 -64 1235 -64 
Q 870 -64 662 160 
Q 454 384 454 755 
L 454 2362 
Q 454 2598 371 2688 
Q 288 2778 58 2790 
L 58 2880 
L 992 2880 
L 992 813 
Q 992 595 1123 451 
Q 1254 307 1446 307 
Q 1760 307 1984 506 
Q 2067 582 2099 649 
Q 2131 717 2131 877 
L 2131 2355 
Q 2131 2605 2041 2678 
Q 1952 2752 1658 2771 
L 1658 2880 
L 2669 2880 
L 2669 685 
Q 2669 461 2742 390 
Q 2816 320 3034 320 
L 3072 320 
z
" id="STIXGeneral-Regular-75" transform="scale(0.015625)"/>
       <path d="M 3104 0 
L 1773 0 
L 1779 96 
Q 2016 115 2096 233 
Q 2176 352 2176 672 
L 2176 1946 
Q 2176 2592 1709 2592 
Q 1549 2592 1408 2515 
Q 1267 2438 1050 2227 
L 1050 461 
Q 1050 269 1136 192 
Q 1222 115 1466 96 
L 1466 0 
L 115 0 
L 115 96 
Q 358 115 435 214 
Q 512 314 512 602 
L 512 2157 
Q 512 2394 467 2483 
Q 422 2573 288 2573 
Q 160 2573 102 2547 
L 102 2656 
Q 550 2784 979 2944 
L 1030 2925 
L 1030 2426 
L 1037 2426 
Q 1491 2944 1958 2944 
Q 2323 2944 2518 2688 
Q 2714 2432 2714 1958 
L 2714 544 
Q 2714 288 2790 205 
Q 2867 122 3104 96 
L 3104 0 
z
" id="STIXGeneral-Regular-6e" transform="scale(0.015625)"/>
       <path d="M 2547 998 
L 2637 941 
Q 2362 403 2112 205 
Q 1786 -64 1376 -64 
Q 845 -64 502 336 
Q 160 736 160 1357 
Q 160 2170 698 2618 
Q 1094 2944 1562 2944 
Q 1965 2944 2256 2749 
Q 2547 2554 2547 2285 
Q 2547 2176 2457 2096 
Q 2368 2016 2246 2016 
Q 2022 2016 1939 2310 
L 1901 2451 
Q 1850 2630 1773 2694 
Q 1696 2758 1523 2758 
Q 1133 2758 893 2451 
Q 653 2144 653 1645 
Q 653 1094 928 745 
Q 1203 397 1645 397 
Q 1920 397 2118 528 
Q 2317 659 2547 998 
z
" id="STIXGeneral-Regular-63" transform="scale(0.015625)"/>
       <path d="M 3040 2880 
L 3040 2784 
Q 2925 2771 2854 2700 
Q 2784 2630 2720 2458 
L 1760 -160 
Q 1510 -838 1257 -1116 
Q 1005 -1395 640 -1395 
Q 435 -1395 313 -1289 
Q 192 -1184 192 -1024 
Q 192 -902 272 -816 
Q 352 -730 467 -730 
Q 653 -730 800 -813 
Q 883 -858 966 -858 
Q 1101 -858 1286 -576 
Q 1376 -448 1459 -211 
Q 1542 26 1542 115 
Q 1542 198 1274 762 
L 429 2566 
Q 346 2752 90 2790 
L 90 2880 
L 1402 2880 
L 1402 2784 
Q 1197 2778 1117 2739 
Q 1037 2701 1037 2611 
Q 1037 2541 1120 2349 
L 1837 749 
L 2458 2515 
Q 2483 2573 2483 2630 
Q 2483 2784 2189 2784 
L 2189 2880 
L 3040 2880 
z
" id="STIXGeneral-Regular-79" transform="scale(0.015625)"/>
       <path id="STIXGeneral-Regular-20" transform="scale(0.015625)"/>
       <path d="M 1946 -1030 
L 1869 -1133 
Q 1126 -710 716 32 
Q 307 774 307 1613 
Q 307 3386 1888 4326 
L 1946 4224 
Q 1293 3667 1075 3126 
Q 858 2586 858 1632 
Q 858 685 1082 96 
Q 1306 -493 1946 -1030 
z
" id="STIXGeneral-Regular-28" transform="scale(0.015625)"/>
       <path d="M 4499 0 
L 2714 0 
L 2714 122 
Q 3085 147 3181 265 
Q 3277 384 3277 794 
L 3277 2016 
L 1338 2016 
L 1338 723 
Q 1338 371 1440 256 
Q 1542 141 1894 122 
L 1901 0 
L 115 0 
L 115 122 
Q 493 147 589 259 
Q 685 371 685 781 
L 685 3507 
Q 685 3878 585 3980 
Q 486 4083 115 4115 
L 115 4237 
L 1907 4237 
L 1907 4115 
Q 1549 4083 1443 3977 
Q 1338 3872 1338 3507 
L 1338 2298 
L 3277 2298 
L 3277 3507 
Q 3277 3878 3177 3980 
Q 3078 4083 2707 4115 
L 2707 4237 
L 4499 4237 
L 4499 4115 
Q 4141 4083 4035 3977 
Q 3930 3872 3930 3507 
L 3930 710 
Q 3930 371 4035 259 
Q 4141 147 4499 122 
L 4499 0 
z
" id="STIXGeneral-Regular-48" transform="scale(0.015625)"/>
       <path d="M 2675 870 
L 2579 0 
L 173 0 
L 173 96 
L 1875 2688 
L 1011 2688 
Q 710 2688 604 2582 
Q 499 2477 454 2125 
L 339 2125 
L 365 2880 
L 2579 2880 
L 2579 2784 
L 858 192 
L 1709 192 
Q 2246 192 2387 365 
Q 2477 474 2560 896 
L 2675 870 
z
" id="STIXGeneral-Regular-7a" transform="scale(0.015625)"/>
       <path d="M 186 4224 
L 262 4326 
Q 992 3891 1408 3148 
Q 1824 2406 1824 1581 
Q 1824 -166 243 -1133 
L 186 -1030 
Q 845 -486 1059 54 
Q 1274 595 1274 1562 
Q 1274 2534 1059 3120 
Q 845 3706 186 4224 
z
" id="STIXGeneral-Regular-29" transform="scale(0.015625)"/>
      </defs>
      <use xlink:href="#STIXGeneral-Regular-46"/>
      <use x="55.599991" xlink:href="#STIXGeneral-Regular-72"/>
      <use x="88.899979" xlink:href="#STIXGeneral-Regular-65"/>
      <use x="133.299973" xlink:href="#STIXGeneral-Regular-71"/>
      <use x="183.299957" xlink:href="#STIXGeneral-Regular-75"/>
      <use x="233.299942" xlink:href="#STIXGeneral-Regular-65"/>
      <use x="277.699936" xlink:href="#STIXGeneral-Regular-6e"/>
      <use x="327.699921" xlink:href="#STIXGeneral-Regular-63"/>
      <use x="372.099915" xlink:href="#STIXGeneral-Regular-79"/>
      <use x="422.099899" xlink:href="#STIXGeneral-Regular-20"/>
      <use x="447.099884" xlink:href="#STIXGeneral-Regular-28"/>
      <use x="480.399872" xlink:href="#STIXGeneral-Regular-48"/>
      <use x="552.599854" xlink:href="#STIXGeneral-Regular-7a"/>
      <use x="596.999847" xlink:href="#STIXGeneral-Regular-29"/>
     </g>
    </g>
   </g>
   <g id="line2d_11">
    <path clip-path="url(#p69fac7b089)" d="M 42.955625 111.202116 
L 47.110172 106.299807 
L 51.264719 102.758883 
L 55.419266 100.008338 
L 59.573813 97.786508 
L 63.728359 95.946483 
L 67.882906 94.395864 
L 72.037453 93.072131 
L 76.192 91.930762 
L 80.346547 90.938826 
L 84.501094 90.071245 
L 88.655641 89.308468 
L 92.810188 88.63496 
L 96.964734 88.038182 
L 101.119281 87.50787 
L 105.273828 87.035528 
L 109.428375 86.614054 
L 113.582922 86.23745 
L 117.737469 85.900618 
L 121.892016 85.599192 
L 126.046562 85.329406 
L 130.201109 85.087996 
L 134.355656 84.872117 
L 138.510203 84.679278 
L 142.66475 84.507285 
L 146.819297 84.354204 
L 150.973844 84.218317 
L 155.128391 84.098096 
L 159.282938 83.992178 
L 163.437484 83.899341 
L 167.592031 83.81849 
L 171.746578 83.748636 
L 175.901125 83.688889 
L 180.055672 83.638441 
L 184.210219 83.596563 
L 188.364766 83.562589 
L 192.519312 83.535914 
L 196.673859 83.515986 
L 200.828406 83.502301 
L 204.982953 83.494397 
L 209.1375 83.491851 
" style="fill:none;stroke:#000000;stroke-dasharray:9.6,2.4,1.5,2.4;stroke-dashoffset:0;stroke-width:1.5;"/>
    <defs>
     <path d="M -3 3 
L 3 3 
L 3 -3 
L -3 -3 
z
" id="m5df59b0f37" style="stroke:#000000;stroke-linejoin:miter;"/>
    </defs>
    <g clip-path="url(#p69fac7b089)">
     <use style="fill-opacity:0;stroke:#000000;stroke-linejoin:miter;" x="42.955625" xlink:href="#m5df59b0f37" y="111.202116"/>
     <use style="fill-opacity:0;stroke:#000000;stroke-linejoin:miter;" x="76.192" xlink:href="#m5df59b0f37" y="91.930762"/>
     <use style="fill-opacity:0;stroke:#000000;stroke-linejoin:miter;" x="109.428375" xlink:href="#m5df59b0f37" y="86.614054"/>
     <use style="fill-opacity:0;stroke:#000000;stroke-linejoin:miter;" x="142.66475" xlink:href="#m5df59b0f37" y="84.507285"/>
     <use style="fill-opacity:0;stroke:#000000;stroke-linejoin:miter;" x="175.901125" xlink:href="#m5df59b0f37" y="83.688889"/>
     <use style="fill-opacity:0;stroke:#000000;stroke-linejoin:miter;" x="209.1375" xlink:href="#m5df59b0f37" y="83.491851"/>
    </g>
   </g>
   <g id="line2d_12">
    <path clip-path="url(#p69fac7b089)" d="M 42.955625 92.64921 
L 47.110172 83.066624 
L 51.264719 76.297122 
L 55.419266 71.135489 
L 59.573813 67.031873 
L 63.728359 63.679974 
L 67.882906 60.889082 
L 72.037453 58.531617 
L 76.192 56.517811 
L 80.346547 54.782076 
L 84.501094 53.275061 
L 88.655641 51.958746 
L 92.810188 50.803267 
L 96.964734 49.784775 
L 101.119281 48.883959 
L 105.273828 48.084992 
L 109.428375 47.374761 
L 113.582922 46.7423 
L 117.737469 46.178362 
L 121.892016 45.675089 
L 126.046562 45.225758 
L 130.201109 44.824582 
L 134.355656 44.466549 
L 138.510203 44.1473 
L 142.66475 43.86302 
L 146.819297 43.610359 
L 150.973844 43.386363 
L 155.128391 43.188417 
L 159.282938 43.014194 
L 163.437484 42.861624 
L 167.592031 42.728854 
L 171.746578 42.614219 
L 175.901125 42.516227 
L 180.055672 42.433529 
L 184.210219 42.364906 
L 188.364766 42.309254 
L 192.519312 42.26557 
L 196.673859 42.232943 
L 200.828406 42.21054 
L 204.982953 42.197602 
L 209.1375 42.193434 
" style="fill:none;stroke:#ff0000;stroke-linecap:square;stroke-width:1.5;"/>
    <defs>
     <path d="M 0 3 
C 0.795609 3 1.55874 2.683901 2.12132 2.12132 
C 2.683901 1.55874 3 0.795609 3 0 
C 3 -0.795609 2.683901 -1.55874 2.12132 -2.12132 
C 1.55874 -2.683901 0.795609 -3 0 -3 
C -0.795609 -3 -1.55874 -2.683901 -2.12132 -2.12132 
C -2.683901 -1.55874 -3 -0.795609 -3 0 
C -3 0.795609 -2.683901 1.55874 -2.12132 2.12132 
C -1.55874 2.683901 -0.795609 3 0 3 
z
" id="m4fef982d63" style="stroke:#ff0000;"/>
    </defs>
    <g clip-path="url(#p69fac7b089)">
     <use style="fill-opacity:0;stroke:#ff0000;" x="42.955625" xlink:href="#m4fef982d63" y="92.64921"/>
     <use style="fill-opacity:0;stroke:#ff0000;" x="76.192" xlink:href="#m4fef982d63" y="56.517811"/>
     <use style="fill-opacity:0;stroke:#ff0000;" x="109.428375" xlink:href="#m4fef982d63" y="47.374761"/>
     <use style="fill-opacity:0;stroke:#ff0000;" x="142.66475" xlink:href="#m4fef982d63" y="43.86302"/>
     <use style="fill-opacity:0;stroke:#ff0000;" x="175.901125" xlink:href="#m4fef982d63" y="42.516227"/>
     <use style="fill-opacity:0;stroke:#ff0000;" x="209.1375" xlink:href="#m4fef982d63" y="42.193434"/>
    </g>
   </g>
   <g id="line2d_13">
    <path clip-path="url(#p69fac7b089)" d="M 42.955625 92.596862 
L 47.110172 83.030456 
L 51.264719 76.269626 
L 55.419266 71.113511 
L 59.573813 67.013733 
L 63.728359 63.664655 
L 67.882906 60.875916 
L 72.037453 58.520141 
L 76.192 56.507692 
L 80.346547 54.773063 
L 84.501094 53.266963 
L 88.655641 51.951415 
L 92.810188 50.796582 
L 96.964734 49.778641 
L 101.119281 48.878299 
L 105.273828 48.07974 
L 109.428375 47.369863 
L 113.582922 46.73771 
L 117.737469 46.174041 
L 121.892016 45.671004 
L 126.046562 45.221881 
L 130.201109 44.820887 
L 134.355656 44.463015 
L 138.510203 44.143907 
L 142.66475 43.859751 
L 146.819297 43.607201 
L 150.973844 43.383301 
L 155.128391 43.185439 
L 159.282938 43.011291 
L 163.437484 42.858785 
L 167.592031 42.72607 
L 171.746578 42.611484 
L 175.901125 42.513532 
L 180.055672 42.430868 
L 184.210219 42.362274 
L 188.364766 42.306644 
L 192.519312 42.262979 
L 196.673859 42.230365 
L 200.828406 42.207971 
L 204.982953 42.195039 
L 209.1375 42.190872 
" style="fill:none;stroke:#0000ff;stroke-dasharray:5.55,2.4;stroke-dashoffset:0;stroke-width:1.5;"/>
    <defs>
     <path d="M -3 3 
L 3 -3 
M -3 -3 
L 3 3 
" id="mbcea003ad9" style="stroke:#0000ff;"/>
    </defs>
    <g clip-path="url(#p69fac7b089)">
     <use style="fill-opacity:0;stroke:#0000ff;" x="42.955625" xlink:href="#mbcea003ad9" y="92.596862"/>
     <use style="fill-opacity:0;stroke:#0000ff;" x="76.192" xlink:href="#mbcea003ad9" y="56.507692"/>
     <use style="fill-opacity:0;stroke:#0000ff;" x="109.428375" xlink:href="#mbcea003ad9" y="47.369863"/>
     <use style="fill-opacity:0;stroke:#0000ff;" x="142.66475" xlink:href="#mbcea003ad9" y="43.859751"/>
     <use style="fill-opacity:0;stroke:#0000ff;" x="175.901125" xlink:href="#mbcea003ad9" y="42.513532"/>
     <use style="fill-opacity:0;stroke:#0000ff;" x="209.1375" xlink:href="#mbcea003ad9" y="42.190872"/>
    </g>
   </g>
   <g id="line2d_14">
    <path clip-path="url(#p69fac7b089)" d="M 42.955625 75.711403 
L 47.110172 62.123269 
L 51.264719 52.687 
L 55.419266 45.588277 
L 59.573813 40.006202 
L 63.728359 35.488043 
L 67.882906 31.75488 
L 72.037453 28.622065 
L 76.192 25.96097 
L 80.346547 23.678493 
L 84.501094 21.705196 
L 88.655641 19.988018 
L 92.810188 18.485595 
L 96.964734 17.165124 
L 101.119281 16.000218 
L 105.273828 14.969373 
L 109.428375 14.054878 
L 113.582922 13.241993 
L 117.737469 12.51835 
L 121.892016 11.873484 
L 126.046562 11.29848 
L 130.201109 10.785691 
L 134.355656 10.328521 
L 138.510203 9.921248 
L 142.66475 9.558884 
L 146.819297 9.237059 
L 150.973844 8.951932 
L 155.128391 8.700107 
L 159.282938 8.478578 
L 163.437484 8.284666 
L 167.592031 8.115984 
L 171.746578 7.970393 
L 175.901125 7.845975 
L 180.055672 7.741001 
L 184.210219 7.653911 
L 188.364766 7.583295 
L 192.519312 7.527873 
L 196.673859 7.486482 
L 200.828406 7.458065 
L 204.982953 7.441654 
L 209.1375 7.436367 
" style="fill:none;stroke:#008000;stroke-dasharray:1.5,2.475;stroke-dashoffset:0;stroke-width:1.5;"/>
    <defs>
     <path d="M 0 -3 
L -3 3 
L 3 3 
z
" id="m31a98cd78a" style="stroke:#008000;stroke-linejoin:miter;"/>
    </defs>
    <g clip-path="url(#p69fac7b089)">
     <use style="fill-opacity:0;stroke:#008000;stroke-linejoin:miter;" x="42.955625" xlink:href="#m31a98cd78a" y="75.711403"/>
     <use style="fill-opacity:0;stroke:#008000;stroke-linejoin:miter;" x="76.192" xlink:href="#m31a98cd78a" y="25.96097"/>
     <use style="fill-opacity:0;stroke:#008000;stroke-linejoin:miter;" x="109.428375" xlink:href="#m31a98cd78a" y="14.054878"/>
     <use style="fill-opacity:0;stroke:#008000;stroke-linejoin:miter;" x="142.66475" xlink:href="#m31a98cd78a" y="9.558884"/>
     <use style="fill-opacity:0;stroke:#008000;stroke-linejoin:miter;" x="175.901125" xlink:href="#m31a98cd78a" y="7.845975"/>
     <use style="fill-opacity:0;stroke:#008000;stroke-linejoin:miter;" x="209.1375" xlink:href="#m31a98cd78a" y="7.436367"/>
    </g>
   </g>
   <g id="patch_3">
    <path d="M 42.955625 129.484375 
L 42.955625 0 
" style="fill:none;stroke:#000000;stroke-linecap:square;stroke-linejoin:miter;stroke-width:0.8;"/>
   </g>
   <g id="patch_4">
    <path d="M 209.1375 129.484375 
L 209.1375 0 
" style="fill:none;stroke:#000000;stroke-linecap:square;stroke-linejoin:miter;stroke-width:0.8;"/>
   </g>
   <g id="patch_5">
    <path d="M 42.955625 129.484375 
L 209.1375 129.484375 
" style="fill:none;stroke:#000000;stroke-linecap:square;stroke-linejoin:miter;stroke-width:0.8;"/>
   </g>
   <g id="patch_6">
    <path d="M 42.955625 0 
L 209.1375 0 
" style="fill:none;stroke:#000000;stroke-linecap:square;stroke-linejoin:miter;stroke-width:0.8;"/>
   </g>
   <g id="legend_1">
    <g id="patch_7">
     <path d="M 103.460907 124.902875 
L 202.7234 124.902875 
Q 204.556 124.902875 204.556 123.070275 
L 204.556 98.01806 
Q 204.556 96.18546 202.7234 96.18546 
L 103.460907 96.18546 
Q 101.628307 96.18546 101.628307 98.01806 
L 101.628307 123.070275 
Q 101.628307 124.902875 103.460907 124.902875 
z
" style="fill:#ffffff;opacity:0.8;stroke:#cccccc;stroke-linejoin:miter;"/>
    </g>
    <g id="line2d_15">
     <path d="M 105.293507 103.05771 
L 123.619507 103.05771 
" style="fill:none;stroke:#000000;stroke-dasharray:9.6,2.4,1.5,2.4;stroke-dashoffset:0;stroke-width:1.5;"/>
    </g>
    <g id="line2d_16">
     <g>
      <use style="fill-opacity:0;stroke:#000000;stroke-linejoin:miter;" x="114.456507" xlink:href="#m5df59b0f37" y="103.05771"/>
     </g>
    </g>
    <g id="text_13">
     <!-- 1st -->
     <g transform="translate(130.949907 106.26476)scale(0.09163 -0.09163)">
      <defs>
       <path d="M 998 1926 
L 1664 1523 
Q 1984 1331 2105 1164 
Q 2227 998 2227 736 
Q 2227 416 1961 176 
Q 1696 -64 1331 -64 
Q 1030 -64 864 -6 
Q 691 51 570 51 
Q 461 51 416 -26 
L 333 -26 
L 333 979 
L 435 979 
Q 538 512 730 294 
Q 922 77 1248 77 
Q 1485 77 1632 211 
Q 1779 346 1779 550 
Q 1779 845 1440 1030 
L 1094 1222 
Q 326 1651 326 2150 
Q 326 2522 566 2730 
Q 806 2938 1210 2938 
Q 1491 2938 1638 2867 
Q 1754 2816 1818 2816 
Q 1862 2816 1920 2880 
L 1990 2880 
L 2022 2010 
L 1926 2010 
Q 1818 2445 1654 2621 
Q 1491 2797 1203 2797 
Q 986 2797 854 2688 
Q 723 2579 723 2362 
Q 723 2253 796 2128 
Q 870 2003 998 1926 
z
" id="STIXGeneral-Regular-73" transform="scale(0.015625)"/>
       <path d="M 1702 493 
L 1786 422 
Q 1478 -64 1011 -64 
Q 448 -64 448 749 
L 448 2675 
L 109 2675 
Q 83 2694 83 2720 
Q 83 2771 192 2842 
Q 435 2982 813 3526 
Q 826 3546 874 3606 
Q 922 3667 941 3706 
Q 986 3706 986 3622 
L 986 2880 
L 1632 2880 
L 1632 2675 
L 986 2675 
L 986 845 
Q 986 538 1062 403 
Q 1139 269 1318 269 
Q 1510 269 1702 493 
z
" id="STIXGeneral-Regular-74" transform="scale(0.015625)"/>
      </defs>
      <use xlink:href="#STIXGeneral-Regular-31"/>
      <use x="49.999985" xlink:href="#STIXGeneral-Regular-73"/>
      <use x="88.899979" xlink:href="#STIXGeneral-Regular-74"/>
     </g>
    </g>
    <g id="line2d_17">
     <path d="M 105.293507 116.041968 
L 123.619507 116.041968 
" style="fill:none;stroke:#ff0000;stroke-linecap:square;stroke-width:1.5;"/>
    </g>
    <g id="line2d_18">
     <g>
      <use style="fill-opacity:0;stroke:#ff0000;" x="114.456507" xlink:href="#m4fef982d63" y="116.041968"/>
     </g>
    </g>
    <g id="text_14">
     <!-- 2nd -->
     <g transform="translate(130.949907 119.249018)scale(0.09163 -0.09163)">
      <defs>
       <path d="M 3142 269 
L 2202 -64 
L 2176 -45 
L 2176 365 
Q 1869 -64 1357 -64 
Q 826 -64 499 317 
Q 173 698 173 1312 
Q 173 1990 563 2467 
Q 954 2944 1504 2944 
Q 1850 2944 2176 2669 
L 2176 3667 
Q 2176 3866 2118 3930 
Q 2061 3994 1882 3994 
Q 1792 3994 1741 3987 
L 1741 4090 
Q 2323 4243 2682 4371 
L 2714 4358 
L 2714 730 
Q 2714 506 2768 435 
Q 2822 365 2995 365 
Q 3034 365 3142 371 
L 3142 269 
z
M 2176 653 
L 2176 2125 
Q 2176 2381 1981 2573 
Q 1786 2765 1523 2765 
Q 1158 2765 940 2438 
Q 723 2112 723 1568 
Q 723 979 963 624 
Q 1203 269 1606 269 
Q 1907 269 2080 474 
Q 2176 582 2176 653 
z
" id="STIXGeneral-Regular-64" transform="scale(0.015625)"/>
      </defs>
      <use xlink:href="#STIXGeneral-Regular-32"/>
      <use x="49.999985" xlink:href="#STIXGeneral-Regular-6e"/>
      <use x="99.999969" xlink:href="#STIXGeneral-Regular-64"/>
     </g>
    </g>
    <g id="line2d_19">
     <path d="M 163.020407 103.05771 
L 181.346407 103.05771 
" style="fill:none;stroke:#0000ff;stroke-dasharray:5.55,2.4;stroke-dashoffset:0;stroke-width:1.5;"/>
    </g>
    <g id="line2d_20">
     <g>
      <use style="fill-opacity:0;stroke:#0000ff;" x="172.183407" xlink:href="#mbcea003ad9" y="103.05771"/>
     </g>
    </g>
    <g id="text_15">
     <!-- 3rd -->
     <g transform="translate(188.676807 106.26476)scale(0.09163 -0.09163)">
      <use xlink:href="#STIXGeneral-Regular-33"/>
      <use x="49.999985" xlink:href="#STIXGeneral-Regular-72"/>
      <use x="83.299973" xlink:href="#STIXGeneral-Regular-64"/>
     </g>
    </g>
    <g id="line2d_21">
     <path d="M 163.020407 116.041968 
L 181.346407 116.041968 
" style="fill:none;stroke:#008000;stroke-dasharray:1.5,2.475;stroke-dashoffset:0;stroke-width:1.5;"/>
    </g>
    <g id="line2d_22">
     <g>
      <use style="fill-opacity:0;stroke:#008000;stroke-linejoin:miter;" x="172.183407" xlink:href="#m31a98cd78a" y="116.041968"/>
     </g>
    </g>
    <g id="text_16">
     <!-- 4th -->
     <g transform="translate(188.676807 119.249018)scale(0.09163 -0.09163)">
      <defs>
       <path d="M 3117 0 
L 1760 0 
L 1760 96 
Q 2042 128 2118 224 
Q 2195 320 2195 653 
L 2195 1920 
Q 2195 2598 1722 2598 
Q 1530 2598 1370 2508 
Q 1210 2419 1005 2195 
L 1005 653 
Q 1005 320 1081 224 
Q 1158 128 1440 96 
L 1440 0 
L 58 0 
L 58 96 
Q 333 134 400 224 
Q 467 314 467 653 
L 467 3667 
Q 467 3872 406 3933 
Q 346 3994 141 3994 
Q 83 3994 64 3987 
L 64 4090 
L 237 4141 
Q 730 4288 973 4371 
L 1005 4352 
L 1005 2406 
Q 1229 2694 1446 2819 
Q 1664 2944 1946 2944 
Q 2733 2944 2733 1926 
L 2733 653 
Q 2733 320 2793 233 
Q 2854 147 3117 96 
L 3117 0 
z
" id="STIXGeneral-Regular-68" transform="scale(0.015625)"/>
      </defs>
      <use xlink:href="#STIXGeneral-Regular-34"/>
      <use x="49.999985" xlink:href="#STIXGeneral-Regular-74"/>
      <use x="77.799973" xlink:href="#STIXGeneral-Regular-68"/>
     </g>
    </g>
   </g>
  </g>
 </g>
 <defs>
  <clipPath id="p69fac7b089">
   <rect height="129.484375" width="166.181875" x="42.955625" y="0"/>
  </clipPath>
 </defs>
</svg>
