<?xml version="1.0" encoding="utf-8" standalone="no"?>
<!DOCTYPE svg PUBLIC "-//W3C//DTD SVG 1.1//EN"
  "http://www.w3.org/Graphics/SVG/1.1/DTD/svg11.dtd">
<svg xmlns:xlink="http://www.w3.org/1999/xlink" width="216pt" height="180pt" viewBox="0 0 216 180" xmlns="http://www.w3.org/2000/svg" version="1.1">
 <metadata>
  <rdf:RDF xmlns:dc="http://purl.org/dc/elements/1.1/" xmlns:cc="http://creativecommons.org/ns#" xmlns:rdf="http://www.w3.org/1999/02/22-rdf-syntax-ns#">
   <cc:Work>
    <dc:type rdf:resource="http://purl.org/dc/dcmitype/StillImage"/>
    <dc:date>2022-10-17T14:16:49.869087</dc:date>
    <dc:format>image/svg+xml</dc:format>
    <dc:creator>
     <cc:Agent>
      <dc:title>Matplotlib v3.5.2, https://matplotlib.org/</dc:title>
     </cc:Agent>
    </dc:creator>
   </cc:Work>
  </rdf:RDF>
 </metadata>
 <defs>
  <style type="text/css">*{stroke-linejoin: round; stroke-linecap: butt}</style>
 </defs>
 <g id="figure_1">
  <g id="patch_1">
   <path d="M 0 180 
L 216 180 
L 216 0 
L 0 0 
z
" style="fill: #ffffff"/>
  </g>
  <g id="axes_1">
   <g id="patch_2">
    <path d="M 42.69125 149.27875 
L 213.255 149.27875 
L 213.255 0 
L 42.69125 0 
z
" style="fill: #ffffff"/>
   </g>
   <g id="matplotlib.axis_1">
    <g id="xtick_1">
     <g id="line2d_1">
      <defs>
       <path id="m1a6a5f731c" d="M 0 0 
L 0 3.5 
" style="stroke: #000000; stroke-width: 0.8"/>
      </defs>
      <g>
       <use xlink:href="#m1a6a5f731c" x="42.69125" y="149.27875" style="stroke: #000000; stroke-width: 0.8"/>
      </g>
     </g>
     <g id="text_1">
      <!-- 0 -->
      <g transform="translate(39.94125 163.791406)scale(0.11 -0.11)">
       <defs>
        <path id="STIXGeneral-Regular-30" d="M 3046 2112 
Q 3046 1683 2963 1302 
Q 2880 922 2717 602 
Q 2554 282 2266 96 
Q 1978 -90 1600 -90 
Q 1210 -90 915 108 
Q 621 307 461 640 
Q 301 973 227 1350 
Q 154 1728 154 2150 
Q 154 2746 301 3222 
Q 448 3699 790 4012 
Q 1133 4326 1626 4326 
Q 2253 4326 2649 3712 
Q 3046 3098 3046 2112 
z
M 2432 2080 
Q 2432 3091 2217 3625 
Q 2003 4160 1587 4160 
Q 1190 4160 979 3622 
Q 768 3085 768 2106 
Q 768 1120 979 598 
Q 1190 77 1600 77 
Q 2003 77 2217 598 
Q 2432 1120 2432 2080 
z
" transform="scale(0.015625)"/>
       </defs>
       <use xlink:href="#STIXGeneral-Regular-30"/>
      </g>
     </g>
    </g>
    <g id="xtick_2">
     <g id="line2d_2">
      <g>
       <use xlink:href="#m1a6a5f731c" x="85.332188" y="149.27875" style="stroke: #000000; stroke-width: 0.8"/>
      </g>
     </g>
     <g id="text_2">
      <!-- 1 -->
      <g transform="translate(82.582188 163.791406)scale(0.11 -0.11)">
       <defs>
        <path id="STIXGeneral-Regular-31" d="M 2522 0 
L 755 0 
L 755 96 
Q 1107 115 1235 227 
Q 1363 339 1363 608 
L 1363 3482 
Q 1363 3795 1171 3795 
Q 1082 3795 883 3718 
L 710 3654 
L 710 3744 
L 1856 4326 
L 1914 4307 
L 1914 486 
Q 1914 275 2042 185 
Q 2170 96 2522 96 
L 2522 0 
z
" transform="scale(0.015625)"/>
       </defs>
       <use xlink:href="#STIXGeneral-Regular-31"/>
      </g>
     </g>
    </g>
    <g id="xtick_3">
     <g id="line2d_3">
      <g>
       <use xlink:href="#m1a6a5f731c" x="127.973125" y="149.27875" style="stroke: #000000; stroke-width: 0.8"/>
      </g>
     </g>
     <g id="text_3">
      <!-- 2 -->
      <g transform="translate(125.223125 163.791406)scale(0.11 -0.11)">
       <defs>
        <path id="STIXGeneral-Regular-32" d="M 3034 877 
L 2688 0 
L 186 0 
L 186 77 
L 1325 1286 
Q 1773 1754 1965 2144 
Q 2157 2534 2157 2950 
Q 2157 3379 1920 3616 
Q 1683 3853 1267 3853 
Q 922 3853 720 3673 
Q 518 3494 326 3021 
L 192 3053 
Q 301 3648 630 3987 
Q 960 4326 1523 4326 
Q 2054 4326 2380 4006 
Q 2707 3686 2707 3200 
Q 2707 2477 1888 1613 
L 832 486 
L 2330 486 
Q 2541 486 2665 569 
Q 2790 653 2944 915 
L 3034 877 
z
" transform="scale(0.015625)"/>
       </defs>
       <use xlink:href="#STIXGeneral-Regular-32"/>
      </g>
     </g>
    </g>
    <g id="xtick_4">
     <g id="line2d_4">
      <g>
       <use xlink:href="#m1a6a5f731c" x="170.614062" y="149.27875" style="stroke: #000000; stroke-width: 0.8"/>
      </g>
     </g>
     <g id="text_4">
      <!-- 3 -->
      <g transform="translate(167.864062 163.791406)scale(0.11 -0.11)">
       <defs>
        <path id="STIXGeneral-Regular-33" d="M 390 3264 
L 288 3290 
Q 435 3770 748 4048 
Q 1062 4326 1542 4326 
Q 1990 4326 2265 4083 
Q 2541 3840 2541 3450 
Q 2541 2925 1946 2566 
Q 2298 2413 2477 2227 
Q 2758 1914 2758 1402 
Q 2758 890 2464 506 
Q 2246 211 1840 60 
Q 1434 -90 979 -90 
Q 262 -90 262 275 
Q 262 378 339 442 
Q 416 506 525 506 
Q 685 506 915 339 
Q 1197 141 1466 141 
Q 1818 141 2058 425 
Q 2298 710 2298 1120 
Q 2298 1856 1632 2048 
Q 1434 2112 979 2112 
L 979 2202 
Q 1338 2323 1517 2432 
Q 2035 2726 2035 3290 
Q 2035 3610 1852 3776 
Q 1670 3942 1344 3942 
Q 768 3942 390 3264 
z
" transform="scale(0.015625)"/>
       </defs>
       <use xlink:href="#STIXGeneral-Regular-33"/>
      </g>
     </g>
    </g>
    <g id="xtick_5">
     <g id="line2d_5">
      <g>
       <use xlink:href="#m1a6a5f731c" x="213.255" y="149.27875" style="stroke: #000000; stroke-width: 0.8"/>
      </g>
     </g>
     <g id="text_5">
      <!-- 4 -->
      <g transform="translate(210.505 163.791406)scale(0.11 -0.11)">
       <defs>
        <path id="STIXGeneral-Regular-34" d="M 3027 1069 
L 2368 1069 
L 2368 0 
L 1869 0 
L 1869 1069 
L 77 1069 
L 77 1478 
L 2086 4326 
L 2368 4326 
L 2368 1478 
L 3027 1478 
L 3027 1069 
z
M 1869 1478 
L 1869 3674 
L 333 1478 
L 1869 1478 
z
" transform="scale(0.015625)"/>
       </defs>
       <use xlink:href="#STIXGeneral-Regular-34"/>
      </g>
     </g>
    </g>
    <g id="text_6">
     <!-- $\eta_1$ -->
     <g transform="translate(123.188125 177.691406)scale(0.11 -0.11)">
      <defs>
       <path id="STIXGeneral-Italic-3b7" d="M 947 1459 
L 960 1453 
Q 1811 2822 2374 2822 
Q 2573 2822 2701 2729 
Q 2829 2637 2829 2458 
Q 2829 2304 2765 2054 
L 2208 0 
Q 2016 -698 2016 -1094 
Q 2016 -1190 2067 -1312 
L 1600 -1312 
Q 1530 -1229 1530 -1030 
Q 1530 -710 1741 58 
L 2221 1811 
Q 2310 2112 2310 2272 
Q 2310 2496 2150 2496 
Q 1894 2496 1427 1897 
Q 960 1299 774 678 
L 570 0 
L 90 0 
L 614 1952 
Q 704 2272 704 2349 
Q 704 2458 614 2458 
Q 589 2458 560 2445 
Q 531 2432 499 2403 
Q 467 2374 438 2348 
Q 410 2323 374 2281 
Q 339 2240 316 2211 
Q 294 2182 259 2140 
Q 224 2099 211 2086 
L 134 2150 
Q 218 2291 320 2413 
Q 634 2803 941 2803 
Q 1197 2803 1197 2515 
Q 1197 2253 947 1459 
z
" transform="scale(0.015625)"/>
      </defs>
      <use xlink:href="#STIXGeneral-Italic-3b7" transform="translate(0 0.90625)"/>
      <use xlink:href="#STIXGeneral-Regular-31" transform="translate(47.399994 -12.321875)scale(0.7)"/>
     </g>
    </g>
   </g>
   <g id="matplotlib.axis_2">
    <g id="ytick_1">
     <g id="line2d_6">
      <defs>
       <path id="m57984f4636" d="M 0 0 
L -3.5 0 
" style="stroke: #000000; stroke-width: 0.8"/>
      </defs>
      <g>
       <use xlink:href="#m57984f4636" x="42.69125" y="143.947366" style="stroke: #000000; stroke-width: 0.8"/>
      </g>
     </g>
     <g id="text_7">
      <!-- 500 -->
      <g transform="translate(19.19125 147.703694)scale(0.11 -0.11)">
       <defs>
        <path id="STIXGeneral-Regular-35" d="M 2803 4358 
L 2573 3814 
Q 2534 3731 2400 3731 
L 1158 3731 
L 902 3187 
Q 1606 3053 1920 2896 
Q 2234 2739 2502 2368 
Q 2726 2061 2726 1555 
Q 2726 1094 2576 780 
Q 2426 467 2099 224 
Q 1664 -90 1011 -90 
Q 646 -90 422 19 
Q 198 128 198 307 
Q 198 550 486 550 
Q 717 550 960 352 
Q 1210 147 1414 147 
Q 1747 147 2012 480 
Q 2278 813 2278 1229 
Q 2278 1843 1850 2189 
Q 1293 2637 486 2637 
Q 410 2637 410 2688 
L 416 2720 
L 1114 4237 
L 2438 4237 
Q 2547 4237 2608 4269 
Q 2669 4301 2746 4403 
L 2803 4358 
z
" transform="scale(0.015625)"/>
       </defs>
       <use xlink:href="#STIXGeneral-Regular-35"/>
       <use xlink:href="#STIXGeneral-Regular-30" x="49.999985"/>
       <use xlink:href="#STIXGeneral-Regular-30" x="99.999969"/>
      </g>
     </g>
    </g>
    <g id="ytick_2">
     <g id="line2d_7">
      <g>
       <use xlink:href="#m57984f4636" x="42.69125" y="117.290446" style="stroke: #000000; stroke-width: 0.8"/>
      </g>
     </g>
     <g id="text_8">
      <!-- 1000 -->
      <g transform="translate(13.69125 121.046775)scale(0.11 -0.11)">
       <use xlink:href="#STIXGeneral-Regular-31"/>
       <use xlink:href="#STIXGeneral-Regular-30" x="49.999985"/>
       <use xlink:href="#STIXGeneral-Regular-30" x="99.999969"/>
       <use xlink:href="#STIXGeneral-Regular-30" x="149.999954"/>
      </g>
     </g>
    </g>
    <g id="ytick_3">
     <g id="line2d_8">
      <g>
       <use xlink:href="#m57984f4636" x="42.69125" y="90.633527" style="stroke: #000000; stroke-width: 0.8"/>
      </g>
     </g>
     <g id="text_9">
      <!-- 1500 -->
      <g transform="translate(13.69125 94.389855)scale(0.11 -0.11)">
       <use xlink:href="#STIXGeneral-Regular-31"/>
       <use xlink:href="#STIXGeneral-Regular-35" x="49.999985"/>
       <use xlink:href="#STIXGeneral-Regular-30" x="99.999969"/>
       <use xlink:href="#STIXGeneral-Regular-30" x="149.999954"/>
      </g>
     </g>
    </g>
    <g id="ytick_4">
     <g id="line2d_9">
      <g>
       <use xlink:href="#m57984f4636" x="42.69125" y="63.976607" style="stroke: #000000; stroke-width: 0.8"/>
      </g>
     </g>
     <g id="text_10">
      <!-- 2000 -->
      <g transform="translate(13.69125 67.732935)scale(0.11 -0.11)">
       <use xlink:href="#STIXGeneral-Regular-32"/>
       <use xlink:href="#STIXGeneral-Regular-30" x="49.999985"/>
       <use xlink:href="#STIXGeneral-Regular-30" x="99.999969"/>
       <use xlink:href="#STIXGeneral-Regular-30" x="149.999954"/>
      </g>
     </g>
    </g>
    <g id="ytick_5">
     <g id="line2d_10">
      <g>
       <use xlink:href="#m57984f4636" x="42.69125" y="37.319688" style="stroke: #000000; stroke-width: 0.8"/>
      </g>
     </g>
     <g id="text_11">
      <!-- 2500 -->
      <g transform="translate(13.69125 41.076016)scale(0.11 -0.11)">
       <use xlink:href="#STIXGeneral-Regular-32"/>
       <use xlink:href="#STIXGeneral-Regular-35" x="49.999985"/>
       <use xlink:href="#STIXGeneral-Regular-30" x="99.999969"/>
       <use xlink:href="#STIXGeneral-Regular-30" x="149.999954"/>
      </g>
     </g>
    </g>
    <g id="ytick_6">
     <g id="line2d_11">
      <g>
       <use xlink:href="#m57984f4636" x="42.69125" y="10.662768" style="stroke: #000000; stroke-width: 0.8"/>
      </g>
     </g>
     <g id="text_12">
      <!-- 3000 -->
      <g transform="translate(13.69125 14.419096)scale(0.11 -0.11)">
       <use xlink:href="#STIXGeneral-Regular-33"/>
       <use xlink:href="#STIXGeneral-Regular-30" x="49.999985"/>
       <use xlink:href="#STIXGeneral-Regular-30" x="99.999969"/>
       <use xlink:href="#STIXGeneral-Regular-30" x="149.999954"/>
      </g>
     </g>
    </g>
    <g id="text_13">
     <!-- Frequency (Hz) -->
     <g transform="translate(7.293594 109.306563)rotate(-90)scale(0.11 -0.11)">
      <defs>
       <path id="STIXGeneral-Regular-46" d="M 3494 3322 
L 3334 3322 
Q 3264 3757 3094 3875 
Q 2925 3994 2349 3994 
L 1504 3994 
Q 1370 3994 1328 3946 
Q 1286 3898 1286 3744 
L 1286 2355 
L 2195 2355 
Q 2598 2355 2736 2470 
Q 2874 2586 2918 2963 
L 3066 2963 
L 3066 1472 
L 2918 1472 
Q 2880 1862 2745 1977 
Q 2611 2093 2195 2093 
L 1286 2093 
L 1286 717 
Q 1286 352 1392 246 
Q 1498 141 1869 122 
L 1869 0 
L 70 0 
L 70 122 
Q 435 147 534 259 
Q 634 371 634 787 
L 634 3526 
Q 634 3878 538 3984 
Q 442 4090 77 4115 
L 77 4237 
L 3462 4237 
L 3494 3322 
z
" transform="scale(0.015625)"/>
       <path id="STIXGeneral-Regular-72" d="M 1024 2931 
L 1024 2342 
Q 1267 2688 1430 2816 
Q 1594 2944 1792 2944 
Q 1958 2944 2051 2854 
Q 2144 2765 2144 2605 
Q 2144 2470 2077 2393 
Q 2010 2317 1894 2317 
Q 1773 2317 1638 2445 
Q 1536 2541 1472 2541 
Q 1338 2541 1181 2355 
Q 1024 2170 1024 2016 
L 1024 576 
Q 1024 301 1133 205 
Q 1242 109 1568 96 
L 1568 0 
L 32 0 
L 32 96 
Q 339 154 412 224 
Q 486 294 486 538 
L 486 2138 
Q 486 2349 438 2435 
Q 390 2522 269 2522 
Q 166 2522 45 2496 
L 45 2598 
Q 448 2726 992 2944 
L 1024 2931 
z
" transform="scale(0.015625)"/>
       <path id="STIXGeneral-Regular-65" d="M 2611 1050 
L 2714 1005 
Q 2330 -64 1376 -64 
Q 813 -64 486 329 
Q 160 723 160 1389 
Q 160 2074 525 2509 
Q 890 2944 1485 2944 
Q 2061 2944 2374 2502 
Q 2560 2246 2592 1773 
L 621 1773 
Q 646 1370 700 1158 
Q 755 947 915 730 
Q 1184 378 1626 378 
Q 1939 378 2153 531 
Q 2368 685 2611 1050 
z
M 634 1978 
L 1939 1978 
Q 1882 2381 1750 2547 
Q 1619 2714 1312 2714 
Q 1043 2714 864 2525 
Q 685 2336 634 1978 
z
" transform="scale(0.015625)"/>
       <path id="STIXGeneral-Regular-71" d="M 3123 -1389 
L 1613 -1389 
L 1613 -1280 
Q 1952 -1254 2067 -1158 
Q 2182 -1062 2182 -794 
L 2182 410 
Q 1747 -64 1178 -64 
Q 730 -64 442 320 
Q 154 704 154 1312 
Q 154 2003 560 2473 
Q 966 2944 1562 2944 
Q 1920 2944 2304 2720 
L 2650 2925 
L 2720 2925 
L 2720 -902 
Q 2720 -1107 2797 -1180 
Q 2874 -1254 3123 -1280 
L 3123 -1389 
z
M 2182 813 
L 2182 2131 
Q 2182 2758 1587 2758 
Q 1178 2758 941 2432 
Q 704 2106 704 1542 
Q 704 1210 803 925 
Q 902 640 1062 499 
Q 1254 326 1542 326 
Q 1882 326 2106 531 
Q 2182 602 2182 813 
z
" transform="scale(0.015625)"/>
       <path id="STIXGeneral-Regular-75" d="M 3072 320 
L 3072 230 
Q 2573 96 2195 -58 
L 2163 -38 
L 2163 486 
L 2150 486 
Q 1747 -64 1235 -64 
Q 870 -64 662 160 
Q 454 384 454 755 
L 454 2362 
Q 454 2598 371 2688 
Q 288 2778 58 2790 
L 58 2880 
L 992 2880 
L 992 813 
Q 992 595 1123 451 
Q 1254 307 1446 307 
Q 1760 307 1984 506 
Q 2067 582 2099 649 
Q 2131 717 2131 877 
L 2131 2355 
Q 2131 2605 2041 2678 
Q 1952 2752 1658 2771 
L 1658 2880 
L 2669 2880 
L 2669 685 
Q 2669 461 2742 390 
Q 2816 320 3034 320 
L 3072 320 
z
" transform="scale(0.015625)"/>
       <path id="STIXGeneral-Regular-6e" d="M 3104 0 
L 1773 0 
L 1779 96 
Q 2016 115 2096 233 
Q 2176 352 2176 672 
L 2176 1946 
Q 2176 2592 1709 2592 
Q 1549 2592 1408 2515 
Q 1267 2438 1050 2227 
L 1050 461 
Q 1050 269 1136 192 
Q 1222 115 1466 96 
L 1466 0 
L 115 0 
L 115 96 
Q 358 115 435 214 
Q 512 314 512 602 
L 512 2157 
Q 512 2394 467 2483 
Q 422 2573 288 2573 
Q 160 2573 102 2547 
L 102 2656 
Q 550 2784 979 2944 
L 1030 2925 
L 1030 2426 
L 1037 2426 
Q 1491 2944 1958 2944 
Q 2323 2944 2518 2688 
Q 2714 2432 2714 1958 
L 2714 544 
Q 2714 288 2790 205 
Q 2867 122 3104 96 
L 3104 0 
z
" transform="scale(0.015625)"/>
       <path id="STIXGeneral-Regular-63" d="M 2547 998 
L 2637 941 
Q 2362 403 2112 205 
Q 1786 -64 1376 -64 
Q 845 -64 502 336 
Q 160 736 160 1357 
Q 160 2170 698 2618 
Q 1094 2944 1562 2944 
Q 1965 2944 2256 2749 
Q 2547 2554 2547 2285 
Q 2547 2176 2457 2096 
Q 2368 2016 2246 2016 
Q 2022 2016 1939 2310 
L 1901 2451 
Q 1850 2630 1773 2694 
Q 1696 2758 1523 2758 
Q 1133 2758 893 2451 
Q 653 2144 653 1645 
Q 653 1094 928 745 
Q 1203 397 1645 397 
Q 1920 397 2118 528 
Q 2317 659 2547 998 
z
" transform="scale(0.015625)"/>
       <path id="STIXGeneral-Regular-79" d="M 3040 2880 
L 3040 2784 
Q 2925 2771 2854 2700 
Q 2784 2630 2720 2458 
L 1760 -160 
Q 1510 -838 1257 -1116 
Q 1005 -1395 640 -1395 
Q 435 -1395 313 -1289 
Q 192 -1184 192 -1024 
Q 192 -902 272 -816 
Q 352 -730 467 -730 
Q 653 -730 800 -813 
Q 883 -858 966 -858 
Q 1101 -858 1286 -576 
Q 1376 -448 1459 -211 
Q 1542 26 1542 115 
Q 1542 198 1274 762 
L 429 2566 
Q 346 2752 90 2790 
L 90 2880 
L 1402 2880 
L 1402 2784 
Q 1197 2778 1117 2739 
Q 1037 2701 1037 2611 
Q 1037 2541 1120 2349 
L 1837 749 
L 2458 2515 
Q 2483 2573 2483 2630 
Q 2483 2784 2189 2784 
L 2189 2880 
L 3040 2880 
z
" transform="scale(0.015625)"/>
       <path id="STIXGeneral-Regular-20" transform="scale(0.015625)"/>
       <path id="STIXGeneral-Regular-28" d="M 1946 -1030 
L 1869 -1133 
Q 1126 -710 716 32 
Q 307 774 307 1613 
Q 307 3386 1888 4326 
L 1946 4224 
Q 1293 3667 1075 3126 
Q 858 2586 858 1632 
Q 858 685 1082 96 
Q 1306 -493 1946 -1030 
z
" transform="scale(0.015625)"/>
       <path id="STIXGeneral-Regular-48" d="M 4499 0 
L 2714 0 
L 2714 122 
Q 3085 147 3181 265 
Q 3277 384 3277 794 
L 3277 2016 
L 1338 2016 
L 1338 723 
Q 1338 371 1440 256 
Q 1542 141 1894 122 
L 1901 0 
L 115 0 
L 115 122 
Q 493 147 589 259 
Q 685 371 685 781 
L 685 3507 
Q 685 3878 585 3980 
Q 486 4083 115 4115 
L 115 4237 
L 1907 4237 
L 1907 4115 
Q 1549 4083 1443 3977 
Q 1338 3872 1338 3507 
L 1338 2298 
L 3277 2298 
L 3277 3507 
Q 3277 3878 3177 3980 
Q 3078 4083 2707 4115 
L 2707 4237 
L 4499 4237 
L 4499 4115 
Q 4141 4083 4035 3977 
Q 3930 3872 3930 3507 
L 3930 710 
Q 3930 371 4035 259 
Q 4141 147 4499 122 
L 4499 0 
z
" transform="scale(0.015625)"/>
       <path id="STIXGeneral-Regular-7a" d="M 2675 870 
L 2579 0 
L 173 0 
L 173 96 
L 1875 2688 
L 1011 2688 
Q 710 2688 604 2582 
Q 499 2477 454 2125 
L 339 2125 
L 365 2880 
L 2579 2880 
L 2579 2784 
L 858 192 
L 1709 192 
Q 2246 192 2387 365 
Q 2477 474 2560 896 
L 2675 870 
z
" transform="scale(0.015625)"/>
       <path id="STIXGeneral-Regular-29" d="M 186 4224 
L 262 4326 
Q 992 3891 1408 3148 
Q 1824 2406 1824 1581 
Q 1824 -166 243 -1133 
L 186 -1030 
Q 845 -486 1059 54 
Q 1274 595 1274 1562 
Q 1274 2534 1059 3120 
Q 845 3706 186 4224 
z
" transform="scale(0.015625)"/>
      </defs>
      <use xlink:href="#STIXGeneral-Regular-46"/>
      <use xlink:href="#STIXGeneral-Regular-72" x="55.599991"/>
      <use xlink:href="#STIXGeneral-Regular-65" x="88.899979"/>
      <use xlink:href="#STIXGeneral-Regular-71" x="133.299973"/>
      <use xlink:href="#STIXGeneral-Regular-75" x="183.299957"/>
      <use xlink:href="#STIXGeneral-Regular-65" x="233.299942"/>
      <use xlink:href="#STIXGeneral-Regular-6e" x="277.699936"/>
      <use xlink:href="#STIXGeneral-Regular-63" x="327.699921"/>
      <use xlink:href="#STIXGeneral-Regular-79" x="372.099915"/>
      <use xlink:href="#STIXGeneral-Regular-20" x="422.099899"/>
      <use xlink:href="#STIXGeneral-Regular-28" x="447.099884"/>
      <use xlink:href="#STIXGeneral-Regular-48" x="480.399872"/>
      <use xlink:href="#STIXGeneral-Regular-7a" x="552.599854"/>
      <use xlink:href="#STIXGeneral-Regular-29" x="596.999847"/>
     </g>
    </g>
   </g>
   <g id="line2d_12">
    <path d="M 46.955344 127.534559 
L 49.087391 123.400162 
L 51.219438 120.396955 
L 53.351484 118.100181 
L 53.777894 117.704579 
L 54.204303 117.327034 
L 54.630713 116.966417 
L 55.057122 116.621692 
L 55.483531 116.291909 
L 55.675616 116.147997 
L 55.909941 115.976192 
L 56.33635 115.673734 
L 56.762759 115.383787 
L 57.189169 115.105661 
L 57.615578 114.838714 
L 59.747625 113.652216 
L 61.879672 112.67119 
L 64.011719 111.851822 
L 66.143766 111.161923 
L 68.275813 110.577307 
L 70.407859 110.079448 
L 72.539906 109.65391 
L 74.671953 109.289278 
L 76.804 108.9764 
L 78.936047 108.707854 
L 81.068094 108.477555 
L 83.200141 108.280466 
L 83.62655 108.24465 
L 84.052959 108.209962 
L 84.479369 108.176373 
L 84.905778 108.143854 
L 85.282038 108.116027 
L 85.332188 108.112379 
L 85.332188 108.112379 
L 85.758597 108.08192 
L 86.185006 108.052452 
L 86.611416 108.023951 
L 87.037825 107.996392 
L 87.464234 107.969753 
L 89.596281 107.849585 
L 91.728328 107.749311 
L 93.860375 107.66673 
L 95.992422 107.599939 
L 98.124469 107.547287 
L 100.256516 107.507332 
L 102.388563 107.478812 
L 104.520609 107.460614 
L 106.652656 107.451756 
L 108.784703 107.451366 
L 110.91675 107.458669 
L 113.048797 107.472972 
L 115.180844 107.493655 
L 117.312891 107.520162 
L 119.444938 107.551992 
L 121.576984 107.588691 
L 123.709031 107.62985 
L 125.841078 107.675099 
L 127.973125 107.7241 
L 130.105172 107.776545 
L 132.237219 107.832155 
L 134.369266 107.890674 
L 136.501312 107.951868 
L 138.633359 108.015521 
L 140.765406 108.081437 
L 142.897453 108.149434 
L 145.0295 108.219345 
L 147.161547 108.291017 
L 149.293594 108.364308 
L 151.425641 108.439085 
L 153.557688 108.515228 
L 155.689734 108.592625 
L 157.821781 108.671171 
L 159.953828 108.750769 
L 162.085875 108.83133 
L 164.217922 108.912771 
L 166.349969 108.995013 
L 168.482016 109.077985 
L 170.614062 109.161619 
L 172.746109 109.245852 
L 174.878156 109.330626 
L 177.010203 109.415887 
L 179.14225 109.501583 
L 181.274297 109.587667 
L 183.406344 109.674095 
L 185.538391 109.760824 
L 187.670437 109.847815 
L 189.802484 109.935033 
L 191.934531 110.022443 
L 194.066578 110.110013 
L 196.198625 110.197714 
L 198.330672 110.285516 
L 200.462719 110.373395 
L 202.594766 110.461324 
L 204.726812 110.549282 
L 206.858859 110.637246 
L 208.990906 110.725197 
L 211.122953 110.813114 
L 213.255 110.90098 
" clip-path="url(#p118e52abb7)" style="fill: none; stroke: #000000; stroke-width: 1.5; stroke-linecap: square"/>
    <defs>
     <path id="md9e0439af5" d="M 0 3 
C 0.795609 3 1.55874 2.683901 2.12132 2.12132 
C 2.683901 1.55874 3 0.795609 3 0 
C 3 -0.795609 2.683901 -1.55874 2.12132 -2.12132 
C 1.55874 -2.683901 0.795609 -3 0 -3 
C -0.795609 -3 -1.55874 -2.683901 -2.12132 -2.12132 
C -2.683901 -1.55874 -3 -0.795609 -3 0 
C -3 0.795609 -2.683901 1.55874 -2.12132 2.12132 
C -1.55874 2.683901 -0.795609 3 0 3 
z
" style="stroke: #000000"/>
    </defs>
    <g clip-path="url(#p118e52abb7)">
     <use xlink:href="#md9e0439af5" x="59.747625" y="113.652216" style="fill-opacity: 0; stroke: #000000"/>
     <use xlink:href="#md9e0439af5" x="76.804" y="108.9764" style="fill-opacity: 0; stroke: #000000"/>
     <use xlink:href="#md9e0439af5" x="93.860375" y="107.66673" style="fill-opacity: 0; stroke: #000000"/>
     <use xlink:href="#md9e0439af5" x="110.91675" y="107.458669" style="fill-opacity: 0; stroke: #000000"/>
     <use xlink:href="#md9e0439af5" x="127.973125" y="107.7241" style="fill-opacity: 0; stroke: #000000"/>
     <use xlink:href="#md9e0439af5" x="145.0295" y="108.219345" style="fill-opacity: 0; stroke: #000000"/>
     <use xlink:href="#md9e0439af5" x="162.085875" y="108.83133" style="fill-opacity: 0; stroke: #000000"/>
     <use xlink:href="#md9e0439af5" x="179.14225" y="109.501583" style="fill-opacity: 0; stroke: #000000"/>
     <use xlink:href="#md9e0439af5" x="196.198625" y="110.197714" style="fill-opacity: 0; stroke: #000000"/>
     <use xlink:href="#md9e0439af5" x="213.255" y="110.90098" style="fill-opacity: 0; stroke: #000000"/>
    </g>
   </g>
   <g id="line2d_13">
    <path d="M 46.955344 90.277462 
L 49.087391 80.257334 
L 51.219438 73.37385 
L 53.351484 68.367933 
L 53.777894 67.530428 
L 54.204303 66.738396 
L 54.630713 65.98869 
L 55.057122 65.278457 
L 55.483531 64.605096 
L 55.675616 64.313173 
L 55.909941 64.048382 
L 56.33635 63.581634 
L 56.762759 63.133533 
L 57.189169 62.703138 
L 57.615578 62.28957 
L 59.747625 60.446949 
L 61.879672 58.920346 
L 64.011719 57.645754 
L 66.143766 56.575024 
L 68.275813 55.671343 
L 70.407859 54.906132 
L 72.539906 54.256888 
L 74.671953 53.705665 
L 76.804 53.23798 
L 78.936047 52.84202 
L 81.068094 52.508054 
L 83.200141 52.227994 
L 83.62655 52.177835 
L 84.052959 52.129508 
L 84.479369 52.082968 
L 84.905778 52.038168 
L 85.282038 52.000047 
L 85.332188 51.998545 
L 85.332188 51.998545 
L 85.758597 52.003287 
L 86.185006 52.009883 
L 86.611416 52.018279 
L 87.037825 52.028423 
L 87.464234 52.040263 
L 89.596281 52.12324 
L 91.728328 52.241874 
L 93.860375 52.391395 
L 95.992422 52.567723 
L 98.124469 52.767346 
L 100.256516 52.98723 
L 102.388563 53.224747 
L 104.520609 53.477604 
L 106.652656 53.743801 
L 108.784703 54.021584 
L 110.91675 54.309413 
L 113.048797 54.605929 
L 115.180844 54.909934 
L 117.312891 55.220366 
L 119.444938 55.536283 
L 121.576984 55.85685 
L 123.709031 56.181322 
L 125.841078 56.509035 
L 127.973125 56.839399 
L 130.105172 57.171883 
L 132.237219 57.506015 
L 134.369266 57.841372 
L 136.501312 58.177574 
L 138.633359 58.514283 
L 140.765406 58.851193 
L 142.897453 59.188032 
L 145.0295 59.524554 
L 147.161547 59.860541 
L 149.293594 60.195796 
L 151.425641 60.530142 
L 153.557688 60.863422 
L 155.689734 61.195494 
L 157.821781 61.526232 
L 159.953828 61.855525 
L 162.085875 62.18327 
L 164.217922 62.50938 
L 166.349969 62.833776 
L 168.482016 63.156387 
L 170.614062 63.477151 
L 172.746109 63.796016 
L 174.878156 64.112933 
L 177.010203 64.427861 
L 179.14225 64.740766 
L 181.274297 65.051616 
L 183.406344 65.360387 
L 185.538391 65.667057 
L 187.670437 65.971609 
L 189.802484 66.274029 
L 191.934531 66.574307 
L 194.066578 66.872434 
L 196.198625 67.168405 
L 198.330672 67.462218 
L 200.462719 67.753873 
L 202.594766 68.043371 
L 204.726812 68.330715 
L 206.858859 68.61591 
L 208.990906 68.898963 
L 211.122953 69.179881 
L 213.255 69.458674 
" clip-path="url(#p118e52abb7)" style="fill: none; stroke: #ff0000; stroke-width: 1.5; stroke-linecap: square"/>
    <defs>
     <path id="m7a9a84e5ac" d="M -3 3 
L 3 3 
L 3 -3 
L -3 -3 
z
" style="stroke: #ff0000; stroke-linejoin: miter"/>
    </defs>
    <g clip-path="url(#p118e52abb7)">
     <use xlink:href="#m7a9a84e5ac" x="59.747625" y="60.446949" style="fill-opacity: 0; stroke: #ff0000; stroke-linejoin: miter"/>
     <use xlink:href="#m7a9a84e5ac" x="76.804" y="53.23798" style="fill-opacity: 0; stroke: #ff0000; stroke-linejoin: miter"/>
     <use xlink:href="#m7a9a84e5ac" x="93.860375" y="52.391395" style="fill-opacity: 0; stroke: #ff0000; stroke-linejoin: miter"/>
     <use xlink:href="#m7a9a84e5ac" x="110.91675" y="54.309413" style="fill-opacity: 0; stroke: #ff0000; stroke-linejoin: miter"/>
     <use xlink:href="#m7a9a84e5ac" x="127.973125" y="56.839399" style="fill-opacity: 0; stroke: #ff0000; stroke-linejoin: miter"/>
     <use xlink:href="#m7a9a84e5ac" x="145.0295" y="59.524554" style="fill-opacity: 0; stroke: #ff0000; stroke-linejoin: miter"/>
     <use xlink:href="#m7a9a84e5ac" x="162.085875" y="62.18327" style="fill-opacity: 0; stroke: #ff0000; stroke-linejoin: miter"/>
     <use xlink:href="#m7a9a84e5ac" x="179.14225" y="64.740766" style="fill-opacity: 0; stroke: #ff0000; stroke-linejoin: miter"/>
     <use xlink:href="#m7a9a84e5ac" x="196.198625" y="67.168405" style="fill-opacity: 0; stroke: #ff0000; stroke-linejoin: miter"/>
     <use xlink:href="#m7a9a84e5ac" x="213.255" y="69.458674" style="fill-opacity: 0; stroke: #ff0000; stroke-linejoin: miter"/>
    </g>
   </g>
   <g id="line2d_14">
    <path d="M 46.955344 81.037855 
L 49.087391 75.167833 
L 51.219438 70.760079 
L 53.351484 67.301912 
L 53.777894 66.69953 
L 54.204303 66.122999 
L 54.630713 65.570898 
L 55.057122 65.041902 
L 55.483531 64.53478 
L 55.675616 64.313173 
L 55.909941 63.966238 
L 56.33635 63.359713 
L 56.762759 62.783532 
L 57.189169 62.235868 
L 57.615578 61.715038 
L 59.747625 59.462973 
L 61.879672 57.691645 
L 64.011719 56.291349 
L 66.143766 55.183057 
L 68.275813 54.308313 
L 70.407859 53.622921 
L 72.539906 53.092823 
L 74.671953 52.69135 
L 76.804 52.397318 
L 78.936047 52.19369 
L 81.068094 52.066611 
L 83.200141 52.004705 
L 83.62655 51.999285 
L 84.052959 51.996023 
L 84.479369 51.994854 
L 84.905778 51.995715 
L 85.282038 51.998112 
L 85.332188 51.995065 
L 85.332188 51.995065 
L 85.758597 51.953615 
L 86.185006 51.913777 
L 86.611416 51.875512 
L 87.037825 51.83878 
L 87.464234 51.803544 
L 89.596281 51.648569 
L 91.728328 51.52598 
L 93.860375 51.432195 
L 95.992422 51.364119 
L 98.124469 51.319057 
L 100.256516 51.294656 
L 102.388563 51.288852 
L 104.520609 51.299826 
L 106.652656 51.32597 
L 108.784703 51.365857 
L 110.91675 51.418214 
L 113.048797 51.481908 
L 115.180844 51.555922 
L 117.312891 51.639341 
L 119.444938 51.731344 
L 121.576984 51.831188 
L 123.709031 51.938201 
L 125.841078 52.051774 
L 127.973125 52.171353 
L 130.105172 52.296435 
L 132.237219 52.426558 
L 134.369266 52.561305 
L 136.501312 52.700289 
L 138.633359 52.843159 
L 140.765406 52.989592 
L 142.897453 53.13929 
L 145.0295 53.291979 
L 147.161547 53.447407 
L 149.293594 53.605342 
L 151.425641 53.765569 
L 153.557688 53.927888 
L 155.689734 54.092116 
L 157.821781 54.258083 
L 159.953828 54.425629 
L 162.085875 54.594609 
L 164.217922 54.764885 
L 166.349969 54.936332 
L 168.482016 55.108831 
L 170.614062 55.282271 
L 172.746109 55.456552 
L 174.878156 55.631577 
L 177.010203 55.807258 
L 179.14225 55.983511 
L 181.274297 56.160258 
L 183.406344 56.337428 
L 185.538391 56.514952 
L 187.670437 56.692767 
L 189.802484 56.870814 
L 191.934531 57.049038 
L 194.066578 57.227385 
L 196.198625 57.405809 
L 198.330672 57.584263 
L 200.462719 57.762705 
L 202.594766 57.941095 
L 204.726812 58.119395 
L 206.858859 58.297571 
L 208.990906 58.475589 
L 211.122953 58.653419 
L 213.255 58.831031 
" clip-path="url(#p118e52abb7)" style="fill: none; stroke: #0000ff; stroke-width: 1.5; stroke-linecap: square"/>
    <defs>
     <path id="m862f64a3b2" d="M 0 -3 
L -3 3 
L 3 3 
z
" style="stroke: #0000ff; stroke-linejoin: miter"/>
    </defs>
    <g clip-path="url(#p118e52abb7)">
     <use xlink:href="#m862f64a3b2" x="59.747625" y="59.462973" style="fill-opacity: 0; stroke: #0000ff; stroke-linejoin: miter"/>
     <use xlink:href="#m862f64a3b2" x="76.804" y="52.397318" style="fill-opacity: 0; stroke: #0000ff; stroke-linejoin: miter"/>
     <use xlink:href="#m862f64a3b2" x="93.860375" y="51.432195" style="fill-opacity: 0; stroke: #0000ff; stroke-linejoin: miter"/>
     <use xlink:href="#m862f64a3b2" x="110.91675" y="51.418214" style="fill-opacity: 0; stroke: #0000ff; stroke-linejoin: miter"/>
     <use xlink:href="#m862f64a3b2" x="127.973125" y="52.171353" style="fill-opacity: 0; stroke: #0000ff; stroke-linejoin: miter"/>
     <use xlink:href="#m862f64a3b2" x="145.0295" y="53.291979" style="fill-opacity: 0; stroke: #0000ff; stroke-linejoin: miter"/>
     <use xlink:href="#m862f64a3b2" x="162.085875" y="54.594609" style="fill-opacity: 0; stroke: #0000ff; stroke-linejoin: miter"/>
     <use xlink:href="#m862f64a3b2" x="179.14225" y="55.983511" style="fill-opacity: 0; stroke: #0000ff; stroke-linejoin: miter"/>
     <use xlink:href="#m862f64a3b2" x="196.198625" y="57.405809" style="fill-opacity: 0; stroke: #0000ff; stroke-linejoin: miter"/>
     <use xlink:href="#m862f64a3b2" x="213.255" y="58.831031" style="fill-opacity: 0; stroke: #0000ff; stroke-linejoin: miter"/>
    </g>
   </g>
   <g id="line2d_15">
    <path d="M 46.955344 50.302773 
L 49.087391 38.597451 
L 51.219438 30.43667 
L 53.351484 24.454623 
L 53.777894 23.450708 
L 54.204303 22.500597 
L 54.630713 21.600667 
L 55.057122 20.747619 
L 55.483531 19.938438 
L 55.675616 19.587512 
L 55.909941 19.170363 
L 56.33635 18.440864 
L 56.762759 17.747611 
L 57.189169 17.088459 
L 57.615578 16.461429 
L 59.747625 13.748551 
L 61.879672 11.613584 
L 64.011719 9.925685 
L 66.143766 8.590136 
L 68.275813 7.536639 
L 70.407859 6.711919 
L 72.539906 6.074856 
L 74.671953 5.593218 
L 76.804 5.241384 
L 78.936047 4.998741 
L 81.068094 4.848529 
L 83.200141 4.776984 
L 83.62655 4.771077 
L 84.052959 4.767773 
L 84.479369 4.766994 
L 84.905778 4.768664 
L 85.282038 4.772113 
L 85.332188 4.77271 
L 85.332188 4.77271 
L 85.758597 4.779062 
L 86.185006 4.78765 
L 86.611416 4.798411 
L 87.037825 4.811279 
L 87.464234 4.826193 
L 89.596281 4.929439 
L 91.728328 5.075685 
L 93.860375 5.25918 
L 95.992422 5.475002 
L 98.124469 5.718925 
L 100.256516 5.9873 
L 102.388563 6.276965 
L 104.520609 6.585169 
L 106.652656 6.909512 
L 108.784703 7.247894 
L 110.91675 7.598468 
L 113.048797 7.959612 
L 115.180844 8.329892 
L 117.312891 8.70804 
L 119.444938 9.092934 
L 121.576984 9.483576 
L 123.709031 9.879081 
L 125.841078 10.278658 
L 127.973125 10.681603 
L 130.105172 11.087288 
L 132.237219 11.495151 
L 134.369266 11.904688 
L 136.501312 12.31545 
L 138.633359 12.727033 
L 140.765406 13.139076 
L 142.897453 13.551253 
L 145.0295 13.963276 
L 147.161547 14.374881 
L 149.293594 14.785836 
L 151.425641 15.195931 
L 153.557688 15.604978 
L 155.689734 16.012807 
L 157.821781 16.419269 
L 159.953828 16.824229 
L 162.085875 17.227565 
L 164.217922 17.629171 
L 166.349969 18.028952 
L 168.482016 18.426822 
L 170.614062 18.822707 
L 172.746109 19.216539 
L 174.878156 19.608262 
L 177.010203 19.997824 
L 179.14225 20.38518 
L 181.274297 20.770293 
L 183.406344 21.153129 
L 185.538391 21.53366 
L 187.670437 21.911864 
L 189.802484 22.28772 
L 191.934531 22.661214 
L 194.066578 23.032334 
L 196.198625 23.401069 
L 198.330672 23.767414 
L 200.462719 24.131366 
L 202.594766 24.492923 
L 204.726812 24.852087 
L 206.858859 25.208859 
L 208.990906 25.563244 
L 211.122953 25.915249 
L 213.255 26.264881 
" clip-path="url(#p118e52abb7)" style="fill: none; stroke: #008000; stroke-width: 1.5; stroke-linecap: square"/>
    <defs>
     <path id="m71d749d8ac" d="M 0 4.242641 
L 4.242641 0 
L 0 -4.242641 
L -4.242641 0 
z
" style="stroke: #008000; stroke-linejoin: miter"/>
    </defs>
    <g clip-path="url(#p118e52abb7)">
     <use xlink:href="#m71d749d8ac" x="59.747625" y="13.748551" style="fill-opacity: 0; stroke: #008000; stroke-linejoin: miter"/>
     <use xlink:href="#m71d749d8ac" x="76.804" y="5.241384" style="fill-opacity: 0; stroke: #008000; stroke-linejoin: miter"/>
     <use xlink:href="#m71d749d8ac" x="93.860375" y="5.25918" style="fill-opacity: 0; stroke: #008000; stroke-linejoin: miter"/>
     <use xlink:href="#m71d749d8ac" x="110.91675" y="7.598468" style="fill-opacity: 0; stroke: #008000; stroke-linejoin: miter"/>
     <use xlink:href="#m71d749d8ac" x="127.973125" y="10.681603" style="fill-opacity: 0; stroke: #008000; stroke-linejoin: miter"/>
     <use xlink:href="#m71d749d8ac" x="145.0295" y="13.963276" style="fill-opacity: 0; stroke: #008000; stroke-linejoin: miter"/>
     <use xlink:href="#m71d749d8ac" x="162.085875" y="17.227565" style="fill-opacity: 0; stroke: #008000; stroke-linejoin: miter"/>
     <use xlink:href="#m71d749d8ac" x="179.14225" y="20.38518" style="fill-opacity: 0; stroke: #008000; stroke-linejoin: miter"/>
     <use xlink:href="#m71d749d8ac" x="196.198625" y="23.401069" style="fill-opacity: 0; stroke: #008000; stroke-linejoin: miter"/>
     <use xlink:href="#m71d749d8ac" x="213.255" y="26.264881" style="fill-opacity: 0; stroke: #008000; stroke-linejoin: miter"/>
    </g>
   </g>
   <g id="patch_3">
    <path d="M 42.69125 149.27875 
L 42.69125 0 
" style="fill: none; stroke: #000000; stroke-width: 0.8; stroke-linejoin: miter; stroke-linecap: square"/>
   </g>
   <g id="patch_4">
    <path d="M 213.255 149.27875 
L 213.255 0 
" style="fill: none; stroke: #000000; stroke-width: 0.8; stroke-linejoin: miter; stroke-linecap: square"/>
   </g>
   <g id="patch_5">
    <path d="M 42.69125 149.27875 
L 213.255 149.27875 
" style="fill: none; stroke: #000000; stroke-width: 0.8; stroke-linejoin: miter; stroke-linecap: square"/>
   </g>
   <g id="patch_6">
    <path d="M 42.69125 0 
L 213.255 0 
" style="fill: none; stroke: #000000; stroke-width: 0.8; stroke-linejoin: miter; stroke-linecap: square"/>
   </g>
   <g id="patch_7">
    <path d="M 86.08642 49.859829 
Q 88.53065 43.849669 90.553693 38.875173 
" style="fill: none; stroke: #000000; stroke-linecap: round"/>
    <path d="M 86.8582 42.122224 
L 90.553693 38.875173 
L 90.934038 43.779797 
" style="fill: none; stroke: #000000; stroke-linecap: round"/>
   </g>
   <g id="patch_8">
    <path d="M 57.594861 67.722633 
Q 64.22636 71.974604 69.916675 75.623109 
" style="fill: none; stroke: #000000; stroke-linecap: round"/>
    <path d="M 67.400128 71.396172 
L 69.916675 75.623109 
L 65.025197 75.100184 
" style="fill: none; stroke: #000000; stroke-linecap: round"/>
   </g>
   <g id="legend_1">
    <g id="patch_9">
     <path d="M 107.578407 144.69725 
L 206.8409 144.69725 
Q 208.6735 144.69725 208.6735 142.86465 
L 208.6735 117.812435 
Q 208.6735 115.979835 206.8409 115.979835 
L 107.578407 115.979835 
Q 105.745807 115.979835 105.745807 117.812435 
L 105.745807 142.86465 
Q 105.745807 144.69725 107.578407 144.69725 
z
" style="fill: #ffffff; opacity: 0.8; stroke: #cccccc; stroke-linejoin: miter"/>
    </g>
    <g id="line2d_16">
     <path d="M 109.411007 122.852085 
L 118.574007 122.852085 
L 127.737007 122.852085 
" style="fill: none; stroke: #000000; stroke-width: 1.5; stroke-linecap: square"/>
     <g>
      <use xlink:href="#md9e0439af5" x="118.574007" y="122.852085" style="fill-opacity: 0; stroke: #000000"/>
     </g>
    </g>
    <g id="text_14">
     <!-- 1st -->
     <g transform="translate(135.067407 126.059135)scale(0.09163 -0.09163)">
      <defs>
       <path id="STIXGeneral-Regular-73" d="M 998 1926 
L 1664 1523 
Q 1984 1331 2105 1164 
Q 2227 998 2227 736 
Q 2227 416 1961 176 
Q 1696 -64 1331 -64 
Q 1030 -64 864 -6 
Q 691 51 570 51 
Q 461 51 416 -26 
L 333 -26 
L 333 979 
L 435 979 
Q 538 512 730 294 
Q 922 77 1248 77 
Q 1485 77 1632 211 
Q 1779 346 1779 550 
Q 1779 845 1440 1030 
L 1094 1222 
Q 326 1651 326 2150 
Q 326 2522 566 2730 
Q 806 2938 1210 2938 
Q 1491 2938 1638 2867 
Q 1754 2816 1818 2816 
Q 1862 2816 1920 2880 
L 1990 2880 
L 2022 2010 
L 1926 2010 
Q 1818 2445 1654 2621 
Q 1491 2797 1203 2797 
Q 986 2797 854 2688 
Q 723 2579 723 2362 
Q 723 2253 796 2128 
Q 870 2003 998 1926 
z
" transform="scale(0.015625)"/>
       <path id="STIXGeneral-Regular-74" d="M 1702 493 
L 1786 422 
Q 1478 -64 1011 -64 
Q 448 -64 448 749 
L 448 2675 
L 109 2675 
Q 83 2694 83 2720 
Q 83 2771 192 2842 
Q 435 2982 813 3526 
Q 826 3546 874 3606 
Q 922 3667 941 3706 
Q 986 3706 986 3622 
L 986 2880 
L 1632 2880 
L 1632 2675 
L 986 2675 
L 986 845 
Q 986 538 1062 403 
Q 1139 269 1318 269 
Q 1510 269 1702 493 
z
" transform="scale(0.015625)"/>
      </defs>
      <use xlink:href="#STIXGeneral-Regular-31"/>
      <use xlink:href="#STIXGeneral-Regular-73" x="49.999985"/>
      <use xlink:href="#STIXGeneral-Regular-74" x="88.899979"/>
     </g>
    </g>
    <g id="line2d_17">
     <path d="M 109.411007 135.836343 
L 118.574007 135.836343 
L 127.737007 135.836343 
" style="fill: none; stroke: #ff0000; stroke-width: 1.5; stroke-linecap: square"/>
     <g>
      <use xlink:href="#m7a9a84e5ac" x="118.574007" y="135.836343" style="fill-opacity: 0; stroke: #ff0000; stroke-linejoin: miter"/>
     </g>
    </g>
    <g id="text_15">
     <!-- 2nd -->
     <g transform="translate(135.067407 139.043393)scale(0.09163 -0.09163)">
      <defs>
       <path id="STIXGeneral-Regular-64" d="M 3142 269 
L 2202 -64 
L 2176 -45 
L 2176 365 
Q 1869 -64 1357 -64 
Q 826 -64 499 317 
Q 173 698 173 1312 
Q 173 1990 563 2467 
Q 954 2944 1504 2944 
Q 1850 2944 2176 2669 
L 2176 3667 
Q 2176 3866 2118 3930 
Q 2061 3994 1882 3994 
Q 1792 3994 1741 3987 
L 1741 4090 
Q 2323 4243 2682 4371 
L 2714 4358 
L 2714 730 
Q 2714 506 2768 435 
Q 2822 365 2995 365 
Q 3034 365 3142 371 
L 3142 269 
z
M 2176 653 
L 2176 2125 
Q 2176 2381 1981 2573 
Q 1786 2765 1523 2765 
Q 1158 2765 940 2438 
Q 723 2112 723 1568 
Q 723 979 963 624 
Q 1203 269 1606 269 
Q 1907 269 2080 474 
Q 2176 582 2176 653 
z
" transform="scale(0.015625)"/>
      </defs>
      <use xlink:href="#STIXGeneral-Regular-32"/>
      <use xlink:href="#STIXGeneral-Regular-6e" x="49.999985"/>
      <use xlink:href="#STIXGeneral-Regular-64" x="99.999969"/>
     </g>
    </g>
    <g id="line2d_18">
     <path d="M 167.137907 122.852085 
L 176.300907 122.852085 
L 185.463907 122.852085 
" style="fill: none; stroke: #0000ff; stroke-width: 1.5; stroke-linecap: square"/>
     <g>
      <use xlink:href="#m862f64a3b2" x="176.300907" y="122.852085" style="fill-opacity: 0; stroke: #0000ff; stroke-linejoin: miter"/>
     </g>
    </g>
    <g id="text_16">
     <!-- 3rd -->
     <g transform="translate(192.794307 126.059135)scale(0.09163 -0.09163)">
      <use xlink:href="#STIXGeneral-Regular-33"/>
      <use xlink:href="#STIXGeneral-Regular-72" x="49.999985"/>
      <use xlink:href="#STIXGeneral-Regular-64" x="83.299973"/>
     </g>
    </g>
    <g id="line2d_19">
     <path d="M 167.137907 135.836343 
L 176.300907 135.836343 
L 185.463907 135.836343 
" style="fill: none; stroke: #008000; stroke-width: 1.5; stroke-linecap: square"/>
     <g>
      <use xlink:href="#m71d749d8ac" x="176.300907" y="135.836343" style="fill-opacity: 0; stroke: #008000; stroke-linejoin: miter"/>
     </g>
    </g>
    <g id="text_17">
     <!-- 4th -->
     <g transform="translate(192.794307 139.043393)scale(0.09163 -0.09163)">
      <defs>
       <path id="STIXGeneral-Regular-68" d="M 3117 0 
L 1760 0 
L 1760 96 
Q 2042 128 2118 224 
Q 2195 320 2195 653 
L 2195 1920 
Q 2195 2598 1722 2598 
Q 1530 2598 1370 2508 
Q 1210 2419 1005 2195 
L 1005 653 
Q 1005 320 1081 224 
Q 1158 128 1440 96 
L 1440 0 
L 58 0 
L 58 96 
Q 333 134 400 224 
Q 467 314 467 653 
L 467 3667 
Q 467 3872 406 3933 
Q 346 3994 141 3994 
Q 83 3994 64 3987 
L 64 4090 
L 237 4141 
Q 730 4288 973 4371 
L 1005 4352 
L 1005 2406 
Q 1229 2694 1446 2819 
Q 1664 2944 1946 2944 
Q 2733 2944 2733 1926 
L 2733 653 
Q 2733 320 2793 233 
Q 2854 147 3117 96 
L 3117 0 
z
" transform="scale(0.015625)"/>
      </defs>
      <use xlink:href="#STIXGeneral-Regular-34"/>
      <use xlink:href="#STIXGeneral-Regular-74" x="49.999985"/>
      <use xlink:href="#STIXGeneral-Regular-68" x="77.799973"/>
     </g>
    </g>
   </g>
  </g>
  <g id="axes_2">
   <g id="patch_10">
    <path d="M 77.76 36 
L 103.68 36 
L 103.68 14.4 
L 77.76 14.4 
z
" style="fill: #ffffff"/>
   </g>
   <g id="matplotlib.axis_3"/>
   <g id="matplotlib.axis_4"/>
   <g id="line2d_20">
    <path clip-path="url(#pefd1156b6f)" style="fill: none; stroke: #000000; stroke-width: 1.5; stroke-linecap: square"/>
    <g clip-path="url(#pefd1156b6f)">
     <use xlink:href="#md9e0439af5" x="-1" y="2407.225082" style="fill-opacity: 0; stroke: #000000"/>
     <use xlink:href="#md9e0439af5" x="38.88" y="2334.357997" style="fill-opacity: 0; stroke: #000000"/>
     <use xlink:href="#md9e0439af5" x="142.56" y="2281.296961" style="fill-opacity: 0; stroke: #000000"/>
     <use xlink:href="#md9e0439af5" x="246.24" y="2272.86741" style="fill-opacity: 0; stroke: #000000"/>
     <use xlink:href="#md9e0439af5" x="349.92" y="2283.621287" style="fill-opacity: 0; stroke: #000000"/>
     <use xlink:href="#md9e0439af5" x="453.6" y="2303.686076" style="fill-opacity: 0; stroke: #000000"/>
     <use xlink:href="#md9e0439af5" x="557.28" y="2328.480534" style="fill-opacity: 0; stroke: #000000"/>
     <use xlink:href="#md9e0439af5" x="660.96" y="2355.635705" style="fill-opacity: 0; stroke: #000000"/>
     <use xlink:href="#md9e0439af5" x="764.64" y="2383.839291" style="fill-opacity: 0; stroke: #000000"/>
     <use xlink:href="#md9e0439af5" x="868.32" y="2412.332007" style="fill-opacity: 0; stroke: #000000"/>
    </g>
   </g>
   <g id="line2d_21">
    <path d="M -1 146.103602 
L 0 143.711442 
L 12.96 117.407447 
L 25.92 95.074741 
L 38.88 76.126572 
L 51.84 60.084325 
L 64.8 46.553752 
L 77.76 35.207189 
L 80.352 33.174993 
L 82.944 31.217058 
L 85.536 29.331492 
L 88.128 27.516427 
L 90.415157 25.971967 
L 90.72 25.911119 
L 90.72 25.911119 
L 93.312 26.103224 
L 95.904 26.370463 
L 98.496 26.710636 
L 101.088 27.121608 
L 103.68 27.601305 
L 116.64 30.963087 
L 129.6 35.769517 
L 142.56 41.827356 
L 155.52 48.971237 
L 168.48 57.05892 
L 181.44 65.967507 
L 194.4 75.590431 
L 207.36 85.834885 
L 217 93.856996 
" clip-path="url(#pefd1156b6f)" style="fill: none; stroke: #ff0000; stroke-width: 1.5; stroke-linecap: square"/>
    <g clip-path="url(#pefd1156b6f)">
     <use xlink:href="#m7a9a84e5ac" x="-1" y="188.469852" style="fill-opacity: 0; stroke: #ff0000; stroke-linejoin: miter"/>
     <use xlink:href="#m7a9a84e5ac" x="38.88" y="76.126572" style="fill-opacity: 0; stroke: #ff0000; stroke-linejoin: miter"/>
     <use xlink:href="#m7a9a84e5ac" x="142.56" y="41.827356" style="fill-opacity: 0; stroke: #ff0000; stroke-linejoin: miter"/>
     <use xlink:href="#m7a9a84e5ac" x="246.24" y="119.53546" style="fill-opacity: 0; stroke: #ff0000; stroke-linejoin: miter"/>
     <use xlink:href="#m7a9a84e5ac" x="349.92" y="222.037367" style="fill-opacity: 0; stroke: #ff0000; stroke-linejoin: miter"/>
     <use xlink:href="#m7a9a84e5ac" x="453.6" y="330.825938" style="fill-opacity: 0; stroke: #ff0000; stroke-linejoin: miter"/>
     <use xlink:href="#m7a9a84e5ac" x="557.28" y="438.543305" style="fill-opacity: 0; stroke: #ff0000; stroke-linejoin: miter"/>
     <use xlink:href="#m7a9a84e5ac" x="660.96" y="542.159734" style="fill-opacity: 0; stroke: #ff0000; stroke-linejoin: miter"/>
     <use xlink:href="#m7a9a84e5ac" x="764.64" y="640.515082" style="fill-opacity: 0; stroke: #ff0000; stroke-linejoin: miter"/>
     <use xlink:href="#m7a9a84e5ac" x="868.32" y="733.304904" style="fill-opacity: 0; stroke: #ff0000; stroke-linejoin: miter"/>
    </g>
   </g>
   <g id="line2d_22">
    <path d="M -1 93.865004 
L 0 91.722369 
L 12.96 70.245565 
L 25.92 53.979967 
L 38.88 42.067331 
L 51.84 33.817382 
L 64.8 28.6688 
L 77.76 26.160671 
L 80.352 25.941095 
L 82.944 25.80894 
L 85.536 25.761569 
L 88.128 25.796453 
L 90.415157 25.893572 
L 90.72 25.770096 
L 90.72 25.770096 
L 93.312 24.090764 
L 95.904 22.476742 
L 98.496 20.926437 
L 101.088 19.438245 
L 103.68 18.010672 
L 116.64 11.731903 
L 129.6 6.765218 
L 142.56 2.965551 
L 155.52 0.207444 
L 164.091323 -1 
" clip-path="url(#pefd1156b6f)" style="fill: none; stroke: #0000ff; stroke-width: 1.5; stroke-linecap: square"/>
    <g clip-path="url(#pefd1156b6f)">
     <use xlink:href="#m862f64a3b2" x="-1" y="152.177229" style="fill-opacity: 0; stroke: #0000ff; stroke-linejoin: miter"/>
     <use xlink:href="#m862f64a3b2" x="38.88" y="42.067331" style="fill-opacity: 0; stroke: #0000ff; stroke-linejoin: miter"/>
     <use xlink:href="#m862f64a3b2" x="142.56" y="2.965551" style="fill-opacity: 0; stroke: #0000ff; stroke-linejoin: miter"/>
     <use xlink:href="#m862f64a3b2" x="246.24" y="2.399114" style="fill-opacity: 0; stroke: #0000ff; stroke-linejoin: miter"/>
     <use xlink:href="#m862f64a3b2" x="349.92" y="32.912401" style="fill-opacity: 0; stroke: #0000ff; stroke-linejoin: miter"/>
     <use xlink:href="#m862f64a3b2" x="453.6" y="78.31433" style="fill-opacity: 0; stroke: #0000ff; stroke-linejoin: miter"/>
     <use xlink:href="#m862f64a3b2" x="557.28" y="131.090123" style="fill-opacity: 0; stroke: #0000ff; stroke-linejoin: miter"/>
     <use xlink:href="#m862f64a3b2" x="660.96" y="187.36122" style="fill-opacity: 0; stroke: #0000ff; stroke-linejoin: miter"/>
     <use xlink:href="#m862f64a3b2" x="764.64" y="244.985385" style="fill-opacity: 0; stroke: #0000ff; stroke-linejoin: miter"/>
     <use xlink:href="#m862f64a3b2" x="868.32" y="302.727973" style="fill-opacity: 0; stroke: #0000ff; stroke-linejoin: miter"/>
    </g>
   </g>
   <g id="line2d_23">
    <path clip-path="url(#pefd1156b6f)" style="fill: none; stroke: #008000; stroke-width: 1.5; stroke-linecap: square"/>
    <g clip-path="url(#pefd1156b6f)"/>
   </g>
   <g id="patch_11">
    <path d="M 77.76 36 
L 77.76 14.4 
" style="fill: none; stroke: #000000; stroke-width: 0.8; stroke-linejoin: miter; stroke-linecap: square"/>
   </g>
   <g id="patch_12">
    <path d="M 103.68 36 
L 103.68 14.4 
" style="fill: none; stroke: #000000; stroke-width: 0.8; stroke-linejoin: miter; stroke-linecap: square"/>
   </g>
   <g id="patch_13">
    <path d="M 77.76 36 
L 103.68 36 
" style="fill: none; stroke: #000000; stroke-width: 0.8; stroke-linejoin: miter; stroke-linecap: square"/>
   </g>
   <g id="patch_14">
    <path d="M 77.76 14.4 
L 103.68 14.4 
" style="fill: none; stroke: #000000; stroke-width: 0.8; stroke-linejoin: miter; stroke-linecap: square"/>
   </g>
  </g>
  <g id="axes_3">
   <g id="patch_15">
    <path d="M 73.44 99 
L 112.32 99 
L 112.32 66.6 
L 73.44 66.6 
z
" style="fill: #ffffff"/>
   </g>
   <g id="matplotlib.axis_5"/>
   <g id="matplotlib.axis_6"/>
   <g id="line2d_24">
    <path clip-path="url(#p7e4295e309)" style="fill: none; stroke: #000000; stroke-width: 1.5; stroke-linecap: square"/>
    <g clip-path="url(#p7e4295e309)">
     <use xlink:href="#md9e0439af5" x="131.76" y="311.284362" style="fill-opacity: 0; stroke: #000000"/>
     <use xlink:href="#md9e0439af5" x="287.28" y="289.425923" style="fill-opacity: 0; stroke: #000000"/>
     <use xlink:href="#md9e0439af5" x="442.8" y="283.303496" style="fill-opacity: 0; stroke: #000000"/>
     <use xlink:href="#md9e0439af5" x="598.32" y="282.330855" style="fill-opacity: 0; stroke: #000000"/>
     <use xlink:href="#md9e0439af5" x="753.84" y="283.571687" style="fill-opacity: 0; stroke: #000000"/>
     <use xlink:href="#md9e0439af5" x="909.36" y="285.886855" style="fill-opacity: 0; stroke: #000000"/>
     <use xlink:href="#md9e0439af5" x="1064.88" y="288.747754" style="fill-opacity: 0; stroke: #000000"/>
     <use xlink:href="#md9e0439af5" x="1220.4" y="291.881043" style="fill-opacity: 0; stroke: #000000"/>
     <use xlink:href="#md9e0439af5" x="1375.92" y="295.135303" style="fill-opacity: 0; stroke: #000000"/>
     <use xlink:href="#md9e0439af5" x="1531.44" y="298.422924" style="fill-opacity: 0; stroke: #000000"/>
    </g>
   </g>
   <g id="line2d_25">
    <path d="M 23.840409 181 
L 34.56 155.170446 
L 54 122.991632 
L 73.44 99.590044 
L 77.328 95.674889 
L 81.216 91.972308 
L 85.104 88.467596 
L 88.992 85.147406 
L 92.88 81.999589 
L 94.631427 80.634914 
L 96.768 79.397072 
L 100.656 77.215126 
L 104.544 75.120348 
L 108.432 73.108345 
L 112.32 71.175001 
L 131.76 62.561142 
L 151.2 55.424601 
L 170.64 49.466156 
L 190.08 44.460725 
L 209.52 40.236211 
L 217 38.859799 
" clip-path="url(#p7e4295e309)" style="fill: none; stroke: #ff0000; stroke-width: 1.5; stroke-linecap: square"/>
    <g clip-path="url(#p7e4295e309)">
     <use xlink:href="#m7a9a84e5ac" x="131.76" y="62.561142" style="fill-opacity: 0; stroke: #ff0000; stroke-linejoin: miter"/>
     <use xlink:href="#m7a9a84e5ac" x="287.28" y="28.860758" style="fill-opacity: 0; stroke: #ff0000; stroke-linejoin: miter"/>
     <use xlink:href="#m7a9a84e5ac" x="442.8" y="24.903156" style="fill-opacity: 0; stroke: #ff0000; stroke-linejoin: miter"/>
     <use xlink:href="#m7a9a84e5ac" x="598.32" y="33.869476" style="fill-opacity: 0; stroke: #ff0000; stroke-linejoin: miter"/>
     <use xlink:href="#m7a9a84e5ac" x="753.84" y="45.696619" style="fill-opacity: 0; stroke: #ff0000; stroke-linejoin: miter"/>
     <use xlink:href="#m7a9a84e5ac" x="909.36" y="58.249147" style="fill-opacity: 0; stroke: #ff0000; stroke-linejoin: miter"/>
     <use xlink:href="#m7a9a84e5ac" x="1064.88" y="70.678074" style="fill-opacity: 0; stroke: #ff0000; stroke-linejoin: miter"/>
     <use xlink:href="#m7a9a84e5ac" x="1220.4" y="82.633815" style="fill-opacity: 0; stroke: #ff0000; stroke-linejoin: miter"/>
     <use xlink:href="#m7a9a84e5ac" x="1375.92" y="93.982509" style="fill-opacity: 0; stroke: #ff0000; stroke-linejoin: miter"/>
     <use xlink:href="#m7a9a84e5ac" x="1531.44" y="104.689027" style="fill-opacity: 0; stroke: #ff0000; stroke-linejoin: miter"/>
    </g>
   </g>
   <g id="line2d_26">
    <path d="M 15.12 158.819214 
L 34.56 131.37812 
L 54 110.772814 
L 73.44 94.606627 
L 77.328 91.790617 
L 81.216 89.095461 
L 85.104 86.514505 
L 88.992 84.041565 
L 92.88 81.670878 
L 94.631427 80.634914 
L 96.768 79.013064 
L 100.656 76.17769 
L 104.544 73.484168 
L 108.432 70.923956 
L 112.32 68.489187 
L 131.76 57.961266 
L 151.2 49.680687 
L 170.64 43.134606 
L 190.08 37.953575 
L 209.52 33.864337 
L 217 32.631498 
" clip-path="url(#p7e4295e309)" style="fill: none; stroke: #0000ff; stroke-width: 1.5; stroke-linecap: square"/>
    <g clip-path="url(#p7e4295e309)">
     <use xlink:href="#m862f64a3b2" x="131.76" y="57.961266" style="fill-opacity: 0; stroke: #0000ff; stroke-linejoin: miter"/>
     <use xlink:href="#m862f64a3b2" x="287.28" y="24.930846" style="fill-opacity: 0; stroke: #0000ff; stroke-linejoin: miter"/>
     <use xlink:href="#m862f64a3b2" x="442.8" y="20.419102" style="fill-opacity: 0; stroke: #0000ff; stroke-linejoin: miter"/>
     <use xlink:href="#m862f64a3b2" x="598.32" y="20.353744" style="fill-opacity: 0; stroke: #0000ff; stroke-linejoin: miter"/>
     <use xlink:href="#m862f64a3b2" x="753.84" y="23.874508" style="fill-opacity: 0; stroke: #0000ff; stroke-linejoin: miter"/>
     <use xlink:href="#m862f64a3b2" x="909.36" y="29.113192" style="fill-opacity: 0; stroke: #0000ff; stroke-linejoin: miter"/>
     <use xlink:href="#m862f64a3b2" x="1064.88" y="35.202707" style="fill-opacity: 0; stroke: #0000ff; stroke-linejoin: miter"/>
     <use xlink:href="#m862f64a3b2" x="1220.4" y="41.695525" style="fill-opacity: 0; stroke: #0000ff; stroke-linejoin: miter"/>
     <use xlink:href="#m862f64a3b2" x="1375.92" y="48.344468" style="fill-opacity: 0; stroke: #0000ff; stroke-linejoin: miter"/>
     <use xlink:href="#m862f64a3b2" x="1531.44" y="55.007074" style="fill-opacity: 0; stroke: #0000ff; stroke-linejoin: miter"/>
    </g>
   </g>
   <g id="line2d_27">
    <path d="M 15.12 15.139294 
L 20.85371 -1 
" clip-path="url(#p7e4295e309)" style="fill: none; stroke: #008000; stroke-width: 1.5; stroke-linecap: square"/>
    <g clip-path="url(#p7e4295e309)"/>
   </g>
   <g id="patch_16">
    <path d="M 73.44 99 
L 73.44 66.6 
" style="fill: none; stroke: #000000; stroke-width: 0.8; stroke-linejoin: miter; stroke-linecap: square"/>
   </g>
   <g id="patch_17">
    <path d="M 112.32 99 
L 112.32 66.6 
" style="fill: none; stroke: #000000; stroke-width: 0.8; stroke-linejoin: miter; stroke-linecap: square"/>
   </g>
   <g id="patch_18">
    <path d="M 73.44 99 
L 112.32 99 
" style="fill: none; stroke: #000000; stroke-width: 0.8; stroke-linejoin: miter; stroke-linecap: square"/>
   </g>
   <g id="patch_19">
    <path d="M 73.44 66.6 
L 112.32 66.6 
" style="fill: none; stroke: #000000; stroke-width: 0.8; stroke-linejoin: miter; stroke-linecap: square"/>
   </g>
  </g>
 </g>
 <defs>
  <clipPath id="p118e52abb7">
   <rect x="42.69125" y="0" width="170.56375" height="149.27875"/>
  </clipPath>
  <clipPath id="pefd1156b6f">
   <rect x="77.76" y="14.4" width="25.92" height="21.6"/>
  </clipPath>
  <clipPath id="p7e4295e309">
   <rect x="73.44" y="66.6" width="38.88" height="32.4"/>
  </clipPath>
 </defs>
</svg>
